<svg xmlns="http://www.w3.org/2000/svg" viewBox="0 0 603 819"><defs><style>.cls-1{fill:#282c34;}.cls-2{font-size:48px;}.cls-14,.cls-2,.cls-21{fill:#abb2bf;}.cls-14,.cls-2{font-family:Roboto-Light, Roboto;}.cls-3{letter-spacing:0.02em;}.cls-4{letter-spacing:-0.01em;}.cls-5{letter-spacing:-0.01em;}.cls-6{letter-spacing:-0.05em;}.cls-7{letter-spacing:-0.01em;}.cls-8{letter-spacing:-0.01em;}.cls-9{fill:#353b45;}.cls-10{fill:#ff8a65;}.cls-11{fill:#ffab91;}.cls-12{fill:#e64a19;}.cls-13{fill:#ff5722;}.cls-14{font-size:63.32px;}.cls-15{letter-spacing:-0.01em;}.cls-16{fill:#3e4451;}.cls-17{fill:#545862;}.cls-18{fill:#5c6670;}.cls-19{fill:#ff7043;}.cls-20{fill:#fff;}.cls-21{font-size:51.11px;font-family:Roboto-Regular, Roboto;}.cls-22{letter-spacing:-0.02em;}</style></defs><title>dark-theme</title><g id="BASE"><g id="background"><path class="cls-1" d="M603,819H0V8A8,8,0,0,1,8,0H595a8,8,0,0,1,8,8Z"/></g><g id="toolbar"><text class="cls-2" transform="translate(117.84 208.53)">Suppo<tspan class="cls-3" x="134.88" y="0">r</tspan><tspan x="152.2" y="0">t </tspan><tspan class="cls-4" x="179.3" y="0">r</tspan><tspan x="195" y="0">eddu</tspan><tspan class="cls-5" x="299.51" y="0">p</tspan><tspan class="cls-6" x="325.43" y="0">’</tspan><tspan x="331.34" y="0">s </tspan><tspan x="-48.18" y="57.6">D</tspan><tspan class="cls-7" x="-16.75" y="57.6">ev</tspan><tspan x="30.53" y="57.6">elopment and Get </tspan><tspan x="-48.39" y="115.2">Bonus </tspan><tspan class="cls-8" x="96.62" y="115.2">F</tspan><tspan x="123.13" y="115.2">eatu</tspan><tspan class="cls-4" x="215.43" y="115.2">r</tspan><tspan x="231.13" y="115.2">es for $1</tspan></text><path class="cls-9" d="M603,120H1V8A8,8,0,0,1,9,0H595a8,8,0,0,1,8,8Z"/><g id="s300"><polygon id="shape300" class="cls-10" points="168.98 50.64 170.39 49.24 152.4 31.96 150.19 31.96 150.19 69.32 168.98 50.64"/></g><g id="s200"><polygon id="shape200" class="cls-11" points="150.19 69.32 168.98 88 168.98 50.64 167.8 49.47 150.19 67.4 150.19 69.32"/></g><g id="s700"><polygon id="shape700" class="cls-12" points="187.76 31.96 185.13 31.96 167.45 49.12 168.98 50.64 206.55 50.64 187.76 31.96"/></g><g id="s500"><g id="shape500"><polygon class="cls-13" points="168.98 50.64 187.76 31.96 150.19 31.96 168.98 50.64"/></g></g><text class="cls-14" transform="translate(223.41 79.84)"><tspan class="cls-15">r</tspan><tspan x="20.71" y="0">eddup+</tspan></text></g></g><g id="DARK"><rect class="cls-16" x="62.5" y="382" width="478" height="374.47" rx="8" ry="8"/><g id="left-wing"><path class="cls-1" d="M182.31,596.06A88.19,88.19,0,0,0,115.2,700.57a90.06,90.06,0,0,1,97.91-6.75,89.56,89.56,0,0,1,53.4-35.13,90.58,90.58,0,0,1,19.56-2.16l-17.68-79.59-86.08,19.12Z"/><path class="cls-17" d="M193.27,606.09a88.2,88.2,0,0,0-69,88.49,90.09,90.09,0,0,1,88.87-.76,89.56,89.56,0,0,1,53.4-35.13,90.58,90.58,0,0,1,19.56-2.16L271,588.81l-77.75,17.28Z"/></g><g id="right-wing"><path class="cls-1" d="M384.72,551.09a88.18,88.18,0,0,1,105,66.26,90,90,0,0,0-91.55,35.35A89.63,89.63,0,0,0,335,643.48a90.65,90.65,0,0,0-18.63,6.33l-17.68-79.59,86.08-19.13Z"/><path class="cls-17" d="M379,564.82a88.2,88.2,0,0,1,100,50.93,90.06,90.06,0,0,0-80.83,37A89.63,89.63,0,0,0,335,643.48a90.65,90.65,0,0,0-18.63,6.33l-15-67.72L379,564.82Z"/></g><path class="cls-1" d="M328.65,551.8a48.79,48.79,0,1,0-88.47,37.26,12.55,12.55,0,0,0-1.25,8.75l11.46,51.57A48.62,48.62,0,0,0,271.87,680l3.29,14.8a9.47,9.47,0,1,0,18.49-4.11l-.74-3.36a48.72,48.72,0,0,0,30.25-6.72l.75,3.36a9.48,9.48,0,0,0,18.5-4.11L339.12,665a48.59,48.59,0,0,0,6.5-36.82l-11.46-51.57a12.51,12.51,0,0,0-4.83-7.39A48.88,48.88,0,0,0,328.65,551.8Z"/><circle class="cls-18" cx="252.06" cy="555.54" r="4.85"/><circle class="cls-18" cx="304.36" cy="543.92" r="4.85" transform="translate(-30.88 18.47) rotate(-3.31)"/><circle class="cls-19" cx="303.78" cy="543.43" r="7.45" transform="translate(-30.86 18.44) rotate(-3.31)"/><circle class="cls-19" cx="252.12" cy="555.73" r="7.45" transform="translate(-31.65 15.48) rotate(-3.31)"/><polygon class="cls-20" points="274.44 583.26 269.16 576.77 276.46 575.14 274.44 583.26"/><polygon class="cls-20" points="295.84 578.5 297.86 570.39 290.56 572.01 295.84 578.5"/><path class="cls-17" d="M286.71,563.92a6.93,6.93,0,0,1-9.51,2.29L273.58,564c-3.24-2-2.86-4.29.85-5.11l11-2.45c3.72-.82,5.13,1.16,3.15,4.4Z"/><path class="cls-1" d="M244.9,523.31c-3.09-13.95-18.23-22.45-18.23-22.45s-10.12,14.11-7,28.06,18.24,22.45,18.24,22.45S248,537.26,244.9,523.31Z"/><path class="cls-17" d="M239.25,524.57c-1.72-7.7-10.07-12.39-10.07-12.39s-5.58,7.78-3.87,15.48,10.06,12.39,10.06,12.39S241,532.27,239.25,524.57Z"/><path class="cls-1" d="M297.2,511.69c-3.09-13.95,7-28.06,7-28.06s15.14,8.5,18.24,22.45-7,28.06-7,28.06S300.3,525.64,297.2,511.69Z"/><path class="cls-17" d="M302.86,510.43c-1.71-7.7,3.87-15.48,3.87-15.48s8.36,4.69,10.07,12.39-3.87,15.48-3.87,15.48S304.57,518.13,302.86,510.43Z"/><text class="cls-21" transform="translate(164.62 447.08)">Dark<tspan class="cls-22" x="104.51" y="0"> </tspan><tspan x="116.16" y="0">Theme</tspan></text></g></svg>