<svg xmlns="http://www.w3.org/2000/svg" viewBox="0 0 190 190"><defs><style>.cls-1{fill:#282c34;}.cls-2{fill:#353b45;}.cls-3{fill:#ff8a65;}.cls-4{fill:#ffab91;}.cls-5{fill:#e64a19;}.cls-6{fill:#ff5722;}.cls-7{font-size:19.95px;}.cls-22,.cls-7,.cls-9{fill:#abb2bf;}.cls-7,.cls-9{font-family:Roboto-Light, Roboto;}.cls-8{letter-spacing:-0.01em;}.cls-9{font-size:17.39px;}.cls-10{letter-spacing:0.02em;}.cls-11{letter-spacing:-0.01em;}.cls-12{letter-spacing:-0.01em;}.cls-13{letter-spacing:-0.05em;}.cls-14{letter-spacing:0em;}.cls-15{letter-spacing:-0.01em;}.cls-16{letter-spacing:-0.01em;}.cls-17{fill:#3e4451;}.cls-18{fill:#545862;}.cls-19{fill:#5c6670;}.cls-20{fill:#ff7043;}.cls-21{fill:#fff;}.cls-22{font-size:16.1px;font-family:Roboto-Regular, Roboto;}.cls-23{letter-spacing:-0.02em;}</style></defs><title>dark-theme</title><g id="BASE"><g id="background"><path class="cls-1" d="M190,190H0V8A8,8,0,0,1,8,0H182a8,8,0,0,1,8,8Z"/></g><g id="toolbar"><path class="cls-2" d="M190,37.81H.32V8a8,8,0,0,1,8-8H182a8,8,0,0,1,8,8Z"/><g id="s300"><polygon id="shape300" class="cls-3" points="53.24 15.96 53.69 15.51 48.02 10.07 47.32 10.07 47.32 21.84 53.24 15.96"/></g><g id="s200"><polygon id="shape200" class="cls-4" points="47.32 21.84 53.24 27.73 53.24 15.96 52.87 15.59 47.32 21.24 47.32 21.84"/></g><g id="s700"><polygon id="shape700" class="cls-5" points="59.16 10.07 58.33 10.07 52.76 15.48 53.24 15.96 65.08 15.96 59.16 10.07"/></g><g id="s500"><g id="shape500"><polygon class="cls-6" points="53.24 15.96 59.16 10.07 47.32 10.07 53.24 15.96"/></g></g><text class="cls-7" transform="translate(70.4 25.16)"><tspan class="cls-8">r</tspan><tspan x="6.53" y="0">eddup+</tspan></text></g></g><g id="PLUS"><text class="cls-9" transform="translate(28.47 63.66)">Suppo<tspan class="cls-10" x="48.86" y="0">r</tspan><tspan x="55.14" y="0">t </tspan><tspan class="cls-11" x="64.95" y="0">r</tspan><tspan x="70.64" y="0">eddu</tspan><tspan class="cls-12" x="108.5" y="0">p</tspan><tspan class="cls-13" x="117.89" y="0">’</tspan><tspan class="cls-14" x="120.03" y="0">s </tspan><tspan x="16.38" y="20.87">D</tspan><tspan class="cls-15" x="27.77" y="20.87">ev</tspan><tspan x="44.89" y="20.87">elopment</tspan><tspan x="-8.33" y="62.6">Get Bonus </tspan><tspan class="cls-16" x="74.88" y="62.6">F</tspan><tspan x="84.48" y="62.6">eatu</tspan><tspan class="cls-11" x="117.92" y="62.6">r</tspan><tspan x="123.6" y="62.6">es</tspan><tspan x="64.42" y="83.46"> </tspan><tspan class="cls-16" x="23.31" y="104.33">F</tspan><tspan x="32.92" y="104.33">or Just $1</tspan></text></g><g id="DARK"><rect class="cls-17" x="19.69" y="51.36" width="150.61" height="117.99" rx="8" ry="8"/><g id="left-wing"><path class="cls-1" d="M57.44,118.81A27.79,27.79,0,0,0,36.3,151.74a28.36,28.36,0,0,1,30.85-2.12,28.4,28.4,0,0,1,23-11.75l-5.57-25.08-27.13,6Z"/><path class="cls-18" d="M60.9,122a27.8,27.8,0,0,0-21.75,27.89,28.32,28.32,0,0,1,28-.24,28.4,28.4,0,0,1,23-11.75L85.4,116.53,60.9,122Z"/></g><g id="right-wing"><path class="cls-1" d="M121.22,104.64a27.79,27.79,0,0,1,33.1,20.88,28.39,28.39,0,0,0-28.85,11.14,28.21,28.21,0,0,0-19.93-2.9,27.79,27.79,0,0,0-5.87,2L94.1,110.67l27.12-6Z"/><path class="cls-18" d="M119.43,109a27.78,27.78,0,0,1,31.51,16,28.38,28.38,0,0,0-25.47,11.64,28.21,28.21,0,0,0-19.93-2.9,27.79,27.79,0,0,0-5.87,2l-4.74-21.34,24.5-5.44Z"/></g><path class="cls-1" d="M103.55,104.87a15.37,15.37,0,1,0-27.87,11.74,3.88,3.88,0,0,0-.39,2.75l3.61,16.25a15.34,15.34,0,0,0,6.76,9.65l1,4.66a3,3,0,1,0,5.83-1.3l-.24-1.06a15.31,15.31,0,0,0,4.94-.28,15.48,15.48,0,0,0,4.6-1.83l.23,1.06a3,3,0,0,0,5.83-1.3l-1-4.66A15.32,15.32,0,0,0,108.9,129l-3.61-16.25a4,4,0,0,0-1.52-2.33A15.28,15.28,0,0,0,103.55,104.87Z"/><circle class="cls-19" cx="79.42" cy="106.05" r="1.53"/><circle class="cls-19" cx="95.9" cy="102.38" r="1.53"/><circle id="right-eye" class="cls-20" cx="95.72" cy="102.23" r="2.35"/><circle id="left-eye" class="cls-20" cx="79.44" cy="106.11" r="2.35"/><polygon class="cls-21" points="86.47 114.78 84.81 112.73 87.11 112.22 86.47 114.78"/><polygon class="cls-21" points="93.22 113.28 93.85 110.72 91.55 111.24 93.22 113.28"/><path class="cls-18" d="M90.34,108.69a2.2,2.2,0,0,1-3,.72l-1.14-.7c-1-.62-.9-1.35.27-1.61l3.47-.77c1.17-.26,1.62.36,1,1.39Z"/><path class="cls-1" d="M77.17,95.89c-1-4.39-5.75-7.07-5.75-7.07s-3.19,4.44-2.21,8.84S75,104.73,75,104.73,78.14,100.28,77.17,95.89Z"/><path class="cls-18" d="M75.38,96.29c-.53-2.43-3.17-3.91-3.17-3.91S70.45,94.84,71,97.26s3.17,3.91,3.17,3.91S75.92,98.71,75.38,96.29Z"/><path class="cls-1" d="M93.65,92.23c-1-4.4,2.21-8.84,2.21-8.84s4.77,2.68,5.74,7.07-2.21,8.84-2.21,8.84S94.62,96.62,93.65,92.23Z"/><path class="cls-18" d="M95.43,91.83C94.89,89.41,96.65,87,96.65,87s2.63,1.48,3.17,3.91-1.22,4.88-1.22,4.88S96,94.26,95.43,91.83Z"/><text class="cls-22" transform="translate(51.87 71.87)">Dark<tspan class="cls-23" x="32.93" y="0"> </tspan><tspan x="36.6" y="0">Theme</tspan></text></g></svg>