<?xml version="1.0" encoding="utf-8"?>
<!-- Generator: Adobe Illustrator 22.0.1, SVG Export Plug-In . SVG Version: 6.00 Build 0)  -->
<svg version="1.1" id="Layer_1" xmlns="http://www.w3.org/2000/svg" xmlns:xlink="http://www.w3.org/1999/xlink" x="0px" y="0px"
	 viewBox="0 0 85.2 23.8" style="enable-background:new 0 0 85.2 23.8;" xml:space="preserve">
<style type="text/css">
	.st0{display:none;}
	.st1{display:inline;fill:#019CDE;}
	.st2{display:inline;}
	.st3{clip-path:url(#SVGID_2_);}
	.st4{fill:#003087;}
	.st5{display:none;fill:#003087;}
	.st6{fill:#A9D2FC;}
	.st7{fill:#DEEAFF;}
	.st8{fill:#179BD7;}
	.st9{fill:#222D65;}
	.st10{fill:#253B80;}
	.st11{display:none;fill:#253B80;}
</style>
<g id="Layer_2_1_" class="st0">
	<rect x="0" y="-0.2" class="st1" width="76.8" height="24"/>
</g>
<g id="Layer_1_1_" class="st0">
	<title>paypal_reddup</title>
	<g id="Layer_1-2" class="st2">
		<g>
			<g>
				<defs>
					<rect id="SVGID_1_" x="-228.1" y="-74.5" width="539.1" height="175.1"/>
				</defs>
				<clipPath id="SVGID_2_">
					<use xlink:href="#SVGID_1_"  style="overflow:visible;"/>
				</clipPath>
				<g class="st3">
					<path class="st4" d="M16.3,3.7c-0.9-1-2.6-1.4-4.7-1.4H5.4C5,2.2,4.6,2.5,4.6,2.9L2,19.2c0,0.3,0.1,0.6,0.4,0.6h4l1-6v0.1
						c0.1-0.4,0.4-0.7,0.9-0.7h1.9c3.6,0,6.3-1.4,7.2-5.6V7.2C17.3,5.7,17.2,4.7,16.3,3.7"/>
					<path class="st5" d="M16.3,3.7c-0.9-1-2.6-1.4-4.7-1.4H5.4C5,2.2,4.6,2.5,4.6,2.9L2,19.2c0,0.3,0.1,0.6,0.4,0.6h4l1-6v0.1
						c0.1-0.4,0.4-0.7,0.9-0.7h1.9c3.6,0,6.3-1.4,7.2-5.6V7.2C17.3,5.7,17.2,4.7,16.3,3.7"/>
					<path class="st4" d="M8.3,7.2c0-0.4,0.3-0.7,0.7-0.7h4.9c0.5,0,1.1,0,1.6,0.1c0.2,0.1,0.5,0.2,0.8,0.2c0.3,0.1,0.6,0.1,0.9,0.3
						c0.3-1.3,0-2.6-0.9-3.6s-2.6-1.4-4.7-1.4H5.4C5,2.1,4.6,2.4,4.6,2.8L2,19.1c0,0.3,0.1,0.6,0.4,0.6h4l1-6L8.3,7.2z"/>
					<path class="st6" d="M17.2,7.2v0.4c-0.9,4.1-3.6,5.6-7.2,5.6H8.1c-0.4,0-0.8,0.3-0.9,0.7l-0.8,5.9l-0.3,1.7
						c0,0.3,0.1,0.4,0.4,0.6h3.3c0.4,0,0.7-0.3,0.7-0.7v-0.1l0.6-3.9v-0.1c0-0.4,0.3-0.7,0.7-0.7h0.4c3.1,0,5.6-1.3,6.3-4.9
						c0.3-1.6,0.1-2.9-0.6-3.7C17.7,7.7,17.5,7.5,17.2,7.2"/>
					<path class="st7" d="M16.3,6.8c-0.2,0-0.3,0-0.4-0.1c-0.1-0.1-0.3,0-0.4-0.1c-0.5-0.1-1-0.2-1.6-0.1H9c-0.4,0-0.7,0.3-0.7,0.7
						l-1,6.7V14c0.1-0.4,0.4-0.7,0.9-0.7H10c3.6,0,6.3-1.4,7.2-5.6V7.2c-0.1-0.1-0.4-0.1-0.7-0.3C16.4,7,16.4,6.9,16.3,6.8"/>
				</g>
			</g>
		</g>
	</g>
	<g class="st2">
		<path d="M25.5,16.7V4.8h3.4c1,0,2,0.2,2.7,0.7c0.8,0.5,1.4,1.1,1.8,2s0.7,1.8,0.7,2.9v0.8c0,1.1-0.2,2.1-0.7,3
			c-0.4,0.8-1.1,1.5-1.9,1.9c-0.8,0.5-1.7,0.7-2.8,0.7h-3.2V16.7z M27.1,6v9.3h1.7c1.2,0,2.2-0.4,2.8-1.1c0.7-0.8,1-1.8,1-3.2v-0.7
			c0-1.4-0.3-2.4-1-3.2S30.1,6,28.9,6C28.9,6,27.1,6,27.1,6z"/>
		<path d="M35.9,12.2c0-0.9,0.2-1.6,0.5-2.3s0.8-1.2,1.4-1.6c0.6-0.4,1.3-0.6,2.1-0.6c1.2,0,2.2,0.4,2.9,1.3s1.1,1.9,1.1,3.3v0.1
			c0,0.9-0.2,1.6-0.5,2.3s-0.8,1.2-1.4,1.6c-0.6,0.4-1.3,0.6-2.1,0.6c-1.2,0-2.2-0.4-2.9-1.3c-0.7-0.8-1.1-1.9-1.1-3.3V12.2z
			 M37.4,12.3c0,1,0.2,1.8,0.7,2.4c0.5,0.6,1.1,0.9,1.8,0.9c0.8,0,1.4-0.3,1.8-0.9c0.5-0.6,0.7-1.4,0.7-2.5c0-1-0.2-1.8-0.7-2.4
			c-0.5-0.6-1.1-0.9-1.8-0.9s-1.3,0.3-1.8,0.9C37.6,10.4,37.4,11.2,37.4,12.3z"/>
		<path d="M47.3,7.8v1.1C48,8.1,48.9,7.6,50,7.6c1.9,0,2.8,1.1,2.8,3.2v5.8h-1.5v-5.8c0-0.6-0.2-1.1-0.4-1.4
			c-0.3-0.3-0.7-0.5-1.3-0.5c-0.5,0-0.9,0.1-1.3,0.4c-0.4,0.3-0.7,0.6-0.9,1v6.3h-1.5V7.8H47.3z"/>
		<path d="M60.5,16.7c-0.1-0.2-0.2-0.5-0.2-0.9c-0.7,0.7-1.5,1.1-2.5,1.1c-0.9,0-1.6-0.2-2.1-0.7c-0.6-0.5-0.8-1.1-0.8-1.9
			c0-0.9,0.4-1.6,1.1-2.1c0.7-0.5,1.7-0.8,3-0.8h1.5v-0.7c0-0.5-0.2-1-0.5-1.3s-0.8-0.5-1.4-0.5c-0.5,0-1,0.1-1.4,0.4
			c-0.4,0.3-0.5,0.6-0.5,1H55c0-0.4,0.2-0.9,0.5-1.3s0.7-0.7,1.3-1c0.5-0.2,1.1-0.4,1.8-0.4c1,0,1.8,0.3,2.4,0.8s0.9,1.2,0.9,2.1
			v4.1c0,0.8,0.1,1.5,0.3,1.9v0.1h-1.7V16.7z M58,15.5c0.5,0,0.9-0.1,1.4-0.4c0.4-0.2,0.7-0.6,0.9-1v-1.8h-1.2
			c-1.9,0-2.8,0.5-2.8,1.6c0,0.5,0.2,0.8,0.5,1.1C57.1,15.4,57.5,15.5,58,15.5z"/>
		<path d="M66.2,5.7v2.1h1.7V9h-1.7v5.5c0,0.4,0.1,0.6,0.2,0.8s0.4,0.3,0.8,0.3c0.2,0,0.4,0,0.7-0.1v1.2c-0.4,0.1-0.8,0.1-1.1,0.1
			c-0.7,0-1.2-0.2-1.5-0.6s-0.5-1-0.5-1.7V9h-1.6V7.8h1.6V5.7H66.2z"/>
		<path d="M73.3,16.8c-1.2,0-2.2-0.4-2.9-1.2c-0.8-0.8-1.1-1.8-1.1-3.2v-0.3c0-0.9,0.2-1.7,0.5-2.4s0.8-1.2,1.4-1.6
			c0.6-0.4,1.3-0.6,2-0.6c1.2,0,2,0.4,2.7,1.1c0.6,0.8,1,1.8,1,3.3v0.6h-6c0,0.9,0.3,1.6,0.8,2.1c0.5,0.5,1.1,0.8,1.9,0.8
			c0.5,0,1-0.1,1.4-0.3s0.7-0.5,1-0.9l0.9,0.7C75.9,16.3,74.8,16.8,73.3,16.8z M73.1,8.9c-0.6,0-1.1,0.2-1.5,0.7
			c-0.4,0.4-0.7,1.1-0.8,1.9h4.4v-0.1c0-0.8-0.3-1.4-0.6-1.8C74.3,9.1,73.8,8.9,73.1,8.9z"/>
	</g>
</g>
<path class="st8" d="M18.2,6L18.2,6L18.2,6c0,0.1,0,0.3-0.1,0.4c-1,5-4.3,6.7-8.6,6.7H7.3c-0.5,0-1,0.4-1,0.9l0,0l0,0l-1.1,7l-0.3,2
	c-0.1,0.3,0.2,0.6,0.5,0.6h3.8c0.5,0,0.8-0.3,0.9-0.8l0-0.2l0.7-4.6l0-0.3c0.1-0.5,0.5-0.8,0.9-0.8h0.6c3.7,0,6.6-1.5,7.5-5.9
	c0.4-1.8,0.2-3.4-0.8-4.4C18.9,6.5,18.6,6.3,18.2,6z"/>
<path class="st9" d="M17.1,5.6c-0.1,0-0.3-0.1-0.5-0.1c-0.2,0-0.3-0.1-0.5-0.1c-0.6-0.1-1.2-0.1-1.9-0.1H8.5c-0.1,0-0.3,0-0.4,0.1
	C7.8,5.5,7.6,5.8,7.6,6.1l-1.2,7.8l0,0.2c0.1-0.5,0.5-0.9,1-0.9h2.2c4.3,0,7.6-1.7,8.6-6.7c0-0.1,0.1-0.3,0.1-0.4
	c-0.2-0.1-0.5-0.2-0.8-0.3C17.3,5.7,17.2,5.7,17.1,5.6z"/>
<path class="st10" d="M7.6,6.1c0-0.3,0.2-0.6,0.5-0.7c0.1-0.1,0.3-0.1,0.4-0.1h5.8c0.7,0,1.3,0,1.9,0.1c0.2,0,0.3,0.1,0.5,0.1
	c0.2,0,0.3,0.1,0.5,0.1c0.1,0,0.1,0,0.2,0.1c0.3,0.1,0.6,0.2,0.8,0.3c0.3-1.8,0-3.1-1-4.2C16.1,0.5,14.1,0,11.5,0H4.1
	c-0.5,0-1,0.4-1,0.9L0,20.4c-0.1,0.4,0.2,0.7,0.6,0.7h4.6l1.1-7.3L7.6,6.1z"/>
<path class="st11" d="M6.7,21.9l0.4-2.3l-0.8,0H2.5L5.1,2.9c0-0.1,0-0.1,0.1-0.1c0,0,0.1-0.1,0.1-0.1h6.4c2.1,0,3.6,0.4,4.4,1.3
	c0.4,0.4,0.6,0.8,0.7,1.3c0.1,0.5,0.1,1.1,0,1.8l0,0.1v0.5l0.4,0.2c0.3,0.2,0.5,0.3,0.7,0.6c0.3,0.4,0.5,0.8,0.6,1.3
	c0.1,0.5,0.1,1.2-0.1,1.9c-0.2,0.8-0.4,1.6-0.8,2.2c-0.3,0.6-0.7,1-1.2,1.4c-0.5,0.3-1,0.6-1.7,0.8c-0.6,0.2-1.3,0.2-2.1,0.2h-0.5
	c-0.4,0-0.7,0.1-1,0.4c-0.3,0.2-0.5,0.6-0.5,0.9l0,0.2l-0.6,4l0,0.1c0,0,0,0.1,0,0.1c0,0,0,0-0.1,0C9.8,21.9,6.7,21.9,6.7,21.9z"/>
<g>
	<path d="M25.6,14.4c0.7,0.4,1.7,0.8,2.8,0.8c1.6,0,2.5-0.8,2.5-2.1c0-1.1-0.6-1.8-2.3-2.4c-2-0.7-3.2-1.7-3.2-3.4
		c0-1.9,1.6-3.3,3.9-3.3c1.2,0,2.1,0.3,2.7,0.6l-0.4,1.3c-0.4-0.2-1.2-0.6-2.3-0.6c-1.7,0-2.3,1-2.3,1.8c0,1.1,0.7,1.7,2.4,2.3
		c2.1,0.8,3.1,1.8,3.1,3.6c0,1.9-1.4,3.5-4.2,3.5c-1.2,0-2.4-0.3-3.1-0.8L25.6,14.4z"/>
	<path d="M42,13.9c0,0.9,0,1.7,0.1,2.4h-1.4l-0.1-1.4h0c-0.4,0.7-1.3,1.6-2.9,1.6c-1.4,0-3-0.8-3-3.8V7.6h1.6v4.8
		c0,1.7,0.5,2.8,1.9,2.8c1.1,0,1.8-0.7,2.1-1.4c0.1-0.2,0.1-0.5,0.1-0.8V7.6H42V13.9z"/>
	<path d="M44.6,10.4c0-1.1,0-2-0.1-2.8h1.4L46,9.1h0c0.6-1.1,1.7-1.7,3.1-1.7c2.1,0,3.7,1.8,3.7,4.4c0,3.1-1.9,4.7-4,4.7
		c-1.2,0-2.2-0.5-2.7-1.4h0v4.7h-1.6V10.4z M46.2,12.7c0,0.2,0,0.5,0.1,0.6c0.3,1.1,1.2,1.9,2.4,1.9c1.7,0,2.6-1.4,2.6-3.4
		c0-1.7-0.9-3.2-2.6-3.2c-1.1,0-2.1,0.8-2.4,2c-0.1,0.2-0.1,0.4-0.1,0.6V12.7z"/>
	<path d="M54.8,10.4c0-1.1,0-2-0.1-2.8h1.4l0.1,1.5h0C56.9,8,58,7.4,59.4,7.4c2.1,0,3.7,1.8,3.7,4.4c0,3.1-1.9,4.7-4,4.7
		c-1.2,0-2.2-0.5-2.7-1.4h0v4.7h-1.6V10.4z M56.4,12.7c0,0.2,0,0.5,0.1,0.6c0.3,1.1,1.2,1.9,2.4,1.9c1.7,0,2.6-1.4,2.6-3.4
		c0-1.7-0.9-3.2-2.6-3.2c-1.1,0-2.1,0.8-2.4,2c-0.1,0.2-0.1,0.4-0.1,0.6V12.7z"/>
	<path d="M73,11.8c0,3.2-2.2,4.6-4.3,4.6c-2.4,0-4.2-1.7-4.2-4.5c0-2.9,1.9-4.6,4.3-4.6C71.3,7.4,73,9.2,73,11.8z M66.1,11.9
		c0,1.9,1.1,3.3,2.6,3.3c1.5,0,2.6-1.4,2.6-3.4c0-1.5-0.7-3.3-2.6-3.3C66.9,8.5,66.1,10.3,66.1,11.9z"/>
	<path d="M75,10.3c0-1,0-1.9-0.1-2.7h1.4l0.1,1.7h0.1c0.4-1.2,1.4-1.9,2.4-1.9c0.2,0,0.3,0,0.5,0.1v1.5c-0.2,0-0.3-0.1-0.5-0.1
		c-1.1,0-1.9,0.8-2.1,2c0,0.2-0.1,0.5-0.1,0.7v4.6H75V10.3z"/>
	<path d="M83.2,5.1v2.5h2.3v1.2h-2.3v4.7c0,1.1,0.3,1.7,1.2,1.7c0.4,0,0.7-0.1,0.9-0.1l0.1,1.2c-0.3,0.1-0.8,0.2-1.4,0.2
		c-0.7,0-1.3-0.2-1.7-0.7c-0.5-0.5-0.6-1.2-0.6-2.3V8.8h-1.4V7.6h1.4V5.5L83.2,5.1z"/>
</g>
</svg>
