<svg id="Layer_1" data-name="Layer 1" xmlns="http://www.w3.org/2000/svg" xmlns:xlink="http://www.w3.org/1999/xlink" viewBox="0 0 265.96 29.57"><defs><style>.cls-1{fill:none;}.cls-2{clip-path:url(#clip-path);}.cls-3{fill:#fff;}.cls-4{fill:#003087;}.cls-5{fill:#012169;}</style><clipPath id="clip-path" transform="translate(-18.54 -20.5)"><rect class="cls-1" x="-193.49" y="-52.39" width="539.12" height="175.07"/></clipPath></defs><title>paypal_reddup</title><g id="Layer_1-2" data-name="Layer 1"><g class="cls-2"><path class="cls-3" d="M106.81,34c-.42,2.28-2.08,2.28-3.74,2.28h-.83l.62-4.15a.45.45,0,0,1,.42-.42h.41a3.73,3.73,0,0,1,2.7.63,1.51,1.51,0,0,1,.42,1.66m-.63-5.82H100c-.41,0-.83.21-.83.63L96.63,44.59c0,.21.21.62.42.62h3.11c.21,0,.62-.21.62-.41l.63-4.57c0-.42.41-.62.83-.62h1.87c4.15,0,6.43-1.87,7.06-5.82.21-1.66,0-3.11-.83-3.95-.63-1-2.08-1.66-4.16-1.66" transform="translate(-18.54 -20.5)"/><path class="cls-4" d="M39.31,22.78c-1.24-1.45-3.74-2.07-6.85-2.07H23.53a1.16,1.16,0,0,0-1.25,1L18.54,45.42c0,.42.21.83.63.83H25l1.46-8.72v.21a1.16,1.16,0,0,1,1.24-1h2.7c5.19,0,9.14-2.08,10.39-8.1V28c0-2.29-.21-3.74-1.46-5.2" transform="translate(-18.54 -20.5)"/><path class="cls-3" d="M120.51,39.81a3.35,3.35,0,0,1-3.32,2.91,2.69,2.69,0,0,1-2.08-.83,2.29,2.29,0,0,1-.41-2.08,3.35,3.35,0,0,1,3.32-2.9,2,2,0,0,1,1.87.83,1.87,1.87,0,0,1,.62,2.07M124.67,34h-2.91a.45.45,0,0,0-.42.41l-.2.83-.21-.2a4.57,4.57,0,0,0-3.53-1.25,6.89,6.89,0,0,0-6.65,6,6.82,6.82,0,0,0,1,4.57,4.72,4.72,0,0,0,3.74,1.46,5.72,5.72,0,0,0,4.15-1.67l-.21.83c0,.21.21.63.42.63h2.7c.42,0,.83-.21.83-.63l1.66-10.17c0-.62-.21-.83-.41-.83h0" transform="translate(-18.54 -20.5)"/><path class="cls-4" d="M62.78,34c-.42,2.28-2.08,2.28-3.74,2.28h-.83l.62-4.15a.45.45,0,0,1,.42-.42h.41a3.73,3.73,0,0,1,2.7.63A1.49,1.49,0,0,1,62.78,34m-.62-5.82H55.93c-.42,0-.83.21-.83.63L52.6,44.59c0,.21.21.62.42.62h2.91c.41,0,.83-.21.83-.62l.62-4.36c0-.42.42-.62.83-.62h1.87c4.15,0,6.44-1.87,7.06-5.82.21-1.66,0-3.11-.83-3.95-.62-1-2.08-1.66-4.15-1.66M76.49,39.81a3.37,3.37,0,0,1-3.33,2.91,2.66,2.66,0,0,1-2.07-.83,2.26,2.26,0,0,1-.42-2.08A3.35,3.35,0,0,1,74,36.91a2,2,0,0,1,1.87.83c.63.41.63,1.24.63,2.07M80.64,34H77.73a.44.44,0,0,0-.41.41l-.21.83L76.9,35a4.57,4.57,0,0,0-3.53-1.25,6.88,6.88,0,0,0-5.61,10.59,4.72,4.72,0,0,0,3.74,1.46,5.75,5.75,0,0,0,4.16-1.67l-.21.83c0,.21.21.63.41.63h2.7c.42,0,.83-.21.83-.63l1.66-10.17c0-.62-.2-.83-.41-.83h0" transform="translate(-18.54 -20.5)"/><path class="cls-3" d="M128.2,28.6l-2.5,16.2c0,.2.21.62.42.62h2.49c.42,0,.83-.21.83-.62L131.94,29c0-.2-.21-.62-.42-.62h-2.91c-.21-.21-.41,0-.41.21" transform="translate(-18.54 -20.5)"/><path class="cls-4" d="M96.42,34h-2.9c-.21,0-.63.21-.63.41l-4.15,6-1.87-5.82c-.21-.41-.42-.62-.83-.62H83.13a.44.44,0,0,0-.41.41v.21L86,44.17l-3.12,4.37c-.2.2-.2.62.21.62h3.12c.2,0,.62-.21.62-.42l10-14.33c.21-.2.21-.62-.21-.62a.21.21,0,0,1-.21.21" transform="translate(-18.54 -20.5)"/><path class="cls-4" d="M39.31,22.78c-1.24-1.45-3.74-2.07-6.85-2.07H23.53a1.16,1.16,0,0,0-1.25,1L18.54,45.42c0,.42.21.83.63.83H25l1.46-8.72v.21a1.16,1.16,0,0,1,1.24-1h2.7c5.19,0,9.14-2.08,10.39-8.1V28c0-2.29-.21-3.74-1.46-5.2" transform="translate(-18.54 -20.5)"/><path class="cls-4" d="M27.68,28a1.11,1.11,0,0,1,1-1h7.06a8.14,8.14,0,0,1,2.29.2c.41,0,.83.21,1.24.21.42.21.83.21,1.25.42a5.57,5.57,0,0,0-1.25-5.19c-1.24-1.46-3.74-2.08-6.85-2.08H23.53a1.16,1.16,0,0,0-1.25,1L18.54,45.21c0,.42.21.83.63.83H25l1.46-8.72Z" transform="translate(-18.54 -20.5)"/><path class="cls-3" d="M40.56,28v.62c-1.25,6-5.19,8.1-10.39,8.1h-2.7a1.16,1.16,0,0,0-1.24,1L25,46.25l-.41,2.49c0,.42.2.63.62.83H30a1,1,0,0,0,1-1v-.21l.83-5.61v-.21a1.11,1.11,0,0,1,1-1h.63c4.57,0,8.1-1.86,9.13-7.06.42-2.28.21-4.15-.83-5.4a5.37,5.37,0,0,0-1.24-1" transform="translate(-18.54 -20.5)"/><path class="cls-5" d="M39.31,27.35a.75.75,0,0,1-.62-.21c-.21-.2-.42,0-.62-.2a7.77,7.77,0,0,0-2.29-.21H28.72a1,1,0,0,0-1,1l-1.45,9.76v.21a1.16,1.16,0,0,1,1.24-1h2.7c5.2,0,9.14-2.08,10.39-8.1V28c-.21-.21-.62-.21-1-.42a.21.21,0,0,1-.21-.21" transform="translate(-18.54 -20.5)"/></g></g><path class="cls-3" d="M150.32,48.43a5,5,0,0,0,3.51-1.49,4.89,4.89,0,0,0,1.61-3.63v-.9a7.75,7.75,0,0,1-5.12,2.28,6.75,6.75,0,0,1-4.77-11.53,6.49,6.49,0,0,1,4.77-2,6.74,6.74,0,0,1,6.76,6.73v5.4a6.38,6.38,0,0,1-2.14,4.77,6.51,6.51,0,0,1-4.62,2A6.58,6.58,0,0,1,144.37,47a.79.79,0,0,1-.09-.7.76.76,0,0,1,.49-.5h0a.76.76,0,0,1,.95.32A5.1,5.1,0,0,0,150.32,48.43Zm5.12-10.57a5.14,5.14,0,0,0-5.12-5,5.12,5.12,0,1,0,5.12,5.11Z" transform="translate(-18.54 -20.5)"/><path class="cls-3" d="M172.19,35.13a.75.75,0,0,1,0,.62.79.79,0,0,1-.42.44L167,38.37l-5.26,2.36a5.36,5.36,0,0,0,4.34,2.36,5,5,0,0,0,3-1,5,5,0,0,0,1.81-2.46.78.78,0,0,1,.79-.55.79.79,0,0,1,.76,1.07A6.54,6.54,0,0,1,170,43.42a6.71,6.71,0,0,1-3.95,1.27,6.75,6.75,0,0,1-4.78-11.53,6.51,6.51,0,0,1,4.78-2,6.73,6.73,0,0,1,6.13,4Zm-6.13-2.29a4.92,4.92,0,0,0-3.63,1.51A5,5,0,0,0,160.94,38a9.34,9.34,0,0,0,.13,1.27l9.23-4.17A5.44,5.44,0,0,0,166.06,32.84Z" transform="translate(-18.54 -20.5)"/><path class="cls-3" d="M175.67,25.81a.81.81,0,0,1,.57.23.79.79,0,0,1,.23.57v4.57h2.75a.74.74,0,0,1,.56.24A.76.76,0,0,1,180,32v0a.76.76,0,0,1-.24.56.74.74,0,0,1-.56.24h-2.75v8.54a1.71,1.71,0,0,0,1.7,1.69h1.05a.74.74,0,0,1,.56.24.76.76,0,0,1,.24.57v0a.76.76,0,0,1-.24.56.74.74,0,0,1-.56.24h-1.05a3.31,3.31,0,0,1-3.33-3.33V26.61a.79.79,0,0,1,.23-.57.81.81,0,0,1,.57-.23Z" transform="translate(-18.54 -20.5)"/><g id="reddup"><path class="cls-3" d="M194.68,31.18a.75.75,0,0,1,.57.24.79.79,0,0,1,.23.57v0a.8.8,0,0,1-.8.8h-.75a3.22,3.22,0,0,0-2.37,1,3.31,3.31,0,0,0-1,2.37v7.72a.8.8,0,0,1-.8.8h0a.77.77,0,0,1-.56-.24.75.75,0,0,1-.23-.56V36.17a4.93,4.93,0,0,1,1.45-3.54,4.79,4.79,0,0,1,3.53-1.45Z" transform="translate(-18.54 -20.5)"/><path class="cls-3" d="M209.42,35.13a.79.79,0,0,1-.4,1.06l-4.81,2.18-5.27,2.36a5.38,5.38,0,0,0,4.34,2.36,5.11,5.11,0,0,0,4.83-3.44.76.76,0,0,1,.78-.55.79.79,0,0,1,.67.34.74.74,0,0,1,.09.73,6.54,6.54,0,0,1-2.42,3.25,6.69,6.69,0,0,1-3.95,1.27,6.75,6.75,0,0,1-4.78-11.53,6.51,6.51,0,0,1,4.78-2,6.62,6.62,0,0,1,3.69,1.1A6.77,6.77,0,0,1,209.42,35.13Zm-6.14-2.29A5.12,5.12,0,0,0,198.16,38a9.34,9.34,0,0,0,.13,1.27l9.23-4.17A5.44,5.44,0,0,0,203.28,32.84Z" transform="translate(-18.54 -20.5)"/><path class="cls-3" d="M224.37,25.81a.81.81,0,0,1,.57.23.79.79,0,0,1,.23.57V38a6.75,6.75,0,1,1-6.75-6.79,7.77,7.77,0,0,1,5.12,2.28V26.61a.79.79,0,0,1,.23-.57.81.81,0,0,1,.57-.23Zm-9.58,8.54a5.12,5.12,0,0,0,3.63,8.74,4.87,4.87,0,0,0,3.61-1.5,5.09,5.09,0,0,0,0-7.24,4.84,4.84,0,0,0-3.61-1.51A5,5,0,0,0,214.79,34.35Z" transform="translate(-18.54 -20.5)"/><path class="cls-3" d="M240.11,25.81a.8.8,0,0,1,.56.23.75.75,0,0,1,.23.57V38a6.75,6.75,0,1,1-6.75-6.79,7.77,7.77,0,0,1,5.12,2.28V26.61a.79.79,0,0,1,.23-.57.81.81,0,0,1,.57-.23Zm-9.58,8.54a5.12,5.12,0,0,0,3.62,8.74,4.87,4.87,0,0,0,3.61-1.5,5.09,5.09,0,0,0,0-7.24,4.84,4.84,0,0,0-3.61-1.51A4.91,4.91,0,0,0,230.53,34.35Z" transform="translate(-18.54 -20.5)"/><path class="cls-3" d="M245.16,39.15a3.91,3.91,0,1,0,7.81,0V32a.82.82,0,0,1,.81-.81h0a.82.82,0,0,1,.8.81v7.16a5.57,5.57,0,0,1-5.54,5.54,5.55,5.55,0,0,1-5.55-5.54V32a.76.76,0,0,1,.24-.57.74.74,0,0,1,.56-.24h0a.74.74,0,0,1,.56.24.76.76,0,0,1,.24.57Z" transform="translate(-18.54 -20.5)"/><path class="cls-3" d="M258,50.07a.77.77,0,0,1-.56-.24.76.76,0,0,1-.24-.56V37.91A6.74,6.74,0,0,1,264,31.18a6.76,6.76,0,0,1,4.78,11.53,6.51,6.51,0,0,1-4.78,2,7.73,7.73,0,0,1-5.12-2.28v6.86a.8.8,0,0,1-.8.8Zm9.57-8.55A5.09,5.09,0,1,0,264,43,4.94,4.94,0,0,0,267.59,41.52Z" transform="translate(-18.54 -20.5)"/><path class="cls-3" d="M279.23,34.43h4.46a.74.74,0,0,1,.57.23.78.78,0,0,1,.24.58v0a.8.8,0,0,1-.81.8h-4.46v4.47a.82.82,0,0,1-.82.81h0a.74.74,0,0,1-.56-.24.78.78,0,0,1-.24-.57V36.06H273.1a.77.77,0,0,1-.56-.23.78.78,0,0,1-.24-.57v0a.78.78,0,0,1,.24-.58.73.73,0,0,1,.56-.23h4.49V29.94a.78.78,0,0,1,.24-.57.77.77,0,0,1,.56-.23h0a.82.82,0,0,1,.58.23.78.78,0,0,1,.24.57Z" transform="translate(-18.54 -20.5)"/></g></svg>