<?xml version="1.0" encoding="utf-8"?>
<!-- Generator: Adobe Illustrator 22.0.1, SVG Export Plug-In . SVG Version: 6.00 Build 0)  -->
<svg version="1.1" xmlns="http://www.w3.org/2000/svg" xmlns:xlink="http://www.w3.org/1999/xlink" x="0px" y="0px"
	 viewBox="0 0 259.6 75.3" style="enable-background:new 0 0 259.6 75.3;" xml:space="preserve">
<style type="text/css">
	.st0{fill:#009CDE;}
	.st1{clip-path:url(#SVGID_2_);}
	.st2{fill:#FFFFFF;}
	.st3{fill:#003087;}
	.st4{fill:#012169;}
	.st5{display:none;}
	.st6{display:inline;}
	.st7{enable-background:new    ;}
	.st8{fill:#8E8E8E;}
	.st9{clip-path:url(#SVGID_4_);enable-background:new    ;}
	.st10{fill:#999999;}
	.st11{fill:#9E9E9E;}
	.st12{fill:#A3A3A3;}
	.st13{fill:#A8A8A8;}
	.st14{fill:#949494;}
	.st15{fill:#8F8F8F;}
	.st16{clip-path:url(#SVGID_6_);enable-background:new    ;}
	.st17{clip-path:url(#SVGID_8_);enable-background:new    ;}
	.st18{fill:#9B9B9B;}
	.st19{clip-path:url(#SVGID_10_);enable-background:new    ;}
	.st20{fill:#858585;}
	.st21{fill:#8A8A8A;}
	.st22{clip-path:url(#SVGID_12_);enable-background:new    ;}
	.st23{clip-path:url(#SVGID_14_);enable-background:new    ;}
	.st24{fill:#DBDBDB;}
	.st25{clip-path:url(#SVGID_16_);enable-background:new    ;}
	.st26{clip-path:url(#SVGID_18_);enable-background:new    ;}
	.st27{fill:#929292;}
	.st28{clip-path:url(#SVGID_20_);enable-background:new    ;}
	.st29{clip-path:url(#SVGID_22_);enable-background:new    ;}
	.st30{clip-path:url(#SVGID_24_);enable-background:new    ;}
	.st31{fill:#919191;}
	.st32{fill:#8C8C8C;}
	.st33{clip-path:url(#SVGID_26_);enable-background:new    ;}
	.st34{clip-path:url(#SVGID_28_);enable-background:new    ;}
	.st35{clip-path:url(#SVGID_30_);enable-background:new    ;}
	.st36{clip-path:url(#SVGID_32_);enable-background:new    ;}
	.st37{clip-path:url(#SVGID_34_);enable-background:new    ;}
	.st38{clip-path:url(#SVGID_36_);enable-background:new    ;}
	.st39{clip-path:url(#SVGID_38_);enable-background:new    ;}
	.st40{clip-path:url(#SVGID_40_);enable-background:new    ;}
	.st41{clip-path:url(#SVGID_42_);enable-background:new    ;}
	.st42{clip-path:url(#SVGID_44_);enable-background:new    ;}
	.st43{clip-path:url(#SVGID_46_);enable-background:new    ;}
	.st44{clip-path:url(#SVGID_48_);enable-background:new    ;}
	.st45{clip-path:url(#SVGID_50_);enable-background:new    ;}
	.st46{clip-path:url(#SVGID_52_);enable-background:new    ;}
	.st47{clip-path:url(#SVGID_54_);enable-background:new    ;}
	.st48{clip-path:url(#SVGID_56_);enable-background:new    ;}
	.st49{clip-path:url(#SVGID_58_);enable-background:new    ;}
	.st50{clip-path:url(#SVGID_60_);enable-background:new    ;}
	.st51{fill:#939393;}
	.st52{clip-path:url(#SVGID_62_);enable-background:new    ;}
	.st53{clip-path:url(#SVGID_64_);enable-background:new    ;}
	.st54{clip-path:url(#SVGID_66_);enable-background:new    ;}
	.st55{clip-path:url(#SVGID_68_);enable-background:new    ;}
	.st56{clip-path:url(#SVGID_70_);enable-background:new    ;}
	.st57{clip-path:url(#SVGID_72_);enable-background:new    ;}
	.st58{clip-path:url(#SVGID_74_);enable-background:new    ;}
	.st59{clip-path:url(#SVGID_76_);enable-background:new    ;}
	.st60{clip-path:url(#SVGID_78_);enable-background:new    ;}
	.st61{clip-path:url(#SVGID_80_);enable-background:new    ;}
	.st62{clip-path:url(#SVGID_82_);enable-background:new    ;}
	.st63{clip-path:url(#SVGID_84_);enable-background:new    ;}
	.st64{clip-path:url(#SVGID_86_);enable-background:new    ;}
	.st65{clip-path:url(#SVGID_88_);enable-background:new    ;}
	.st66{clip-path:url(#SVGID_90_);enable-background:new    ;}
	.st67{fill:#A5A5A5;}
	.st68{clip-path:url(#SVGID_92_);enable-background:new    ;}
	.st69{clip-path:url(#SVGID_94_);enable-background:new    ;}
</style>
<g id="Layer_2">
	<path class="st0" d="M255.6,75.3H4c-2.2,0-4-1.8-4-4V4c0-2.2,1.8-4,4-4h251.6c2.2,0,4,1.8,4,4v67.3
		C259.6,73.5,257.8,75.3,255.6,75.3z"/>
</g>
<g id="Layer_1">
	<g transform="matrix(2.07675 0 0 -2.07675 -11.153 92.77)">
		<g>
			<defs>
				<rect id="SVGID_1_" x="-87.8" y="-14.4" width="259.6" height="84.3"/>
			</defs>
			<clipPath id="SVGID_2_">
				<use xlink:href="#SVGID_1_"  style="overflow:visible;"/>
			</clipPath>
			<g class="st1">
				<path class="st2" d="M56.8,28.3c-0.2-1.1-1-1.1-1.8-1.1h-0.4l0.3,2c0,0.1,0.1,0.2,0.2,0.2h0.2c0.5,0,1,0,1.3-0.3
					C56.8,28.9,56.9,28.7,56.8,28.3 M56.5,31.1h-3c-0.2,0-0.4-0.1-0.4-0.3l-1.2-7.6c0-0.1,0.1-0.3,0.2-0.3c0,0,0,0,0,0h1.5
					c0.1,0,0.3,0.1,0.3,0.2l0.3,2.2c0,0.2,0.2,0.3,0.4,0.3h0.9c2,0,3.1,0.9,3.4,2.8c0.1,0.8,0,1.5-0.4,1.9
					C58.2,30.8,57.5,31.1,56.5,31.1"/>
				<path class="st3" d="M24.3,33.7c-0.6,0.7-1.8,1-3.3,1h-4.3c-0.3,0-0.6-0.2-0.6-0.5l-1.8-11.4c0-0.2,0.1-0.4,0.3-0.4
					c0,0,0,0,0.1,0h2.7l0.7,4.2l0-0.1c0,0.3,0.3,0.5,0.6,0.5h1.3c2.5,0,4.4,1,5,3.9c0,0.1,0,0.2,0,0.3C25,32.3,24.9,33,24.3,33.7"/>
				<path class="st2" d="M63.4,25.5c-0.1-0.8-0.8-1.4-1.6-1.4c-0.4,0-0.7,0.1-1,0.4c-0.2,0.2-0.3,0.6-0.2,1c0.1,0.8,0.8,1.4,1.6,1.4
					c0.4,0,0.7-0.1,0.9-0.4C63.4,26.3,63.5,25.9,63.4,25.5 M65.4,28.3H64c-0.1,0-0.2-0.1-0.2-0.2l-0.1-0.4l-0.1,0.1
					c-0.3,0.4-1,0.6-1.7,0.6c-1.6,0-2.9-1.2-3.2-2.9c-0.1-0.8,0.1-1.6,0.5-2.2c0.4-0.5,1.1-0.7,1.8-0.7c1.3,0,2,0.8,2,0.8l-0.1-0.4
					c0-0.1,0.1-0.3,0.2-0.3c0,0,0,0,0,0h1.3c0.2,0,0.4,0.1,0.4,0.3l0.8,4.9C65.6,28.2,65.5,28.3,65.4,28.3
					C65.4,28.3,65.4,28.3,65.4,28.3"/>
				<path class="st3" d="M35.6,28.3c-0.2-1.1-1-1.1-1.8-1.1h-0.4l0.3,2c0,0.1,0.1,0.2,0.2,0.2h0.2c0.5,0,1,0,1.3-0.3
					C35.6,28.9,35.7,28.7,35.6,28.3 M35.3,31.1h-3c-0.2,0-0.4-0.1-0.4-0.3l-1.2-7.6c0-0.1,0.1-0.3,0.2-0.3c0,0,0,0,0,0h1.4
					c0.2,0,0.4,0.1,0.4,0.3l0.3,2.1c0,0.2,0.2,0.3,0.4,0.3h0.9c2,0,3.1,0.9,3.4,2.8c0.1,0.8,0,1.5-0.4,1.9
					C37,30.8,36.3,31.1,35.3,31.1 M42.2,25.5c-0.1-0.8-0.8-1.4-1.6-1.4c-0.4,0-0.7,0.1-1,0.4c-0.2,0.2-0.3,0.6-0.2,1
					c0.1,0.8,0.8,1.4,1.6,1.4c0.4,0,0.7-0.1,0.9-0.4C42.2,26.3,42.2,25.9,42.2,25.5 M44.2,28.3h-1.4c-0.1,0-0.2-0.1-0.2-0.2
					l-0.1-0.4l-0.1,0.1c-0.3,0.4-1,0.6-1.7,0.6c-1.6,0-2.9-1.2-3.2-2.9c-0.1-0.8,0.1-1.6,0.5-2.2c0.4-0.5,1.1-0.7,1.8-0.7
					c1.3,0,2,0.8,2,0.8l-0.1-0.4c0-0.1,0.1-0.3,0.2-0.3c0,0,0,0,0,0h1.3c0.2,0,0.4,0.1,0.4,0.3l0.8,4.9
					C44.4,28.2,44.3,28.3,44.2,28.3C44.2,28.3,44.2,28.3,44.2,28.3"/>
				<path class="st2" d="M67.1,30.9l-1.2-7.8c0-0.1,0.1-0.3,0.2-0.3c0,0,0,0,0,0h1.2c0.2,0,0.4,0.1,0.4,0.3l1.2,7.6
					c0,0.1-0.1,0.3-0.2,0.3c0,0,0,0,0,0h-1.4C67.2,31.1,67.1,31,67.1,30.9"/>
				<path class="st3" d="M51.8,28.3h-1.4c-0.1,0-0.3-0.1-0.3-0.2l-2-2.9L47.2,28c-0.1,0.2-0.2,0.3-0.4,0.3h-1.4
					c-0.1,0-0.2-0.1-0.2-0.2c0,0,0-0.1,0-0.1l1.6-4.6l-1.5-2.1c-0.1-0.1-0.1-0.3,0.1-0.3c0,0,0.1,0,0.1,0h1.4c0.1,0,0.3,0.1,0.3,0.2
					l4.8,6.9c0.1,0.1,0.1,0.3-0.1,0.3C51.9,28.3,51.8,28.3,51.8,28.3"/>
				<path class="st3" d="M24.3,33.7c-0.6,0.7-1.8,1-3.3,1h-4.3c-0.3,0-0.6-0.2-0.6-0.5l-1.8-11.4c0-0.2,0.1-0.4,0.3-0.4
					c0,0,0,0,0.1,0h2.7l0.7,4.2l0-0.1c0,0.3,0.3,0.5,0.6,0.5h1.3c2.5,0,4.4,1,5,3.9c0,0.1,0,0.2,0,0.3C25,32.3,24.9,33,24.3,33.7"/>
				<path class="st3" d="M18.7,31.2c0,0.3,0.3,0.5,0.5,0.5h3.4c0.4,0,0.8,0,1.1-0.1c0.2,0,0.4-0.1,0.6-0.1c0.2-0.1,0.4-0.1,0.6-0.2
					c0.2,1.1,0,1.8-0.6,2.5c-0.6,0.7-1.8,1-3.3,1h-4.3c-0.3,0-0.6-0.2-0.6-0.5l-1.8-11.4c0-0.2,0.1-0.4,0.3-0.4c0,0,0,0,0.1,0h2.7
					l0.7,4.2L18.7,31.2z"/>
				<path class="st2" d="M24.9,31.2c0-0.1,0-0.2,0-0.3c-0.6-2.9-2.5-3.9-5-3.9h-1.3c-0.3,0-0.6-0.2-0.6-0.5l-0.6-4.1l-0.2-1.2
					c0-0.2,0.1-0.3,0.3-0.4c0,0,0,0,0.1,0h2.2c0.3,0,0.5,0.2,0.5,0.5l0,0.1l0.4,2.7l0,0.1c0,0.3,0.3,0.5,0.5,0.5h0.3
					c2.2,0,3.9,0.9,4.4,3.4c0.2,1.1,0.1,2-0.4,2.6C25.3,30.9,25.1,31.1,24.9,31.2"/>
				<path class="st4" d="M24.3,31.5c-0.1,0-0.2,0-0.3,0.1s-0.2,0-0.3,0.1c-0.3,0.1-0.7,0.1-1.1,0.1h-3.4c-0.3,0-0.5-0.2-0.5-0.5
					L18,26.6l0-0.1c0,0.3,0.3,0.5,0.6,0.5h1.3c2.5,0,4.4,1,5,3.9c0,0.1,0,0.2,0,0.3c-0.1,0.1-0.3,0.1-0.5,0.2
					C24.4,31.4,24.3,31.4,24.3,31.5"/>
			</g>
		</g>
	</g>
</g>
<g id="Layer_3" class="st5">
	<g class="st6">
		<g>
			<g class="st7">
				<g>
					<polygon class="st8" points="137.7,40.5 139.4,40.5 142.4,40.5 140.7,40.5 					"/>
				</g>
				<g class="st7">
					<defs>
						<path id="SVGID_3_" class="st7" d="M140.7,40.5h1.7c-0.1,1,0.2,1.8,0.7,2.3c0.6,0.5,1.4,0.8,2.4,0.8h-1.7
							c-1.1,0-1.9-0.3-2.4-0.8C140.9,42.3,140.6,41.5,140.7,40.5z"/>
					</defs>
					<clipPath id="SVGID_4_">
						<use xlink:href="#SVGID_3_"  style="overflow:visible;"/>
					</clipPath>
					<g class="st9">
						<path class="st10" d="M140.7,40.5h1.7c0,0.2,0,0.4,0,0.6h-1.7C140.7,40.9,140.7,40.7,140.7,40.5"/>
						<path class="st11" d="M140.7,41.1h1.7c0,0.2,0,0.4,0.1,0.5h-1.7C140.7,41.5,140.7,41.3,140.7,41.1"/>
						<path class="st12" d="M140.8,41.6h1.7c0.1,0.2,0.1,0.4,0.2,0.6l-1.7,0C140.9,42,140.8,41.8,140.8,41.6"/>
						<path class="st13" d="M141,42.2l1.7,0c0.1,0.2,0.3,0.4,0.4,0.6c0,0,0.1,0.1,0.1,0.1l-1.7,0c0,0-0.1-0.1-0.1-0.1
							C141.2,42.6,141.1,42.4,141,42.2"/>
						<path class="st12" d="M141.5,42.9l1.7,0c0.2,0.1,0.3,0.3,0.5,0.4H142C141.8,43.1,141.7,43,141.5,42.9"/>
						<path class="st11" d="M142,43.2h1.7c0.1,0.1,0.3,0.1,0.5,0.2l-1.7,0C142.3,43.4,142.2,43.3,142,43.2"/>
						<path class="st10" d="M142.5,43.4l1.7,0c0.2,0.1,0.3,0.1,0.5,0.1H143C142.8,43.5,142.7,43.5,142.5,43.4"/>
						<path class="st14" d="M143,43.6h1.7c0.2,0,0.5,0.1,0.7,0.1h-1.7C143.5,43.6,143.3,43.6,143,43.6"/>
						<path class="st15" d="M143.7,43.6h1.7c0,0,0.1,0,0.1,0L143.7,43.6C143.8,43.6,143.8,43.6,143.7,43.6"/>
					</g>
				</g>
				<g class="st7">
					<defs>
						<path id="SVGID_5_" class="st7" d="M145.7,43.6l-1.7,0c0,0-0.1,0-0.1,0h1.7C145.6,43.6,145.7,43.6,145.7,43.6z"/>
					</defs>
					<clipPath id="SVGID_6_">
						<use xlink:href="#SVGID_5_"  style="overflow:visible;"/>
					</clipPath>
					<g class="st16">
						<path class="st15" d="M143.8,43.6h1.7c0,0,0.1,0,0.1,0h-1.7C143.9,43.6,143.9,43.6,143.8,43.6"/>
					</g>
				</g>
				<g class="st7">
					<defs>
						<path id="SVGID_7_" class="st7" d="M142.6,32.8h1.7c-0.2,1,0.5,1.8,2.1,2.4h-1.7C143.1,34.7,142.4,33.9,142.6,32.8z"/>
					</defs>
					<clipPath id="SVGID_8_">
						<use xlink:href="#SVGID_7_"  style="overflow:visible;"/>
					</clipPath>
					<g class="st17">
						<path class="st14" d="M142.6,32.8h1.7c0,0.1,0,0.1,0,0.2l-1.7,0C142.6,33,142.6,32.9,142.6,32.8"/>
						<path class="st10" d="M142.6,33l1.7,0c0,0.1,0,0.2,0,0.2h-1.7C142.6,33.2,142.6,33.1,142.6,33"/>
						<path class="st11" d="M142.6,33.3h1.7c0,0.1,0,0.2,0,0.3l-1.7,0C142.6,33.4,142.6,33.4,142.6,33.3"/>
						<path class="st12" d="M142.6,33.5l1.7,0c0,0.1,0.1,0.3,0.1,0.4h-1.7C142.7,33.8,142.6,33.7,142.6,33.5"/>
						<path class="st13" d="M142.8,33.9h1.7c0.1,0.2,0.3,0.4,0.5,0.6h-1.7C143,34.3,142.9,34.1,142.8,33.9"/>
						<path class="st12" d="M143.2,34.5h1.7c0.2,0.2,0.5,0.3,0.8,0.5l-1.7,0C143.7,34.8,143.4,34.7,143.2,34.5"/>
						<path class="st11" d="M144,35l1.7,0c0.2,0.1,0.4,0.2,0.7,0.3h-1.7C144.4,35.2,144.2,35.1,144,35"/>
					</g>
				</g>
				<g>
					<polygon class="st18" points="144.7,35.3 146.4,35.3 147.3,35.6 145.6,35.6 					"/>
				</g>
				<g class="st7">
					<defs>
						<path id="SVGID_9_" class="st7" d="M146,30.3h1.7c-0.9,0-1.7,0.2-2.3,0.7c-0.7,0.5-1,1.1-1.2,1.9h-1.7
							c0.1-0.8,0.5-1.4,1.2-1.9C144.4,30.5,145.1,30.3,146,30.3z"/>
					</defs>
					<clipPath id="SVGID_10_">
						<use xlink:href="#SVGID_9_"  style="overflow:visible;"/>
					</clipPath>
					<g class="st19">
						<path class="st20" d="M146,30.3l1.7,0c-0.9,0-1.7,0.2-2.3,0.7c-0.4,0.2-0.6,0.5-0.8,0.9l-1.7,0c0.2-0.3,0.5-0.6,0.8-0.9
							C144.4,30.5,145.1,30.3,146,30.3"/>
						<path class="st21" d="M142.9,31.9l1.7,0c-0.1,0.1-0.1,0.3-0.2,0.4h-1.7C142.8,32.1,142.8,32,142.9,31.9"/>
						<path class="st15" d="M142.7,32.3h1.7c0,0.1-0.1,0.3-0.1,0.4h-1.7C142.7,32.5,142.7,32.4,142.7,32.3"/>
						<path class="st14" d="M142.6,32.6h1.7c0,0.1,0,0.1,0,0.2h-1.7C142.6,32.8,142.6,32.7,142.6,32.6"/>
					</g>
				</g>
				<g class="st7">
					<defs>
						<path id="SVGID_11_" class="st7" d="M150.5,41.1h1.7c-0.1,1-0.4,1.9-1,2.6c-0.6,0.7-1.4,1.3-2.4,1.7c-1,0.4-2,0.6-3.2,0.6
							h-1.7c1.2,0,2.2-0.2,3.2-0.6c1-0.4,1.8-1,2.4-1.7C150,43,150.4,42.2,150.5,41.1z"/>
					</defs>
					<clipPath id="SVGID_12_">
						<use xlink:href="#SVGID_11_"  style="overflow:visible;"/>
					</clipPath>
					<g class="st22">
						<path class="st14" d="M150.5,41.1h1.7c0,0.2-0.1,0.4-0.1,0.7l-1.7,0C150.4,41.6,150.4,41.4,150.5,41.1"/>
						<path class="st15" d="M150.4,41.8l1.7,0c-0.1,0.2-0.1,0.5-0.2,0.7l-1.7,0C150.2,42.3,150.3,42.1,150.4,41.8"/>
						<path class="st21" d="M150.2,42.5l1.7,0c-0.1,0.3-0.2,0.5-0.3,0.7h-1.7C150,43,150.1,42.8,150.2,42.5"/>
						<path class="st20" d="M149.8,43.2h1.7c-0.1,0.2-0.2,0.4-0.4,0.5c-0.6,0.7-1.4,1.3-2.4,1.7c-1,0.4-2,0.6-3.2,0.6h-1.7
							c1.2,0,2.2-0.2,3.2-0.6c1-0.4,1.8-1,2.4-1.7C149.6,43.6,149.7,43.4,149.8,43.2"/>
					</g>
				</g>
				<g class="st7">
					<defs>
						<path id="SVGID_13_" class="st7" d="M145.6,35.6h1.7c1.9,0.7,3.2,1.4,3.9,2.3c0.7,0.9,1.1,2,1,3.2h-1.7c0.1-1.2-0.2-2.3-1-3.2
							C148.7,37.1,147.4,36.3,145.6,35.6z"/>
					</defs>
					<clipPath id="SVGID_14_">
						<use xlink:href="#SVGID_13_"  style="overflow:visible;"/>
					</clipPath>
					<g class="st23">
						<path class="st11" d="M145.6,35.6h1.7c0.7,0.2,1.3,0.5,1.8,0.8h-1.7C146.9,36.1,146.3,35.9,145.6,35.6"/>
						<path class="st12" d="M147.4,36.4h1.7c0.6,0.3,1.1,0.7,1.6,1H149C148.5,37.1,148,36.7,147.4,36.4"/>
						<path class="st13" d="M149,37.4l1.7,0c0.2,0.2,0.4,0.4,0.5,0.5c0.2,0.2,0.4,0.5,0.5,0.8l-1.7,0c-0.1-0.3-0.3-0.5-0.5-0.8
							C149.3,37.8,149.2,37.6,149,37.4"/>
						<path class="st12" d="M150,38.7l1.7,0c0.2,0.3,0.3,0.6,0.4,1h-1.7C150.3,39.3,150.1,39,150,38.7"/>
						<path class="st11" d="M150.3,39.7l1.7,0c0.1,0.2,0.1,0.5,0.1,0.7l-1.7,0C150.4,40.1,150.4,39.9,150.3,39.7"/>
						<path class="st10" d="M150.5,40.4l1.7,0c0,0.2,0,0.5,0,0.7h-1.7C150.5,40.9,150.5,40.6,150.5,40.4"/>
					</g>
				</g>
				<g>
					<path class="st24" d="M146.2,27.8c0,0,0.1,0,0.1,0c1.1,0,2.1,0.3,3,0.7c0.9,0.5,1.5,1.1,2,1.9c0.4,0.8,0.7,1.8,0.6,2.8l-3,0
						c0.1-0.9-0.2-1.6-0.6-2.1c-0.5-0.5-1.2-0.8-2.1-0.8c0,0-0.1,0-0.1,0c-0.9,0-1.7,0.2-2.3,0.7c-0.7,0.5-1,1.1-1.2,1.9
						c-0.2,1,0.5,1.8,2.1,2.4l0.9,0.3c1.9,0.7,3.2,1.4,3.9,2.3c0.7,0.9,1.1,2,1,3.2c-0.1,1-0.4,1.9-1,2.6c-0.6,0.7-1.4,1.3-2.4,1.7
						c-1,0.4-2,0.6-3.2,0.6c-0.1,0-0.1,0-0.2,0c-1.2,0-2.2-0.3-3.2-0.7c-0.9-0.5-1.7-1.1-2.2-2c-0.5-0.8-0.7-1.8-0.7-2.9l3,0
						c-0.1,1,0.2,1.8,0.7,2.3c0.6,0.5,1.4,0.8,2.4,0.8c0,0,0.1,0,0.1,0c0.9,0,1.7-0.2,2.3-0.6c0.7-0.4,1-1,1.2-1.8
						c0.2-1.2-0.5-2-1.9-2.6l-1-0.4c-1.8-0.6-3.1-1.4-3.9-2.3c-0.8-0.9-1.1-1.9-1.1-3.1c0.1-1,0.4-1.9,1-2.7
						c0.6-0.8,1.4-1.4,2.5-1.8C144,28,145.1,27.8,146.2,27.8z"/>
				</g>
				<g class="st7">
					<defs>
						<path id="SVGID_15_" class="st7" d="M146.2,27.8h1.7c0,0,0.1,0,0.1,0c1.1,0,2.1,0.3,3,0.7c0.9,0.5,1.5,1.1,2,1.9
							c0.4,0.8,0.7,1.8,0.6,2.8h-1.7c0-1-0.2-2-0.6-2.8c-0.5-0.8-1.1-1.5-2-1.9c-0.9-0.5-1.8-0.7-3-0.7
							C146.3,27.8,146.2,27.8,146.2,27.8z"/>
					</defs>
					<clipPath id="SVGID_16_">
						<use xlink:href="#SVGID_15_"  style="overflow:visible;"/>
					</clipPath>
					<g class="st25">
						<path class="st15" d="M146.2,27.8l1.7,0c0,0,0.1,0,0.1,0c0,0,0,0,0.1,0l-1.7,0c0,0,0,0-0.1,0
							C146.3,27.8,146.2,27.8,146.2,27.8"/>
						<path class="st14" d="M146.4,27.8l1.7,0c0.4,0,0.7,0,1,0.1l-1.7,0C147.1,27.9,146.7,27.8,146.4,27.8"/>
						<path class="st10" d="M147.4,27.9l1.7,0c0.3,0.1,0.6,0.1,0.9,0.2l-1.7,0C148,28,147.7,28,147.4,27.9"/>
						<path class="st11" d="M148.3,28.1l1.7,0c0.3,0.1,0.6,0.2,0.9,0.4h-1.7C148.9,28.4,148.6,28.2,148.3,28.1"/>
						<path class="st12" d="M149.2,28.5l1.7,0c0,0,0,0,0.1,0c0.4,0.2,0.7,0.4,1,0.7l-1.7,0C150,29,149.6,28.7,149.2,28.5
							C149.3,28.5,149.2,28.5,149.2,28.5"/>
						<path class="st13" d="M150.2,29.2l1.7,0c0.4,0.4,0.7,0.8,1,1.2c0,0,0,0.1,0,0.1l-1.7,0c0,0,0-0.1,0-0.1
							C151,30,150.6,29.6,150.2,29.2"/>
						<path class="st12" d="M151.3,30.6l1.7,0c0.2,0.4,0.3,0.7,0.4,1.1h-1.7C151.6,31.3,151.5,30.9,151.3,30.6"/>
						<path class="st11" d="M151.7,31.7h1.7c0.1,0.3,0.1,0.6,0.1,0.9h-1.7C151.8,32.3,151.8,32,151.7,31.7"/>
						<path class="st10" d="M151.9,32.6h1.7c0,0.2,0,0.5,0,0.7h-1.7C151.9,33,151.9,32.8,151.9,32.6"/>
					</g>
				</g>
			</g>
			<g class="st7">
				<g class="st7">
					<defs>
						<path id="SVGID_17_" class="st7" d="M155.8,41.2h1.7c0,0.3,0,0.6,0,0.9h-1.7C155.8,41.8,155.8,41.5,155.8,41.2z"/>
					</defs>
					<clipPath id="SVGID_18_">
						<use xlink:href="#SVGID_17_"  style="overflow:visible;"/>
					</clipPath>
					<g class="st26">
						<path class="st14" d="M155.8,41.2h1.7c0,0.1,0,0.1,0,0.2l-1.7,0C155.8,41.4,155.8,41.3,155.8,41.2"/>
						<path class="st10" d="M155.8,41.4l1.7,0c0,0.2,0,0.4,0,0.7h-1.7C155.8,41.9,155.8,41.7,155.8,41.4"/>
					</g>
				</g>
				<g>
					<polygon class="st8" points="154.4,32.6 156.1,32.6 159,32.6 157.3,32.6 					"/>
				</g>
				<g>
					<polygon class="st27" points="157.3,32.6 159,32.6 157.6,41.2 155.8,41.2 					"/>
				</g>
				<g class="st7">
					<defs>
						<path id="SVGID_19_" class="st7" d="M155.8,42.1h1.7c0.1,1,0.6,1.5,1.5,1.6h-1.7C156.4,43.6,155.9,43.1,155.8,42.1z"/>
					</defs>
					<clipPath id="SVGID_20_">
						<use xlink:href="#SVGID_19_"  style="overflow:visible;"/>
					</clipPath>
					<g class="st28">
						<path class="st11" d="M155.8,42.1h1.7c0,0.2,0,0.3,0.1,0.4l-1.7,0C155.9,42.4,155.8,42.2,155.8,42.1"/>
						<path class="st12" d="M155.9,42.5l1.7,0c0,0.2,0.1,0.3,0.2,0.4l-1.7,0C156,42.8,155.9,42.7,155.9,42.5"/>
						<path class="st13" d="M156,42.9l1.7,0c0.1,0.1,0.2,0.3,0.3,0.4h-1.7C156.2,43.2,156.1,43.1,156,42.9"/>
						<path class="st12" d="M156.3,43.3h1.7c0.1,0.1,0.2,0.1,0.3,0.2h-1.7C156.5,43.4,156.4,43.4,156.3,43.3"/>
						<path class="st11" d="M156.6,43.5h1.7c0.1,0,0.1,0.1,0.2,0.1h-1.7C156.7,43.5,156.7,43.5,156.6,43.5"/>
						<path class="st10" d="M156.8,43.6h1.7c0.1,0,0.2,0,0.3,0.1l-1.7,0C157,43.6,156.9,43.6,156.8,43.6"/>
						<path class="st14" d="M157.1,43.6l1.7,0c0.1,0,0.2,0,0.3,0h-1.7C157.3,43.7,157.2,43.6,157.1,43.6"/>
					</g>
				</g>
				<g class="st7">
					<defs>
						<path id="SVGID_21_" class="st7" d="M159.2,43.7l-1.7,0c0,0-0.1,0-0.2,0h1.7C159.1,43.7,159.2,43.7,159.2,43.7z"/>
					</defs>
					<clipPath id="SVGID_22_">
						<use xlink:href="#SVGID_21_"  style="overflow:visible;"/>
					</clipPath>
					<g class="st29">
						<polyline class="st14" points="157.3,43.7 159.1,43.7 159.1,43.7 157.4,43.7 157.3,43.7 						"/>
						<path class="st15" d="M157.4,43.7l1.7,0c0,0,0.1,0,0.1,0l-1.7,0C157.5,43.7,157.4,43.7,157.4,43.7"/>
					</g>
				</g>
				<g class="st7">
					<defs>
						<path id="SVGID_23_" class="st7" d="M160.3,44.5h1.7c-1,1-2.2,1.5-3.6,1.5h-1.7C158.1,46.1,159.3,45.6,160.3,44.5z"/>
					</defs>
					<clipPath id="SVGID_24_">
						<use xlink:href="#SVGID_23_"  style="overflow:visible;"/>
					</clipPath>
					<g class="st30">
						<path class="st20" d="M160.3,44.5h1.7c-1,1-2.2,1.5-3.6,1.5h-1.7C158.1,46.1,159.3,45.6,160.3,44.5"/>
					</g>
				</g>
				<g>
					<path class="st24" d="M165,32.6l-2.3,13.2H160l0.3-1.3c-1,1-2.2,1.5-3.6,1.5c0,0-0.1,0-0.1,0c-0.9,0-1.6-0.2-2.1-0.6
						c-0.6-0.4-1-1-1.2-1.7c-0.2-0.7-0.3-1.6-0.2-2.6l1.4-8.5h2.9l-1.4,8.6c0,0.3,0,0.6,0,0.9c0.1,1,0.6,1.5,1.5,1.6
						c0.1,0,0.1,0,0.2,0c1.2,0,2.2-0.5,2.9-1.5l1.7-9.5H165z"/>
				</g>
				<g>
					<polygon class="st31" points="165,32.6 166.7,32.6 164.5,45.8 162.7,45.8 					"/>
				</g>
				<g>
					<polygon class="st8" points="162.1,32.6 163.9,32.6 166.7,32.6 165,32.6 					"/>
				</g>
			</g>
			<g class="st7">
				<g>
					<polygon class="st32" points="168.8,44.4 170.5,44.4 170.1,45.8 168.3,45.8 					"/>
				</g>
				<g>
					<polygon class="st31" points="170.2,36.5 171.9,36.5 171,42 169.3,42 					"/>
				</g>
				<g class="st7">
					<defs>
						<path id="SVGID_25_" class="st7" d="M169.3,42l1.7,0c0.4,1.1,1.1,1.7,2.3,1.7l-1.7,0C170.4,43.6,169.6,43.1,169.3,42z"/>
					</defs>
					<clipPath id="SVGID_26_">
						<use xlink:href="#SVGID_25_"  style="overflow:visible;"/>
					</clipPath>
					<g class="st33">
						<path class="st12" d="M169.3,42h1.7c0.1,0.2,0.1,0.4,0.2,0.5h-1.7C169.4,42.3,169.3,42.1,169.3,42"/>
						<path class="st13" d="M169.5,42.5h1.7c0.1,0.3,0.3,0.5,0.5,0.6H170C169.8,42.9,169.6,42.7,169.5,42.5"/>
						<path class="st12" d="M170,43.1h1.7c0.1,0.1,0.3,0.2,0.4,0.3h-1.7C170.2,43.3,170.1,43.2,170,43.1"/>
						<path class="st11" d="M170.4,43.4h1.7c0.1,0.1,0.2,0.1,0.3,0.1h-1.7C170.6,43.5,170.5,43.5,170.4,43.4"/>
						<path class="st10" d="M170.7,43.5h1.7c0.1,0,0.2,0.1,0.4,0.1l-1.7,0C171,43.6,170.8,43.6,170.7,43.5"/>
						<path class="st14" d="M171.1,43.6l1.7,0c0.1,0,0.3,0,0.4,0h-1.7C171.4,43.7,171.2,43.7,171.1,43.6"/>
						<path class="st15" d="M171.5,43.7h1.7c0,0,0,0,0,0L171.5,43.7C171.6,43.7,171.6,43.7,171.5,43.7"/>
					</g>
				</g>
				<g class="st7">
					<defs>
						<path id="SVGID_27_" class="st7" d="M171.6,43.7l1.7,0c0,0,0.1,0,0.1,0L171.6,43.7C171.6,43.7,171.6,43.7,171.6,43.7z"/>
					</defs>
					<clipPath id="SVGID_28_">
						<use xlink:href="#SVGID_27_"  style="overflow:visible;"/>
					</clipPath>
					<g class="st34">
						<path class="st15" d="M171.6,43.7h1.7c0,0,0.1,0,0.1,0L171.6,43.7C171.6,43.7,171.6,43.7,171.6,43.7"/>
					</g>
				</g>
				<g>
					<polygon class="st31" points="171.8,27.1 173.6,27.1 172.3,33.9 170.5,33.9 					"/>
				</g>
				<g>
					<polygon class="st8" points="168.9,27.1 170.7,27.1 173.6,27.1 171.8,27.1 					"/>
				</g>
				<g class="st7">
					<defs>
						<path id="SVGID_29_" class="st7" d="M173.1,34.8l1.7,0c-1.1,0-2.1,0.6-2.9,1.7l-1.7,0C171,35.4,171.9,34.8,173.1,34.8z"/>
					</defs>
					<clipPath id="SVGID_30_">
						<use xlink:href="#SVGID_29_"  style="overflow:visible;"/>
					</clipPath>
					<g class="st35">
						<path class="st20" d="M173.1,34.8l1.7,0c-1.1,0-2.1,0.6-2.9,1.7h-1.7C171,35.4,171.9,34.8,173.1,34.8"/>
					</g>
				</g>
				<g class="st7">
					<defs>
						<path id="SVGID_31_" class="st7" d="M173.1,34.8C173.1,34.8,173.1,34.8,173.1,34.8l1.7,0c0,0,0,0,0,0
							C174.3,34.8,173.6,34.8,173.1,34.8z"/>
					</defs>
					<clipPath id="SVGID_32_">
						<use xlink:href="#SVGID_31_"  style="overflow:visible;"/>
					</clipPath>
					<g class="st36">
						<polyline class="st20" points="173.1,34.8 174.8,34.8 174.8,34.8 173.1,34.8 173.1,34.8 						"/>
					</g>
				</g>
				<g class="st7">
					<defs>
						<path id="SVGID_33_" class="st7" d="M178.1,39.3l1.7,0c-0.2,1.3-0.5,2.6-1.1,3.6c-0.6,1.1-1.3,1.9-2.1,2.4
							c-0.8,0.5-1.7,0.7-2.6,0.7l-1.7,0c1,0,1.9-0.3,2.6-0.7c0.8-0.5,1.5-1.3,2.1-2.4C177.6,41.8,177.9,40.6,178.1,39.3z"/>
					</defs>
					<clipPath id="SVGID_34_">
						<use xlink:href="#SVGID_33_"  style="overflow:visible;"/>
					</clipPath>
					<g class="st37">
						<path class="st14" d="M178.1,39.3l1.7,0c0,0.3-0.1,0.7-0.2,1l-1.7,0C178,40,178,39.6,178.1,39.3"/>
						<path class="st15" d="M177.9,40.3l1.7,0c-0.1,0.5-0.3,1-0.4,1.5h-1.7C177.7,41.3,177.8,40.8,177.9,40.3"/>
						<path class="st21" d="M177.5,41.8h1.7c-0.1,0.4-0.3,0.8-0.5,1.1c-0.1,0.1-0.1,0.3-0.2,0.4h-1.7c0.1-0.1,0.1-0.2,0.2-0.4
							C177.2,42.6,177.3,42.2,177.5,41.8"/>
						<path class="st20" d="M176.8,43.3h1.7c-0.5,0.9-1.1,1.6-1.9,2c-0.8,0.5-1.7,0.7-2.6,0.7h-1.7c1,0,1.9-0.3,2.6-0.7
							C175.6,44.9,176.3,44.2,176.8,43.3"/>
					</g>
				</g>
				<g class="st7">
					<defs>
						<path id="SVGID_35_" class="st7" d="M173.9,32.4l1.7,0c0,0,0.1,0,0.1,0c1.3,0,2.3,0.5,3,1.4c0.7,0.9,1.1,2.1,1.1,3.7l-1.7,0
							c0-1.6-0.4-2.8-1.1-3.7c-0.7-0.9-1.7-1.4-3-1.4C174,32.4,173.9,32.4,173.9,32.4z"/>
					</defs>
					<clipPath id="SVGID_36_">
						<use xlink:href="#SVGID_35_"  style="overflow:visible;"/>
					</clipPath>
					<g class="st38">
						<path class="st15" d="M173.9,32.4l1.7,0c0,0,0.1,0,0.1,0c0,0,0,0,0.1,0h-1.7c0,0,0,0-0.1,0C174,32.4,173.9,32.4,173.9,32.4"/>
						<path class="st14" d="M174.1,32.4h1.7c0.2,0,0.5,0,0.7,0.1h-1.7C174.5,32.4,174.3,32.4,174.1,32.4"/>
						<path class="st10" d="M174.8,32.5h1.7c0.2,0,0.4,0.1,0.6,0.1h-1.7C175.1,32.5,174.9,32.5,174.8,32.5"/>
						<path class="st11" d="M175.3,32.6h1.7c0.2,0.1,0.4,0.1,0.5,0.2l-1.7,0C175.7,32.7,175.5,32.7,175.3,32.6"/>
						<path class="st12" d="M175.9,32.8l1.7,0c0.3,0.1,0.5,0.3,0.7,0.5l-1.7,0C176.3,33.1,176.1,32.9,175.9,32.8"/>
						<path class="st13" d="M176.6,33.3l1.7,0c0.2,0.1,0.3,0.3,0.5,0.5c0.2,0.2,0.3,0.4,0.5,0.7h-1.7c-0.1-0.3-0.3-0.5-0.5-0.7
							C176.9,33.6,176.7,33.4,176.6,33.3"/>
						<path class="st12" d="M177.5,34.5h1.7c0.2,0.4,0.4,0.8,0.5,1.3h-1.7C177.8,35.3,177.7,34.9,177.5,34.5"/>
						<path class="st11" d="M177.9,35.7h1.7c0.1,0.4,0.2,0.8,0.2,1.3h-1.7C178.1,36.6,178,36.1,177.9,35.7"/>
						<path class="st10" d="M178.1,37h1.7c0,0.2,0,0.3,0,0.5l-1.7,0C178.2,37.3,178.1,37.2,178.1,37"/>
					</g>
				</g>
				<g>
					<path class="st24" d="M178.2,37.5c0,0.5,0,1.1-0.1,1.8c-0.2,1.3-0.5,2.6-1.1,3.6c-0.6,1.1-1.3,1.9-2.1,2.4
						c-0.8,0.5-1.7,0.7-2.6,0.7c0,0-0.1,0-0.1,0c-1.5,0-2.6-0.6-3.3-1.7l-0.5,1.4h-2.6l3.2-18.7h2.9l-1.3,6.8c0.9-1,2.1-1.5,3.4-1.5
						c0,0,0.1,0,0.1,0c1.3,0,2.3,0.5,3,1.4C177.7,34.7,178.1,35.9,178.2,37.5z M175.2,39.3c0.1-0.7,0.1-1.2,0.1-1.6
						c0-0.9-0.2-1.6-0.5-2.1c-0.4-0.5-0.9-0.8-1.6-0.8c0,0-0.1,0-0.1,0c-1.1,0-2.1,0.6-2.9,1.7l-0.9,5.5c0.4,1.1,1.1,1.7,2.3,1.7
						c0,0,0.1,0,0.1,0c0.9,0,1.7-0.4,2.3-1.1C174.6,41.8,175,40.7,175.2,39.3"/>
				</g>
				<g class="st7">
					<defs>
						<path id="SVGID_37_" class="st7" d="M178.2,37.5l1.7,0c0,0.5,0,1.1-0.1,1.8l-1.7,0C178.1,38.6,178.2,38,178.2,37.5z"/>
					</defs>
					<clipPath id="SVGID_38_">
						<use xlink:href="#SVGID_37_"  style="overflow:visible;"/>
					</clipPath>
					<g class="st39">
						<path class="st10" d="M178.2,37.5l1.7,0c0,0.3,0,0.7,0,1.1l-1.7,0C178.2,38.2,178.2,37.8,178.2,37.5"/>
						<path class="st14" d="M178.1,38.6l1.7,0c0,0.2,0,0.5-0.1,0.7l-1.7,0C178.1,39,178.1,38.8,178.1,38.6"/>
					</g>
				</g>
			</g>
			<g class="st7">
				<g>
					<polygon class="st8" points="179.6,41.7 181.4,41.7 184.2,41.7 182.4,41.7 					"/>
				</g>
				<g class="st7">
					<defs>
						<path id="SVGID_39_" class="st7" d="M182.4,41.7h1.7c0,0.7,0.2,1.2,0.6,1.6c0.4,0.4,1,0.5,1.7,0.6h-1.7
							c-0.7,0-1.3-0.2-1.7-0.6C182.6,42.9,182.4,42.4,182.4,41.7z"/>
					</defs>
					<clipPath id="SVGID_40_">
						<use xlink:href="#SVGID_39_"  style="overflow:visible;"/>
					</clipPath>
					<g class="st40">
						<path class="st10" d="M182.4,41.7h1.7c0,0.1,0,0.1,0,0.2l-1.7,0C182.4,41.8,182.4,41.7,182.4,41.7"/>
						<path class="st11" d="M182.4,41.9l1.7,0c0,0.2,0,0.3,0.1,0.5l-1.7,0C182.5,42.2,182.4,42,182.4,41.9"/>
						<path class="st12" d="M182.5,42.3l1.7,0c0,0.2,0.1,0.3,0.2,0.5h-1.7C182.6,42.7,182.5,42.5,182.5,42.3"/>
						<path class="st13" d="M182.7,42.8h1.7c0.1,0.2,0.2,0.3,0.4,0.5c0,0,0,0,0,0l-1.7,0c0,0,0,0,0,0
							C182.9,43.1,182.8,43,182.7,42.8"/>
						<path class="st12" d="M183.1,43.3l1.7,0c0.1,0.1,0.3,0.2,0.4,0.3h-1.7C183.3,43.5,183.2,43.4,183.1,43.3"/>
						<path class="st11" d="M183.5,43.6h1.7c0.1,0.1,0.2,0.1,0.3,0.1h-1.7C183.7,43.7,183.6,43.6,183.5,43.6"/>
						<path class="st10" d="M183.8,43.7h1.7c0.1,0,0.2,0.1,0.4,0.1h-1.7C184,43.8,183.9,43.7,183.8,43.7"/>
						<path class="st14" d="M184.2,43.8h1.7c0.1,0,0.3,0,0.5,0h-1.7C184.5,43.8,184.3,43.8,184.2,43.8"/>
						<path class="st15" d="M184.6,43.8h1.7c0,0,0.1,0,0.1,0L184.6,43.8C184.7,43.8,184.7,43.8,184.6,43.8"/>
					</g>
				</g>
				<g class="st7">
					<defs>
						<path id="SVGID_41_" class="st7" d="M186.2,34.6h1.7c-0.6,0-1.2,0.2-1.7,0.5c-0.5,0.3-0.7,0.7-0.8,1.2h-1.7
							c0.1-0.5,0.3-0.9,0.8-1.2C185,34.8,185.5,34.6,186.2,34.6z"/>
					</defs>
					<clipPath id="SVGID_42_">
						<use xlink:href="#SVGID_41_"  style="overflow:visible;"/>
					</clipPath>
					<g class="st41">
						<path class="st20" d="M186.2,34.6h1.7c-0.6,0-1.2,0.2-1.7,0.5c-0.3,0.2-0.4,0.4-0.6,0.6H184c0.1-0.2,0.3-0.4,0.6-0.6
							C185,34.8,185.5,34.6,186.2,34.6"/>
						<path class="st21" d="M184,35.7h1.7c0,0.1-0.1,0.2-0.1,0.3h-1.7C183.9,35.9,183.9,35.8,184,35.7"/>
						<path class="st15" d="M183.8,36h1.7c0,0.1-0.1,0.2-0.1,0.2h-1.7C183.8,36.1,183.8,36,183.8,36"/>
						<path class="st14" d="M183.8,36.2h1.7c0,0,0,0.1,0,0.1h-1.7C183.7,36.3,183.8,36.3,183.8,36.2"/>
					</g>
				</g>
				<g class="st7">
					<defs>
						<path id="SVGID_43_" class="st7" d="M186.2,32.4h1.7c0,0,0.1,0,0.1,0L186.2,32.4C186.2,32.4,186.2,32.4,186.2,32.4z"/>
					</defs>
					<clipPath id="SVGID_44_">
						<use xlink:href="#SVGID_43_"  style="overflow:visible;"/>
					</clipPath>
					<g class="st42">
						<path class="st15" d="M186.2,32.4h1.7c0,0,0.1,0,0.1,0L186.2,32.4C186.2,32.4,186.2,32.4,186.2,32.4"/>
					</g>
				</g>
				<g class="st7">
					<defs>
						<path id="SVGID_45_" class="st7" d="M183.7,36.3h1.7c-0.1,0.7,0.4,1.3,1.6,1.5c1.2,0.3,2,0.5,2.6,0.8c1.6,0.7,2.4,1.8,2.3,3.3
							c0,0.8-0.3,1.6-0.8,2.2c-0.5,0.6-1.2,1.1-2.1,1.4c-0.8,0.3-1.6,0.5-2.5,0.5h-1.7c0.9,0,1.7-0.2,2.5-0.5
							c0.9-0.3,1.5-0.8,2.1-1.4c0.5-0.6,0.8-1.3,0.8-2.2c0.1-1.5-0.7-2.6-2.3-3.3c-0.5-0.2-1.4-0.5-2.6-0.8
							C184.1,37.6,183.6,37.1,183.7,36.3z"/>
					</defs>
					<clipPath id="SVGID_46_">
						<use xlink:href="#SVGID_45_"  style="overflow:visible;"/>
					</clipPath>
					<g class="st43">
						<path class="st14" d="M183.7,36.3h1.7c0,0,0,0.1,0,0.1l-1.7,0C183.7,36.4,183.7,36.4,183.7,36.3"/>
						<path class="st10" d="M183.7,36.5l1.7,0c0,0.1,0,0.1,0,0.2l-1.7,0C183.7,36.6,183.7,36.5,183.7,36.5"/>
						<path class="st11" d="M183.7,36.6l1.7,0c0,0.1,0,0.1,0,0.2h-1.7C183.7,36.7,183.7,36.7,183.7,36.6"/>
						<path class="st12" d="M183.8,36.8h1.7c0,0.1,0,0.2,0.1,0.2l-1.7,0C183.8,36.9,183.8,36.9,183.8,36.8"/>
						<path class="st13" d="M183.8,37l1.7,0c0.1,0.1,0.2,0.2,0.3,0.3h-1.7C184,37.2,183.9,37.1,183.8,37"/>
						<path class="st12" d="M184.1,37.3h1.7c0.1,0.1,0.2,0.2,0.4,0.3l-1.7,0C184.3,37.5,184.2,37.4,184.1,37.3"/>
						<path class="st11" d="M184.5,37.6l1.7,0c0.1,0.1,0.3,0.1,0.5,0.2H185C184.8,37.7,184.6,37.7,184.5,37.6"/>
						<path class="st10" d="M185,37.8h1.7c0.1,0,0.2,0.1,0.3,0.1c0.7,0.2,1.3,0.3,1.7,0.5H187c-0.5-0.2-1.1-0.3-1.7-0.5
							C185.2,37.9,185.1,37.8,185,37.8"/>
						<path class="st11" d="M187,38.4h1.7c0.3,0.1,0.6,0.2,0.8,0.3c0.1,0.1,0.2,0.1,0.3,0.2l-1.7,0c-0.1-0.1-0.2-0.1-0.3-0.2
							C187.6,38.6,187.4,38.5,187,38.4"/>
						<path class="st12" d="M188.2,38.8l1.7,0c0.4,0.2,0.7,0.4,0.9,0.6h-1.7C188.9,39.2,188.6,39,188.2,38.8"/>
						<path class="st13" d="M189.1,39.5h1.7c0.3,0.3,0.5,0.6,0.7,0.9h-1.7C189.7,40,189.4,39.7,189.1,39.5"/>
						<path class="st12" d="M189.8,40.4h1.7c0.1,0.2,0.2,0.4,0.3,0.7h-1.7C190,40.8,190,40.6,189.8,40.4"/>
						<path class="st11" d="M190.1,41h1.7c0,0.2,0.1,0.3,0.1,0.5l-1.7,0C190.2,41.4,190.1,41.2,190.1,41"/>
						<path class="st10" d="M190.2,41.6l1.7,0c0,0.1,0,0.3,0,0.4c0,0,0,0.1,0,0.1l-1.7,0c0,0,0-0.1,0-0.1
							C190.2,41.9,190.2,41.7,190.2,41.6"/>
						<path class="st14" d="M190.2,42.1l1.7,0c0,0.2,0,0.4-0.1,0.5h-1.7C190.1,42.5,190.2,42.3,190.2,42.1"/>
						<path class="st15" d="M190.1,42.6h1.7c0,0.2-0.1,0.3-0.1,0.5H190C190,43,190.1,42.8,190.1,42.6"/>
						<path class="st21" d="M190,43.2h1.7c-0.1,0.2-0.2,0.4-0.3,0.6h-1.7C189.8,43.5,189.9,43.3,190,43.2"/>
						<path class="st20" d="M189.7,43.7h1.7c-0.1,0.2-0.2,0.3-0.3,0.5c-0.5,0.6-1.2,1.1-2.1,1.4c-0.8,0.3-1.6,0.5-2.5,0.5h-1.7
							c0.9,0,1.7-0.2,2.5-0.5c0.9-0.3,1.5-0.8,2.1-1.4C189.5,44,189.6,43.9,189.7,43.7"/>
					</g>
				</g>
				<g class="st7">
					<defs>
						<path id="SVGID_47_" class="st7" d="M186.3,32.4h1.7c1.4,0,2.5,0.4,3.4,1.2c0.9,0.8,1.3,1.8,1.3,3H191c0-1.3-0.4-2.3-1.3-3
							C188.8,32.8,187.7,32.4,186.3,32.4z"/>
					</defs>
					<clipPath id="SVGID_48_">
						<use xlink:href="#SVGID_47_"  style="overflow:visible;"/>
					</clipPath>
					<g class="st44">
						<path class="st15" d="M186.3,32.4h1.7c0.1,0,0.1,0,0.2,0h-1.7C186.4,32.4,186.3,32.4,186.3,32.4"/>
						<path class="st14" d="M186.5,32.4h1.7c0.3,0,0.6,0,0.9,0.1l-1.7,0C187.1,32.4,186.8,32.4,186.5,32.4"/>
						<path class="st10" d="M187.4,32.5l1.7,0c0.3,0,0.5,0.1,0.7,0.2l-1.7,0C187.9,32.6,187.6,32.5,187.4,32.5"/>
						<path class="st11" d="M188.1,32.7l1.7,0c0.2,0.1,0.5,0.2,0.7,0.3h-1.7C188.6,32.8,188.3,32.7,188.1,32.7"/>
						<path class="st12" d="M188.8,33h1.7c0.3,0.2,0.6,0.4,0.9,0.6c0,0,0,0,0,0h-1.7c0,0,0,0,0,0C189.4,33.3,189.1,33.1,188.8,33"/>
						<path class="st13" d="M189.7,33.6h1.7c0.4,0.3,0.6,0.7,0.9,1.1l-1.7,0C190.3,34.2,190.1,33.9,189.7,33.6"/>
						<path class="st12" d="M190.6,34.6l1.7,0c0.1,0.3,0.2,0.5,0.3,0.8l-1.7,0C190.8,35.2,190.7,34.9,190.6,34.6"/>
						<path class="st11" d="M190.9,35.5l1.7,0c0.1,0.2,0.1,0.5,0.1,0.7H191C191,35.9,190.9,35.7,190.9,35.5"/>
						<path class="st10" d="M191,36.2h1.7c0,0.1,0,0.3,0,0.4H191C191,36.5,191,36.3,191,36.2"/>
					</g>
				</g>
				<g>
					<path class="st24" d="M186.2,32.4C186.2,32.4,186.2,32.4,186.2,32.4c1.5,0,2.6,0.4,3.5,1.2c0.9,0.8,1.3,1.8,1.3,3l-2.9,0
						c0-0.6-0.2-1.1-0.5-1.4c-0.4-0.3-0.8-0.5-1.4-0.5c-0.6,0-1.2,0.2-1.7,0.5c-0.5,0.3-0.7,0.7-0.8,1.2c-0.1,0.7,0.4,1.3,1.6,1.5
						c1.2,0.3,2,0.5,2.6,0.8c1.6,0.7,2.4,1.8,2.3,3.3c0,0.8-0.3,1.6-0.8,2.2c-0.5,0.6-1.2,1.1-2.1,1.4c-0.8,0.3-1.6,0.5-2.5,0.5
						c-0.1,0-0.1,0-0.2,0c-1.4,0-2.6-0.4-3.6-1.3c-0.9-0.8-1.4-1.9-1.4-3.2l2.8,0c0,0.7,0.2,1.2,0.6,1.6c0.4,0.4,1,0.5,1.7,0.6
						c0.7,0,1.3-0.1,1.8-0.4c0.5-0.3,0.8-0.7,0.8-1.2c0.1-0.8-0.4-1.4-1.6-1.7c-1.2-0.3-2-0.6-2.4-0.8c-1.7-0.7-2.5-1.8-2.4-3.3
						c0-1.2,0.6-2.2,1.6-3C183.6,32.8,184.8,32.4,186.2,32.4z"/>
				</g>
			</g>
			<g class="st7">
				<g class="st7">
					<defs>
						<path id="SVGID_49_" class="st7" d="M197.8,43.7h1.7c0,0,0,0,0,0L197.8,43.7C197.9,43.7,197.9,43.7,197.8,43.7z"/>
					</defs>
					<clipPath id="SVGID_50_">
						<use xlink:href="#SVGID_49_"  style="overflow:visible;"/>
					</clipPath>
					<g class="st45">
						<path class="st15" d="M197.8,43.7h1.7c0,0,0,0,0,0L197.8,43.7C197.9,43.7,197.9,43.7,197.8,43.7"/>
					</g>
				</g>
				<g class="st7">
					<defs>
						<path id="SVGID_51_" class="st7" d="M199.2,34.8h1.7c-1.1,0-1.9,0.5-2.6,1.4c-0.6,1-1,2.4-1.1,4.2c-0.1,2.2,0.7,3.3,2.3,3.3
							l-1.7,0c-1.6,0-2.3-1.1-2.3-3.3c0.1-1.8,0.4-3.2,1.1-4.2C197.2,35.2,198.1,34.8,199.2,34.8z"/>
					</defs>
					<clipPath id="SVGID_52_">
						<use xlink:href="#SVGID_51_"  style="overflow:visible;"/>
					</clipPath>
					<g class="st46">
						<path class="st20" d="M199.2,34.8h1.7c-1.1,0-1.9,0.5-2.6,1.4c0,0.1-0.1,0.1-0.1,0.2l-1.7,0c0-0.1,0.1-0.1,0.1-0.2
							C197.2,35.2,198.1,34.8,199.2,34.8"/>
						<path class="st21" d="M196.5,36.4l1.7,0c-0.2,0.3-0.3,0.5-0.4,0.9l-1.7,0C196.2,37,196.3,36.7,196.5,36.4"/>
						<path class="st15" d="M196.1,37.3l1.7,0c-0.1,0.3-0.2,0.7-0.3,1.1h-1.7C195.9,37.9,196,37.6,196.1,37.3"/>
						<path class="st14" d="M195.8,38.3h1.7c-0.1,0.5-0.2,1-0.2,1.5h-1.7C195.6,39.3,195.7,38.8,195.8,38.3"/>
						<path class="st10" d="M195.6,39.9h1.7c0,0.2,0,0.4,0,0.5c0,0.3,0,0.5,0,0.8l-1.7,0c0-0.2,0-0.5,0-0.8
							C195.6,40.2,195.6,40,195.6,39.9"/>
						<path class="st11" d="M195.6,41.2l1.7,0c0,0.3,0.1,0.6,0.1,0.8h-1.7C195.6,41.7,195.6,41.4,195.6,41.2"/>
						<path class="st12" d="M195.7,42h1.7c0.1,0.3,0.2,0.5,0.3,0.7H196C195.9,42.4,195.8,42.2,195.7,42"/>
						<path class="st13" d="M196,42.7h1.7c0.1,0.2,0.3,0.4,0.4,0.6h-1.7C196.2,43.1,196.1,42.9,196,42.7"/>
						<path class="st12" d="M196.4,43.2h1.7c0.1,0.1,0.2,0.2,0.4,0.3l-1.7,0C196.6,43.4,196.5,43.3,196.4,43.2"/>
						<path class="st11" d="M196.8,43.5l1.7,0c0.1,0,0.2,0.1,0.3,0.1h-1.7C197,43.6,196.9,43.5,196.8,43.5"/>
						<path class="st10" d="M197.1,43.6h1.7c0.1,0,0.2,0.1,0.3,0.1l-1.7,0C197.3,43.7,197.2,43.6,197.1,43.6"/>
						<path class="st14" d="M197.4,43.7l1.7,0c0.1,0,0.3,0,0.4,0l-1.7,0C197.7,43.7,197.5,43.7,197.4,43.7"/>
						<path class="st15" d="M197.8,43.7l1.7,0c0,0,0,0,0,0L197.8,43.7C197.8,43.7,197.8,43.7,197.8,43.7"/>
					</g>
				</g>
				<g class="st7">
					<defs>
						<path id="SVGID_53_" class="st7" d="M203.4,41.5h1.7c-0.1,0.9-0.4,1.7-0.9,2.4c-0.5,0.7-1.2,1.3-2.1,1.7
							c-0.8,0.4-1.6,0.6-2.5,0.6l-1.7,0c0.9,0,1.7-0.2,2.5-0.6c0.8-0.4,1.5-1,2.1-1.7C203,43.1,203.3,42.3,203.4,41.5z"/>
					</defs>
					<clipPath id="SVGID_54_">
						<use xlink:href="#SVGID_53_"  style="overflow:visible;"/>
					</clipPath>
					<g class="st47">
						<path class="st14" d="M203.4,41.5h1.7c0,0.2,0,0.3-0.1,0.5h-1.7C203.4,41.8,203.4,41.6,203.4,41.5"/>
						<path class="st15" d="M203.4,42h1.7c0,0.2-0.1,0.4-0.2,0.6h-1.7C203.2,42.4,203.3,42.2,203.4,42"/>
						<path class="st21" d="M203.2,42.6h1.7c-0.1,0.2-0.2,0.5-0.3,0.7h-1.7C203,43.1,203.1,42.8,203.2,42.6"/>
						<path class="st20" d="M202.8,43.3h1.7c-0.1,0.2-0.2,0.4-0.3,0.5c-0.5,0.7-1.2,1.3-2.1,1.7c-0.8,0.4-1.6,0.6-2.5,0.6h-1.7
							c0.9,0,1.7-0.2,2.5-0.6c0.8-0.4,1.5-1,2.1-1.7C202.6,43.7,202.7,43.5,202.8,43.3"/>
					</g>
				</g>
				<g class="st7">
					<defs>
						<path id="SVGID_55_" class="st7" d="M199.2,32.4h1.7c0.1,0,0.1,0,0.2,0c1.4,0,2.6,0.5,3.4,1.4c0.9,0.9,1.3,2.1,1.3,3.6l-1.7,0
							c0-1.5-0.4-2.7-1.3-3.6c-0.9-0.9-2-1.4-3.4-1.4C199.4,32.4,199.3,32.4,199.2,32.4z"/>
					</defs>
					<clipPath id="SVGID_56_">
						<use xlink:href="#SVGID_55_"  style="overflow:visible;"/>
					</clipPath>
					<g class="st48">
						<path class="st15" d="M199.2,32.4h1.7c0.1,0,0.1,0,0.2,0c0,0,0.1,0,0.1,0h-1.7c0,0-0.1,0-0.1,0
							C199.4,32.4,199.3,32.4,199.2,32.4"/>
						<path class="st14" d="M199.5,32.4h1.7c0.3,0,0.6,0,0.8,0.1l-1.7,0C200.1,32.4,199.8,32.4,199.5,32.4"/>
						<path class="st10" d="M200.4,32.5l1.7,0c0.2,0,0.5,0.1,0.7,0.2H201C200.8,32.6,200.6,32.5,200.4,32.5"/>
						<path class="st11" d="M201,32.6h1.7c0.2,0.1,0.5,0.2,0.7,0.3l-1.7,0C201.5,32.8,201.3,32.7,201,32.6"/>
						<path class="st12" d="M201.7,32.9l1.7,0c0.3,0.2,0.6,0.4,0.9,0.6h-1.7C202.3,33.3,202,33.1,201.7,32.9"/>
						<path class="st13" d="M202.6,33.5h1.7c0.1,0.1,0.2,0.2,0.3,0.3c0.3,0.3,0.5,0.6,0.7,1l-1.7,0c-0.2-0.4-0.4-0.7-0.7-1
							C202.8,33.7,202.7,33.6,202.6,33.5"/>
						<path class="st12" d="M203.6,34.8l1.7,0c0.2,0.3,0.3,0.7,0.4,1.1H204C203.9,35.5,203.8,35.1,203.6,34.8"/>
						<path class="st11" d="M204,35.9h1.7c0.1,0.3,0.1,0.6,0.1,0.9h-1.7C204.1,36.5,204.1,36.2,204,35.9"/>
						<path class="st10" d="M204.1,36.8h1.7c0,0.2,0,0.4,0,0.5h-1.7C204.2,37.2,204.1,37,204.1,36.8"/>
					</g>
				</g>
				<g>
					<path class="st24" d="M199.2,32.4c0.1,0,0.1,0,0.2,0c1.4,0,2.6,0.5,3.4,1.4c0.9,0.9,1.3,2.1,1.3,3.6h-2.7
						c0-0.8-0.2-1.4-0.6-1.9c-0.4-0.5-0.9-0.7-1.6-0.8c0,0-0.1,0-0.1,0c-1.1,0-1.9,0.5-2.6,1.4c-0.6,1-1,2.4-1.1,4.2
						c-0.1,2.2,0.7,3.3,2.3,3.3c0,0,0,0,0,0c0.7,0,1.3-0.2,1.8-0.6c0.5-0.4,0.9-1,1-1.6l2.7,0c-0.1,0.9-0.4,1.7-0.9,2.4
						c-0.5,0.7-1.2,1.3-2.1,1.7c-0.8,0.4-1.6,0.6-2.5,0.6c-0.1,0-0.1,0-0.2,0c-1.1,0-2.1-0.3-2.9-0.9c-0.8-0.6-1.4-1.4-1.7-2.4
						c-0.4-1-0.5-2.1-0.4-3.4l0-0.4c0.1-1.3,0.5-2.4,1.1-3.5c0.6-1,1.4-1.8,2.3-2.4C197.2,32.6,198.1,32.4,199.2,32.4z"/>
				</g>
			</g>
			<g class="st7">
				<g>
					<polygon class="st31" points="209.4,36.8 211.1,36.8 209.5,45.8 207.8,45.8 					"/>
				</g>
				<g>
					<polygon class="st31" points="209.9,32.6 211.7,32.6 211.4,34.1 209.6,34.1 					"/>
				</g>
				<g class="st7">
					<defs>
						<path id="SVGID_57_" class="st7" d="M212.3,35.2h1.7c-1.2,0-2.2,0.5-2.9,1.6l-1.7,0C210.1,35.7,211.1,35.2,212.3,35.2z"/>
					</defs>
					<clipPath id="SVGID_58_">
						<use xlink:href="#SVGID_57_"  style="overflow:visible;"/>
					</clipPath>
					<g class="st49">
						<path class="st20" d="M212.3,35.2h1.7c-1.2,0-2.2,0.5-2.9,1.6h-1.7C210.1,35.7,211.1,35.2,212.3,35.2"/>
					</g>
				</g>
				<g class="st7">
					<defs>
						<path id="SVGID_59_" class="st7" d="M212.7,32.4h1.7c0,0,0.1,0,0.1,0L212.7,32.4C212.7,32.4,212.7,32.4,212.7,32.4z"/>
					</defs>
					<clipPath id="SVGID_60_">
						<use xlink:href="#SVGID_59_"  style="overflow:visible;"/>
					</clipPath>
					<g class="st50">
						<path class="st15" d="M212.7,32.4h1.7c0,0,0.1,0,0.1,0L212.7,32.4C212.7,32.4,212.7,32.4,212.7,32.4"/>
					</g>
				</g>
				<g>
					<path class="st24" d="M212.7,32.4C212.7,32.4,212.7,32.4,212.7,32.4c0.3,0,0.7,0.1,1.2,0.2l-0.3,2.8c-0.4-0.1-0.8-0.1-1.1-0.1
						c0,0-0.1,0-0.1,0c-1.2,0-2.2,0.5-2.9,1.6l-1.6,9h-2.9l2.3-13.2l2.7,0l-0.3,1.5C210.5,32.9,211.5,32.4,212.7,32.4z"/>
				</g>
				<g>
					<polygon class="st51" points="213.9,32.5 215.6,32.5 215.3,35.3 213.5,35.3 					"/>
				</g>
				<g class="st7">
					<defs>
						<path id="SVGID_61_" class="st7" d="M212.7,32.4h1.7c0.3,0,0.6,0.1,1.1,0.2l-1.7,0C213.4,32.4,213,32.4,212.7,32.4z"/>
					</defs>
					<clipPath id="SVGID_62_">
						<use xlink:href="#SVGID_61_"  style="overflow:visible;"/>
					</clipPath>
					<g class="st52">
						<path class="st15" d="M212.7,32.4h1.7c0,0,0,0,0.1,0L212.7,32.4C212.8,32.4,212.8,32.4,212.7,32.4"/>
						<path class="st14" d="M212.8,32.4h1.7c0.1,0,0.3,0,0.5,0.1l-1.7,0C213.1,32.4,212.9,32.4,212.8,32.4"/>
						<path class="st10" d="M213.3,32.4l1.7,0c0.2,0,0.4,0.1,0.6,0.1h-1.7C213.6,32.5,213.4,32.4,213.3,32.4"/>
					</g>
				</g>
				<g>
					<polygon class="st8" points="216,32.6 217.7,32.6 220.6,32.6 218.9,32.6 					"/>
				</g>
				<g>
					<polygon class="st31" points="218.9,32.6 220.6,32.6 218.4,45.8 216.6,45.8 					"/>
				</g>
				<g>
					<polygon class="st24" points="213.7,45.8 216,32.6 218.9,32.6 216.6,45.8 					"/>
				</g>
			</g>
			<g class="st7">
				<g class="st7">
					<defs>
						<path id="SVGID_63_" class="st7" d="M218.1,30.8l1.7,0c0,0,0,0,0,0L218.1,30.8C218,30.8,218,30.8,218.1,30.8z"/>
					</defs>
					<clipPath id="SVGID_64_">
						<use xlink:href="#SVGID_63_"  style="overflow:visible;"/>
					</clipPath>
					<g class="st53">
						<path class="st20" d="M218.1,30.8l1.7,0c0,0,0,0,0,0L218.1,30.8C218,30.8,218,30.8,218.1,30.8"/>
					</g>
				</g>
				<g class="st7">
					<defs>
						<path id="SVGID_65_" class="st7" d="M218.1,27.6l1.7,0c0.4,0,0.8,0.1,1.1,0.4l-1.7,0C218.9,27.7,218.6,27.6,218.1,27.6z"/>
					</defs>
					<clipPath id="SVGID_66_">
						<use xlink:href="#SVGID_65_"  style="overflow:visible;"/>
					</clipPath>
					<g class="st54">
						<path class="st15" d="M218.1,27.6l1.7,0c0,0,0,0,0.1,0L218.1,27.6C218.2,27.6,218.1,27.6,218.1,27.6"/>
						<path class="st14" d="M218.2,27.6l1.7,0c0.1,0,0.2,0,0.2,0l-1.7,0C218.3,27.6,218.3,27.6,218.2,27.6"/>
						<path class="st10" d="M218.4,27.6l1.7,0c0.1,0,0.1,0,0.2,0.1l-1.7,0C218.6,27.7,218.5,27.6,218.4,27.6"/>
						<path class="st11" d="M218.6,27.7l1.7,0c0.1,0,0.2,0.1,0.2,0.1l-1.7,0C218.8,27.7,218.7,27.7,218.6,27.7"/>
						<path class="st12" d="M218.9,27.8l1.7,0c0.1,0.1,0.2,0.1,0.3,0.2l-1.7,0C219.1,27.9,219,27.8,218.9,27.8"/>
						<path class="st13" d="M219.2,28l1.7,0c0,0,0,0,0.1,0.1L219.2,28C219.2,28,219.2,28,219.2,28"/>
					</g>
				</g>
				<g class="st7">
					<defs>
						<path id="SVGID_67_" class="st7" d="M219.2,28l1.7,0c0.3,0.3,0.5,0.7,0.5,1.1c0,0.5-0.2,0.8-0.5,1.2c-0.3,0.3-0.7,0.5-1.2,0.5
							l-1.7,0c0.5,0,0.9-0.2,1.2-0.5c0.3-0.3,0.5-0.7,0.5-1.2C219.7,28.7,219.5,28.3,219.2,28z"/>
					</defs>
					<clipPath id="SVGID_68_">
						<use xlink:href="#SVGID_67_"  style="overflow:visible;"/>
					</clipPath>
					<g class="st55">
						<path class="st13" d="M219.2,28l1.7,0c0.1,0.1,0.2,0.3,0.3,0.4l-1.7,0C219.4,28.3,219.3,28.2,219.2,28"/>
						<path class="st12" d="M219.5,28.4l1.7,0c0.1,0.1,0.1,0.2,0.1,0.3l-1.7,0C219.6,28.6,219.6,28.5,219.5,28.4"/>
						<path class="st11" d="M219.6,28.8l1.7,0c0,0.1,0,0.2,0,0.3l-1.7,0C219.7,28.9,219.7,28.8,219.6,28.8"/>
						<path class="st10" d="M219.7,29l1.7,0c0,0,0,0.1,0,0.1c0,0,0,0.1,0,0.1l-1.7,0c0,0,0-0.1,0-0.1
							C219.7,29.1,219.7,29.1,219.7,29"/>
						<path class="st14" d="M219.7,29.3l1.7,0c0,0.1,0,0.2,0,0.2h-1.7C219.7,29.4,219.7,29.4,219.7,29.3"/>
						<path class="st15" d="M219.7,29.5h1.7c0,0.1,0,0.1-0.1,0.2l-1.7,0C219.6,29.7,219.6,29.6,219.7,29.5"/>
						<path class="st21" d="M219.6,29.7l1.7,0c0,0.1-0.1,0.2-0.1,0.2l-1.7,0C219.5,29.9,219.6,29.8,219.6,29.7"/>
						<path class="st20" d="M219.5,30l1.7,0c-0.1,0.1-0.2,0.2-0.3,0.3c-0.3,0.3-0.7,0.5-1.2,0.5l-1.7,0c0.5,0,0.9-0.2,1.2-0.5
							C219.3,30.2,219.4,30.1,219.5,30"/>
					</g>
				</g>
				<g>
					<path class="st24" d="M219.2,28c0.3,0.3,0.5,0.7,0.5,1.1c0,0.5-0.2,0.8-0.5,1.2c-0.3,0.3-0.7,0.5-1.2,0.5c0,0,0,0,0,0
						c-0.4,0-0.8-0.1-1.1-0.4c-0.3-0.3-0.5-0.7-0.5-1.1c0-0.4,0.2-0.8,0.4-1.1c0.3-0.3,0.7-0.5,1.2-0.5c0,0,0.1,0,0.1,0
						C218.6,27.6,218.9,27.7,219.2,28z"/>
				</g>
			</g>
			<g class="st7">
				<g>
					<polygon class="st32" points="222.9,44.4 224.7,44.4 224.2,45.8 222.5,45.8 					"/>
				</g>
				<g>
					<polygon class="st31" points="224.3,36.5 226.1,36.5 225.1,42 223.4,42 					"/>
				</g>
				<g class="st7">
					<defs>
						<path id="SVGID_69_" class="st7" d="M223.4,42l1.7,0c0.4,1.1,1.1,1.7,2.3,1.7l-1.7,0C224.5,43.6,223.8,43.1,223.4,42z"/>
					</defs>
					<clipPath id="SVGID_70_">
						<use xlink:href="#SVGID_69_"  style="overflow:visible;"/>
					</clipPath>
					<g class="st56">
						<path class="st12" d="M223.4,42h1.7c0.1,0.2,0.1,0.3,0.2,0.5l-1.7,0C223.5,42.3,223.5,42.1,223.4,42"/>
						<path class="st13" d="M223.6,42.5l1.7,0c0.1,0.3,0.3,0.5,0.5,0.7h-1.7C223.9,42.9,223.7,42.7,223.6,42.5"/>
						<path class="st12" d="M224.1,43.1h1.7c0.1,0.1,0.3,0.2,0.4,0.3h-1.7C224.4,43.3,224.2,43.2,224.1,43.1"/>
						<path class="st11" d="M224.5,43.4h1.7c0.1,0.1,0.2,0.1,0.3,0.1h-1.7C224.7,43.5,224.6,43.5,224.5,43.4"/>
						<path class="st10" d="M224.9,43.5h1.7c0.1,0,0.2,0.1,0.4,0.1h-1.7C225.1,43.6,225,43.6,224.9,43.5"/>
						<path class="st14" d="M225.2,43.6h1.7c0.1,0,0.3,0,0.4,0l-1.7,0C225.5,43.7,225.4,43.7,225.2,43.6"/>
						<path class="st15" d="M225.7,43.7l1.7,0c0,0,0,0,0,0L225.7,43.7C225.7,43.7,225.7,43.7,225.7,43.7"/>
					</g>
				</g>
				<g class="st7">
					<defs>
						<path id="SVGID_71_" class="st7" d="M225.7,43.7l1.7,0c0,0,0.1,0,0.1,0L225.7,43.7C225.8,43.7,225.7,43.7,225.7,43.7z"/>
					</defs>
					<clipPath id="SVGID_72_">
						<use xlink:href="#SVGID_71_"  style="overflow:visible;"/>
					</clipPath>
					<g class="st57">
						<path class="st15" d="M225.7,43.7h1.7c0,0,0.1,0,0.1,0L225.7,43.7C225.8,43.7,225.7,43.7,225.7,43.7"/>
					</g>
				</g>
				<g>
					<polygon class="st31" points="226,27.1 227.7,27.1 226.4,33.9 224.7,33.9 					"/>
				</g>
				<g>
					<polygon class="st8" points="223.1,27.1 224.8,27.1 227.7,27.1 226,27.1 					"/>
				</g>
				<g class="st7">
					<defs>
						<path id="SVGID_73_" class="st7" d="M227.2,34.8l1.7,0c-1.1,0-2.1,0.6-2.9,1.7l-1.7,0C225.1,35.4,226.1,34.8,227.2,34.8z"/>
					</defs>
					<clipPath id="SVGID_74_">
						<use xlink:href="#SVGID_73_"  style="overflow:visible;"/>
					</clipPath>
					<g class="st58">
						<path class="st20" d="M227.2,34.8l1.7,0c-1.1,0-2.1,0.6-2.9,1.7h-1.7C225.1,35.4,226.1,34.8,227.2,34.8"/>
					</g>
				</g>
				<g class="st7">
					<defs>
						<path id="SVGID_75_" class="st7" d="M227.2,34.8C227.2,34.8,227.2,34.8,227.2,34.8l1.7,0c0,0,0,0,0,0
							C228.4,34.8,227.7,34.8,227.2,34.8z"/>
					</defs>
					<clipPath id="SVGID_76_">
						<use xlink:href="#SVGID_75_"  style="overflow:visible;"/>
					</clipPath>
					<g class="st59">
						<polyline class="st20" points="227.2,34.8 229,34.8 229,34.8 227.2,34.8 227.2,34.8 						"/>
					</g>
				</g>
				<g class="st7">
					<defs>
						<path id="SVGID_77_" class="st7" d="M232.2,39.3l1.7,0c-0.2,1.3-0.5,2.6-1.1,3.6c-0.6,1.1-1.3,1.9-2.1,2.4
							c-0.8,0.5-1.7,0.7-2.6,0.7l-1.7,0c1,0,1.9-0.3,2.6-0.7c0.8-0.5,1.5-1.3,2.1-2.4C231.7,41.8,232.1,40.6,232.2,39.3z"/>
					</defs>
					<clipPath id="SVGID_78_">
						<use xlink:href="#SVGID_77_"  style="overflow:visible;"/>
					</clipPath>
					<g class="st60">
						<path class="st14" d="M232.2,39.3l1.7,0c0,0.3-0.1,0.7-0.2,1h-1.7C232.1,40,232.2,39.6,232.2,39.3"/>
						<path class="st15" d="M232.1,40.3h1.7c-0.1,0.5-0.3,1-0.4,1.5l-1.7,0C231.8,41.3,231.9,40.8,232.1,40.3"/>
						<path class="st21" d="M231.6,41.8l1.7,0c-0.1,0.4-0.3,0.8-0.5,1.1c-0.1,0.1-0.1,0.3-0.2,0.4h-1.7c0.1-0.1,0.1-0.2,0.2-0.4
							C231.3,42.6,231.5,42.2,231.6,41.8"/>
						<path class="st20" d="M230.9,43.3h1.7c-0.5,0.9-1.1,1.6-1.9,2c-0.8,0.5-1.7,0.7-2.6,0.7h-1.7c1,0,1.9-0.3,2.6-0.7
							C229.8,44.9,230.4,44.2,230.9,43.3"/>
					</g>
				</g>
				<g class="st7">
					<defs>
						<path id="SVGID_79_" class="st7" d="M228,32.4l1.7,0c0,0,0.1,0,0.1,0c1.3,0,2.3,0.5,3,1.4c0.7,0.9,1.1,2.1,1.1,3.7l-1.7,0
							c0-1.6-0.4-2.8-1.1-3.7c-0.7-0.9-1.7-1.4-3-1.4C228.1,32.4,228.1,32.4,228,32.4z"/>
					</defs>
					<clipPath id="SVGID_80_">
						<use xlink:href="#SVGID_79_"  style="overflow:visible;"/>
					</clipPath>
					<g class="st61">
						<path class="st15" d="M228,32.4l1.7,0c0,0,0.1,0,0.1,0c0,0,0,0,0.1,0h-1.7c0,0,0,0-0.1,0C228.1,32.4,228.1,32.4,228,32.4"/>
						<path class="st14" d="M228.2,32.4h1.7c0.2,0,0.5,0,0.7,0.1h-1.7C228.7,32.4,228.5,32.4,228.2,32.4"/>
						<path class="st10" d="M228.9,32.5h1.7c0.2,0,0.4,0.1,0.6,0.1h-1.7C229.3,32.5,229.1,32.5,228.9,32.5"/>
						<path class="st11" d="M229.5,32.6h1.7c0.2,0.1,0.4,0.1,0.5,0.2l-1.7,0C229.8,32.7,229.6,32.7,229.5,32.6"/>
						<path class="st12" d="M230,32.8l1.7,0c0.3,0.1,0.5,0.3,0.7,0.5l-1.7,0C230.5,33.1,230.2,32.9,230,32.8"/>
						<path class="st13" d="M230.7,33.3l1.7,0c0.2,0.1,0.3,0.3,0.5,0.5c0.2,0.2,0.3,0.5,0.5,0.7h-1.7c-0.1-0.3-0.3-0.5-0.5-0.7
							C231,33.6,230.9,33.4,230.7,33.3"/>
						<path class="st12" d="M231.6,34.5h1.7c0.2,0.4,0.4,0.8,0.5,1.2h-1.7C232,35.3,231.8,34.9,231.6,34.5"/>
						<path class="st11" d="M232.1,35.8h1.7c0.1,0.4,0.2,0.8,0.2,1.2l-1.7,0C232.2,36.5,232.2,36.1,232.1,35.8"/>
						<path class="st10" d="M232.3,37l1.7,0c0,0.2,0,0.3,0,0.5l-1.7,0C232.3,37.3,232.3,37.1,232.3,37"/>
					</g>
				</g>
				<g>
					<path class="st24" d="M232.3,37.5c0,0.5,0,1.1-0.1,1.8c-0.2,1.3-0.5,2.6-1.1,3.6c-0.6,1.1-1.3,1.9-2.1,2.4
						c-0.8,0.5-1.7,0.7-2.6,0.7c0,0-0.1,0-0.1,0c-1.5,0-2.6-0.6-3.3-1.7l-0.5,1.4h-2.6l3.2-18.7h2.9l-1.3,6.8c1-1,2.1-1.5,3.4-1.5
						c0,0,0.1,0,0.1,0c1.3,0,2.3,0.5,3,1.4C231.9,34.7,232.3,35.9,232.3,37.5z M229.3,39.3c0.1-0.7,0.1-1.2,0.1-1.6
						c0-0.9-0.2-1.6-0.5-2.1c-0.4-0.5-0.9-0.8-1.6-0.8c0,0-0.1,0-0.1,0c-1.1,0-2.1,0.6-2.9,1.7l-1,5.5c0.4,1.1,1.1,1.7,2.3,1.7
						c0,0,0.1,0,0.1,0c0.9,0,1.7-0.4,2.3-1.1C228.7,41.8,229.1,40.7,229.3,39.3"/>
				</g>
				<g class="st7">
					<defs>
						<path id="SVGID_81_" class="st7" d="M232.3,37.5l1.7,0c0,0.5,0,1.1-0.1,1.8l-1.7,0C232.3,38.6,232.3,38,232.3,37.5z"/>
					</defs>
					<clipPath id="SVGID_82_">
						<use xlink:href="#SVGID_81_"  style="overflow:visible;"/>
					</clipPath>
					<g class="st62">
						<path class="st10" d="M232.3,37.5l1.7,0c0,0.3,0,0.8,0,1.2l-1.7,0C232.3,38.3,232.3,37.8,232.3,37.5"/>
						<path class="st14" d="M232.3,38.7l1.7,0c0,0.2,0,0.4,0,0.6l-1.7,0C232.2,39.1,232.3,38.9,232.3,38.7"/>
					</g>
				</g>
			</g>
			<g class="st7">
				<g class="st7">
					<defs>
						<path id="SVGID_83_" class="st7" d="M237.1,40.2h1.7c-0.1,1.1,0.1,1.9,0.6,2.5c0.5,0.6,1.2,1,2.1,1l-1.7,0
							c-0.9,0-1.6-0.3-2.1-1C237.3,42.1,237.1,41.2,237.1,40.2z"/>
					</defs>
					<clipPath id="SVGID_84_">
						<use xlink:href="#SVGID_83_"  style="overflow:visible;"/>
					</clipPath>
					<g class="st63">
						<path class="st14" d="M237.1,40.2h1.7c0,0,0,0,0,0L237.1,40.2C237.1,40.2,237.1,40.2,237.1,40.2"/>
						<path class="st10" d="M237.1,40.2h1.7c0,0.3,0,0.5,0,0.7h-1.7C237.1,40.7,237.1,40.5,237.1,40.2"/>
						<path class="st11" d="M237.1,40.9h1.7c0,0.2,0.1,0.4,0.1,0.6l-1.7,0C237.2,41.4,237.1,41.2,237.1,40.9"/>
						<path class="st12" d="M237.2,41.6l1.7,0c0.1,0.3,0.2,0.5,0.3,0.7h-1.7C237.4,42.1,237.3,41.8,237.2,41.6"/>
						<path class="st13" d="M237.5,42.3h1.7c0.1,0.1,0.2,0.3,0.3,0.4c0.1,0.1,0.2,0.3,0.3,0.4l-1.7,0c-0.1-0.1-0.2-0.2-0.3-0.4
							C237.7,42.6,237.6,42.4,237.5,42.3"/>
						<path class="st12" d="M238.1,43.1l1.7,0c0.1,0.1,0.3,0.2,0.5,0.3l-1.7,0C238.4,43.3,238.3,43.2,238.1,43.1"/>
						<path class="st11" d="M238.6,43.4l1.7,0c0.1,0.1,0.2,0.1,0.4,0.2H239C238.8,43.5,238.7,43.5,238.6,43.4"/>
						<path class="st10" d="M239,43.6h1.7c0.1,0,0.2,0.1,0.4,0.1h-1.7C239.2,43.6,239.1,43.6,239,43.6"/>
						<path class="st14" d="M239.3,43.7h1.7c0.2,0,0.3,0,0.5,0h-1.7C239.6,43.7,239.5,43.7,239.3,43.7"/>
						<path class="st15" d="M239.8,43.7h1.7c0,0,0,0,0,0L239.8,43.7C239.8,43.7,239.8,43.7,239.8,43.7"/>
					</g>
				</g>
				<g class="st7">
					<defs>
						<path id="SVGID_85_" class="st7" d="M241.7,43.7l-1.7,0c0,0-0.1,0-0.1,0l1.7,0C241.6,43.7,241.6,43.7,241.7,43.7z"/>
					</defs>
					<clipPath id="SVGID_86_">
						<use xlink:href="#SVGID_85_"  style="overflow:visible;"/>
					</clipPath>
					<g class="st64">
						<path class="st15" d="M239.8,43.7l1.7,0c0,0,0.1,0,0.1,0l-1.7,0C239.9,43.7,239.9,43.7,239.8,43.7"/>
					</g>
				</g>
				<g class="st7">
					<defs>
						<path id="SVGID_87_" class="st7" d="M240.7,34.8h1.7c-1.5,0-2.6,1.1-3.3,3.3l-1.7,0C238.1,35.8,239.2,34.8,240.7,34.8z"/>
					</defs>
					<clipPath id="SVGID_88_">
						<use xlink:href="#SVGID_87_"  style="overflow:visible;"/>
					</clipPath>
					<g class="st65">
						<path class="st20" d="M240.7,34.8h1.7c-1.1,0-2,0.6-2.7,1.8l-1.7,0C238.7,35.4,239.6,34.8,240.7,34.8"/>
						<path class="st21" d="M238,36.6l1.7,0c-0.2,0.4-0.4,0.8-0.6,1.3h-1.7C237.6,37.3,237.8,36.9,238,36.6"/>
						<path class="st15" d="M237.4,37.8h1.7c0,0.1,0,0.1-0.1,0.2h-1.7C237.4,37.9,237.4,37.9,237.4,37.8"/>
					</g>
				</g>
				<g>
					<polygon class="st8" points="237.4,38 239.1,38 244.6,38 242.8,38 					"/>
				</g>
				<g class="st7">
					<defs>
						<path id="SVGID_89_" class="st7" d="M240.8,32.4l1.7,0c0.1,0,0.1,0,0.2,0c1.7,0,2.9,0.6,3.7,1.8h-1.7
							c-0.8-1.2-2.1-1.8-3.7-1.8C240.9,32.4,240.9,32.4,240.8,32.4z"/>
					</defs>
					<clipPath id="SVGID_90_">
						<use xlink:href="#SVGID_89_"  style="overflow:visible;"/>
					</clipPath>
					<g class="st66">
						<path class="st15" d="M240.8,32.4l1.7,0c0.1,0,0.1,0,0.2,0c0,0,0,0,0.1,0H241c0,0,0,0-0.1,0C240.9,32.4,240.9,32.4,240.8,32.4
							"/>
						<path class="st14" d="M241,32.4h1.7c0.3,0,0.6,0,0.8,0.1l-1.7,0C241.6,32.4,241.3,32.4,241,32.4"/>
						<path class="st10" d="M241.9,32.5l1.7,0c0.2,0,0.5,0.1,0.7,0.2h-1.7C242.3,32.6,242.1,32.5,241.9,32.5"/>
						<path class="st11" d="M242.6,32.6h1.7c0.2,0.1,0.4,0.2,0.6,0.3h-1.7C243,32.8,242.8,32.7,242.6,32.6"/>
						<path class="st12" d="M243.2,32.9h1.7c0.3,0.1,0.6,0.3,0.8,0.5H244C243.7,33.2,243.5,33,243.2,32.9"/>
						<path class="st13" d="M244,33.4h1.7c0.3,0.2,0.5,0.5,0.7,0.8h-1.7C244.5,33.9,244.2,33.7,244,33.4"/>
					</g>
				</g>
				<g>
					<polygon class="st67" points="243.3,42.1 245,42.1 246.5,43.6 244.7,43.6 					"/>
				</g>
				<g class="st7">
					<defs>
						<path id="SVGID_91_" class="st7" d="M244.7,43.6h1.7c-0.6,0.8-1.3,1.4-2.2,1.8c-0.9,0.4-1.8,0.6-2.8,0.6l-1.7,0
							c1,0,2-0.2,2.8-0.6C243.4,45,244.2,44.4,244.7,43.6z"/>
					</defs>
					<clipPath id="SVGID_92_">
						<use xlink:href="#SVGID_91_"  style="overflow:visible;"/>
					</clipPath>
					<g class="st68">
						<path class="st20" d="M244.7,43.6l1.7,0c-0.6,0.8-1.3,1.4-2.2,1.8c-0.9,0.4-1.8,0.6-2.8,0.6h-1.7c1,0,2-0.2,2.8-0.6
							C243.4,45,244.2,44.4,244.7,43.6"/>
					</g>
				</g>
				<g>
					<polygon class="st51" points="245.6,38.9 247.4,38.9 247.2,40.2 245.4,40.2 					"/>
				</g>
				<g>
					<path class="st24" d="M244.7,34.2c0.8,1.2,1.1,2.8,0.9,4.7l-0.2,1.3h-8.3c-0.1,1.1,0.1,1.9,0.6,2.5c0.5,0.6,1.2,1,2.1,1
						c0,0,0.1,0,0.1,0c1.2,0,2.3-0.5,3.3-1.6l1.5,1.5c-0.6,0.8-1.3,1.4-2.2,1.8c-0.9,0.4-1.8,0.6-2.8,0.6c0,0-0.1,0-0.1,0
						c-1.2,0-2.1-0.3-3-0.9c-0.8-0.5-1.5-1.3-1.9-2.3c-0.4-1-0.5-2-0.4-3.2l0-0.5c0.1-1.3,0.5-2.6,1.2-3.6c0.6-1.1,1.4-1.9,2.4-2.4
						c0.9-0.5,1.9-0.8,2.9-0.8c0.1,0,0.1,0,0.2,0C242.6,32.4,243.8,33,244.7,34.2z M242.9,37.8c0.1-0.4,0.1-0.7,0-1.1
						c-0.1-0.6-0.3-1-0.7-1.4c-0.4-0.3-0.8-0.5-1.4-0.5c0,0-0.1,0-0.1,0c-1.5,0-2.6,1.1-3.3,3.3l5.5,0L242.9,37.8"/>
				</g>
				<g class="st7">
					<defs>
						<path id="SVGID_93_" class="st7" d="M244.7,34.2h1.7c0.8,1.2,1.1,2.8,0.9,4.7h-1.7C245.8,37,245.5,35.4,244.7,34.2z"/>
					</defs>
					<clipPath id="SVGID_94_">
						<use xlink:href="#SVGID_93_"  style="overflow:visible;"/>
					</clipPath>
					<g class="st69">
						<path class="st13" d="M244.7,34.2h1.7c0.1,0.2,0.2,0.3,0.3,0.5H245C244.9,34.6,244.8,34.4,244.7,34.2"/>
						<path class="st12" d="M245,34.8h1.7c0.2,0.4,0.4,0.8,0.5,1.3h-1.7C245.4,35.6,245.2,35.2,245,34.8"/>
						<path class="st11" d="M245.5,36h1.7c0.1,0.4,0.1,0.7,0.2,1.1h-1.7C245.6,36.8,245.6,36.4,245.5,36"/>
						<path class="st10" d="M245.6,37.2h1.7c0,0.4,0,0.8,0,1.3h-1.7C245.7,38,245.7,37.6,245.6,37.2"/>
						<path class="st14" d="M245.7,38.5h1.7c0,0.1,0,0.3,0,0.5h-1.7C245.6,38.8,245.6,38.6,245.7,38.5"/>
					</g>
				</g>
			</g>
		</g>
	</g>
</g>
<g id="Layer_3_copy">
	<g>
		<path class="st3" d="M149.7,42.2c0.2-1.2-0.5-2-1.9-2.6l-1-0.4c-1.8-0.6-3.1-1.4-3.9-2.3c-0.8-0.9-1.1-1.9-1-3.1
			c0.1-1,0.4-1.9,1-2.7c0.6-0.8,1.4-1.4,2.5-1.8c1-0.4,2.1-0.6,3.2-0.6c1.1,0,2.1,0.3,3,0.7c0.9,0.5,1.5,1.1,2,1.9
			c0.5,0.8,0.7,1.8,0.6,2.8l-3,0c0.1-0.9-0.1-1.6-0.6-2.1c-0.5-0.5-1.2-0.8-2.1-0.8c-1,0-1.8,0.2-2.4,0.7c-0.7,0.5-1,1.1-1.2,1.9
			c-0.2,1,0.5,1.8,2.1,2.4l0.9,0.3c1.9,0.7,3.2,1.5,3.9,2.3c0.7,0.9,1.1,2,1,3.2c-0.1,1-0.4,1.9-1,2.6c-0.6,0.7-1.4,1.3-2.4,1.7
			c-1,0.4-2.1,0.6-3.4,0.6c-1.2,0-2.2-0.3-3.2-0.7c-0.9-0.5-1.7-1.1-2.2-2c-0.5-0.8-0.7-1.8-0.7-2.9l3,0c-0.1,1,0.2,1.8,0.7,2.3
			c0.6,0.5,1.4,0.8,2.4,0.8c1,0,1.8-0.2,2.4-0.6C149.2,43.6,149.6,43,149.7,42.2z"/>
		<path class="st3" d="M162.5,45.6c-1,1.1-2.3,1.6-3.8,1.6c-0.9,0-1.6-0.2-2.1-0.6c-0.6-0.4-1-1-1.2-1.7c-0.2-0.7-0.3-1.6-0.2-2.6
			l1.4-8.5h2.9l-1.4,8.6c0,0.3,0,0.6,0,0.9c0.1,1,0.6,1.5,1.5,1.6c1.3,0,2.3-0.5,3.1-1.5l1.7-9.5h2.9L165,46.9h-2.7L162.5,45.6z"/>
		<path class="st3" d="M180.4,40.4c-0.2,1.3-0.5,2.6-1.1,3.6c-0.6,1.1-1.2,1.9-2.1,2.4c-0.8,0.5-1.8,0.8-2.8,0.7
			c-1.5,0-2.6-0.6-3.3-1.7l-0.5,1.4H168l3.2-18.8h2.9l-1.3,6.8c1-1.1,2.2-1.6,3.5-1.5c1.3,0,2.3,0.5,3,1.4c0.7,0.9,1.1,2.1,1.1,3.7
			C180.5,39.1,180.4,39.6,180.4,40.4z M177.6,38.7c0-0.9-0.2-1.6-0.5-2.1c-0.4-0.5-0.9-0.8-1.6-0.8c-1.2,0-2.1,0.5-3,1.7l-1,5.5
			c0.4,1.1,1.1,1.7,2.3,1.7c1,0,1.8-0.4,2.4-1.1c0.6-0.8,1-1.9,1.2-3.3C177.5,39.7,177.6,39.1,177.6,38.7z"/>
		<path class="st3" d="M189.6,43.2c0.1-0.8-0.4-1.4-1.6-1.7c-1.2-0.3-2-0.6-2.4-0.8c-1.7-0.7-2.5-1.8-2.4-3.3c0-1.2,0.6-2.2,1.6-2.9
			c1-0.8,2.3-1.2,3.7-1.1c1.4,0,2.5,0.4,3.4,1.2c0.9,0.8,1.3,1.8,1.3,3l-2.9,0c0-0.6-0.2-1.1-0.5-1.4c-0.4-0.3-0.8-0.5-1.4-0.5
			c-0.6,0-1.2,0.2-1.7,0.5c-0.5,0.3-0.7,0.7-0.8,1.2c-0.1,0.7,0.4,1.3,1.6,1.5c1.2,0.3,2,0.6,2.6,0.8c1.6,0.7,2.4,1.8,2.3,3.3
			c0,0.8-0.3,1.6-0.8,2.2c-0.5,0.6-1.2,1.1-2,1.4c-0.9,0.3-1.8,0.5-2.7,0.5c-1.4,0-2.6-0.4-3.6-1.3c-0.9-0.8-1.4-1.9-1.4-3.2l2.8,0
			c0,0.7,0.2,1.2,0.6,1.6c0.4,0.4,1,0.6,1.7,0.6c0.7,0,1.3-0.1,1.8-0.4C189.3,44.2,189.6,43.8,189.6,43.2z"/>
		<path class="st3" d="M200.1,44.8c0.7,0,1.3-0.2,1.8-0.6c0.5-0.4,0.9-1,1-1.6l2.7,0c-0.1,0.9-0.4,1.7-0.9,2.4
			c-0.5,0.7-1.2,1.3-2.1,1.7c-0.8,0.4-1.7,0.6-2.6,0.6c-1.1,0-2.1-0.3-2.9-0.9c-0.8-0.6-1.4-1.4-1.7-2.4c-0.4-1-0.5-2.1-0.4-3.4
			l0-0.4c0.1-1.3,0.5-2.4,1.1-3.5c0.6-1,1.4-1.8,2.3-2.4c1-0.6,2-0.8,3.2-0.8c1.4,0,2.6,0.5,3.4,1.4c0.9,0.9,1.3,2.1,1.3,3.6h-2.7
			c0-0.8-0.2-1.4-0.6-1.9c-0.4-0.5-0.9-0.7-1.6-0.8c-1.1,0-2,0.4-2.7,1.4c-0.7,1-1,2.4-1,4.2C197.8,43.6,198.6,44.8,200.1,44.8z"/>
		<path class="st3" d="M215.8,36.4c-0.4-0.1-0.8-0.1-1.1-0.1c-1.3,0-2.3,0.5-3,1.6l-1.6,9h-2.9l2.3-13.2l2.7,0l-0.3,1.5
			c0.9-1.2,1.9-1.8,3.1-1.8c0.3,0,0.6,0.1,1.1,0.2L215.8,36.4z"/>
		<path class="st3" d="M218.9,46.9H216l2.3-13.2h2.9L218.9,46.9z M218.7,30.3c0-0.4,0.1-0.8,0.4-1.1c0.3-0.3,0.7-0.5,1.2-0.5
			c0.5,0,0.9,0.1,1.2,0.4c0.3,0.3,0.5,0.7,0.5,1.1c0,0.5-0.2,0.8-0.5,1.1c-0.3,0.3-0.7,0.5-1.2,0.5c-0.5,0-0.9-0.1-1.2-0.4
			S218.7,30.7,218.7,30.3z"/>
		<path class="st3" d="M234.5,40.4c-0.2,1.3-0.5,2.6-1.1,3.6c-0.6,1.1-1.2,1.9-2.1,2.4c-0.8,0.5-1.8,0.8-2.8,0.7
			c-1.5,0-2.6-0.6-3.3-1.7l-0.5,1.4h-2.6l3.2-18.8h2.9L227,35c1-1.1,2.2-1.6,3.5-1.5c1.3,0,2.3,0.5,3,1.4c0.7,0.9,1.1,2.1,1.1,3.7
			C234.6,39.1,234.6,39.6,234.5,40.4z M231.7,38.7c0-0.9-0.2-1.6-0.5-2.1c-0.4-0.5-0.9-0.8-1.6-0.8c-1.2,0-2.1,0.5-3,1.7l-1,5.5
			c0.4,1.1,1.1,1.7,2.3,1.7c1,0,1.8-0.4,2.4-1.1c0.6-0.8,1-1.9,1.2-3.3C231.7,39.7,231.7,39.1,231.7,38.7z"/>
		<path class="st3" d="M241.9,47.1c-1.1,0-2.1-0.3-3-0.9c-0.8-0.6-1.5-1.3-1.9-2.3c-0.4-1-0.6-2-0.5-3.2l0-0.5
			c0.1-1.3,0.5-2.5,1.2-3.6c0.6-1.1,1.4-1.9,2.4-2.4c1-0.6,2-0.8,3.1-0.8c1.7,0,2.9,0.6,3.7,1.8c0.8,1.2,1.1,2.8,0.9,4.7l-0.2,1.3
			h-8.3c-0.1,1,0.1,1.9,0.6,2.5c0.5,0.6,1.2,1,2.1,1c1.2,0,2.4-0.5,3.4-1.6l1.5,1.5c-0.6,0.8-1.3,1.4-2.2,1.8
			C244,47,243,47.2,241.9,47.1z M243.1,35.8c-1.5,0-2.7,1-3.4,3.2l5.5,0l0-0.3c0.1-0.4,0.1-0.7,0-1.1c-0.1-0.6-0.3-1-0.7-1.4
			S243.7,35.8,243.1,35.8z"/>
	</g>
	<g>
		<path class="st2" d="M148.7,40.1c0.2-1.2-0.5-2-1.9-2.6l-1-0.4c-1.8-0.6-3.1-1.4-3.9-2.3c-0.8-0.9-1.1-1.9-1-3.1
			c0.1-1,0.4-1.9,1-2.7c0.6-0.8,1.4-1.4,2.5-1.8c1-0.4,2.1-0.6,3.2-0.6c1.1,0,2.1,0.3,3,0.7c0.9,0.5,1.5,1.1,2,1.9
			c0.5,0.8,0.7,1.8,0.6,2.8l-3,0c0.1-0.9-0.1-1.6-0.6-2.1c-0.5-0.5-1.2-0.8-2.1-0.8c-1,0-1.8,0.2-2.4,0.7c-0.7,0.5-1,1.1-1.2,1.9
			c-0.2,1,0.5,1.8,2.1,2.4l0.9,0.3c1.9,0.7,3.2,1.5,3.9,2.3c0.7,0.9,1.1,2,1,3.2c-0.1,1-0.4,1.9-1,2.6c-0.6,0.7-1.4,1.3-2.4,1.7
			c-1,0.4-2.1,0.6-3.4,0.6c-1.2,0-2.2-0.3-3.2-0.7c-0.9-0.5-1.7-1.1-2.2-2c-0.5-0.8-0.7-1.8-0.7-2.9l3,0c-0.1,1,0.2,1.8,0.7,2.3
			c0.6,0.5,1.4,0.8,2.4,0.8c1,0,1.8-0.2,2.4-0.6C148.2,41.5,148.5,40.8,148.7,40.1z"/>
		<path class="st2" d="M161.5,43.4c-1,1.1-2.3,1.6-3.8,1.6c-0.9,0-1.6-0.2-2.1-0.6c-0.6-0.4-1-1-1.2-1.7c-0.2-0.7-0.3-1.6-0.2-2.6
			l1.4-8.5h2.9l-1.4,8.6c0,0.3,0,0.6,0,0.9c0.1,1,0.6,1.5,1.5,1.6c1.3,0,2.3-0.5,3.1-1.5l1.7-9.5h2.9l-2.3,13.2h-2.7L161.5,43.4z"/>
		<path class="st2" d="M179.3,38.2c-0.2,1.3-0.5,2.6-1.1,3.6c-0.6,1.1-1.2,1.9-2.1,2.4c-0.8,0.5-1.8,0.8-2.8,0.7
			c-1.5,0-2.6-0.6-3.3-1.7l-0.5,1.4h-2.6l3.2-18.8h2.9l-1.3,6.8c1-1.1,2.2-1.6,3.5-1.5c1.3,0,2.3,0.5,3,1.4c0.7,0.9,1.1,2.1,1.1,3.7
			C179.4,36.9,179.4,37.5,179.3,38.2z M176.5,36.5c0-0.9-0.2-1.6-0.5-2.1c-0.4-0.5-0.9-0.8-1.6-0.8c-1.2,0-2.1,0.5-3,1.7l-1,5.5
			c0.4,1.1,1.1,1.7,2.3,1.7c1,0,1.8-0.4,2.4-1.1c0.6-0.8,1-1.9,1.2-3.3C176.5,37.5,176.5,36.9,176.5,36.5z"/>
		<path class="st2" d="M188.6,41.1c0.1-0.8-0.4-1.4-1.6-1.7c-1.2-0.3-2-0.6-2.4-0.8c-1.7-0.7-2.5-1.8-2.4-3.3c0-1.2,0.6-2.2,1.6-2.9
			c1-0.8,2.3-1.2,3.7-1.1c1.4,0,2.5,0.4,3.4,1.2c0.9,0.8,1.3,1.8,1.3,3l-2.9,0c0-0.6-0.2-1.1-0.5-1.4c-0.4-0.3-0.8-0.5-1.4-0.5
			c-0.6,0-1.2,0.2-1.7,0.5c-0.5,0.3-0.7,0.7-0.8,1.2c-0.1,0.7,0.4,1.3,1.6,1.5c1.2,0.3,2,0.6,2.6,0.8c1.6,0.7,2.4,1.8,2.3,3.3
			c0,0.8-0.3,1.6-0.8,2.2c-0.5,0.6-1.2,1.1-2,1.4c-0.9,0.3-1.8,0.5-2.7,0.5c-1.4,0-2.6-0.4-3.6-1.3c-0.9-0.8-1.4-1.9-1.4-3.2l2.8,0
			c0,0.7,0.2,1.2,0.6,1.6c0.4,0.4,1,0.6,1.7,0.6c0.7,0,1.3-0.1,1.8-0.4C188.2,42,188.5,41.6,188.6,41.1z"/>
		<path class="st2" d="M199.1,42.6c0.7,0,1.3-0.2,1.8-0.6c0.5-0.4,0.9-1,1-1.6l2.7,0c-0.1,0.9-0.4,1.7-0.9,2.4
			c-0.5,0.7-1.2,1.3-2.1,1.7c-0.8,0.4-1.7,0.6-2.6,0.6c-1.1,0-2.1-0.3-2.9-0.9c-0.8-0.6-1.4-1.4-1.7-2.4c-0.4-1-0.5-2.1-0.4-3.4
			l0-0.4c0.1-1.3,0.5-2.4,1.1-3.5c0.6-1,1.4-1.8,2.3-2.4c1-0.6,2-0.8,3.2-0.8c1.4,0,2.6,0.5,3.4,1.4c0.9,0.9,1.3,2.1,1.3,3.6h-2.7
			c0-0.8-0.2-1.4-0.6-1.9c-0.4-0.5-0.9-0.7-1.6-0.8c-1.1,0-2,0.4-2.7,1.4c-0.7,1-1,2.4-1,4.2C196.8,41.5,197.5,42.6,199.1,42.6z"/>
		<path class="st2" d="M214.8,34.2c-0.4-0.1-0.8-0.1-1.1-0.1c-1.3,0-2.3,0.5-3,1.6l-1.6,9h-2.9l2.3-13.2l2.7,0l-0.3,1.5
			c0.9-1.2,1.9-1.8,3.1-1.8c0.3,0,0.6,0.1,1.1,0.2L214.8,34.2z"/>
		<path class="st2" d="M217.9,44.7H215l2.3-13.2h2.9L217.9,44.7z M217.7,28.1c0-0.4,0.1-0.8,0.4-1.1c0.3-0.3,0.7-0.5,1.2-0.5
			c0.5,0,0.9,0.1,1.2,0.4c0.3,0.3,0.5,0.7,0.5,1.1c0,0.5-0.2,0.8-0.5,1.1c-0.3,0.3-0.7,0.5-1.2,0.5c-0.5,0-0.9-0.1-1.2-0.4
			S217.7,28.6,217.7,28.1z"/>
		<path class="st2" d="M233.5,38.2c-0.2,1.3-0.5,2.6-1.1,3.6c-0.6,1.1-1.2,1.9-2.1,2.4c-0.8,0.5-1.8,0.8-2.8,0.7
			c-1.5,0-2.6-0.6-3.3-1.7l-0.5,1.4h-2.6l3.2-18.8h2.9l-1.3,6.8c1-1.1,2.2-1.6,3.5-1.5c1.3,0,2.3,0.5,3,1.4c0.7,0.9,1.1,2.1,1.1,3.7
			C233.6,36.9,233.6,37.5,233.5,38.2z M230.7,36.5c0-0.9-0.2-1.6-0.5-2.1c-0.4-0.5-0.9-0.8-1.6-0.8c-1.2,0-2.1,0.5-3,1.7l-1,5.5
			c0.4,1.1,1.1,1.7,2.3,1.7c1,0,1.8-0.4,2.4-1.1c0.6-0.8,1-1.9,1.2-3.3C230.7,37.5,230.7,36.9,230.7,36.5z"/>
		<path class="st2" d="M240.9,45c-1.1,0-2.1-0.3-3-0.9c-0.8-0.6-1.5-1.3-1.9-2.3c-0.4-1-0.6-2-0.5-3.2l0-0.5
			c0.1-1.3,0.5-2.5,1.2-3.6c0.6-1.1,1.4-1.9,2.4-2.4c1-0.6,2-0.8,3.1-0.8c1.7,0,2.9,0.6,3.7,1.8c0.8,1.2,1.1,2.8,0.9,4.7l-0.2,1.3
			h-8.3c-0.1,1,0.1,1.9,0.6,2.5c0.5,0.6,1.2,1,2.1,1c1.2,0,2.4-0.5,3.4-1.6l1.5,1.5c-0.6,0.8-1.3,1.4-2.2,1.8
			C242.9,44.8,241.9,45,240.9,45z M242.1,33.6c-1.5,0-2.7,1-3.4,3.2l5.5,0l0-0.3c0.1-0.4,0.1-0.7,0-1.1c-0.1-0.6-0.3-1-0.7-1.4
			S242.7,33.7,242.1,33.6z"/>
	</g>
</g>
</svg>
