<svg id="reddup-plus" xmlns="http://www.w3.org/2000/svg" viewBox="0 0 235.08 65.14"><title>reddup-plus</title><path d="M18.91,25.07a2.11,2.11,0,0,1,1.55.63,2.17,2.17,0,0,1,.6,1.55v.07a2,2,0,0,1-.6,1.51,2.11,2.11,0,0,1-1.55.63h-2a8.65,8.65,0,0,0-6.36,2.64,8.83,8.83,0,0,0-2.64,6.36V59.2a2.05,2.05,0,0,1-.63,1.51,2,2,0,0,1-1.51.64H5.66a2,2,0,0,1-1.51-.64,2.05,2.05,0,0,1-.63-1.51V38.46A13.23,13.23,0,0,1,7.42,29a12.91,12.91,0,0,1,9.49-3.9Z" transform="translate(-3.52 -10.65)"/><path d="M54.9,35.68A2,2,0,0,1,55,37.34a2.17,2.17,0,0,1-1.12,1.19L40.91,44.37q-10,4.5-14.14,6.36c3.29,4.22,7.16,6.33,11.64,6.33a13.72,13.72,0,0,0,13-9.25,2.06,2.06,0,0,1,2.11-1.47,2.12,2.12,0,0,1,1.8.91,2,2,0,0,1,.24,2A17.65,17.65,0,0,1,49,57.94a17.9,17.9,0,0,1-10.62,3.41A18.13,18.13,0,0,1,20.27,43.21a17.45,17.45,0,0,1,5.31-12.83,17.49,17.49,0,0,1,12.83-5.31A18.09,18.09,0,0,1,54.9,35.68ZM38.41,29.53A13.73,13.73,0,0,0,24.67,43.31,25.78,25.78,0,0,0,25,46.72L49.8,35.51Q44.81,29.53,38.41,29.53Z" transform="translate(-3.52 -10.65)"/><path d="M91.48,10.65a2.15,2.15,0,0,1,1.52.6,2.11,2.11,0,0,1,.63,1.55V43.31a18.15,18.15,0,0,1-18.14,18A18.13,18.13,0,0,1,57.35,43.21,18.13,18.13,0,0,1,75.49,25.07q6.86,0,13.74,6.11V12.8a2.08,2.08,0,0,1,.64-1.55,2.11,2.11,0,0,1,1.51-.6ZM65.75,33.57a13.8,13.8,0,0,0,0,19.45,13.28,13.28,0,0,0,9.74,4,13.1,13.1,0,0,0,9.7-4,13.72,13.72,0,0,0,0-19.45,13.1,13.1,0,0,0-9.7-4A13.28,13.28,0,0,0,65.75,33.57Z" transform="translate(-3.52 -10.65)"/><path d="M130.14,10.65a2.11,2.11,0,0,1,1.51.6,2.08,2.08,0,0,1,.64,1.55V43.31a18.15,18.15,0,0,1-31,12.73A17.49,17.49,0,0,1,96,43.21a18.13,18.13,0,0,1,18.15-18.14q6.85,0,13.74,6.11V12.8a2.11,2.11,0,0,1,.63-1.55,2.15,2.15,0,0,1,1.52-.6ZM104.41,33.57a13.8,13.8,0,0,0,0,19.45,13.28,13.28,0,0,0,9.74,4,13.1,13.1,0,0,0,9.7-4,13.72,13.72,0,0,0,0-19.45,13.1,13.1,0,0,0-9.7-4A13.28,13.28,0,0,0,104.41,33.57Z" transform="translate(-3.52 -10.65)"/><path d="M140.11,46.48a10.5,10.5,0,1,0,21,0V27.25a2.15,2.15,0,0,1,2.18-2.18h.07a2.05,2.05,0,0,1,1.51.63,2.11,2.11,0,0,1,.63,1.55V46.48a14.89,14.89,0,0,1-29.77,0V27.25a2.11,2.11,0,0,1,.63-1.55,2.07,2.07,0,0,1,1.51-.63H138a2.07,2.07,0,0,1,1.51.63,2.11,2.11,0,0,1,.63,1.55Z" transform="translate(-3.52 -10.65)"/><path d="M171.07,75.8a2,2,0,0,1-1.51-.64,2.05,2.05,0,0,1-.63-1.51V43.14a17.54,17.54,0,0,1,5.34-12.8,18.17,18.17,0,0,1,25.63,0,17.45,17.45,0,0,1,5.31,12.83,18.13,18.13,0,0,1-18.14,18.14q-6.9,0-13.75-6.12V73.65a2.17,2.17,0,0,1-2.14,2.15Zm25.7-23a13.71,13.71,0,0,0,0-19.44,13.73,13.73,0,0,0-23.45,9.74,13.74,13.74,0,0,0,13.75,13.74A13.06,13.06,0,0,0,196.77,52.84Z" transform="translate(-3.52 -10.65)"/><path d="M224.42,33.79h12A2.15,2.15,0,0,1,238.59,36V36a2.07,2.07,0,0,1-.63,1.51,2.11,2.11,0,0,1-1.55.63h-12v12a2.17,2.17,0,0,1-2.18,2.18h-.07a2,2,0,0,1-1.51-.64,2.09,2.09,0,0,1-.63-1.54v-12H208A2.15,2.15,0,0,1,205.83,36V36a2.11,2.11,0,0,1,.63-1.54,2.05,2.05,0,0,1,1.51-.63H220V21.73a2.09,2.09,0,0,1,.63-1.52,2.07,2.07,0,0,1,1.51-.63h.07a2.15,2.15,0,0,1,2.18,2.15Z" transform="translate(-3.52 -10.65)"/></svg>