<?xml version="1.0" encoding="utf-8"?>
<!-- Generator: Adobe Illustrator 19.0.0, SVG Export Plug-In . SVG Version: 6.00 Build 0)  -->
<svg version="1.1"
	 id="Layer_1" xmlns:rdf="http://www.w3.org/1999/02/22-rdf-syntax-ns#" xmlns:cc="http://creativecommons.org/ns#" xmlns:dc="http://purl.org/dc/elements/1.1/"
	 xmlns="http://www.w3.org/2000/svg" xmlns:xlink="http://www.w3.org/1999/xlink" x="0px" y="0px" viewBox="-223 225 64 64"
	 style="enable-background:new -223 225 64 64;" xml:space="preserve">
<style type="text/css">
	.st0{fill:#F7931A;}
	.st1{fill:#FFFFFF;}
</style>
<g transform="translate(0.00630876,-0.00301984)">
	<path class="st0" d="M-160,264.7c-4.3,17.1-21.6,27.6-38.8,23.3c-17.1-4.3-27.6-21.6-23.3-38.8c4.3-17.1,21.6-27.6,38.8-23.3
		C-166.1,230.2-155.7,247.6-160,264.7z"/>
	<path class="st1" d="M-176.9,252.4c0.6-4.3-2.6-6.5-7-8.1l1.4-5.8l-3.5-0.9l-1.4,5.6c-0.9-0.2-1.9-0.4-2.8-0.7l1.4-5.7l-3.5-0.9
		l-1.4,5.8c-0.8-0.2-1.5-0.3-2.2-0.5l0,0l-4.8-1.2l-0.9,3.8c0,0,2.6,0.6,2.5,0.6c1.4,0.4,1.7,1.3,1.6,2l-1.6,6.6
		c0.1,0,0.2,0.1,0.4,0.1c-0.1,0-0.2-0.1-0.4-0.1l-2.3,9.2c-0.2,0.4-0.6,1.1-1.6,0.8c0,0.1-2.6-0.6-2.6-0.6l-1.7,4l4.6,1.1
		c0.8,0.2,1.7,0.4,2.5,0.6l-1.5,5.8l3.5,0.9l1.4-5.8c1,0.3,1.9,0.5,2.8,0.7l-1.4,5.7l3.5,0.9l1.5-5.8c6,1.1,10.5,0.7,12.4-4.7
		c1.5-4.4-0.1-6.9-3.2-8.5C-179.1,257.1-177.4,255.6-176.9,252.4z M-184.9,263.7c-1.1,4.4-8.4,2-10.8,1.4l1.9-7.7
		C-191.4,258-183.8,259.1-184.9,263.7z M-183.8,252.4c-1,4-7.1,2-9.1,1.5l1.7-7C-189.2,247.3-182.8,248.2-183.8,252.4z"/>
</g>
</svg>
