<?xml version="1.0" encoding="utf-8"?>
<!-- Generator: Adobe Illustrator 19.0.0, SVG Export Plug-In . SVG Version: 6.00 Build 0)  -->
<svg version="1.1" id="Capa_1" xmlns="http://www.w3.org/2000/svg" xmlns:xlink="http://www.w3.org/1999/xlink" x="0px" y="0px"
	 viewBox="-236 238.1 37.9 37.9" style="enable-background:new -236 238.1 37.9 37.9;" xml:space="preserve">
<g>
	<path d="M-208,257.3c-0.6-0.4-1.5-0.7-2.7-1c1.1-0.4,2-0.8,2.6-1.4c0.7-0.6,1.2-1.2,1.5-1.9c0.4-0.7,0.5-1.5,0.5-2.3
		c0-1.1-0.3-2.2-1-3.1c-0.7-0.9-1.6-1.7-2.8-2.2c-0.5-0.2-1-0.3-1.7-0.5v-4.4h-4.2v4.1h-2.7v-4.1h-4.2v4.1h-6.4v3.4h1
		c0.6,0,1.1,0.1,1.3,0.2s0.4,0.3,0.5,0.5c0.1,0.2,0.1,0.7,0.1,1.4V264c0,0.7,0,1.2-0.1,1.4c-0.1,0.2-0.3,0.4-0.5,0.5
		c-0.2,0.1-0.7,0.2-1.3,0.2h-1v3.4h6.4v4.1h4.2v-4.1h2.4c0.1,0,0.2,0,0.3,0v4.1h4.2v-4.4c0.7-0.1,1.3-0.3,1.9-0.5
		c1.4-0.6,2.6-1.4,3.4-2.5c0.8-1.1,1.2-2.3,1.2-3.6c0-1.1-0.3-2.1-0.8-3C-206.4,258.5-207.1,257.8-208,257.3z M-220,248.7h2.7
		c1.6,0,2.7,0.1,3.3,0.3c0.6,0.2,1.1,0.5,1.4,1c0.3,0.5,0.5,1,0.5,1.7c0,0.6-0.2,1.2-0.5,1.7c-0.3,0.5-0.9,0.8-1.5,1.1
		c-0.7,0.2-1.7,0.4-3.2,0.4h-2.7L-220,248.7L-220,248.7z M-212.3,264c-0.5,0.6-1.1,1-1.8,1.2c-0.7,0.2-1.6,0.3-2.6,0.3h-1.8
		c-0.6,0-1,0-1.1-0.1c-0.1-0.1-0.2-0.2-0.3-0.3c0-0.1-0.1-0.6-0.1-1.3v-5.4h3.2c1.4,0,2.5,0.1,3.1,0.4c0.7,0.3,1.2,0.6,1.5,1.2
		c0.3,0.5,0.5,1.1,0.5,1.9C-211.6,262.6-211.8,263.4-212.3,264z"/>
</g>
</svg>
