<?xml version="1.0" encoding="iso-8859-1"?>
<!-- Generator: Adobe Illustrator 18.1.1, SVG Export Plug-In . SVG Version: 6.00 Build 0)  -->
<svg version="1.1" id="Capa_1" xmlns="http://www.w3.org/2000/svg" xmlns:xlink="http://www.w3.org/1999/xlink" x="0px" y="0px"
	 viewBox="0 0 18.046 18.046" style="enable-background:new 0 0 18.046 18.046;" xml:space="preserve">
<g>
	<g>
		<path style="fill:#030104;" d="M15.126,3.413c-0.344-0.246-0.736-0.433-1.149-0.582c0.544,0.658,0.864,1.499,0.864,2.546
			c0,1.962-0.9,3.44-2.123,4.386c-1.271,0.992-3.07,1.431-4.963,1.431c-0.555,0-1.016-0.046-1.362-0.092L5.331,16.71H4.299
			l-0.252,1.336h3.255l1.062-5.609c0.346,0.047,0.808,0.093,1.362,0.093c1.894,0,3.693-0.438,4.963-1.431
			c1.224-0.947,2.124-2.424,2.124-4.386C16.812,5.213,16.165,4.128,15.126,3.413z"/>
		<path style="fill:#030104;" d="M5.55,10.065c0.347,0.046,0.808,0.092,1.362,0.092c1.893,0,3.693-0.438,4.963-1.432
			c1.225-0.946,2.124-2.423,2.124-4.385c0-1.5-0.646-2.585-1.686-3.301C11.181,0.231,9.565,0,8.181,0c-1.5,0-3.07,0.162-4.063,0.416
			L1.234,15.674h3.255L5.55,10.065z M6.936,2.771c0.277-0.069,0.715-0.116,1.338-0.116c1.292,0,2.377,0.485,2.377,1.986
			c0,1.546-1.315,2.839-3.323,2.839c-0.554,0-0.924-0.046-1.27-0.115L6.936,2.771z"/>
	</g>
</g>
<g>
</g>
<g>
</g>
<g>
</g>
<g>
</g>
<g>
</g>
<g>
</g>
<g>
</g>
<g>
</g>
<g>
</g>
<g>
</g>
<g>
</g>
<g>
</g>
<g>
</g>
<g>
</g>
<g>
</g>
</svg>
