<?xml version="1.0" encoding="utf-8"?>
<!-- Generator: Adobe Illustrator 22.0.1, SVG Export Plug-In . SVG Version: 6.00 Build 0)  -->
<svg version="1.1" xmlns="http://www.w3.org/2000/svg" xmlns:xlink="http://www.w3.org/1999/xlink" x="0px" y="0px"
	 viewBox="0 0 198.1 75.3" style="enable-background:new 0 0 198.1 75.3;" xml:space="preserve">
<style type="text/css">
	.st0{display:none;}
	.st1{display:inline;fill:#007DC9;}
	.st2{clip-path:url(#SVGID_2_);}
	.st3{display:none;fill:#FFFFFF;}
	.st4{fill:#003087;}
	.st5{display:none;fill:#003087;}
	.st6{fill:#FFFFFF;}
	.st7{fill:#012169;}
	.st8{fill:#FFFFFF;stroke:#FFFFFF;stroke-width:0.5;stroke-miterlimit:10;}
	.st9{display:inline;fill:#009CDE;}
	.st10{display:inline;}
	.st11{clip-path:url(#SVGID_4_);}
</style>
<g id="Layer_2_copy" class="st0">
	<path class="st1" d="M194.1,75.3H4c-2.2,0-4-1.8-4-4V4c0-2.2,1.8-4,4-4h190.1c2.2,0,4,1.8,4,4v67.3
		C198.1,73.5,196.3,75.3,194.1,75.3z"/>
</g>
<g id="Layer_1_copy">
	<g transform="matrix(2.07675 0 0 -2.07675 -11.153 92.77)">
		<g>
			<defs>
				<rect id="SVGID_1_" x="-87.8" y="-14.4" width="259.6" height="84.3"/>
			</defs>
			<clipPath id="SVGID_2_">
				<use xlink:href="#SVGID_1_"  style="overflow:visible;"/>
			</clipPath>
			<g class="st2">
				<path class="st3" d="M56.8,28.3c-0.2-1.1-1-1.1-1.8-1.1h-0.4l0.3,2c0,0.1,0.1,0.2,0.2,0.2h0.2c0.5,0,1,0,1.3-0.3
					C56.8,28.9,56.9,28.7,56.8,28.3 M56.5,31.1h-3c-0.2,0-0.4-0.1-0.4-0.3l-1.2-7.6c0-0.1,0.1-0.3,0.2-0.3c0,0,0,0,0,0h1.5
					c0.1,0,0.3,0.1,0.3,0.2l0.3,2.2c0,0.2,0.2,0.3,0.4,0.3h0.9c2,0,3.1,0.9,3.4,2.8c0.1,0.8,0,1.5-0.4,1.9
					C58.2,30.8,57.5,31.1,56.5,31.1"/>
				<path class="st4" d="M24.3,33.7c-0.6,0.7-1.8,1-3.3,1h-4.3c-0.3,0-0.6-0.2-0.6-0.5l-1.8-11.4c0-0.2,0.1-0.4,0.3-0.4
					c0,0,0,0,0.1,0h2.7l0.7,4.2l0-0.1c0,0.3,0.3,0.5,0.6,0.5h1.3c2.5,0,4.4,1,5,3.9c0,0.1,0,0.2,0,0.3C25,32.3,24.9,33,24.3,33.7"/>
				<path class="st3" d="M63.4,25.5c-0.1-0.8-0.8-1.4-1.6-1.4c-0.4,0-0.7,0.1-1,0.4c-0.2,0.2-0.3,0.6-0.2,1c0.1,0.8,0.8,1.4,1.6,1.4
					c0.4,0,0.7-0.1,0.9-0.4C63.4,26.3,63.5,25.9,63.4,25.5 M65.4,28.3H64c-0.1,0-0.2-0.1-0.2-0.2l-0.1-0.4l-0.1,0.1
					c-0.3,0.4-1,0.6-1.7,0.6c-1.6,0-2.9-1.2-3.2-2.9c-0.1-0.8,0.1-1.6,0.5-2.2c0.4-0.5,1.1-0.7,1.8-0.7c1.3,0,2,0.8,2,0.8l-0.1-0.4
					c0-0.1,0.1-0.3,0.2-0.3c0,0,0,0,0,0h1.3c0.2,0,0.4,0.1,0.4,0.3l0.8,4.9C65.6,28.2,65.5,28.3,65.4,28.3
					C65.4,28.3,65.4,28.3,65.4,28.3"/>
				<path class="st5" d="M35.6,28.3c-0.2-1.1-1-1.1-1.8-1.1h-0.4l0.3,2c0,0.1,0.1,0.2,0.2,0.2h0.2c0.5,0,1,0,1.3-0.3
					C35.6,28.9,35.7,28.7,35.6,28.3 M35.3,31.1h-3c-0.2,0-0.4-0.1-0.4-0.3l-1.2-7.6c0-0.1,0.1-0.3,0.2-0.3c0,0,0,0,0,0h1.4
					c0.2,0,0.4,0.1,0.4,0.3l0.3,2.1c0,0.2,0.2,0.3,0.4,0.3h0.9c2,0,3.1,0.9,3.4,2.8c0.1,0.8,0,1.5-0.4,1.9
					C37,30.8,36.3,31.1,35.3,31.1 M42.2,25.5c-0.1-0.8-0.8-1.4-1.6-1.4c-0.4,0-0.7,0.1-1,0.4c-0.2,0.2-0.3,0.6-0.2,1
					c0.1,0.8,0.8,1.4,1.6,1.4c0.4,0,0.7-0.1,0.9-0.4C42.2,26.3,42.2,25.9,42.2,25.5 M44.2,28.3h-1.4c-0.1,0-0.2-0.1-0.2-0.2
					l-0.1-0.4l-0.1,0.1c-0.3,0.4-1,0.6-1.7,0.6c-1.6,0-2.9-1.2-3.2-2.9c-0.1-0.8,0.1-1.6,0.5-2.2c0.4-0.5,1.1-0.7,1.8-0.7
					c1.3,0,2,0.8,2,0.8l-0.1-0.4c0-0.1,0.1-0.3,0.2-0.3c0,0,0,0,0,0h1.3c0.2,0,0.4,0.1,0.4,0.3l0.8,4.9
					C44.4,28.2,44.3,28.3,44.2,28.3C44.2,28.3,44.2,28.3,44.2,28.3"/>
				<path class="st5" d="M51.8,28.3h-1.4c-0.1,0-0.3-0.1-0.3-0.2l-2-2.9L47.2,28c-0.1,0.2-0.2,0.3-0.4,0.3h-1.4
					c-0.1,0-0.2-0.1-0.2-0.2c0,0,0-0.1,0-0.1l1.6-4.6l-1.5-2.1c-0.1-0.1-0.1-0.3,0.1-0.3c0,0,0.1,0,0.1,0h1.4c0.1,0,0.3,0.1,0.3,0.2
					l4.8,6.9c0.1,0.1,0.1,0.3-0.1,0.3C51.9,28.3,51.8,28.3,51.8,28.3"/>
				<path class="st4" d="M24.3,33.7c-0.6,0.7-1.8,1-3.3,1h-4.3c-0.3,0-0.6-0.2-0.6-0.5l-1.8-11.4c0-0.2,0.1-0.4,0.3-0.4
					c0,0,0,0,0.1,0h2.7l0.7,4.2l0-0.1c0,0.3,0.3,0.5,0.6,0.5h1.3c2.5,0,4.4,1,5,3.9c0,0.1,0,0.2,0,0.3C25,32.3,24.9,33,24.3,33.7"/>
				<path class="st4" d="M18.7,31.2c0,0.3,0.3,0.5,0.5,0.5h3.4c0.4,0,0.8,0,1.1-0.1c0.2,0,0.4-0.1,0.6-0.1c0.2-0.1,0.4-0.1,0.6-0.2
					c0.2,1.1,0,1.8-0.6,2.5c-0.6,0.7-1.8,1-3.3,1h-4.3c-0.3,0-0.6-0.2-0.6-0.5l-1.8-11.4c0-0.2,0.1-0.4,0.3-0.4c0,0,0,0,0.1,0h2.7
					l0.7,4.2L18.7,31.2z"/>
				<path class="st6" d="M24.9,31.2c0-0.1,0-0.2,0-0.3c-0.6-2.9-2.5-3.9-5-3.9h-1.3c-0.3,0-0.6-0.2-0.6-0.5l-0.6-4.1l-0.2-1.2
					c0-0.2,0.1-0.3,0.3-0.4c0,0,0,0,0.1,0h2.2c0.3,0,0.5,0.2,0.5,0.5l0,0.1l0.4,2.7l0,0.1c0,0.3,0.3,0.5,0.5,0.5h0.3
					c2.2,0,3.9,0.9,4.4,3.4c0.2,1.1,0.1,2-0.4,2.6C25.3,30.9,25.1,31.1,24.9,31.2"/>
				<path class="st7" d="M24.3,31.5c-0.1,0-0.2,0-0.3,0.1s-0.2,0-0.3,0.1c-0.3,0.1-0.7,0.1-1.1,0.1h-3.4c-0.3,0-0.5-0.2-0.5-0.5
					L18,26.6l0-0.1c0,0.3,0.3,0.5,0.6,0.5h1.3c2.5,0,4.4,1,5,3.9c0,0.1,0,0.2,0,0.3c-0.1,0.1-0.3,0.1-0.5,0.2
					C24.4,31.4,24.3,31.4,24.3,31.5"/>
			</g>
		</g>
	</g>
</g>
<g id="Layer_5_copy">
	<g>
		<path class="st8" d="M67.9,40.1c0-0.9-0.2-1.7-0.6-2.3s-1.1-1.2-2-1.7c-0.9-0.5-2.3-1-4.2-1.5c-1.9-0.5-3.3-1-4.2-1.6
			c-0.9-0.5-1.6-1.1-2-1.8c-0.4-0.7-0.7-1.5-0.7-2.5c0-1.6,0.7-2.8,2-3.8c1.3-1,3-1.5,5.2-1.5c1.4,0,2.6,0.3,3.7,0.8
			c1.1,0.5,1.9,1.3,2.6,2.3c0.6,1,0.9,2.1,0.9,3.3h-0.8c0-1.6-0.6-2.9-1.8-4c-1.2-1-2.7-1.6-4.6-1.6c-1.9,0-3.4,0.4-4.6,1.3
			c-1.2,0.8-1.8,1.9-1.8,3.2c0,1.3,0.5,2.3,1.5,3.1s2.7,1.5,5,2.1s4,1.3,5.1,2.1c1.4,1,2.1,2.4,2.1,4.1c0,1.1-0.3,2-0.9,2.9
			c-0.6,0.8-1.5,1.5-2.6,1.9s-2.4,0.7-3.8,0.7c-1.6,0-3-0.3-4.2-0.8c-1.2-0.5-2.2-1.3-2.8-2.2s-0.9-2.1-0.9-3.4h0.8
			c0,1.8,0.7,3.1,2,4.1c1.3,1,3,1.5,5.2,1.5c1.9,0,3.4-0.4,4.7-1.3S67.9,41.5,67.9,40.1z"/>
		<path class="st8" d="M83.3,45.3v-2.6c-0.5,0.9-1.2,1.6-2.1,2.1s-2.1,0.8-3.4,0.8c-1.7,0-3.1-0.5-3.9-1.5c-0.9-1-1.3-2.5-1.3-4.5
			V29.3h0.8v10.3c0,1.7,0.4,3,1.2,3.9c0.7,0.9,1.8,1.3,3.3,1.3c1.5,0,2.8-0.4,3.7-1.1c1-0.7,1.6-1.8,1.8-3.2V29.3h0.8v16H83.3z"/>
		<path class="st8" d="M101.3,37.4c0,2.5-0.5,4.5-1.6,5.9s-2.5,2.2-4.4,2.2c-1.2,0-2.3-0.2-3.2-0.7c-0.9-0.5-1.7-1.2-2.2-2.1v2.5
			h-0.8V22.6h0.8v9.6c0.6-1.1,1.3-1.9,2.2-2.4c0.9-0.5,2-0.8,3.2-0.8c1.9,0,3.3,0.7,4.4,2.2c1.1,1.4,1.6,3.4,1.6,6V37.4z
			 M100.5,37.1c0-2.3-0.5-4.1-1.4-5.4s-2.2-1.9-3.8-1.9c-1.3,0-2.5,0.3-3.4,1c-0.9,0.7-1.6,1.7-2,3.1v7.3c0.4,1.1,1.1,2,2,2.6
			c0.9,0.6,2.1,0.9,3.4,0.9c1.6,0,2.9-0.7,3.8-2C100.1,41.5,100.5,39.6,100.5,37.1z"/>
		<path class="st8" d="M115.5,41.3c0-1.9-1.7-3.3-5-4c-2-0.4-3.4-1-4.2-1.6c-0.8-0.7-1.2-1.6-1.2-2.7c0-1.2,0.5-2.1,1.5-2.9
			c1-0.8,2.3-1.1,3.9-1.1c1.7,0,3.1,0.4,4.2,1.2c1,0.8,1.6,1.9,1.6,3.3h-0.8c0-1.1-0.5-2-1.4-2.7c-0.9-0.7-2.1-1.1-3.5-1.1
			c-1.4,0-2.5,0.3-3.3,0.9c-0.8,0.6-1.2,1.4-1.2,2.3c0,0.7,0.2,1.3,0.5,1.7c0.3,0.4,0.8,0.8,1.5,1.1s1.7,0.6,3,1
			c1.3,0.3,2.4,0.7,3.1,1.1c0.8,0.4,1.3,0.9,1.7,1.5c0.3,0.6,0.5,1.3,0.5,2.1c0,1.3-0.5,2.3-1.6,3s-2.4,1.2-4.1,1.2
			c-1.8,0-3.2-0.4-4.3-1.2c-1.1-0.8-1.6-1.9-1.6-3.1h0.8c0.1,1.1,0.6,2,1.5,2.6c0.9,0.6,2.1,0.9,3.7,0.9c1.4,0,2.6-0.3,3.5-1
			C115.1,43.1,115.5,42.3,115.5,41.3z"/>
		<path class="st8" d="M126.2,44.8c1.4,0,2.6-0.4,3.6-1.2c0.9-0.8,1.5-1.8,1.5-3.2h0.8c-0.1,1.5-0.7,2.8-1.8,3.7
			c-1.1,0.9-2.5,1.4-4.1,1.4c-2,0-3.6-0.7-4.8-2.2c-1.2-1.4-1.8-3.4-1.8-5.9V37c0-2.4,0.6-4.4,1.8-5.8c1.2-1.4,2.8-2.2,4.7-2.2
			c1.7,0,3.1,0.5,4.2,1.5c1.1,1,1.7,2.4,1.8,4.1h-0.8c-0.1-1.4-0.6-2.6-1.5-3.5c-0.9-0.9-2.2-1.3-3.6-1.3c-1.8,0-3.2,0.6-4.2,1.9
			s-1.5,3.1-1.5,5.4v0.5c0,2.2,0.5,4,1.5,5.3C123,44.1,124.4,44.8,126.2,44.8z"/>
		<path class="st8" d="M143.2,29.9l-1-0.1c-1.4,0-2.5,0.4-3.4,1.3c-0.9,0.9-1.5,2.1-1.8,3.7v10.5h-0.8v-16h0.8v3.3
			c0.4-1.1,1.1-2,2-2.6s2-1,3.3-1c0.5,0,0.8,0.1,1.1,0.2L143.2,29.9z"/>
		<path class="st8" d="M146,24.3c0-0.2,0.1-0.4,0.2-0.6c0.2-0.2,0.3-0.2,0.6-0.2c0.2,0,0.4,0.1,0.6,0.2c0.2,0.2,0.2,0.4,0.2,0.6
			c0,0.2-0.1,0.4-0.2,0.6s-0.4,0.2-0.6,0.2c-0.2,0-0.4-0.1-0.6-0.2S146,24.5,146,24.3z M147.2,45.3h-0.8v-16h0.8V45.3z"/>
		<path class="st8" d="M164.7,37.4c0,2.5-0.5,4.5-1.6,5.9s-2.5,2.2-4.4,2.2c-1.2,0-2.3-0.2-3.2-0.7c-0.9-0.5-1.7-1.2-2.2-2.1v2.5
			h-0.8V22.6h0.8v9.6c0.6-1.1,1.3-1.9,2.2-2.4c0.9-0.5,2-0.8,3.2-0.8c1.9,0,3.3,0.7,4.4,2.2c1.1,1.4,1.6,3.4,1.6,6V37.4z
			 M163.9,37.1c0-2.3-0.5-4.1-1.4-5.4s-2.2-1.9-3.8-1.9c-1.3,0-2.5,0.3-3.4,1c-0.9,0.7-1.6,1.7-2,3.1v7.3c0.4,1.1,1.1,2,2,2.6
			c0.9,0.6,2.1,0.9,3.4,0.9c1.6,0,2.9-0.7,3.8-2C163.4,41.5,163.9,39.6,163.9,37.1z"/>
		<path class="st8" d="M174.8,45.6c-1.3,0-2.5-0.3-3.6-1c-1.1-0.7-1.9-1.6-2.5-2.9c-0.6-1.2-0.9-2.6-0.9-4V37c0-1.5,0.3-2.8,0.9-4.1
			c0.6-1.2,1.4-2.2,2.4-2.9c1-0.7,2.2-1,3.4-1c1.8,0,3.2,0.6,4.4,1.9c1.1,1.3,1.7,2.9,1.7,5v0.8h-12v0.9c0,1.3,0.3,2.5,0.8,3.6
			c0.5,1.1,1.3,2,2.3,2.6c1,0.6,2,0.9,3.1,0.9c1.1,0,2-0.2,2.7-0.5c0.8-0.4,1.4-0.9,2-1.7l0.6,0.4C178.9,44.7,177.1,45.6,174.8,45.6
			z M174.5,29.8c-1.6,0-2.9,0.6-4,1.7c-1.1,1.2-1.7,2.6-1.9,4.4h11.1v-0.2c0-1.1-0.2-2.1-0.7-3c-0.5-0.9-1.1-1.7-1.9-2.2
			S175.5,29.8,174.5,29.8z"/>
	</g>
</g>
<g id="Layer_2" class="st0">
	<path class="st9" d="M194.1,75.3H4c-2.2,0-4-1.8-4-4V4c0-2.2,1.8-4,4-4h190.1c2.2,0,4,1.8,4,4v67.3
		C198.1,73.5,196.3,75.3,194.1,75.3z"/>
</g>
<g id="Layer_1" class="st0">
	<g transform="matrix(2.07675 0 0 -2.07675 -11.153 92.77)" class="st10">
		<g>
			<defs>
				<rect id="SVGID_3_" x="-87.8" y="-14.4" width="259.6" height="84.3"/>
			</defs>
			<clipPath id="SVGID_4_">
				<use xlink:href="#SVGID_3_"  style="overflow:visible;"/>
			</clipPath>
			<g class="st11">
				<path class="st3" d="M56.8,28.3c-0.2-1.1-1-1.1-1.8-1.1h-0.4l0.3,2c0,0.1,0.1,0.2,0.2,0.2h0.2c0.5,0,1,0,1.3-0.3
					C56.8,28.9,56.9,28.7,56.8,28.3 M56.5,31.1h-3c-0.2,0-0.4-0.1-0.4-0.3l-1.2-7.6c0-0.1,0.1-0.3,0.2-0.3c0,0,0,0,0,0h1.5
					c0.1,0,0.3,0.1,0.3,0.2l0.3,2.2c0,0.2,0.2,0.3,0.4,0.3h0.9c2,0,3.1,0.9,3.4,2.8c0.1,0.8,0,1.5-0.4,1.9
					C58.2,30.8,57.5,31.1,56.5,31.1"/>
				<path class="st4" d="M24.3,33.7c-0.6,0.7-1.8,1-3.3,1h-4.3c-0.3,0-0.6-0.2-0.6-0.5l-1.8-11.4c0-0.2,0.1-0.4,0.3-0.4
					c0,0,0,0,0.1,0h2.7l0.7,4.2l0-0.1c0,0.3,0.3,0.5,0.6,0.5h1.3c2.5,0,4.4,1,5,3.9c0,0.1,0,0.2,0,0.3C25,32.3,24.9,33,24.3,33.7"/>
				<path class="st3" d="M63.4,25.5c-0.1-0.8-0.8-1.4-1.6-1.4c-0.4,0-0.7,0.1-1,0.4c-0.2,0.2-0.3,0.6-0.2,1c0.1,0.8,0.8,1.4,1.6,1.4
					c0.4,0,0.7-0.1,0.9-0.4C63.4,26.3,63.5,25.9,63.4,25.5 M65.4,28.3H64c-0.1,0-0.2-0.1-0.2-0.2l-0.1-0.4l-0.1,0.1
					c-0.3,0.4-1,0.6-1.7,0.6c-1.6,0-2.9-1.2-3.2-2.9c-0.1-0.8,0.1-1.6,0.5-2.2c0.4-0.5,1.1-0.7,1.8-0.7c1.3,0,2,0.8,2,0.8l-0.1-0.4
					c0-0.1,0.1-0.3,0.2-0.3c0,0,0,0,0,0h1.3c0.2,0,0.4,0.1,0.4,0.3l0.8,4.9C65.6,28.2,65.5,28.3,65.4,28.3
					C65.4,28.3,65.4,28.3,65.4,28.3"/>
				<path class="st5" d="M35.6,28.3c-0.2-1.1-1-1.1-1.8-1.1h-0.4l0.3,2c0,0.1,0.1,0.2,0.2,0.2h0.2c0.5,0,1,0,1.3-0.3
					C35.6,28.9,35.7,28.7,35.6,28.3 M35.3,31.1h-3c-0.2,0-0.4-0.1-0.4-0.3l-1.2-7.6c0-0.1,0.1-0.3,0.2-0.3c0,0,0,0,0,0h1.4
					c0.2,0,0.4,0.1,0.4,0.3l0.3,2.1c0,0.2,0.2,0.3,0.4,0.3h0.9c2,0,3.1,0.9,3.4,2.8c0.1,0.8,0,1.5-0.4,1.9
					C37,30.8,36.3,31.1,35.3,31.1 M42.2,25.5c-0.1-0.8-0.8-1.4-1.6-1.4c-0.4,0-0.7,0.1-1,0.4c-0.2,0.2-0.3,0.6-0.2,1
					c0.1,0.8,0.8,1.4,1.6,1.4c0.4,0,0.7-0.1,0.9-0.4C42.2,26.3,42.2,25.9,42.2,25.5 M44.2,28.3h-1.4c-0.1,0-0.2-0.1-0.2-0.2
					l-0.1-0.4l-0.1,0.1c-0.3,0.4-1,0.6-1.7,0.6c-1.6,0-2.9-1.2-3.2-2.9c-0.1-0.8,0.1-1.6,0.5-2.2c0.4-0.5,1.1-0.7,1.8-0.7
					c1.3,0,2,0.8,2,0.8l-0.1-0.4c0-0.1,0.1-0.3,0.2-0.3c0,0,0,0,0,0h1.3c0.2,0,0.4,0.1,0.4,0.3l0.8,4.9
					C44.4,28.2,44.3,28.3,44.2,28.3C44.2,28.3,44.2,28.3,44.2,28.3"/>
				<path class="st5" d="M51.8,28.3h-1.4c-0.1,0-0.3-0.1-0.3-0.2l-2-2.9L47.2,28c-0.1,0.2-0.2,0.3-0.4,0.3h-1.4
					c-0.1,0-0.2-0.1-0.2-0.2c0,0,0-0.1,0-0.1l1.6-4.6l-1.5-2.1c-0.1-0.1-0.1-0.3,0.1-0.3c0,0,0.1,0,0.1,0h1.4c0.1,0,0.3,0.1,0.3,0.2
					l4.8,6.9c0.1,0.1,0.1,0.3-0.1,0.3C51.9,28.3,51.8,28.3,51.8,28.3"/>
				<path class="st4" d="M24.3,33.7c-0.6,0.7-1.8,1-3.3,1h-4.3c-0.3,0-0.6-0.2-0.6-0.5l-1.8-11.4c0-0.2,0.1-0.4,0.3-0.4
					c0,0,0,0,0.1,0h2.7l0.7,4.2l0-0.1c0,0.3,0.3,0.5,0.6,0.5h1.3c2.5,0,4.4,1,5,3.9c0,0.1,0,0.2,0,0.3C25,32.3,24.9,33,24.3,33.7"/>
				<path class="st4" d="M18.7,31.2c0,0.3,0.3,0.5,0.5,0.5h3.4c0.4,0,0.8,0,1.1-0.1c0.2,0,0.4-0.1,0.6-0.1c0.2-0.1,0.4-0.1,0.6-0.2
					c0.2,1.1,0,1.8-0.6,2.5c-0.6,0.7-1.8,1-3.3,1h-4.3c-0.3,0-0.6-0.2-0.6-0.5l-1.8-11.4c0-0.2,0.1-0.4,0.3-0.4c0,0,0,0,0.1,0h2.7
					l0.7,4.2L18.7,31.2z"/>
				<path class="st6" d="M24.9,31.2c0-0.1,0-0.2,0-0.3c-0.6-2.9-2.5-3.9-5-3.9h-1.3c-0.3,0-0.6-0.2-0.6-0.5l-0.6-4.1l-0.2-1.2
					c0-0.2,0.1-0.3,0.3-0.4c0,0,0,0,0.1,0h2.2c0.3,0,0.5,0.2,0.5,0.5l0,0.1l0.4,2.7l0,0.1c0,0.3,0.3,0.5,0.5,0.5h0.3
					c2.2,0,3.9,0.9,4.4,3.4c0.2,1.1,0.1,2-0.4,2.6C25.3,30.9,25.1,31.1,24.9,31.2"/>
				<path class="st7" d="M24.3,31.5c-0.1,0-0.2,0-0.3,0.1s-0.2,0-0.3,0.1c-0.3,0.1-0.7,0.1-1.1,0.1h-3.4c-0.3,0-0.5-0.2-0.5-0.5
					L18,26.6l0-0.1c0,0.3,0.3,0.5,0.6,0.5h1.3c2.5,0,4.4,1,5,3.9c0,0.1,0,0.2,0,0.3c-0.1,0.1-0.3,0.1-0.5,0.2
					C24.4,31.4,24.3,31.4,24.3,31.5"/>
			</g>
		</g>
	</g>
</g>
<g id="Layer_5" class="st0">
	<g class="st10">
		<path class="st8" d="M67.9,40.1c0-0.9-0.2-1.7-0.6-2.3s-1.1-1.2-2-1.7c-0.9-0.5-2.3-1-4.2-1.5c-1.9-0.5-3.3-1-4.2-1.6
			c-0.9-0.5-1.6-1.1-2-1.8c-0.4-0.7-0.7-1.5-0.7-2.5c0-1.6,0.7-2.8,2-3.8c1.3-1,3-1.5,5.2-1.5c1.4,0,2.6,0.3,3.7,0.8
			c1.1,0.5,1.9,1.3,2.6,2.3c0.6,1,0.9,2.1,0.9,3.3h-0.8c0-1.6-0.6-2.9-1.8-4c-1.2-1-2.7-1.6-4.6-1.6c-1.9,0-3.4,0.4-4.6,1.3
			c-1.2,0.8-1.8,1.9-1.8,3.2c0,1.3,0.5,2.3,1.5,3.1s2.7,1.5,5,2.1s4,1.3,5.1,2.1c1.4,1,2.1,2.4,2.1,4.1c0,1.1-0.3,2-0.9,2.9
			c-0.6,0.8-1.5,1.5-2.6,1.9s-2.4,0.7-3.8,0.7c-1.6,0-3-0.3-4.2-0.8c-1.2-0.5-2.2-1.3-2.8-2.2s-0.9-2.1-0.9-3.4h0.8
			c0,1.8,0.7,3.1,2,4.1c1.3,1,3,1.5,5.2,1.5c1.9,0,3.4-0.4,4.7-1.3S67.9,41.5,67.9,40.1z"/>
		<path class="st8" d="M83.3,45.3v-2.6c-0.5,0.9-1.2,1.6-2.1,2.1s-2.1,0.8-3.4,0.8c-1.7,0-3.1-0.5-3.9-1.5c-0.9-1-1.3-2.5-1.3-4.5
			V29.3h0.8v10.3c0,1.7,0.4,3,1.2,3.9c0.7,0.9,1.8,1.3,3.3,1.3c1.5,0,2.8-0.4,3.7-1.1c1-0.7,1.6-1.8,1.8-3.2V29.3h0.8v16H83.3z"/>
		<path class="st8" d="M101.3,37.4c0,2.5-0.5,4.5-1.6,5.9s-2.5,2.2-4.4,2.2c-1.2,0-2.3-0.2-3.2-0.7c-0.9-0.5-1.7-1.2-2.2-2.1v2.5
			h-0.8V22.6h0.8v9.6c0.6-1.1,1.3-1.9,2.2-2.4c0.9-0.5,2-0.8,3.2-0.8c1.9,0,3.3,0.7,4.4,2.2c1.1,1.4,1.6,3.4,1.6,6V37.4z
			 M100.5,37.1c0-2.3-0.5-4.1-1.4-5.4s-2.2-1.9-3.8-1.9c-1.3,0-2.5,0.3-3.4,1c-0.9,0.7-1.6,1.7-2,3.1v7.3c0.4,1.1,1.1,2,2,2.6
			c0.9,0.6,2.1,0.9,3.4,0.9c1.6,0,2.9-0.7,3.8-2C100.1,41.5,100.5,39.6,100.5,37.1z"/>
		<path class="st8" d="M115.5,41.3c0-1.9-1.7-3.3-5-4c-2-0.4-3.4-1-4.2-1.6c-0.8-0.7-1.2-1.6-1.2-2.7c0-1.2,0.5-2.1,1.5-2.9
			c1-0.8,2.3-1.1,3.9-1.1c1.7,0,3.1,0.4,4.2,1.2c1,0.8,1.6,1.9,1.6,3.3h-0.8c0-1.1-0.5-2-1.4-2.7c-0.9-0.7-2.1-1.1-3.5-1.1
			c-1.4,0-2.5,0.3-3.3,0.9c-0.8,0.6-1.2,1.4-1.2,2.3c0,0.7,0.2,1.3,0.5,1.7c0.3,0.4,0.8,0.8,1.5,1.1s1.7,0.6,3,1
			c1.3,0.3,2.4,0.7,3.1,1.1c0.8,0.4,1.3,0.9,1.7,1.5c0.3,0.6,0.5,1.3,0.5,2.1c0,1.3-0.5,2.3-1.6,3s-2.4,1.2-4.1,1.2
			c-1.8,0-3.2-0.4-4.3-1.2c-1.1-0.8-1.6-1.9-1.6-3.1h0.8c0.1,1.1,0.6,2,1.5,2.6c0.9,0.6,2.1,0.9,3.7,0.9c1.4,0,2.6-0.3,3.5-1
			C115.1,43.1,115.5,42.3,115.5,41.3z"/>
		<path class="st8" d="M126.2,44.8c1.4,0,2.6-0.4,3.6-1.2c0.9-0.8,1.5-1.8,1.5-3.2h0.8c-0.1,1.5-0.7,2.8-1.8,3.7
			c-1.1,0.9-2.5,1.4-4.1,1.4c-2,0-3.6-0.7-4.8-2.2c-1.2-1.4-1.8-3.4-1.8-5.9V37c0-2.4,0.6-4.4,1.8-5.8c1.2-1.4,2.8-2.2,4.7-2.2
			c1.7,0,3.1,0.5,4.2,1.5c1.1,1,1.7,2.4,1.8,4.1h-0.8c-0.1-1.4-0.6-2.6-1.5-3.5c-0.9-0.9-2.2-1.3-3.6-1.3c-1.8,0-3.2,0.6-4.2,1.9
			s-1.5,3.1-1.5,5.4v0.5c0,2.2,0.5,4,1.5,5.3C123,44.1,124.4,44.8,126.2,44.8z"/>
		<path class="st8" d="M143.2,29.9l-1-0.1c-1.4,0-2.5,0.4-3.4,1.3c-0.9,0.9-1.5,2.1-1.8,3.7v10.5h-0.8v-16h0.8v3.3
			c0.4-1.1,1.1-2,2-2.6s2-1,3.3-1c0.5,0,0.8,0.1,1.1,0.2L143.2,29.9z"/>
		<path class="st8" d="M146,24.3c0-0.2,0.1-0.4,0.2-0.6c0.2-0.2,0.3-0.2,0.6-0.2c0.2,0,0.4,0.1,0.6,0.2c0.2,0.2,0.2,0.4,0.2,0.6
			c0,0.2-0.1,0.4-0.2,0.6s-0.4,0.2-0.6,0.2c-0.2,0-0.4-0.1-0.6-0.2S146,24.5,146,24.3z M147.2,45.3h-0.8v-16h0.8V45.3z"/>
		<path class="st8" d="M164.7,37.4c0,2.5-0.5,4.5-1.6,5.9s-2.5,2.2-4.4,2.2c-1.2,0-2.3-0.2-3.2-0.7c-0.9-0.5-1.7-1.2-2.2-2.1v2.5
			h-0.8V22.6h0.8v9.6c0.6-1.1,1.3-1.9,2.2-2.4c0.9-0.5,2-0.8,3.2-0.8c1.9,0,3.3,0.7,4.4,2.2c1.1,1.4,1.6,3.4,1.6,6V37.4z
			 M163.9,37.1c0-2.3-0.5-4.1-1.4-5.4s-2.2-1.9-3.8-1.9c-1.3,0-2.5,0.3-3.4,1c-0.9,0.7-1.6,1.7-2,3.1v7.3c0.4,1.1,1.1,2,2,2.6
			c0.9,0.6,2.1,0.9,3.4,0.9c1.6,0,2.9-0.7,3.8-2C163.4,41.5,163.9,39.6,163.9,37.1z"/>
		<path class="st8" d="M174.8,45.6c-1.3,0-2.5-0.3-3.6-1c-1.1-0.7-1.9-1.6-2.5-2.9c-0.6-1.2-0.9-2.6-0.9-4V37c0-1.5,0.3-2.8,0.9-4.1
			c0.6-1.2,1.4-2.2,2.4-2.9c1-0.7,2.2-1,3.4-1c1.8,0,3.2,0.6,4.4,1.9c1.1,1.3,1.7,2.9,1.7,5v0.8h-12v0.9c0,1.3,0.3,2.5,0.8,3.6
			c0.5,1.1,1.3,2,2.3,2.6c1,0.6,2,0.9,3.1,0.9c1.1,0,2-0.2,2.7-0.5c0.8-0.4,1.4-0.9,2-1.7l0.6,0.4C178.9,44.7,177.1,45.6,174.8,45.6
			z M174.5,29.8c-1.6,0-2.9,0.6-4,1.7c-1.1,1.2-1.7,2.6-1.9,4.4h11.1v-0.2c0-1.1-0.2-2.1-0.7-3c-0.5-0.9-1.1-1.7-1.9-2.2
			S175.5,29.8,174.5,29.8z"/>
	</g>
</g>
</svg>
