<?xml version="1.0" encoding="utf-8"?>
<!-- Generator: Adobe Illustrator 19.0.0, SVG Export Plug-In . SVG Version: 6.00 Build 0)  -->
<svg version="1.1" xmlns="http://www.w3.org/2000/svg" xmlns:xlink="http://www.w3.org/1999/xlink" x="0px" y="0px"
	 viewBox="-6.8822021 10.6073608 151.507843 53.3372803" enable-background="new -6.8822021 10.6073608 151.507843 53.3372803"
	 xml:space="preserve">
<metadata><?xpacket begin="﻿" id="W5M0MpCehiHzreSzNTczkc9d"?>
<x:xmpmeta xmlns:x="adobe:ns:meta/" x:xmptk="Adobe XMP Core 5.6-c067 79.157747, 2015/03/30-23:40:42        ">
   <rdf:RDF xmlns:rdf="http://www.w3.org/1999/02/22-rdf-syntax-ns#">
      <rdf:Description rdf:about=""
            xmlns:xmp="http://ns.adobe.com/xap/1.0/"
            xmlns:xmpGImg="http://ns.adobe.com/xap/1.0/g/img/"
            xmlns:xmpTPg="http://ns.adobe.com/xap/1.0/t/pg/"
            xmlns:stDim="http://ns.adobe.com/xap/1.0/sType/Dimensions#"
            xmlns:xmpG="http://ns.adobe.com/xap/1.0/g/"
            xmlns:dc="http://purl.org/dc/elements/1.1/"
            xmlns:xmpMM="http://ns.adobe.com/xap/1.0/mm/"
            xmlns:stRef="http://ns.adobe.com/xap/1.0/sType/ResourceRef#"
            xmlns:stEvt="http://ns.adobe.com/xap/1.0/sType/ResourceEvent#"
            xmlns:pdf="http://ns.adobe.com/pdf/1.3/">
         <xmp:CreatorTool>Adobe Illustrator CC 2015 (Windows)</xmp:CreatorTool>
         <xmp:CreateDate>2016-05-31T22:07:26+03:00</xmp:CreateDate>
         <xmp:ModifyDate>2016-05-31T22:07:26+03:00</xmp:ModifyDate>
         <xmp:MetadataDate>2016-05-31T22:07:26+03:00</xmp:MetadataDate>
         <xmp:Thumbnails>
            <rdf:Alt>
               <rdf:li rdf:parseType="Resource">
                  <xmpGImg:width>256</xmpGImg:width>
                  <xmpGImg:height>92</xmpGImg:height>
                  <xmpGImg:format>JPEG</xmpGImg:format>
                  <xmpGImg:image>/9j/4AAQSkZJRgABAgEASABIAAD/7QAsUGhvdG9zaG9wIDMuMAA4QklNA+0AAAAAABAASAAAAAEA&#xA;AQBIAAAAAQAB/+4ADkFkb2JlAGTAAAAAAf/bAIQABgQEBAUEBgUFBgkGBQYJCwgGBggLDAoKCwoK&#xA;DBAMDAwMDAwQDA4PEA8ODBMTFBQTExwbGxscHx8fHx8fHx8fHwEHBwcNDA0YEBAYGhURFRofHx8f&#xA;Hx8fHx8fHx8fHx8fHx8fHx8fHx8fHx8fHx8fHx8fHx8fHx8fHx8fHx8fHx8f/8AAEQgAXAEAAwER&#xA;AAIRAQMRAf/EAaIAAAAHAQEBAQEAAAAAAAAAAAQFAwIGAQAHCAkKCwEAAgIDAQEBAQEAAAAAAAAA&#xA;AQACAwQFBgcICQoLEAACAQMDAgQCBgcDBAIGAnMBAgMRBAAFIRIxQVEGE2EicYEUMpGhBxWxQiPB&#xA;UtHhMxZi8CRygvElQzRTkqKyY3PCNUQnk6OzNhdUZHTD0uIIJoMJChgZhJRFRqS0VtNVKBry4/PE&#xA;1OT0ZXWFlaW1xdXl9WZ2hpamtsbW5vY3R1dnd4eXp7fH1+f3OEhYaHiImKi4yNjo+Ck5SVlpeYmZ&#xA;qbnJ2en5KjpKWmp6ipqqusra6voRAAICAQIDBQUEBQYECAMDbQEAAhEDBCESMUEFURNhIgZxgZEy&#xA;obHwFMHR4SNCFVJicvEzJDRDghaSUyWiY7LCB3PSNeJEgxdUkwgJChgZJjZFGidkdFU38qOzwygp&#xA;0+PzhJSktMTU5PRldYWVpbXF1eX1RlZmdoaWprbG1ub2R1dnd4eXp7fH1+f3OEhYaHiImKi4yNjo&#xA;+DlJWWl5iZmpucnZ6fkqOkpaanqKmqq6ytrq+v/aAAwDAQACEQMRAD8A9U4q7FXYq7FXYq7FXYq7&#xA;FXYq7FXYq7FVO4uILeCSedxHDEpaSRjQBRuScEpCIs8mUIGchGIsl5N5y8/3GrF7HTy0Om9Gbo83&#xA;+t4L/k/f4Zzmt7QOT0x2j972/ZXY0cFTyb5PsH7fNMPLP5b6dqmh21/c3M8ctwGYonDiAHKr1BO4&#xA;Fcu0vZscmMSJNlxdf27kw5pQjGJEff3ITzn5G0vQdJS8guJpZZJliVZOPHdWYnZR/LkNboIYYcQJ&#xA;5t/ZXa+TU5eCQiABe1vTNEt/q2jWNvShit4kI91QA5vMEeGER3API6ufHlnLvkfvRmWuOxjzh52t&#xA;NCjNvCBPqTrVIv2UB6M/8B3zA1muGIUN5O47L7JlqTxHbGOvf7nnWg2Vx5s8y8NRuJGaVXkmmWnI&#xA;BRsBUEAVIGaXTwOoy+ovVazLHRae8YG1ABmX/KpNF/5bLn/kn/zTmz/kjH3l0H+iXN/Nj9v60H+W&#xA;unQ2/mLW/RJeK0rbRyNSpUymhNAOvpZV2ZjAyzrkNvt/Y5Hb2cywYr5y9X2ftejZu3lHYq7FXYq7&#xA;FXYq7FXYq7FXYq7FXYq7FXYq7FXYq7FXYq7FXYq7FXYqxv8AMO59Dyle0+1L6cS/7JxX/hQcwe0Z&#xA;VhLtuxMfFqo+Vn7Hiucu+gvf/L9r9V0LT7cihjt4g3+twHL8c7DTx4ccR5B8y1uTjzTl3yP3sT/N&#xA;A+u+i6cNzc3BqP8AgUH/ABPNd2pvwR7y7r2e9Iy5P5sf1n9DOwABQdM27zbsVeH+e7n6x5s1F+yO&#xA;Ih/zzQJ+sZymvleaT6J2Pj4dLAeV/M2n35R2vLVb65p/dQCOvvI9f+ZeZnZEfXI9wdb7S5KxRj3y&#xA;v5D9r1CWRY43kbZUBZj7AVzfE0LeOjGzQYR+VEbPp2o3rfbuLmjH3VQ3/MzNV2SLjKXefx970XtG&#xA;ayQgP4Y/j7mc5tnnHYq7FXYq7FXYq7FXYq7FXYq7FXnvnP8AMYQl9P0SQNKPhmvRuF8Vj8T/AJX3&#xA;Zptb2lXpx/P9T1PZXYXFWTMNukf1/qQ2j6f+Y2q6bDqFvrCJDOGKLK7h6KxXcLGw7eOV4ceqyREh&#xA;PY/jubdVn0GHIccsZJHcB/xTWo2H5k2UtrANTNzcXbMsccDE0CAEsxdEAArjkx6qJA4rJ7lwZuz8&#xA;glLg4Yx7/wBhKvJ+WOtX6+tqetc7k7lSryqD/rMyf8RyZ7LnPec9/m1x9oMOPbHiqPwH6D963yNq&#xA;Emk3utW+pX5On6ZWMl2JTmrlaopqd+JoBg0GQ45TEpemLLtfAM8MUscPXk386rr81d/NPm3zHO8P&#xA;lu3+qWKni17KBX6WPJR8lBOTOqzZzWIVHvah2dpdJEHUS4p/zR+PvoKn+A/Nc453XmSYSUrxQyso&#xA;PgKum30YfyGY88h+39bH+WNNHaOEV8P1FbJo35i6MDPZal+lIk3a3lLO7AeCyVP/AAL1wHDqcW8Z&#xA;cf4/HVI1Wgz+mcPDPeP2fpCe+VPONrrivbyRm11KCvr2rexoWWu/XqOozL0msGXY7SHR13aPZctP&#xA;UgeLGeR/X+N001fWdP0iza7vpRHENlHVmb+VR3OZGbNHHHikXC02lyZ58MBZYOvmjzl5nuHi0CEW&#xA;Nkho1y9K/wCychqH2QVzVDVZ85rGOGPf+P0PRHs/SaOIOc8c+79n61S4/LbXb6Kmoa/JM1QfTcSS&#xA;JX/ZOP1YZdm5Jj1Tv8e9jDt7DjPowgfIH7mM6p5A1rTLq3WVVntZ5Ui+sQ1IBdgoDg0K9fl75g5e&#xA;z8kCL3BPN2+n7aw5omtpAE0fLuezgAAACgGwAzp3gGCeZ63X5iaDaDcQKs9PAh2c/hEM1Gq9WphH&#xA;u3/Hyek7P9Ggyz79vsA/SifMn5hwWVx+j9IiF/qJPAkVaNXO3H4d3b2GWantERPDAcUmrQdiSyR8&#xA;TKeDH9v7Ag4vLn5g6svrajq509X3EERIYA9isRRf+GOVDTanJvKfD+PJvlrtDh2x4+PzP7b+5LNT&#xA;/KjVwJJra+S9mJLMJQY3cnc7kuKk+JyjL2TPmJcRcvT+0eLYSgYDy3/UnX5WaZcWVlqJuYmhnNwI&#xA;XRxQj0kB/wCZmZXZWIxjKxRv7nA9otRHJOHCbHDfzP7GSeZrj6v5d1KYGhW2lCn/ACmUgficztVL&#xA;hxSPkXU9nw4s8B/SH3vH9G1/zBGtrpOmXJtllm4rw25SSsFqxox8Omc1h1GQVCBrf73u9VosB4su&#xA;SPFQ+wdzNf8ADX5m/wDV7h/5GSf9Us2n5bV/zx+Pg89+f7O/1I/If8Ul9lrHmDR/NkVlr2rh7WBG&#xA;luirFk4+kzKN1Via02AymGbJjzCOSew5/JysulwZ9KZ4MfqJod/P3oPWfzA1vVdUjt9Ilayt2cRw&#xA;gU5uWIUM53+4fjlebtDJkmBD0hv0vYuHDjMso45VZ8vcnn+GvzN/6vcP/IyT/qlmV+W1f88fj4Ou&#xA;/P8AZ3+pH5D/AIpjev6v510S/wDqV1qzSTcFkJhYlQGrQfEqmu3hmFqM2fFLhMt3baLTaPUQ4446&#xA;F9f7Uz0K2/MPWtPW+tdYWOFmZFErsGPHYn4Y2FPpy/BHU5Y8Qnt+PJw9Zk0GnnwSx2fIftVNU0/8&#xA;yNPSCuqG6muJRFFBbszNXiWLEsiAAcd8OXHqoV6rJPT+xjp8/Z+Un93wiIsk/wBpRsfknzndoJNQ&#xA;8wSQyEV9ONpHAP0NGv3DLRoc8t5ZK+f7HHPa2kgahhBHnX7Vs9h+Yfl5TdW99+mLSPeWGTk78R1+&#xA;Fqt/wLYyx6nDuJcYTDNoNV6ZR8KR5EbD7NvmGU+WfMtjr1h9Yt/gmSguLcmrIx/WD2OZ+l1Mc0bH&#xA;PqHTa/QT00+GXLoe9C+f7prbynfMjFXcJGpGx+N1B/4WuV9oT4cMm7sXHx6qAPmfkHiWcs+hve/K&#xA;9v8AV/LmmxEUItoyw/ymUMfxOddpY8OKI8g+adoT4tRM/wBIpkUQuHKjmoKhu4BoSK+9Bl9OJZql&#xA;A6lpwl9I3UIl/wB9mReXh0rXI+LG6sNgwZKvhNe549oOhy+Y/M1xGSVs/We4u2G3w8zQDtyatB9O&#xA;c1p8Bz5SP4bsvd6zVjS6cH+OgI/J7Ja2ltaW8dtbRrFBEOMcaigAzpoQERQ2DwWTJKcjKRslJdU8&#xA;9+WtNuWtZ7kvOhpIkSl+J8CRtX2rmLl1+KBond2Gn7H1GWPFGO3nsmumapYanardWMyzwNtyFQQR&#xA;2INCD88yMWWOQXE2HC1GnnhlwzFFh/n/AEyTTrm2806cOFzbSKt1TYMp+FWb5/YPiDmt7QxGBGaP&#xA;Mc/x9jvuxdQMsZabJvGQ2/H2hh011qfnPzNDE5KLK3GKMbrDCN2I9+IqfE5rDOepygd/2B30cePQ&#xA;ackdPtP4+T2PT9PtNPs4rO0QRwQrxRR+JPiT3OdNjxiEREcg8FnzSyzM5G5FAa35s0LRnWO+uKTs&#xA;KiFAXeh7kDp9OU59XjxbSO7k6Ts3NqBcBt39F2i+ZtF1tX+oTiR46F4WBVwK7Hieo9xhwarHl+ko&#xA;1egzaf6xQPXomuZDhPHfPmqXEXnO8ktnMckUawLIPtANEA9D2+2RnM6/KRnJHTb7HvOx9PGWkiJC&#xA;wTf27fcyb8sfLMUFl+mrlK3NxUWvIfYjGxYe7/q+eZ/ZelAj4h5nk6j2g15lPwYn0x5+Z/Z97OLm&#xA;5t7WB7i4kWKCMcpJHNABm1lIRFnk87jxynIRiLJY7F+Y/lOS4EIumUE0ErRuE+8io+kZhDtLCTVu&#xA;1l2FqhG+H4WLZKpUjktCG3DDoffM8OoN9WNfmPcej5SuwDRpmjjH0uCfwU5gdpSrCfOnbdhQ4tVH&#xA;ys/Y8y8k2/1jzVpqUrSYSf8AIsGT/jXNFoY3mj73sO1p8OmmfKvns9zzrHzh4f56uPX82ai/8sgj&#xA;/wCRaBP+Nc5TXyvNJ9F7Hhw6WA8r+ZtR8nW31jzRpkfhOsn/ACL/AHn/ABrkdHG80R5s+1J8Ommf&#xA;6NfPZ7tnWvm7xP8AMG49fzbfGvwxlI1/2Mag/jXOW7RleaT6F2JDh0sPOz9r03yHb+h5S05KbsjS&#xA;H/no7P8AqOb3QRrDF5DtifFqpnzr5Ck6urm1tYXubmRYYYhV5XIAA+ZzKnIRFnYOvx45TPDEWT0S&#xA;CD8w/Kk12tst2VLHisroyxk9PtEbfM5hx7RwmVW7OfYmpjHiMfhe7JMznUvP7+IeWvP1pdQfu7DW&#xA;f3cyDZQ7MA1PkxVvpOafIPA1AI+mb0+GX5vQyjLeeLl7v7LCL/Ni49Py/BCD8U1ytR/kqjE/jTLO&#xA;1pVjA7y0+zcLzk90f0h5RHG0kixoKs5CqPcmgzngLNPaykALL6KijWKJIl+zGoVfkBTO0AoU+Vyl&#xA;ZJPV53+aXmG/guIdJtpTFDJEJbgoaM3JmUKSO3w9M0vauokCIA7Vu9T7O6KEonLIWQaH63m+aR6x&#xA;69+V2nLbeXPrZH7y9kZy3fhGSij7wx+nOj7Kx8OK/wCcXhvaHPx6jh6QH37/AKk/8xHVRo9yukxe&#xA;rfyLwhAZU48ti9WKj4RuMzNTx8B4B6nWaEYvFj4pqA5/q2eTH8u/ORNTp9Sep9aD/mvOd/k7P/N+&#xA;0fre2/lzSfz/APYy/UzT8uPL+vaOb9NSg9CKb0zEvNHqy8uR+BmpsRm07N0+THxcQoGnn+3dbgz8&#xA;BxmyLvYju72QebYFm8saojAEC2kffxjUuPxXM3VxvFL3F1nZs+HUYz/SH27MI/KKwVru/v2G8SJD&#xA;Gf8AXJZv+IDNV2Rj3lL4PQ+02aowh3kn5f2vR726jtLOe7k/u7eN5X+SKWP6s3c5iMST0eUxYzOY&#xA;iOcjXzfP1/e3F9eTXlw3Oady7n3PYew6DOOyTM5GR5l9Pw4o44CEeQZF+WkcjebbdlJCxxytIB3X&#xA;gVofpYZm9mA+MPi6rt+QGlN9SPvey50zwLwfXmfUPNF6I/iae7eOL3Bk4r+FM5HUevMa6yfStGBi&#xA;00b6QH3WXudrbRWtrDbRCkUCLGg8FUUH6s6yEREADo+cZMhnIyPMm3nP5s6vKZ7XSY2pEE+sTgft&#xA;MSVQH5UJ+nNJ2vmNiHxer9m9KOGWU8+Q/S88zTPUvdfJsckflbTFkJLGBWBP8rfEo+hSM6zRAjDG&#xA;+5837UkDqZ1/OY/+bdxw0W0twd5bjn9CIw/WwzD7Xl+7A83aezULzSl3R+8/sYv+V9v6vmlXpX0I&#xA;JJPlWif8b5gdlxvN7gXce0M601d8gP0/oew50rwj581e4+s6re3H+/p5ZP8AgnJ/jnG5pcUye8l9&#xA;Q00ODFGPdED7GQ/lhber5qjkp/vPDLJ949P/AI3zN7Ljea+4F1ftBk4dMR/OIH6f0PYs6V4N8/69&#xA;cfWdc1CcGoluJWX5FzT8M47US4skj5l9O0cODDCPdEfc910e3+raRZW/++beKP8A4FAM63DHhgB3&#xA;APnGqnx5ZS75H72Cfm9eOBp1mrEI3qSyL2JHFUP0fFmo7Yn9MXpPZnEPXP3D9f6Hm+aR6x7t5Oup&#xA;Lryxp00hq5hCFj1PpkpU/wDA51ujmZYok9z5v2pjENTMDlf37sd/NkcNN0+4XaWK5+A+FUJ/WozC&#xA;7W+mJ83a+ze+Scehj+lA/m/cfHplsD0EsjD58Qv6jlPbEvpHvcj2YhtOXuH3sM8s2/1jzFpsPUNc&#xA;xFh/kqwJ/AZrNLHiyxHmHoO0J8OCZ/ol73nXvmbyTzx6d35q1ZpAWjsLVOPXZiEVeng82c5rqlml&#xA;f8Mf1fre47IuGmx1znM/p/RFhmax373LyOEHlPTeHT0t/nyNfxzq9D/cx9z5z2vf5qd96O1fW9L0&#xA;iBJ9Rm9CKRvTRuLvVqE0+AN2GXZs8MYuRoOPptJkzyMcYsj3fpSr/lYnk7/q4f8AJGf/AJozG/lH&#xA;B/O+w/qc3+Q9X/M+2P63f8rE8nf9XD/kjP8A80Y/yjg/nfYf1L/Ier/mfbH9aW+Y/Pnli60K/trS&#xA;99S4nheONPTmWpcU6lAOhynU6/FLHIRO5HcXK0PY+phmhKUaiJA84/rUvyjA/Q16abm4oT8kXI9k&#xA;fQfe2e0p/ex/q/pT/wA7SNH5U1JlBJMXHbwZgp/A5ma41hl7nWdkxvUw97wzOTfRmd/lJbctYvbg&#xA;j+6twg+cjg/8aZtuyI+snyeb9pclYox75fcP2vUZpViieVvsxqWPyArm/JoW8dGNkDveDeX3Mvmb&#xA;TXk+IyXsBeu9eUq165yOnN5Y3/OH3vpOtHDp5gdIS+573nXvmjxj8yJGbzfeKeiLEq/L0lb9ZzmO&#xA;0j++Pw+57/sIAaWPx+8sYzAdw+h9Pt/q1hbW1KejEkdP9RQP4Z2eOPDEDuD5bnnxzlLvJLzr83ri&#xA;t3pttX7EckhH+uygf8QzS9sS3iHqvZmHpnLvIHy/tW/lDByvtRuP99xRx1/4yMT/AMaYOx4+qR8k&#xA;+00/RCPeSfl/a9G1C4+rWFzcVp6MTyV/1VJ/hm7yS4Yk9weUwQ45xj3kB885xj6k9A/KG35X+o3N&#xA;P7uJI6/8ZGLf8y83HY8fVI+X4+55j2mnUIR7yT8v7XpN3OLe1mnPSJGc/wCxBObycqBPc8ljhxSE&#xA;e8vn6wga71C3gPxNcTIh9y7AfxzjsceKQHeX0/NPgxmX80H7H0NnZvlryP8ANS59XzKkQO0Fuike&#xA;7Mz/AKmGc52rK8tdwe59nYVpye+R/QGG5rHfPevK1q1r5c06BxR1gQsPAsORH4512lhw4ojyfNO0&#xA;cgnqJyH84sY/NdvUtNMsl/vZ7glB/qgL/wAzMwO1jYjHvLufZwVKc+kY/j7mPfmrcep5kjiHSC2R&#xA;SPdmZv1MMw+1pXlruDs/ZyFacnvkf0IP8uLf1vNto1KrCskjfRGVH4sMq7NjeYeVuR27Ph0svOh9&#xA;r2jOofP3jWql7qXzVfLuizxxE7fYac8f+TQzmMvqOWXn+n9j32mqAwQP80n48P7WLZgO5et/lbqy&#xA;XOgmwLfvrFyOPf05CXU/8EWGdH2Vl4sfD1i8P7Q6Ywz8fSY+0bfqTzzVoKa5o8tjyCS1EkEh6LIv&#xA;SvsQSDmVq9P4sDF13Z2sOnyifMcj7nkdx5J80wTGJtOlcg0Dxjmh9+S1Gc5LQ5ga4S9xDtbTSF8Y&#xA;+OzJPLf5XXUz+vrn7iGnw20bAyEnuzCoUfj8sztN2WTvk2Hc6rX+0MYjhw7nv6MW8y+XbvQtSa1n&#xA;+KJqtbz9nTx+Y7jNfqdNLFKj8Hc6DXR1OPiHPqO4sx/KK+T/AHIWDGjnhPGPECqv93w5s+x8n1R+&#xA;LofabCfRP3j9I/Sz3VbBNQ026sXPFbiNo+XgWGx+g75t8uPjgY94eZ02Y4skZj+E28Ym8j+aoro2&#xA;/wCj5XYGgkQAxn3D/Zp885iWhzA1wl9Aj2vpjHi4x+n5PS/InlSXQLCU3Lhry7KtMqmqoEB4rXuf&#xA;iNTm80GkOGJv6i8j2x2iNTMcP0R5eaZeabj6v5c1KXuLaRV+bKVH4nL9VLhxSPkXD7OhxaiA/pB4&#xA;ZYXRtL63uhubeVJQB1+Bg38M5PHLhkD3F9HzY+OBj/OBHzfQsUsc0SSxtyjkUOjDoVYVBzswQRYf&#xA;LpRMSQeYed/mN5Q1S81FdU06E3CyIqTxpu4Zdg1O4I8M0vaWjnKXHEW9T2F2njx4/DyHho7dyUeV&#xA;/wAvNYu76ObUYWs7KJgz+ptI/E/ZVeor4nMfS9nTlK5Dhi53aHbeKECMZ4pnu5B67nRvDPH/AM0b&#xA;j1fNBjr/ALzwRx0+dX/43zmu1ZXmruD3fs9Dh01/zpE/o/QnP5QTp/uUgJ+P9y6juR8YP3bZldjy&#xA;+oe51/tPA+iXv/Qz3VbRr3TLyzVuLXMEkIY9AZEK1/HNvlhxQMe8F5rT5fDyRn/NkD8i8XPkjzV9&#xA;YNv+jpS4NOW3D/g68fxzl/yOa64S+gfytpuHi4x+n5c3p3kfytLoGnSLcOHu7lg8wX7K8RRVB79d&#xA;zm+0OlOGO/MvH9r9ojU5Bwj0x5I3zhcfV/LGpyeNu8Y/56Dh/wAbZbrJVikfJo7MhxamA/pD7N3k&#xA;fkq3+seatNjpXjMJP+RQMn/Guc5oo3miPP7nuO1p8OmmfKvns9zzrHzh5l+YHk7W7nWZNUsomu4b&#xA;gIGRN3jKKEpx6kHjXbNF2hoskp8cRYL1/YvamGGIY5nhMb9x6oDyt+XmrXd/HLqdu1rYxMGkWTZ5&#xA;KH7AXrQ9ye2U6Xs6cpXMVFye0e28UIEYzxTPd083rgAAoOmdG8O8/vmGv/mPbW8fx2mjjlKeo5xn&#xA;k3/DlV+jNNkPjaoAcofj73p8I/Ldnykfqy8vj+yyxDz5cev5t1Fq1COsY/55oqn8Rmu18rzSd72N&#xA;Dh0sB5X8zaaflbLZwazdXN1PHAqW5RDK4QEu6nblTsuX9lGImSTWzh+0MZywxjEE+rp7npkmv6Ik&#xA;bOb+3IUE0EqE7fTm9Ooxj+IfN5COjzE1wS+RYF5P0iXVvJ2uilZ72UhPeSICRf8Ah2zUaPCcmCff&#xA;I/du9N2pqRh1eLugPsO33PPSCCQRQjYg5pnqEw0PW73RtRS9tG+NfhdD9l0PVW9jl2DPLFLii42s&#xA;0kNRjMJf2PXtC88aDq8ahZ1troj4raYhWr/kk0DfR92dJg12PIOdHuLwms7Iz4Dy4o94/GzIAQRU&#xA;bg9DmY6xKdW81aDpUbNdXaeoBtBGQ8hPhxX+OY+bV48Y3Lm6bs7PmPpia7+QeS+bvNdz5gvVcr6V&#xA;nDUW0HcV6s3+UafRnOazVnNLuiOT3HZnZsdLCuczzKA0PWLnR9Ugv7fdoj8SHoyHZlPzGU4MxxzE&#xA;g5Os0sc+Mwl1e16H5m0fWYFks519Snx27ECVT7r/ABG2dTg1UMouJ+HV8+1egy6c1Mbd/RH3V5aW&#xA;kJmupkgiXq8jBR95y6cxEWTQcbHilM1EEnySbSfOei6jLdFLiOG3gZUikmdYzIaVZgrEHj0pmLh1&#xA;sJk70B3ufqeys2IRsEyPcLpLfzB1vTn8rXUNtdwyyzNGgSORGanMMdgfBcp7QzxOEgEG3L7F0mQa&#xA;mJlEgC+YPc8hzm3uXpHkDz1aQ2iaTqsoh9L4bW5c/AU7I57cex6Uzd9n6+IjwTNVyLyfbXY8pTOX&#xA;ELvmP0h6LHJHIgeNg6NurKagj2IzdA3yeVMSDRSLWvOWj6bNFaiZJryaRIxGrAiPkwUtI3RQvWh/&#xA;tzFza2ECBdyP43djpOy8uUGVEQAv3+Q70x/Tmi/9XC2/5HR/1y7x8f8AOHzcX8pm/mS+ReL+crxL&#xA;zzPqE8bh0MvFHUggiNQgIIr/AC5y+tnxZZEd76B2XiOPTQidjX37rfK2vy6Fq8d6oLxEGO4jH7Ub&#xA;dae4pUYNLqDinxdOqe0dENRiMOvMe97VpetaXqkCzWNwkykVKgjmvsy9QfnnU4s8MguJt8+1GkyY&#xA;ZVMEKt9qVhYQma9uI7eMb8pGAr8h3+jJZMkYC5GmGHBPIagDI+SV6R5w0XUopphcRwRJKY4vWdUd&#xA;1VQefFiCASSB8sx8OsxzBN1v1czU9l5sRAoyNWaF15JR+YutadJ5XmgtrqGaSaSNSkciuaBudaAn&#xA;+XMbtLNE4iAQbpz+w9LkGpEpRIAB5j4fpYl+V1v6vmlX/wB8QSSffRP+N813Zcbze4F3ftDOtNXf&#xA;ID9P6HsGdK8IkmlecdE1G4mtlnWC6hkeP0ZSFLBWKhkJ2atOg3GYmLWY5ki6ILsdT2XmxREquJAN&#xA;j9KdMyqpZiFUbknYDMsl14F8mG+bfzBsrOF7PSZFutRk+ASR/Ekddq1GzN4AfT4Zq9X2hGI4Yby+&#xA;533ZvYs8h48o4cY7+Z/YjfInlp9H0wzXQrqN4RJcE7lR1VK/TU++W6DTeHCz9Uubj9sa8Z8lR/u4&#xA;bD9byPWLj6zq97cf7+uJZP8AgnJznM0uKZPeS9zpYcGKMe6I+5B5W3o7R9F1DV71bSxiLyHd2OyI&#xA;v8zHsMtw4JZJcMQ42q1ePBDimaH3+57X5Z0GLQ9JjsUkMrAl5ZCAKu3Wg8PDOp0unGKHC+fa/WHU&#xA;ZTMiv1MK8/8AkW4NxJq+lRGRJCXu7ZBVgx6ugHUHuP8AMavtDQG+OA94eg7F7YjwjFlNVyP6D+h5&#xA;3mleqdirYLkcATQn7I7n5Yo25s+8o/ltLccL3W1aKDZo7Po7+8ndR7dflm40fZhl6snLuea7T7eE&#xA;Lhh3l/O7vd3/AHLvzE8ltC/6W0uAC2ChbqCMU4cRQOqj9mg3+/D2joq9cBt1Y9h9q8Q8LIfV0J6+&#xA;XvefZpnqHYq27u5q7Fj4k1xJtAAHJrFKeeWPKOpa/K/oEQ20X95cuDx5U2UAdT+rMvS6OWY7bDvd&#xA;d2h2nj0wHFvI9Et1LTL7Tbt7S9iMU0Z3B6EfzKe4PjlGXFKEuGQouXg1EMsBKBsFC5W3Nh3ClQxC&#xA;t9oA7H542ggNYpXwwyzSpDChklkIVEUVJJ2AAGEAk0GMpCIJJoBPfMHkrV9Es7e7uAJI5V/fcNxE&#xA;5OyMfl38dvnl6jRTxRBPX7HXaLtbFqJyjHYjl5jvY/mG7N2KuJJJJNSdyTirsVdir0H8obflealc&#xA;/wC+444x/s2J/wCNM3PY8fVIvL+00/RCPeSfl/a9Iup1t7Wa4b7MKNIfkoJ/hm7nLhBPc8njhxSE&#xA;e80+d2ZmYsxqzGpPuc4sl9TArZWtbe9vJUtbZJJ5GP7uFAWP3ZOMZSNDdhknDGDKRAHe9R8lfl8m&#xA;mMmo6nSS/HxQwjdIj4k/tP8AgM32i7P8P1T+r7nje1e2jmBx49odT3/sZtm1eeY5/wAq78nf9W//&#xA;AJLT/wDNeYP8nYP5v2n9btv5c1f8/wCyP6nf8q78nf8AVv8A+S0//NeP8nYP5v2n9a/y5q/5/wBk&#xA;f1JtpWi6XpMBg0+3WCNjyahLEn3ZiWP0nMnFghjFRFODqdXkzy4sh4ijctcd2KpNqvk/y7qjmS6s&#xA;19Zus0dY3J8SVpy+muYuXR4sm5G7n6btTUYRUZbdx3CUf8qs8scq1uKV+z6gp/xHMf8AkrF5ud/o&#xA;i1P9H5ftTfSvJ3lzTHWS1s19ddxNJWRwfEFq8T8qZkYtHix7gbuFqO1NRmFSlt3Db7k5zKde7FWO&#xA;6n5A8sahKZXtvQlY1Z4G9Op/1d1/DMLL2fimbqj5O10/bWpxChKx57/tQH/Kq/LP89z/AMjF/wCa&#xA;cp/krF5uT/oi1H9H5ftd/wAqr8s/z3P/ACMX/mnH+SsXmv8Aoi1H9H5ftd/yqvyx/Nc/8jF/5px/&#xA;krF5r/oi1H9H5ftZXZWVpY2sdraRLDBEKJGooB/Unuc2EICAqIoOly5ZZJGUjcioapo2l6rCIdQt&#xA;kuEFeJYUZa/ysKMPoORy4YZBUhbZp9Vkwm4SMWOv+VvldmJH1hAeirIKD71JzCPZWLzdqPaLUgfw&#xA;/L9q3/lVfln+e5/5GL/zTg/krF5p/wBEWo/o/L9rv+VV+Wf57n/kYv8AzTj/ACVi81/0Raj+j8v2&#xA;ppoPkvQ9Ena4tI3edhxEsxDlR340ApXMjT6LHiNjm4es7VzaiPDI+nyTuSOOSNo5FDxuCGRgCCD1&#xA;BBzKIB2LroyINjmxq+/LfyrdSeoLd7ZjuRA5UH/YnkB9AzBn2bhkeVe52+Ht3UwFXxe8IX/lVfln&#xA;+e5/5GL/AM05X/JWLzbv9EWo/o/L9rv+VV+Wf57n/kYv/NOP8lYvNf8ARFqP6Py/a4/lZ5XUEl7k&#xA;Abk+ov8AzTj/ACVi81HtFqe6Py/a8jfjyPHZaniD1pnOF7gct3p35UyWlvpF5LNNHE8s/EK7KpKo&#xA;g337VY5vuyTGMCSeryHtGJSyxABNR+8/sT/zfq9lH5Z1Ex3Ebu8LRqqupJ9T4OgP+VmZrM0RilR6&#xA;Os7M00zqIWDXFfLu3Y75V/LzQ73RbO/vhK886l3QPxQgseOwFfs075haTs7HLGJSuy7XtHtvNjzS&#xA;hCqHluzbTdG0vTIvTsLWO3U/aKD4j/rMfiP0nNpiwwxioinns+qyZjc5GSMy1x3Yq7FXYq7FXYq7&#xA;FXYq7FXYq7FXYq7FXYq7FXYq7FXYq7FXYq7FXYq7FXYq7FXYqgNfuPq2h6hP3jt5WX5hDT8cp1Eu&#xA;HHI+RcnRQ480I98h97wDOPfTnYqnPlrytqOvXXp249O2Q/v7ph8CDwHi3tmTptJLMaHLvcDX9o49&#xA;NG5by6D8dHt1hZxWVjb2cVTHbxpEhPUhABU07mmdVjgIxER0fPM2U5JmZ5yNq+TanYq7FXYq7FXY&#xA;q7FXYq7FXYq7FXYq7FXYq7FXYq7FXYq7FXYq7FXYq7FXYq7FXYq7FUBr/wCjv0PdfpKv1Hh/pHGt&#xA;eNR/LvlOo4eA8f09XK0XieLHw/rvZ59/yCP/AIu/6eM03+B+f2vT/wCunl/sXf8AII/+Lv8Ap4x/&#xA;wPz+1f8AXTy/2L0HQ/0R+i4P0Rw+oU/den096135eNd83ODg4BwfS8vrPF8Q+LfH1tH5c4zsVdir&#xA;sVf/2Q==</xmpGImg:image>
               </rdf:li>
            </rdf:Alt>
         </xmp:Thumbnails>
         <xmpTPg:NPages>1</xmpTPg:NPages>
         <xmpTPg:HasVisibleTransparency>False</xmpTPg:HasVisibleTransparency>
         <xmpTPg:HasVisibleOverprint>False</xmpTPg:HasVisibleOverprint>
         <xmpTPg:MaxPageSize rdf:parseType="Resource">
            <stDim:w>151.507836</stDim:w>
            <stDim:h>53.337280</stDim:h>
            <stDim:unit>Pixels</stDim:unit>
         </xmpTPg:MaxPageSize>
         <xmpTPg:PlateNames>
            <rdf:Seq>
               <rdf:li>Magenta</rdf:li>
               <rdf:li>Yellow</rdf:li>
            </rdf:Seq>
         </xmpTPg:PlateNames>
         <xmpTPg:SwatchGroups>
            <rdf:Seq>
               <rdf:li rdf:parseType="Resource">
                  <xmpG:groupName>Default Swatch Group</xmpG:groupName>
                  <xmpG:groupType>0</xmpG:groupType>
                  <xmpG:Colorants>
                     <rdf:Seq>
                        <rdf:li rdf:parseType="Resource">
                           <xmpG:swatchName>Deep Orange A200</xmpG:swatchName>
                           <xmpG:type>PROCESS</xmpG:type>
                           <xmpG:tint>100.000000</xmpG:tint>
                           <xmpG:mode>RGB</xmpG:mode>
                           <xmpG:red>255</xmpG:red>
                           <xmpG:green>110</xmpG:green>
                           <xmpG:blue>64</xmpG:blue>
                        </rdf:li>
                        <rdf:li rdf:parseType="Resource">
                           <xmpG:swatchName>ffffff</xmpG:swatchName>
                           <xmpG:type>PROCESS</xmpG:type>
                           <xmpG:tint>100.000000</xmpG:tint>
                           <xmpG:mode>RGB</xmpG:mode>
                           <xmpG:red>255</xmpG:red>
                           <xmpG:green>255</xmpG:green>
                           <xmpG:blue>255</xmpG:blue>
                        </rdf:li>
                     </rdf:Seq>
                  </xmpG:Colorants>
               </rdf:li>
            </rdf:Seq>
         </xmpTPg:SwatchGroups>
         <dc:format>image/svg+xml</dc:format>
         <dc:title>
            <rdf:Alt>
               <rdf:li xml:lang="x-default">reddup-final</rdf:li>
            </rdf:Alt>
         </dc:title>
         <xmpMM:RenditionClass>proof:pdf</xmpMM:RenditionClass>
         <xmpMM:DocumentID>xmp.did:cd27c84e-9668-4842-9049-417e8e5f1355</xmpMM:DocumentID>
         <xmpMM:InstanceID>xmp.iid:cd27c84e-9668-4842-9049-417e8e5f1355</xmpMM:InstanceID>
         <xmpMM:OriginalDocumentID>uuid:201bacca-f9d1-47c2-9ecd-b2e455598857</xmpMM:OriginalDocumentID>
         <xmpMM:DerivedFrom rdf:parseType="Resource">
            <stRef:instanceID>xmp.iid:9ffba2d7-a44f-964d-b2d8-92d8554654d2</stRef:instanceID>
            <stRef:documentID>xmp.did:9ffba2d7-a44f-964d-b2d8-92d8554654d2</stRef:documentID>
            <stRef:originalDocumentID>uuid:201bacca-f9d1-47c2-9ecd-b2e455598857</stRef:originalDocumentID>
            <stRef:renditionClass>proof:pdf</stRef:renditionClass>
         </xmpMM:DerivedFrom>
         <xmpMM:History>
            <rdf:Seq>
               <rdf:li rdf:parseType="Resource">
                  <stEvt:action>saved</stEvt:action>
                  <stEvt:instanceID>xmp.iid:455eede4-b120-f846-9697-bac82388ee19</stEvt:instanceID>
                  <stEvt:when>2016-05-24T11:46:39+03:00</stEvt:when>
                  <stEvt:softwareAgent>Adobe Illustrator CC 2015 (Windows)</stEvt:softwareAgent>
                  <stEvt:changed>/</stEvt:changed>
               </rdf:li>
               <rdf:li rdf:parseType="Resource">
                  <stEvt:action>saved</stEvt:action>
                  <stEvt:instanceID>xmp.iid:cd27c84e-9668-4842-9049-417e8e5f1355</stEvt:instanceID>
                  <stEvt:when>2016-05-31T22:07:26+03:00</stEvt:when>
                  <stEvt:softwareAgent>Adobe Illustrator CC 2015 (Windows)</stEvt:softwareAgent>
                  <stEvt:changed>/</stEvt:changed>
               </rdf:li>
            </rdf:Seq>
         </xmpMM:History>
         <pdf:Producer>Adobe PDF library 15.00</pdf:Producer>
      </rdf:Description>
   </rdf:RDF>
</x:xmpmeta>
                                                                                                    
                                                                                                    
                                                                                                    
                                                                                                    
                                                                                                    
                                                                                                    
                                                                                                    
                                                                                                    
                                                                                                    
                                                                                                    
                                                                                                    
                                                                                                    
                                                                                                    
                                                                                                    
                                                                                                    
                                                                                                    
                                                                                                    
                                                                                                    
                                                                                                    
                                                                                                    
                           
<?xpacket end="w"?>
	</metadata>
<g id="outline-path">
	<path fill="#FF6E40" d="M144.5814209,32.180542c-0.2287598-3.3591919-1.2006836-6.0979004-2.8779297-8.1453857
		c-1.796936-2.189209-4.3191833-3.4147339-7.50354-3.4147339c-1.2005005,0-2.3313599,0.1967773-3.392395,0.6051025
		l0.0290527-0.1422176l-21.232605,0.0003719l-4.3989258,3.7307129l0.4902344-3.7307129H95.2633667l-1.4302368,1.2129517
		l1.5831299-11.68927H84.984375l-5.1188354,4.3411865l-0.8652344,5.6569824
		c-0.0018921-0.000061-0.00354-0.000412-0.0054321-0.0004272c-7.307373-0.0599613-11.6559448,6.2131958-11.6559448,6.2131958
		l2.1955566-16.2109375H59.1025391l-5.1188354,4.3411865l-0.8651733,5.6569824
		c-0.0018921-0.000061-0.0054932-0.0004272-0.0054932-0.0004272c-7.5248032-0.1602077-12.4894409,6.9354248-12.5475464,6.9869385
		c-0.3950195-0.9262085-0.8898926-1.7943726-1.491333-2.5996094c-2.1104736-2.8185425-5.1311646-4.2897949-8.9547119-4.3696289
		c-0.1204224-0.0028076-0.2406006-0.0042114-0.3600464-0.0042114c-2.4763794-0.000061-4.7436523,0.612915-6.7562256,1.8389282
		c-0.6627197,0.4023438-1.2773438,0.8718262-1.8588867,1.3846436c0.0640259-0.0565186,0.1203613-0.1230469,0.1854248-0.1782227
		l-2.2144775,1.8780518l0.380127-4.1569214c0,0-2.4953613-2.5482635-7.2219849-0.3279419L2.1685181,21.0573082l-5.1188354,4.3764687
		l-3.9318848,28.9031372H3.5496826l5.1188354-4.3412476l2.0132446-14.5145874
		c0.2380981,0.0321045,0.4901733,0.0696411,0.7730713,0.1188965c-0.3744507,1.3117676-0.7394409,5.0432129-0.7394409,5.0432129
		c-0.118042,2.5437622,0.3475952,4.9190674,1.385437,7.0551147c1.0662231,2.18927,2.6447754,3.9441528,4.68927,5.2027588
		c2.0262451,1.2408447,4.3297119,1.8790283,6.8392944,1.8967285l0.2556152,0.0089111
		c2.2008057,0,4.2885742-0.4431763,6.1931152-1.3206787l6.5569458-4.9672241
		c2.8024292,6.6305084,9.1532593,6.305603,9.1532593,6.305603c0.9705811,0,13.2741699-0.0000954,13.2741699-0.0000954
		l4.4995117-4.2409325c3.2504883,4.5346832,8.1080933,4.2410278,8.1080933,4.2410278
		c1.2941284,0,13.2927856-0.0000954,13.2927856-0.0000954l4.3997192-4.2187767
		c0.1686401,0.2751465,0.3631668,0.5319519,0.5458374,0.7976074c2.4040527,3.49617,7.2907104,3.4211693,7.2907104,3.4211693
		c1.3820801,0,14.6111908,0,14.6111908,0l-1.2297211,9.1203346h10.3967896l5.1187744-4.3411865l0.7463989-4.786377
		C132.625,55.2743073,143.875,48.2430573,144.5643311,35.7967529
		C144.6399536,34.4314537,144.6455688,33.2086792,144.5814209,32.180542z"/>
</g>
<g id="text-path">
	<g>
		<path fill="#FFFFFF" d="M15.1318474,22.5460796c0.642643,0,1.3948269,0.1063576,2.2568722,0.32794l-0.5916138,6.4347324
			c-0.8858566-0.1506748-1.6194572-0.2304459-2.1828699-0.2304459c-0.0769396-0.0020657-0.1533642-0.0030804-0.2291718-0.0030804
			c-2.1989708-0.0000153-3.9215117,0.8696003-5.1597719,2.6088829L6.9633842,48.027977H0.5017412l3.3891711-24.9766941
			l6.0736465-0.017725l-0.4780464,3.0489655C10.9582691,23.7248936,12.8341789,22.5460796,15.1318474,22.5460796z"/>
	</g>
	<g>
		<path fill="#FFFFFF" d="M37.5361671,26.1445885c1.7219009,2.304451,2.4538422,5.2204666,2.1870117,8.7480469l-0.2654343,2.8451118
			h-15.194521c-0.002512,1.6130905,0.4322758,2.9071503,1.3128128,3.8732224
			c0.8720818,0.9749603,2.034687,1.4713287,3.4882107,1.4979172c0.0743866,0.0019455,0.1486626,0.0029068,0.2223663,0.0029068
			c2.2667351,0,4.2189178-0.9226685,5.864994-2.7682457l3.093441,3.6959839
			c-0.8815117,1.4092598-2.1790047,2.5171661-3.9107513,3.3059731c-1.6576424,0.7637177-3.4425278,1.1456261-5.3618488,1.1456261
			c-0.0854168,0-0.1708126-0.0007362-0.256773-0.0022392c-2.1750717-0.0177269-4.1136932-0.5495224-5.8249931-1.6042519
			s-3.0143356-2.4994431-3.9090843-4.334137c-0.8951244-1.8435631-1.2864285-3.8732758-1.1828175-6.0890923l0.027832-0.9217567
			c0.1398792-2.4285355,0.7622395-4.6620789,1.8674755-6.6917667c1.1052608-2.0296898,2.5618973-3.5984879,4.3703041-4.6975346
			c1.712389-1.0406952,3.6176796-1.5648594,5.7304535-1.5648594c0.1184788,0,0.2373085,0.0016251,0.3570824,0.0049248
			C33.3410072,22.6524601,35.8054619,23.8401394,37.5361671,26.1445885z M33.5644035,32.5881844
			c0.0656128-0.6115646,0.0529938-1.1965389-0.04673-1.7549267c-0.182476-0.8951893-0.5775604-1.586525-1.1947098-2.0917301
			c-0.6168213-0.4963436-1.3833294-0.7533779-2.2995262-0.7711048c-0.0395489-0.0008869-0.0791073-0.0013294-0.1183548-0.0013294
			c-1.1409855,0-2.152401,0.3732166-3.018055,1.135828c-0.8957558,0.7799683-1.6732292,2.1449108-2.3327465,4.0859661h8.891386
			L33.5644035,32.5881844"/>
	</g>
	<g>
		<path fill="#FFFFFF" d="M60.7988815,12.5749226h6.4880524l-4.8009796,35.4530792H56.710968l0.2716103-2.6767082
			c-1.7198296,2.1110573-3.7699623,3.166748-6.1496239,3.166748c-0.0681267,0-0.1361389-0.0008392-0.2048187-0.0025635
			c-1.5412331-0.0177498-2.9118919-0.4254341-4.1031761-1.2231293s-2.1314392-1.9499207-2.8205414-3.4566765
			c-0.688755-1.4978905-1.0934944-3.1730499-1.2227058-5.0166092c-0.0794334-0.9661217-0.0962677-1.9056053-0.0329018-2.8185196
			l0.0940323-1.0370293c0.2761879-2.552597,0.8982201-4.7950039,1.8746796-6.7360592
			c0.9764137-1.9410801,2.2090607-3.3769054,3.6975937-4.316412c1.4124565-0.8967915,3.0101051-1.3413582,4.7769814-1.341383
			c0.0841675,0,0.1685448,0.0010109,0.2534714,0.0030041c2.3087502,0.062067,4.2003708,0.9927101,5.6924706,2.791954
			L60.7988815,12.5749226z M56.9822083,40.5385399l1.4032707-9.9889069
			c-0.6593857-1.6574306-1.8796806-2.5260315-3.6693535-2.5969372c-0.0622902-0.0021172-0.1241684-0.0031261-0.1855469-0.0031261
			c-1.4935341,0-2.7206535,0.6207733-3.6819572,1.8466854c-1.000782,1.2763119-1.6378174,3.350317-1.9114304,6.2131519
			c-0.0803566,1.1699295-0.0879822,2.1626396-0.0055923,2.9691963c0.2494087,2.7210236,1.3832359,4.1125565,3.4008217,4.1568718
			c0.0767593,0.0033493,0.1530914,0.0050011,0.2288742,0.0050011
			C54.2877731,43.1404762,55.7638931,42.2705956,56.9822083,40.5385399"/>
	</g>
	<g>
		<path fill="#FFFFFF" d="M86.6806641,12.5749226h6.4880524l-4.8009796,35.4530792h-5.7749786l0.2716064-2.6767044
			c-1.7198563,2.1110573-3.7699661,3.166748-6.1496277,3.166748c-0.0681229,0-0.1361389-0.0008392-0.2048187-0.0025635
			c-1.5412292-0.0177498-2.9118881-0.4254341-4.1031723-1.2231293s-2.1226654-1.9499207-2.8205414-3.4566765
			c-0.6887283-1.4978905-1.0934982-3.1730499-1.2226791-5.0166092c-0.0794601-0.9661217-0.0962982-1.9056053-0.0329285-2.8185196
			l0.0940552-1.0370293c0.2761383-2.552597,0.8982239-4.7950039,1.8746338-6.7360592
			c0.9764328-1.9410801,2.2090836-3.3769054,3.6976395-4.316412c1.4208221-0.8967915,3.0108643-1.3413582,4.7770309-1.341383
			c0.0841446,0,0.1684723,0.001009,0.2534027,0.0030041c2.3087463,0.062067,4.2091904,0.9927101,5.6924667,2.791954
			L86.6806641,12.5749226z M82.8727951,40.5385399l1.3944931-9.9889069
			c-0.6593857-1.6574306-1.8797073-2.5260315-3.6693573-2.5969372c-0.0623093-0.0021172-0.1241684-0.0031261-0.1855698-0.0031261
			c-1.4935303,0-2.7206497,0.6207733-3.6819534,1.8466854c-1.0008087,1.2763119-1.6378403,3.350317-1.9114304,6.2131519
			c-0.0803604,1.1699295-0.0791779,2.1626396-0.0055923,2.9691963c0.2494125,2.7210236,1.3832321,4.1125565,3.4096222,4.1568718
			c0.0763931,0.0033493,0.152359,0.0050011,0.2277985,0.0050011C80.1695862,43.1404762,81.6460419,42.2705956,82.8727951,40.5385399
			"/>
	</g>
	<g>
		<path fill="#FFFFFF" d="M117.8323822,23.051281l-3.3979645,24.976696h-6.0302811l0.3893051-2.5880737
			c-1.7177887,2.0390091-3.903923,3.0503502-6.5487213,3.0503502c-0.0568924,0-0.1135788-0.0004539-0.1708908-0.0013847
			c-2.3866806-0.0265923-4.2228775-0.8863297-5.508606-2.5792122c-1.2769165-1.6928864-1.8341751-3.9264297-1.6629791-6.700634
			l2.0926666-16.1577396h6.4616394l-2.1334305,16.2463741c-0.042778,0.5140686-0.0340347,0.9926872,0.0350342,1.4358482
			c0.206192,1.5422096,1.0802307,2.3310432,2.6312408,2.3753586c0.0743637,0.0023041,0.1484985,0.0034599,0.2218246,0.0034599
			c1.8995132,0,3.4524307-0.7728119,4.6665955-2.3344994l2.4401093-17.7265434H117.8323822z"/>
	</g>
	<g>
		<path fill="#FFFFFF" d="M142.6337738,32.2425194c0.0615234,0.9572334,0.0584259,2.0740051-0.0173798,3.368042
			c-0.2298737,2.6146622-0.8226013,4.9368401-1.7866364,6.9753685c-0.9644012,2.0297127-2.2032471,3.5364685-3.7077637,4.5202675
			c-1.4395905,0.9413757-3.0578918,1.412117-4.8389435,1.412117c-0.0803375,0-0.1607513-0.0009384-0.2417297-0.0028343
			c-2.4055939-0.0620651-4.3314209-0.966095-5.7860565-2.7032967l-1.8381271,11.8147392h-6.461647l4.6658859-34.5756378
			l5.9592056-0.0177021l-0.3390808,2.517168c1.6621857-1.969862,3.6591034-2.9629669,5.9985504-2.963089
			c0.0710754,0,0.1420135,0.0009098,0.2137299,0.002758c2.4407806,0.0620422,4.3575134,0.9572315,5.7671356,2.6678429
			C141.6220551,26.9777355,142.4290619,29.2999115,142.6337738,32.2425194z M136.2320557,32.9161263
			c-0.0193939-1.4890289-0.3358307-2.6767082-0.9402008-3.5541706c-0.6044006-0.8774643-1.4576263-1.3383541-2.5590057-1.3649445
			c-0.0680389-0.0022392-0.1356049-0.0033226-0.2026978-0.0033226c-1.7927094,0-3.245575,0.7990723-4.3662109,2.4052696
			l-1.4796066,10.3079815c0.6205978,1.5599365,1.8650589,2.3664932,3.7336044,2.4285355
			c0.0533447,0.001503,0.1065521,0.002243,0.1592102,0.002243c1.4880524,0,2.7153168-0.6039581,3.6737366-1.8280754
			c0.9923553-1.2674484,1.6388092-3.3237267,1.9306641-6.1688347L136.2320557,32.9161263"/>
	</g>
</g>
</svg>
