<?xml version="1.0" encoding="utf-8"?>
<!-- Generator: Adobe Illustrator 19.0.0, SVG Export Plug-In . SVG Version: 6.00 Build 0)  -->
<svg version="1.1" xmlns="http://www.w3.org/2000/svg" xmlns:xlink="http://www.w3.org/1999/xlink" x="0px" y="0px"
	 viewBox="-4 6.9 140.4 54.1" enable-background="new -4 6.9 140.4 54.1" xml:space="preserve">
<g id="outline-path">
	<g id="XMLID_91_">
		<g id="Layer_4_copy_3">
			<path id="XMLID_94_" fill="#F36E44" d="M121.6,17.2v-2.2h-9.9l0,0l0,0h0v0l-2.4,1.8h-9.9v0h-2v0h-9.9v0H85V6.9l-9.9,1.4v0
				l-4.5,4.9v3.4c0,0,0,0,0,0c-7.2,0.1-10.4,6.6-10.8,7.7c0,0,0,0,0,0.1V6.9l-9.9,1.4v0l-4.5,4.9v3.4c0,0,0,0,0,0
				c-0.4,0.1-0.9,0.2-1.3,0.3c0,0,0,0-0.1,0c-4.3,1.3-6.8,6-6.8,6c0-0.2-0.1-0.4-0.1-0.6c0-0.1,0-0.2,0-0.2
				c-0.1-0.8-0.4-1.6-0.9-2.5c0,0,0,0,0,0c-0.8-1.3-1.8-2-2.7-2.3c-1-0.5-2.3-0.7-3.9-0.7c-2.3,0-4.3,0.5-5.8,1.6
				c-1.5,1-2.7,2.3-3.6,3.9c-0.1,0.2-0.2,0.4-0.3,0.7c0-0.1,0-0.2,0-0.4c0-0.7-0.1-1.4-0.4-2.1c-0.3-0.6-0.6-1.2-1.1-1.8l0,0
				c-0.5-0.6-1.1-1-1.7-1.3c-0.7-0.4-1.5-0.6-2.3-0.6c-1.3,0-2.6,0.4-3.7,1.2v-1H0.5v0.1L-4,21.6v27h9.9l4.5-4.8l0,0h0V31.4
				c0.2,0,0.3,0,0.5,0c1.7,0,2.7-0.7,3.2-1.3c-0.1,0.5-0.3,1-0.4,1.5c-0.3,1.7-0.5,3.3-0.5,4.7c0,2.1,0.3,4,0.8,5.5
				c0.5,1.6,1.3,2.9,2.3,4c1,1,2.2,1.8,3.6,2.3c1.3,0.5,2.8,0.7,4.3,0.7c1.8,0,3.5-0.3,4.9-0.9c1.4-0.6,2.6-1.3,3.6-2.3
				c0.4-0.3,0.7-0.7,1-1.1c0.3,0.5,0.7,0.9,1,1.3c1,1,2.1,1.8,3.3,2.2c2.2,0.8,4.6,0.9,6.4,0.2c0.8-0.3,1.5-0.7,2.1-1.3
				c0.4-0.3,0.7-0.6,1-1c0.3,0.4,0.7,0.8,1.1,1.2c1.2,1,2.8,1.6,4.9,1.6c0.8,0,1.6-0.1,2.5-0.3c1-0.2,2.1-0.7,3-1.5
				c0.4-0.3,0.7-0.6,1-1c0.9,1,2,1.7,3.2,2.1c2.2,0.8,4.6,0.9,6.4,0.2c0.8-0.3,1.5-0.7,2.1-1.3c0.4-0.3,0.7-0.6,1-1
				c0.3,0.4,0.7,0.8,1.1,1.2c1.2,1,2.8,1.6,4.9,1.6c0.8,0,1.6-0.1,2.5-0.3c1-0.2,2.1-0.7,3-1.5c0.2-0.2,0.4-0.4,0.6-0.6
				c1.3,1.6,3.3,2.4,5.9,2.4c0.6,0,1.2-0.1,1.8-0.2c0.7-0.1,1.5-0.4,2.2-0.8c0.7-0.4,1.4-1,2.1-1.7c0,0,0.1-0.1,0.1-0.1
				c0.3,0.4,0.6,0.8,1,1.1c1.2,1.1,2.8,1.6,4.9,1.6c0.8,0,1.7-0.1,2.6-0.3c0.5-0.1,1.1-0.3,1.6-0.6V61l9.9-2.5l4.5-4.9l0,0v0l0,0
				l0-0.4v-4.5C142.9,52.2,140.7,9.1,121.6,17.2z"/>
		</g>
	</g>
</g>
<g id="text-path">
	<g id="XMLID_58_">
		<path id="XMLID_60_" fill="#FFFFFF" d="M132.7,24.2c-0.4-1.5-1-2.7-1.8-3.6c-0.8-0.9-1.6-1.6-2.6-2c-1-0.4-2-0.6-3.1-0.6
			c-1.2,0-2.2,0.2-3,0.6c-0.8,0.4-1.5,0.9-2.1,1.5v-3.6h-6.9v19.1c-0.2,0.4-0.3,0.7-0.6,1.1c-0.6,0.8-1.4,1.2-2.7,1.2
			c-0.8,0-1.4-0.2-1.7-0.7c-0.3-0.5-0.5-1.4-0.5-2.6V18.2h-6.9v15.4c0,1.2-0.3,2.2-0.9,3c-0.6,0.8-1.3,1.2-2.2,1.2
			c-0.6,0-1.1-0.2-1.5-0.7c-0.3-0.5-0.5-1.4-0.5-2.6V18.2H89V35c0,0.1,0,0.3,0,0.4c-0.2,0.4-0.4,0.8-0.7,1.2
			c-0.6,0.8-1.4,1.2-2.3,1.2c-0.9,0-1.6-0.2-1.9-0.6c-0.4-0.4-0.6-1.3-0.6-2.7V8.6l-6.9,1v10.9c-0.2-0.6-0.5-1-0.8-1.4
			c-0.4-0.3-0.7-0.6-1.2-0.8c-0.4-0.2-0.8-0.3-1.3-0.3c-0.4,0-0.9-0.1-1.2-0.1c-1.7,0-3.1,0.4-4.2,1.3c-1.2,0.8-2.1,1.9-2.8,3.2
			c-0.7,1.3-1.2,2.8-1.6,4.3c-0.3,1.6-0.5,3.1-0.5,4.6c0,1.8,0.2,3.4,0.6,4.7c-0.1,0.2-0.3,0.4-0.4,0.6c-0.6,0.8-1.4,1.2-2.3,1.2
			c-0.9,0-1.6-0.2-1.9-0.6c-0.4-0.4-0.6-1.3-0.6-2.7V8.6l-6.9,1v10.9c-0.2-0.6-0.5-1-0.8-1.4c-0.4-0.3-0.7-0.6-1.2-0.8
			c-0.4-0.2-0.8-0.3-1.3-0.3c-0.4,0-0.9-0.1-1.2-0.1c-1.7,0-3.1,0.4-4.2,1.3c-1.2,0.8-2.1,1.9-2.8,3.2c-0.7,1.3-1.2,2.8-1.6,4.3
			c-0.3,1.6-0.5,3.1-0.5,4.6c0,1.1,0.1,2.2,0.2,3.1c-0.3,0.4-0.5,0.7-0.8,1.1c-0.5,0.6-1,1.1-1.6,1.5c-0.6,0.4-1.2,0.8-2,1
			c-0.7,0.3-1.6,0.4-2.5,0.4c-1.7,0-2.9-0.5-3.6-1.4c-0.7-0.9-1-2.4-1.1-4.6c1.2-0.1,2.3-0.3,3.5-0.7c1.1-0.4,2.1-1,3-1.7
			c0.9-0.8,1.6-1.7,2.1-2.8c0.5-1.1,0.8-2.4,0.8-3.8c0-0.3,0-0.7-0.1-1.3c-0.1-0.6-0.3-1.2-0.7-1.9c-0.4-0.6-1-1.2-1.8-1.7
			c-0.8-0.5-2-0.7-3.6-0.7c-2,0-3.7,0.4-5,1.3c-1.3,0.9-2.4,2-3.1,3.4c-0.8,1.3-1.3,2.8-1.6,4.4c-0.3,1.6-0.5,3.1-0.5,4.4
			c0,2,0.2,3.6,0.7,5c0.5,1.4,1.1,2.5,2,3.4c0.8,0.9,1.8,1.5,3,1.9c1.2,0.4,2.4,0.6,3.8,0.6c1.6,0,3.1-0.3,4.3-0.8
			c1.2-0.5,2.3-1.2,3.2-2c0.9-0.8,1.7-1.8,2.3-2.8c0,0,0,0,0,0c0.5,1.3,1.1,2.4,1.9,3.2c0.8,0.9,1.7,1.5,2.7,1.9c1,0.4,2,0.6,3,0.6
			c0.9,0,1.6-0.1,2.3-0.4c0.7-0.3,1.2-0.6,1.7-1c0.5-0.4,0.9-0.9,1.3-1.4c0.4-0.5,0.7-1.1,0.9-1.6c0.4,1.4,1,2.5,1.8,3.2
			c0.9,0.8,2.2,1.2,3.9,1.2c0.6,0,1.4-0.1,2.2-0.3s1.6-0.6,2.4-1.2c0.7-0.6,1.3-1.3,1.9-2.3c0.3,0.5,0.6,1,1,1.4
			c0.8,0.9,1.7,1.5,2.7,1.9c1,0.4,2,0.6,3,0.6c0.9,0,1.6-0.1,2.3-0.4c0.7-0.3,1.2-0.6,1.7-1c0.5-0.4,0.9-0.9,1.3-1.4
			c0.4-0.5,0.7-1.1,0.9-1.6c0.4,1.4,1,2.5,1.8,3.2s2.2,1.2,3.9,1.2c0.6,0,1.4-0.1,2.2-0.3s1.6-0.6,2.4-1.2c0.6-0.5,1.2-1.2,1.8-2
			c0.2,0.5,0.5,1.1,0.8,1.5c1,1.3,2.6,2,4.9,2c0.5,0,1,0,1.6-0.1c0.6-0.1,1.2-0.3,1.7-0.6c0.6-0.3,1.1-0.8,1.7-1.4s1-1.4,1.4-2.4
			c0.3,1.4,0.9,2.6,1.8,3.4c0.9,0.8,2.2,1.2,3.9,1.2c0.7,0,1.4-0.1,2.3-0.3c0.8-0.2,1.6-0.6,2.4-1.2c0.4-0.3,0.7-0.6,1-1v14.2
			l6.9-1.7V40.8c0.4,0.4,0.9,0.8,1.6,1.2c0.7,0.3,1.7,0.5,2.9,0.5c1.7,0,3.1-0.4,4.2-1.1s2-1.7,2.7-3c0.7-1.2,1.1-2.6,1.4-4.1
			c0.3-1.5,0.4-3.1,0.4-4.6C133.4,27.5,133.1,25.7,132.7,24.2z M26.7,26.5c0.2-1.2,0.5-2.2,0.8-3.1c0.3-0.9,0.7-1.6,1.2-2.1
			c0.4-0.5,0.9-0.8,1.5-0.8c0.4,0,0.9,0.2,1.2,0.7c0.4,0.5,0.6,1.2,0.6,2.4c0,0.9-0.1,1.7-0.4,2.5s-0.7,1.4-1.2,2
			c-0.5,0.6-1.1,1.1-1.8,1.4c-0.7,0.4-1.5,0.6-2.3,0.6C26.3,28.9,26.5,27.7,26.7,26.5z M51.3,33.6c0,0.7-0.1,1.3-0.3,1.8
			c-0.2,0.5-0.4,1-0.7,1.3c-0.3,0.4-0.6,0.6-1,0.8c-0.4,0.2-0.7,0.3-1.1,0.3c-0.3,0-0.6,0-1.1-0.1c-0.4-0.1-0.8-0.3-1.2-0.8
			c-0.4-0.4-0.7-1.1-0.9-2.1c-0.3-0.9-0.4-2.3-0.4-4c0-1.1,0.1-2.2,0.2-3.3c0.2-1.2,0.4-2.2,0.7-3.2c0.3-1,0.8-1.8,1.3-2.4
			c0.6-0.7,1.2-1,2-1c0.4,0,0.7,0.1,1,0.2s0.5,0.3,0.7,0.5c0.2,0.2,0.3,0.4,0.4,0.6c0.1,0.2,0.2,0.4,0.2,0.5V33.6z M76.6,33.6
			c0,0.7-0.1,1.3-0.3,1.8c-0.2,0.5-0.4,1-0.7,1.3c-0.3,0.4-0.6,0.6-1,0.8c-0.4,0.2-0.7,0.3-1.1,0.3c-0.3,0-0.6,0-1.1-0.1
			c-0.4-0.1-0.8-0.3-1.2-0.8c-0.4-0.4-0.7-1.1-0.9-2.1c-0.3-0.9-0.4-2.3-0.4-4c0-1.1,0.1-2.2,0.2-3.3c0.2-1.2,0.4-2.2,0.7-3.2
			c0.3-1,0.8-1.8,1.3-2.4c0.6-0.7,1.2-1,2-1c0.4,0,0.7,0.1,1,0.2s0.5,0.3,0.7,0.5c0.2,0.2,0.3,0.4,0.4,0.6c0.1,0.2,0.2,0.4,0.2,0.5
			V33.6z M126.5,32.3c-0.1,1.1-0.4,2.1-0.7,3c-0.3,0.9-0.8,1.6-1.4,2.2c-0.6,0.6-1.3,0.8-2.1,0.8c-0.6,0-1-0.1-1.4-0.4
			c-0.4-0.2-0.6-0.5-0.8-0.7V23.8c0.3-0.8,0.7-1.4,1.2-1.8c0.5-0.4,1.1-0.6,1.7-0.6c0.2,0,0.5,0.1,0.9,0.2c0.4,0.1,0.8,0.4,1.2,0.9
			c0.4,0.5,0.8,1.3,1.1,2.3c0.3,1,0.5,2.4,0.5,4.2C126.7,30.1,126.6,31.2,126.5,32.3z"/>
		<path id="XMLID_93_" fill="#FFFFFF" d="M17,19.4c-0.4-0.4-0.8-0.8-1.3-1c-0.5-0.3-1-0.4-1.7-0.4c-1,0-2,0.3-2.8,1
			c-0.9,0.7-1.6,1.4-2.4,2.2v-3H2v24h6.9V24c0.5-0.5,1-1,1.5-1.4c0.5-0.4,0.9-0.6,1.4-0.6c0.4,0,0.8,0.2,0.9,0.5
			c0.2,0.3,0.3,0.7,0.5,1c0.2,0.4,0.4,0.7,0.7,1c0.3,0.3,0.8,0.5,1.5,0.5c1,0,1.7-0.3,2.1-0.9c0.4-0.6,0.6-1.2,0.6-1.9
			c0-0.5-0.1-1-0.3-1.5C17.7,20.2,17.4,19.8,17,19.4z"/>
	</g>
</g>
</svg>
