<?xml version="1.0" encoding="utf-8"?>
<!-- Generator: Adobe Illustrator 19.0.0, SVG Export Plug-In . SVG Version: 6.00 Build 0)  -->
<svg version="1.1" xmlns="http://www.w3.org/2000/svg" xmlns:xlink="http://www.w3.org/1999/xlink" x="0px" y="0px"
	 viewBox="0 0 420.7953796 148.908844" enable-background="new 0 0 420.7953796 148.908844" xml:space="preserve">
<g id="outline-path">
	<path fill="#FF6F41" d="M331.0805969,110.151947c-17.5,15.2149963-29.4679871-0.3186111-29.4679871-0.3186111
		c-17.5,15.2149963-35,0-35,0c-17.5,15.2149963-35,0-35,0c-17.5,15.2149963-35.0416565,0-35.0416565,0c-17.5,15.2149963-35,0-35,0
		c-23.4583435,15-36.0585251-3.25-36.0585251-3.25c-8.6003799,11.75-84.4166718,28.2499924-60.2101974-50.5641899
		c0,0-8.1847458,8.563015-11.6013718-0.4436417L41.0154495,115.06884L0,115.0373917l16.1018066-77.2030792l12.3468742-10.343853
		h27.0726318l0.0308571,6.3687096c22-15.5000019,26.4450073,3,26.4450073,3C114.7624283,16,135.885498,28.7984829,134.2188416,39.5
		c0,0,7.2102509-17.5,30.6711426-12.5l4.6963806-16.5416679l5.6253357-7.4969797L207.0957642,0l-7.3453369,43.2770157
		C205.2624207,29.166666,221.5957642,20.5,238.7624207,27l4.3333435-16.5416679l5.625-7.5L280.3457642,0l-5.5435791,34.5146904
		l8.7434082-6.2742271h25.9447632l0.0618286,5.7786827l10.2981567-5.7786827h25.4733276l0.0655518,5.6987267l10.1186523-12.2887268
		h27.9407959l2.6470947,4.4328709C439.4291077,18,429.8668213,127.5541611,367.1427307,115.8091583l-6.1843872,25.2663422
		L331.625,148.908844l-8-7L331.0805969,110.151947z"/>
	<g>
	</g>
</g>
<g id="text-path">
	<g>
		<path fill="#FFFFFF" d="M76.9953003,39.5177879c-1.0229492-3.9315186-3.6253052-6.3657227-7.749939-7.0386353
			c-3.2154541-0.5245361-6.276062,0.1207886-9.0166016,1.6560059c-3.182251,1.7825928-6.1409302,3.9641724-9.0172729,5.8546753
			l1.5150146-7.7075806L32.0932617,32.281826l-14.8664551,70.5480347h20.6010132c0,0,7.2910767-34.5275879,10.7563477-51.2320518
			c0.3239136-1.5611572,0.9805298-2.725769,2.2363281-3.6325073c0.9069214-0.6547852,1.7694702-1.3707886,2.6715698-2.0325317
			c1.4636841-1.0735474,3.1575928-1.4883423,4.9287109-1.6688843c1.1658325-0.1188965,1.9544067,0.3825073,2.2866211,1.4866333
			c0.3441772,1.1436157,0.6019287,2.3131714,0.8988037,3.4710693c0.5078735,1.9812012,1.522583,3.5741577,3.6218872,4.0742188
			c1.8066406,0.4302979,3.6539917,0.3109741,5.4141846-0.3039551C76.3519287,50.9971581,78.572876,45.5808983,76.9953003,39.5177879
			z"/>
		<path fill="#FFFFFF" d="M408.8799438,50.2604637c-0.1741333-2.8969727-0.6885376-5.6976929-1.7232056-8.4006958
			c-1.8419189-4.8118286-5.0216675-8.2755737-10.1644897-9.4776001c-4.8886719-1.1426392-9.7844849-0.975708-14.4504395,1.0075684
			c-2.3153076,0.9841309-4.4647827,2.3586426-6.6563721,3.5388794l2.0184326-9.7167969l-20.4242554-0.0003052
			c0,0-7.2161865,33.0963135-9.5610352,44.2148399c-0.8239746,3.9067383-1.5283813,7.852356-3.4321899,11.4213867
			c-1.7242432,3.2324829-3.9649658,5.8978882-7.8225708,6.6911621c-4.2562256,0.8751831-7.3292847-1.7028809-6.7229614-5.7362671
			c0.2424927-1.6130981,10.6533813-51.5037804,10.6533813-51.5037804H320.114624
			c-2.7010498,12.8352051-5.7420654,26.8200684-8.4453125,39.6547813c-0.8067017,3.8302612-1.5419312,7.6827393-3.437561,11.168396
			c-1.6478882,3.0302734-3.7182617,5.5906372-7.3573608,6.3572388c-2.7184448,0.5725708-4.6077881-0.4590454-4.9933472-3.1896362
			c-0.262146-1.8568726-0.2807617-3.8500366,0.0949097-5.678833c2.975647-14.4871216,10.0548096-48.3269615,10.0548096-48.3269615
			l-20.625,0.0150146c0,0-6.5317383,31.0077515-8.7654419,41.7808189
			c-0.8598633,4.1470947-2.0792236,8.1281738-4.6300659,11.5795898c-2.4586182,3.3266602-6.0091553,4.6799316-9.6549683,3.7404785
			c-1.5765991-0.40625-2.6992188-1.3334351-2.871521-2.9891357c-0.1431274-1.3746338-0.2472534-2.8243408,0.0263062-4.1599121
			c1.8799438-9.1773682,3.8664551-18.332943,5.8137207-27.4965782c3.2068481-15.0906982,6.4508057-30.3702393,9.6531372-45.461853
			l0.9906006-4.8193965l-21.2180176,2.9047241c-2.0498657,9.7531128-4.3579102,20.6400757-6.4404907,30.4315796
			c-0.7380371-2.6885376-2.3757935-4.3989258-5.171814-5.2581787c-3.7905884-1.164856-7.6709595-1.024353-11.5056763-0.37854
			c-6.0740356,1.0228271-11.1228027,4.0842285-15.4821777,8.3344116c-4.3278198,4.2194214-7.401001,9.2901001-9.8765869,14.7601318
			c-3.4989624,7.7313843-5.4268188,15.853756-5.6421509,24.3127403c-0.0662842,2.6026611-0.8768921,4.6436157-2.4497681,6.5238037
			c-2.1063232,2.5178833-4.7456055,3.8410034-8.1050415,3.5340576c-2.2514648-0.2057495-3.7520752-1.1679688-4.0306396-3.0725708
			c-0.2217407-1.5155029-0.2674561-3.1448364,0.0387573-4.6353149c2.1100464-10.2694092,4.3347168-20.515255,6.5194092-30.7693443
			c2.8661499-13.4522095,5.7319336-26.9044189,8.5911255-40.3580933c0.4360352-2.0516357,0.8358765-4.1110225,1.2810669-6.308044
			L181.2626953,7.440639c-0.6321411,3.0445552-4.9470825,23.3554688-6.4120483,30.2592773
			c-1.012085-3.1801758-3.2388306-4.807312-6.2593994-5.4344482c-3.9235229-0.8145752-7.8590698-0.7299194-11.7514038,0.1838989
			c-7.5986938,1.7839966-13.4320068,6.256958-17.9667969,12.4052124
			c-6.9286499,9.3938599-10.6022949,20.044857-11.5123291,31.654232c-0.1550293,1.9780884-0.5320435,3.7471924-2.2610474,4.9985962
			c-0.6398926,0.4631348-1.1315308,1.1270752-1.7108154,1.6784668c-5.8278198,5.546814-12.512207,8.8289185-20.8137817,8.1698608
			c-4.0005493-0.317627-6.3968506-2.0240479-7.4172974-5.9067383c-0.7155762-2.7228394-0.723999-5.4943848-0.5029907-8.3021851
			c0.2035522-2.5857544,0.0869141-2.5462646,2.6086426-2.8847656c8.9978638-1.2078247,16.7590942-4.9555664,22.8342896-11.7446861
			c5.1824341-5.7914429,7.7125854-12.5761108,6.7782593-20.4864502c-0.6195679-5.2459717-3.84552-8.9898071-9.1920776-10.1940308
			c-2.8842773-0.6496582-5.8030396-0.7781372-8.7866211-0.5750732c-4.5950928,0.3127441-8.8710938,1.4917603-12.8766479,3.7285156
			c-7.5354614,4.2078857-12.4927979,10.7003784-16.1417236,18.3185425
			c-3.2874146,6.8632813-5.2280884,14.1094933-6.0983276,21.6713829c-0.5236816,4.5506592-0.671875,9.0697021,0.3005371,13.5674438
			c1.5195313,7.0281982,5.5748901,11.8395386,12.5446777,13.9359131c4.9347534,1.4842529,9.9969482,1.5162964,15.0366821,0.7058105
			c7.5928955-1.2210083,14.0909424-4.7667847,19.8174438-9.7989502c2.1464233-1.8861084,4.2186279-3.8566284,6.324707-5.7886963
			c-0.1583252,0.18927-0.0691528,0.6583862,0.0410767,1.1224976c2.8856812,12.1456909,11.4042358,15.9387207,21.2996826,14.7146606
			c6.0161133-0.7442017,10.7770386-4.0141602,14.65979-8.5847778c0.9196777-1.0826416,1.7723389-2.222229,2.7666016-3.4752197
			c0.0721436,0.3613281,0.1104126,0.5430298,0.1445313,0.7255249c1.1567993,6.1881714,5.5988159,10.2650146,11.8322144,10.6875
			c7.7955933,0.5283203,14.5881958-1.7903442,20.0976563-7.4550781c1.1820068-1.215332,2.2371826-2.5541382,3.4076538-3.9014893
			c0.0978394,0.2174683,0.1671143,0.3521729,0.22052,0.4929199c3.6381836,9.5921631,11.2993774,12.5984497,20.2276611,11.5267944
			c6.1950073-0.7435303,11.0728149-4.1104736,15.0100708-8.8696899c0.8305054-1.0038452,1.6212158-2.0406494,2.5250854-3.1821289
			c0.0651245,0.3050537,0.0960693,0.4484863,0.1263428,0.5921021c1.1473999,5.4470825,4.1463623,9.178772,9.7557983,10.4418945
			c3.0067749,0.677063,6.043335,0.5300903,9.0428467-0.003479c6.4036255-1.1390991,11.4207153-4.5586548,15.4029541-9.6097412
			c0.2489014-0.3156738,0.5169678-0.6161499,0.7923584-0.9429932c0.1512451,0.1879883,0.1893921,0.2151489,0.197998,0.2496338
			c0.0383911,0.1538086,0.0613403,0.3115845,0.102356,0.4645996c1.2887573,4.8024292,3.8890991,8.5602417,8.8048096,10.0956421
			c5.0115356,1.5653687,10.0336914,1.267334,14.8247681-0.9585571c4.5123291-2.0963745,7.8769531-5.5334473,10.6414795-9.6031494
			c0.2260132-0.3328247,0.4822388-0.6451416,0.8399048-1.1204834c0.1710815,0.8544922,0.2739258,1.4393311,0.4061279,2.0174561
			c1.4048462,6.1424561,5.432251,9.942749,11.3980103,10.4707642c6.24646,0.5529175,11.9672852-1.005249,16.9991455-4.8270874
			c1.0701294-0.8128052,2.0617676-1.7288818,3.3485718-2.8162231l-8.8786621,41.9400711l21.5168457-4.9824219l7.2516479-33.7024002
			c1.9573975,2.5910034,4.4780273,3.8178101,7.3897095,4.1651001c2.0391235,0.2432861,4.1137085,0.2684937,6.171814,0.2589722
			c6.7293091-0.031189,12.5280151-2.555481,17.6061401-6.8314209c4.9647217-4.1803589,8.1351318-9.6102295,10.4304199-15.5758667
			C408.0314331,71.189415,409.5187988,60.8880882,408.8799438,50.2604637
			C408.7058105,47.3634911,409.5187988,60.8880882,408.8799438,50.2604637z M97.2305298,63.4689598
			c1.7272949-7.5872192,3.9960327-14.9802856,8.4796753-21.4587402c1.1879883-1.7166138,2.7217407-3.2312012,4.2758179-4.6411133
			c0.7515259-0.6818237,1.8847656-1.0252075,2.9043579-1.3094482c1.4070435-0.3922729,2.7062378,0.3614502,3.2997437,1.7198486
			c0.1431885,0.3277588,0.2935791,0.6676636,0.347168,1.0164185c0.151001,0.9821167,0.2532959,1.9717407,0.3747559,2.958374
			c-0.0878906,10.4975586-8.270813,20.4152222-18.5955811,22.4449425
			C97.7081909,64.3188095,96.9869995,64.5387192,97.2305298,63.4689598z M173.8774414,43.8709984
			c-2.1837158,10.1641235-4.4547729,20.3112144-6.4711304,30.5086021c-0.822937,4.1617432-2.5689087,7.6035767-5.8956299,10.1947021
			c-1.7722168,1.3803101-3.7894897,2.1567993-6.1081543,2.0772095c-2.1663208-0.0744019-3.7078857-1.0164185-4.7072754-2.9335938
			c-1.2601318-2.4174805-1.3195801-5.0542603-1.5464478-7.9542847c0.7787476-10.9837036,3.1676636-21.7609825,9.6019897-31.2632408
			c1.2509155-1.84729,2.989624-3.4338379,4.7331543-4.8597412c1.9954224-1.631958,4.4312134-2.2142334,6.9926147-1.5158081
			C173.0075684,38.8149681,174.4212036,41.3401756,173.8774414,43.8709984z M247.3825684,43.9529686
			c-2.1864624,9.7973633-4.3516846,19.602478-6.2858276,29.4515343c-0.6803589,3.4647827-1.7073975,6.633667-4.0470581,9.2854614
			c-2.052063,2.3258667-4.5374756,3.8758545-6.5953979,3.9519043c-4.5734253-0.0109253-6.5961304-1.975769-7.3224487-5.9371338
			c-0.6622925-3.6121216-0.4356689-7.2337036,0.0516357-10.8191528c0.9505005-6.9941368,2.8291016-13.7430382,5.9118042-20.1191368
			c1.8592529-3.8455811,4.1174316-7.4071045,7.6192627-10.0058594c1.7174072-1.2744751,3.6273804-1.866394,5.8021851-1.8944702
			C245.3509521,37.8295555,248.1167603,40.6629906,247.3825684,43.9529686z M390.4542847,51.1051903
			c-0.2640991,9.0494385-1.7710571,17.8463707-5.6126099,26.1188927c-1.6872559,3.6334229-4.001709,6.8380737-7.4825439,9.0037842
			c-2.4490967,1.5237427-5.0947266,2.2182007-7.9998169,1.6219482c-1.3067627-0.2681885-2.2836304-1.0170898-2.928833-2.1005249
			c-0.2858276-0.4801025-0.3248901-1.2359619-0.204895-1.8099976c2.6012573-12.4411011,5.1894531-24.8855553,7.9173584-37.2991905
			c0.5319824-2.4207764,2.4487305-4.0789795,4.4028931-5.5130005c1.5325928-1.1246338,3.2167969-1.8235474,5.2092896-1.8384399
			c2.5673218-0.0192871,4.236145,1.159729,5.2891235,3.3876953
			C390.3076172,45.3496971,390.5072021,48.2027245,390.4542847,51.1051903z"/>
	</g>
</g>
</svg>
