<?xml version="1.0" encoding="utf-8"?>
<!-- Generator: Adobe Illustrator 19.0.0, SVG Export Plug-In . SVG Version: 6.00 Build 0)  -->
<svg version="1.1" xmlns="http://www.w3.org/2000/svg" xmlns:xlink="http://www.w3.org/1999/xlink" x="0px" y="0px"
	 viewBox="0 0 139.7470703 55.2256927" enable-background="new 0 0 139.7470703 55.2256927" xml:space="preserve">
<g id="outline-path">
	<g id="Layer_4_copy_3">
		<path id="XMLID_94_" fill="#F36E44" d="M129.598999,10.7051258c-0.1328735-0.0054321-0.2639771-0.0194702-0.3978882-0.0194702
			c-1.3652344,0-2.5722656,0.2382813-3.5878906,0.7084961V9.1504993h-9.9006958l-0.0027466-0.0023804l-0.0032959,0.0023804
			h-0.0053711v0.0039063l-2.4414673,1.7714844h-9.8934937v0.0026245h-1.9921875V10.92589H91.461853v0.0026245h-2.4707031V1.1036243
			l-9.9121094,1.3764648v0.0203247l-4.4882202,4.8585815v3.4335327c-0.0003662,0.000061-0.0007324,0.0001831-0.0010986,0.0002441
			c-7.161438,0.1256104-10.4318848,6.5625-10.8277588,7.666626c-0.005127,0.0143433-0.012146,0.0445557-0.0178833,0.0638428
			V1.1036243l-9.9125977,1.3764648v0.02771l-4.4882202,4.8511963v3.4335938
			c-0.0012817,0.0001831-0.0025024,0.0006714-0.0038452,0.0008545c-0.4390869,0.053772-0.8566895,0.1558838-1.2642212,0.2775269
			c-0.0202026,0.0061035-0.0401001,0.0126953-0.0603027,0.0189209c-4.3084106,1.3228149-6.8132324,6.0332642-6.8132324,6.0332642
			c-0.0338135-0.2228394-0.0797729-0.4202271-0.121521-0.6265259c-0.0096436-0.0786743-0.0178223-0.1505127-0.0289307-0.2357788
			c-0.1083984-0.8188477-0.4228516-1.6494141-0.9355469-2.4707031c-0.0050659-0.0080566-0.0119629-0.0152588-0.0170288-0.0233154
			c-0.7755127-1.31604-1.7897339-1.9772949-2.741333-2.3410645c-1.0214844-0.487793-2.2965698-0.7401123-3.9130249-0.7401123
			c-2.3125,0-4.2768555,0.5400391-5.8383789,1.605957c-1.4951172,1.0214844-2.6982422,2.3178711-3.5766602,3.8544922
			c-0.1240234,0.2172852-0.2313232,0.4442749-0.3446655,0.6677856c0.008728-0.1187744,0.027771-0.2349243,0.027771-0.3557739
			c0-0.7094727-0.144043-1.4130859-0.4291992-2.0927734c-0.2705078-0.644043-0.6479492-1.2426758-1.1220703-1.7797852
			l-0.0019531-0.0019531c-0.4907227-0.5537109-1.0732422-1.0068359-1.7314453-1.3461914
			c-0.7094727-0.3662109-1.4980469-0.5517578-2.3432617-0.5517578c-1.3310547,0-2.5698242,0.4199219-3.684082,1.2485352V10.92589
			H4.4882202v0.1295776L0,15.8047962v26.9999981h9.9121094l4.4658203-4.8310547l-0.0149536-0.0478516h0.0373535V25.629015
			c0.1763306,0.017395,0.3480835,0.0400391,0.5396118,0.0400391c1.699646,0,2.6654663-0.6820068,3.2020874-1.3227539
			c-0.1474609,0.5018311-0.2792969,1.0105591-0.3793335,1.5322266c-0.3203125,1.668457-0.4829102,3.2573242-0.4829102,4.722168
			c0,2.1054668,0.2602539,3.9521465,0.7729492,5.4892559c0.5322266,1.5986328,1.3095703,2.9365234,2.3100586,3.9746094
			c1.003418,1.0429688,2.2050781,1.8212891,3.5727539,2.3154297c1.3129883,0.4726563,2.7597656,0.7128906,4.300293,0.7128906
			c1.8232422,0,3.456543-0.2978516,4.8530273-0.8857422c1.3691406-0.5751953,2.5883789-1.3457031,3.6225586-2.2900391
			c0.3691406-0.3369141,0.71875-0.6923828,1.0478516-1.0654297c0.3139648,0.4902344,0.65625,0.9316406,1.0249023,1.3222656
			c0.9667969,1.0244141,2.0644531,1.7783203,3.2612305,2.2412109c2.1713867,0.8408203,4.6098633,0.8847656,6.3911133,0.1914063
			c0.8041992-0.3134766,1.5263672-0.7363281,2.1469727-1.2568359c0.3666992-0.3076172,0.7041016-0.6445313,1.0102539-1.0068359
			c0.3100586,0.4433594,0.6640625,0.8417969,1.0595703,1.1943359c1.1586914,1.0322266,2.7944336,1.5556641,4.8623047,1.5556641
			c0.7514648,0,1.6074219-0.1103516,2.5449219-0.3261719c1.043457-0.2421875,2.0639648-0.7470703,3.0341797-1.5029297
			c0.3588867-0.2802734,0.7060547-0.6083984,1.0395508-0.9824219c0.940918,0.9697266,2.003418,1.6875,3.1591797,2.1337891
			c2.168457,0.8408203,4.6088867,0.8837891,6.3911133,0.1914063c0.8037109-0.3144531,1.5253906-0.7363281,2.1474609-1.2568359
			c0.3662109-0.3076172,0.7041016-0.6445313,1.0097656-1.0068359c0.3095703,0.4423828,0.6630859,0.8417969,1.0585938,1.1943359
			c1.1582031,1.0322266,2.7939453,1.5556641,4.8623047,1.5556641c0.7519531,0,1.6083984-0.1103516,2.5458984-0.3261719
			c1.0429688-0.2412109,2.0625-0.7470703,3.0332031-1.5029297c0.2138672-0.1669922,0.4238281-0.3505859,0.6289063-0.5507813
			c1.3095703,1.5791016,3.3046875,2.3798828,5.9355469,2.3798828c0.5625,0,1.1787109-0.0556641,1.8300781-0.1650391
			c0.7431641-0.1230469,1.4863281-0.3896484,2.2089844-0.7919922c0.7128906-0.3945313,1.4052734-0.9550781,2.0566406-1.6640625
			c0.0302734-0.0322266,0.0605469-0.0654297,0.0898438-0.0996094c0.2900391,0.4179688,0.6201172,0.7958984,0.9882813,1.1298828
			c1.1601563,1.0556641,2.8164063,1.5908203,4.921875,1.5908203c0.7822266,0,1.6552734-0.1103516,2.59375-0.3261719
			c0.546875-0.1269531,1.0869141-0.3261719,1.6171875-0.5957031v13.0546875L121.125,52.7481537l4.4630127-4.8726196
			l0.0252075-0.0062866v-0.0212402l0.0029297-0.0031738l-0.0029297-0.3979492V42.94841
			C142.4588013,45.1490326,144.8165283,10.4758167,129.598999,10.7051258z"/>
	</g>
</g>
<g id="text-path">
	<g id="XMLID_37_">
		<g id="XMLID_91_">
			<path id="XMLID_93_" fill="#FFFFFF" d="M21.0365601,13.5779896c-0.3686523-0.4155273-0.800293-0.7514648-1.2963867-1.0078125
				c-0.4960938-0.2558594-1.0483398-0.3842773-1.6557617-0.3842773c-1.0244141,0-1.9682617,0.3286133-2.8320313,0.984375
				c-0.8642578,0.65625-1.6484375,1.3999023-2.3520508,2.2319336v-2.9760742H5.9882202v23.9999981h6.9121094V18.1858997
				c0.5117188-0.543457,1-0.9995117,1.4638672-1.3676758c0.4638672-0.3676758,0.9360352-0.5522461,1.4160156-0.5522461
				c0.4477539,0,0.7597656,0.1606445,0.9360352,0.4799805c0.1757813,0.3203125,0.34375,0.6645508,0.5039063,1.0322266
				c0.1601563,0.3681641,0.3842773,0.7124023,0.6723633,1.0317383c0.2880859,0.3203125,0.7993164,0.4799805,1.5356445,0.4799805
				c0.9916992,0,1.7041016-0.2954102,2.1362305-0.8876953c0.4321289-0.5917969,0.6479492-1.2397461,0.6479492-1.9438477
				c0-0.5117188-0.1040039-1.015625-0.3120117-1.512207C21.6918335,14.4505482,21.4037476,13.9944935,21.0365601,13.5779896z"/>
		</g>
		<g id="XMLID_58_">
			<path id="XMLID_60_" fill="#FFFFFF" d="M136.6893921,18.4261341c-0.4482422-1.5039063-1.0488281-2.7119141-1.7998047-3.6240234
				c-0.7529297-0.9121094-1.6162109-1.5756836-2.5927734-1.9921875c-0.9755859-0.4155273-2.0078125-0.6240234-3.0957031-0.6240234
				c-1.1845703,0-2.1923828,0.2006836-3.0234375,0.6000977c-0.8330078,0.4008789-1.5205078,0.8881836-2.0644531,1.4643555
				v-3.6000977h-6.9121094v19.095459c-0.1534424,0.3772583-0.3304443,0.7369385-0.5507813,1.064209
				c-0.5605469,0.8330078-1.4482422,1.248045-2.6640625,1.248045c-0.8330078,0-1.4091797-0.2470684-1.7285156-0.7441387
				c-0.3203125-0.4951172-0.4794922-1.3505859-0.4794922-2.5678711V12.4261341h-6.9121094v15.4082031
				c0,1.2163086-0.2880859,2.2246094-0.8642578,3.0234375c-0.5761719,0.8007813-1.2958984,1.2001934-2.1601563,1.2001934
				c-0.640625,0-1.1279297-0.2470684-1.4638672-0.7441387c-0.3359375-0.4951172-0.5039063-1.3505859-0.5039063-2.5678711V12.4261341
				H92.961853v16.8481445c0,0.1344604,0.0188599,0.2515869,0.0223999,0.3828125
				c-0.1731567,0.4396362-0.3905029,0.8442993-0.6688843,1.2006836c-0.6240234,0.8007813-1.4003906,1.2001934-2.328125,1.2001934
				c-0.9287109,0-1.5771484-0.2158184-1.9443359-0.647459c-0.3681641-0.4326172-0.5517578-1.3203125-0.5517578-2.6645508V2.8260365
				l-6.9121094,0.9599609v10.9443359c-0.1923828-0.5761719-0.4648438-1.0322266-0.8164063-1.3681641
				c-0.3525391-0.3359375-0.7363281-0.5917969-1.1513672-0.7680664c-0.4169922-0.175293-0.8486328-0.2880859-1.2958984-0.3359375
				c-0.4492188-0.0478516-0.8642578-0.0722656-1.2480469-0.0722656c-1.6650391,0-3.0810547,0.4248047-4.2480469,1.2724609
				c-1.1689453,0.8481445-2.1123047,1.9282227-2.8320313,3.2397461c-0.7207031,1.3125-1.2480469,2.7524414-1.5839844,4.3198242
				c-0.3359375,1.5683594-0.5039063,3.0888672-0.5039063,4.5600586c0,1.8074951,0.1980591,3.3516846,0.5723267,4.6634521
				c-0.1196289,0.2171631-0.2529907,0.4235229-0.4033813,0.616333c-0.625,0.8007813-1.4003906,1.2001934-2.328125,1.2001934
				c-0.9296875,0-1.578125-0.2158184-1.9453125-0.647459c-0.3671875-0.4326172-0.5507813-1.3203125-0.5507813-2.6645508V2.8260365
				l-6.9125977,0.9599609v10.9443359c-0.1918945-0.5761719-0.4643555-1.0322266-0.815918-1.3681641
				c-0.3525391-0.3359375-0.7368164-0.5917969-1.1523438-0.7680664c-0.4160156-0.175293-0.8481445-0.2880859-1.2958984-0.3359375
				c-0.4482422-0.0478516-0.8637695-0.0722656-1.2480469-0.0722656c-1.6640625,0-3.0800781,0.4248047-4.2480469,1.2724609
				c-1.168457,0.8481445-2.1118164,1.9282227-2.8320313,3.2397461c-0.7197266,1.3125-1.2480469,2.7524414-1.5839844,4.3198242
				c-0.3359375,1.5683594-0.5039063,3.0888672-0.5039063,4.5600586c0,1.1334229,0.0803223,2.1602783,0.227478,3.0987549
				c-0.2628784,0.3630981-0.5294189,0.7168579-0.8026733,1.0540771c-0.4799805,0.5917969-1.0078125,1.1035156-1.5839844,1.5351563
				c-0.5756836,0.4326172-1.2319336,0.7763653-1.9677734,1.0322247c-0.7368164,0.2568359-1.5839844,0.3837891-2.5439453,0.3837891
				c-1.7280273,0-2.9365234-0.4560547-3.6240234-1.3681622c-0.6884766-0.9111328-1.0488281-2.4394531-1.0800781-4.5834961
				c1.1835938-0.0639648,2.34375-0.2958984,3.4799805-0.6962891c1.1352539-0.3999023,2.1435547-0.9755859,3.0239258-1.7280273
				c0.8798828-0.7514648,1.5839844-1.671875,2.1118164-2.7597656c0.5283203-1.0874023,0.7919922-2.3520508,0.7919922-3.7919922
				c0-0.2558594-0.0405273-0.6879883-0.1196289-1.2958984c-0.0805664-0.6079102-0.3203125-1.2319336-0.7202148-1.8720703
				c-0.4003906-0.6401367-1.0161133-1.2001953-1.8481445-1.6801758c-0.8325195-0.4799805-2.015625-0.7202148-3.5517578-0.7202148
				c-2.0161133,0-3.6801758,0.4487305-4.9921875,1.3442383c-1.3125,0.8964844-2.3520508,2.0161133-3.1201172,3.3598633
				c-0.7675781,1.3442383-1.3041992,2.8081055-1.6079102,4.3920898c-0.3041992,1.5839844-0.4560547,3.0644531-0.4560547,4.4399414
				c0,1.9521484,0.2319336,3.6240234,0.6962891,5.015625c0.4633789,1.3925762,1.1196289,2.5283184,1.9677734,3.4082012
				c0.8476563,0.8808594,1.8481445,1.5283203,3,1.9443359c1.1523438,0.4150391,2.4160156,0.6240234,3.7919922,0.6240234
				c1.6323242,0,3.0556641-0.2568359,4.2719727-0.7685547c1.2158203-0.5107422,2.2802734-1.1826172,3.1923828-2.015625
				c0.9116211-0.8320313,1.6796875-1.7763672,2.3037109-2.8320293c0.0015869-0.0026855,0.0028687-0.0054932,0.0044556-0.0081787
				c0.4833374,1.3012676,1.1020508,2.3662701,1.8666382,3.1761456c0.815918,0.8642578,1.7197266,1.4882813,2.7119141,1.8720703
				c0.9916992,0.3837891,1.9995117,0.5761719,3.0244141,0.5761719c0.8637695,0,1.6235352-0.1279297,2.2797852-0.3837891
				c0.6557617-0.2558594,1.2314453-0.5917969,1.7280273-1.0078125c0.4956055-0.4160156,0.9194336-0.8886719,1.2719727-1.4160156
				c0.3515625-0.5283203,0.6557617-1.0644531,0.9121094-1.6083984c0.3515625,1.3759766,0.9672852,2.4560547,1.8481445,3.2402344
				c0.8798828,0.7841797,2.1669922,1.1757813,3.8642578,1.1757813c0.6386719,0,1.375-0.0957031,2.2070313-0.2880859
				s1.6484375-0.5996094,2.4492188-1.2236328c0.7071533-0.5524292,1.3493652-1.3303223,1.9328003-2.3096924
				c0.3071289,0.5141602,0.6437988,0.9766846,1.0183716,1.3731689c0.8154297,0.8642578,1.7197266,1.4882813,2.7119141,1.8720703
				c0.9912109,0.3837891,1.9990234,0.5761719,3.0234375,0.5761719c0.8642578,0,1.6240234-0.1279297,2.2802734-0.3837891
				c0.6552734-0.2558594,1.2314453-0.5917969,1.7285156-1.0078125c0.4951172-0.4160156,0.9189453-0.8886719,1.2714844-1.4160156
				c0.3515625-0.5283203,0.6552734-1.0644531,0.9121094-1.6083984c0.3515625,1.3759766,0.9677734,2.4560547,1.8476563,3.2402344
				s2.1679688,1.1757813,3.8642578,1.1757813c0.6396484,0,1.3759766-0.0957031,2.2080078-0.2880859
				s1.6474609-0.5996094,2.4482422-1.2236328c0.6344604-0.4956055,1.2174683-1.1699829,1.7524414-2.0091553
				c0.2230835,0.5460815,0.4806519,1.0604858,0.8139648,1.505249c1.0087891,1.34375,2.6474609,2.015625,4.9208984,2.015625
				c0.4794922,0,1.0078125-0.0478516,1.5839844-0.1445313c0.5751953-0.0957031,1.1513672-0.3037109,1.7275391-0.6240234
				c0.5761719-0.3193359,1.1357422-0.7753906,1.6796875-1.3671875s1.0087891-1.3994141,1.3925781-2.4248047
				c0.3193359,1.4404297,0.9189453,2.5605469,1.7998047,3.3603516c0.8798828,0.8007813,2.1835938,1.2001953,3.9121094,1.2001953
				c0.671875,0,1.4228516-0.0957031,2.2558594-0.2880859c0.8320313-0.1923828,1.6474609-0.5996094,2.4482422-1.2236328
				c0.3516846-0.2747192,0.6855469-0.6113892,1.0068359-0.9915771v14.21521l6.9121094-1.7275391V35.0345306
				c0.3515625,0.4482422,0.8798828,0.8398438,1.5839844,1.1757813c0.703125,0.3359375,1.6630859,0.5039063,2.8798828,0.5039063
				c1.6962891,0,3.1123047-0.3759766,4.2480469-1.1279297s2.0400391-1.7353516,2.7119141-2.9521484
				c0.671875-1.2158184,1.1435547-2.591795,1.4160156-4.1279278c0.2714844-1.5361328,0.4082031-3.0722656,0.4082031-4.6079102
				C137.3612671,21.7547474,137.1366577,19.9305286,136.6893921,18.4261341z M30.684021,20.748888
				c0.2080078-1.1782227,0.4799805-2.2050781,0.8164063-3.0810547c0.3359375-0.875,0.7270508-1.5756836,1.1757813-2.1015625
				c0.4477539-0.5249023,0.9433594-0.7880859,1.487793-0.7880859c0.4477539,0,0.8642578,0.230957,1.2480469,0.6928711
				c0.3842773,0.4619141,0.5761719,1.2495117,0.5761719,2.3642578c0,0.8916016-0.144043,1.7197266-0.4321289,2.4838867
				s-0.6884766,1.440918-1.199707,2.0292969c-0.512207,0.5898438-1.1206055,1.0673828-1.8242188,1.4335938
				c-0.7041016,0.3657227-1.456543,0.5810547-2.2558594,0.644043C30.3397827,23.1526966,30.4755249,21.9271107,30.684021,20.748888z
				 M55.3314819,27.8343372c0,0.7041016-0.0961914,1.3198242-0.2880859,1.8476563
				c-0.1918945,0.5283203-0.4404297,0.96875-0.7441406,1.3203125c-0.3041992,0.3525391-0.640625,0.6162109-1.0078125,0.7919922
				c-0.3681641,0.1757813-0.7285156,0.26367-1.0800781,0.26367c-0.2880859,0-0.640625-0.0400391-1.0561523-0.1201153
				c-0.4160156-0.0791016-0.8081055-0.3359375-1.1757813-0.7675781c-0.3681641-0.4326172-0.6801758-1.1201172-0.9360352-2.0639648
				c-0.2563477-0.9438477-0.3837891-2.2636719-0.3837891-3.9599609c0-1.0561523,0.0791016-2.1674805,0.2397461-3.3364258
				c0.159668-1.1674805,0.4082031-2.2392578,0.7441406-3.2158203c0.3359375-0.9755859,0.7836914-1.7915039,1.34375-2.4477539
				c0.5595703-0.6557617,1.2241211-0.984375,1.9921875-0.984375c0.3837891,0,0.7197266,0.0722656,1.0078125,0.2163086
				s0.5283203,0.3203125,0.7202148,0.527832c0.1918945,0.2084961,0.3359375,0.4165039,0.4321289,0.6240234
				c0.0957031,0.2084961,0.159668,0.3764648,0.1918945,0.5039063V27.8343372z M80.5790405,27.8343372
				c0,0.7041016-0.0957031,1.3198242-0.2880859,1.8476563c-0.1923828,0.5283203-0.4404297,0.96875-0.7441406,1.3203125
				c-0.3046875,0.3525391-0.640625,0.6162109-1.0078125,0.7919922c-0.3681641,0.1757813-0.7285156,0.26367-1.0800781,0.26367
				c-0.2880859,0-0.640625-0.0400391-1.0556641-0.1201153c-0.4169922-0.0791016-0.8085938-0.3359375-1.1767578-0.7675781
				c-0.3681641-0.4326172-0.6796875-1.1201172-0.9355469-2.0639648c-0.2568359-0.9438477-0.3837891-2.2636719-0.3837891-3.9599609
				c0-1.0561523,0.0791016-2.1674805,0.2402344-3.3364258c0.1591797-1.1674805,0.4072266-2.2392578,0.7431641-3.2158203
				c0.3359375-0.9755859,0.7841797-1.7915039,1.3447266-2.4477539c0.5595703-0.6557617,1.2236328-0.984375,1.9912109-0.984375
				c0.3847656,0,0.7207031,0.0722656,1.0087891,0.2163086s0.5273438,0.3203125,0.7197266,0.527832
				c0.1923828,0.2084961,0.3359375,0.4165039,0.4316406,0.6240234c0.0966797,0.2084961,0.1601563,0.3764648,0.1923828,0.5039063
				V27.8343372z M130.4735718,26.5140247c-0.1445313,1.1040039-0.3847656,2.1044922-0.7207031,3
				c-0.3359375,0.8964844-0.7919922,1.625-1.3671875,2.1845703c-0.5761719,0.5595684-1.2802734,0.8398418-2.1123047,0.8398418
				c-0.5761719,0-1.0400391-0.1201172-1.3925781-0.3603516c-0.3515625-0.2402325-0.6074219-0.4873028-0.7675781-0.7441387V18.042345
				c0.2558594-0.7998047,0.6552734-1.3999023,1.2001953-1.800293c0.5439453-0.3999023,1.1035156-0.6000977,1.6796875-0.6000977
				c0.2236328,0,0.5361328,0.0644531,0.9365234,0.1923828c0.3994141,0.1279297,0.8076172,0.4399414,1.2236328,0.9360352
				c0.4150391,0.4960938,0.7753906,1.2558594,1.0800781,2.2797852c0.3037109,1.0244141,0.4560547,2.4165039,0.4560547,4.1757813
				C130.6893921,24.3143177,130.6171265,25.4100208,130.4735718,26.5140247z"/>
		</g>
	</g>
</g>
</svg>
