<?xml version="1.0" encoding="utf-8"?>
<!-- Generator: Adobe Illustrator 19.0.0, SVG Export Plug-In . SVG Version: 6.00 Build 0)  -->
<svg version="1.1" xmlns="http://www.w3.org/2000/svg" xmlns:xlink="http://www.w3.org/1999/xlink" x="0px" y="0px"
	 viewBox="0 0 142.87323 51.1978149" enable-background="new 0 0 142.87323 51.1978149" xml:space="preserve">
<g id="Layer_1" display="none">
	<rect id="XMLID_2_" x="0.1458333" y="-7.46875" display="inline" fill="#2196F3" width="142.875" height="62.875"/>
</g>
<g id="outline-path">
	<path id="XMLID_127_" fill="#FF6E40" d="M129.9319611,10.4506836l0.5351563-2.5444336h-8.9531174l-0.0247803,0.1154175
		l-0.0321655-0.1206665l-3.7869873,2.005249h-6.2974854h-2.6271362h-2.8984375h-1.3865356h-7.5704956h-0.0479126
		l-3.8095703,1.9954224l2.5342407-11.9011841l-9.2080078,1.2441406l-0.1017456,0.4734497l0.0412598-0.4746094l-4.0898438,3.8511963
		l-0.960144,4.4666748c-0.0484619-0.0015869-0.1018677-0.0078735-0.1495361-0.008728
		c-7.2305908-1.5435181-12.6162109,3.9931641-14.0094604,5.6105957L70.2083969,0l-9.3125648,1.0748291l0,0V0.90625l0,0v0.3425903
		l-4.0424194,3.8453369l-0.9040527,4.4554443C49.6861153,7.40625,45.2753487,13.78125,45.2753487,13.78125
		c-0.8499146-2.1472168-2.6453857-3.1992798-4.3062134-3.7192993c-0.0587158-0.0238037-0.1055603-0.0516357-0.1659241-0.0741577
		c-0.809082-0.3007813-1.7754669-0.4467773-2.9610138-0.4467773c-1.4219971,0-2.732338,0.2172852-3.9239273,0.6273193
		c-3.0871563,0.9401245-5.3341236,2.7855225-6.8133106,4.2958374c0.0075684-0.1077271,0.0282497-0.2154541,0.0282497-0.3230591
		c0-1.1459961-0.3508663-2.1889648-1.0442257-3.1020508c-0.7460938-0.9799805-1.8763599-1.4980469-3.2674732-1.4980469
		c-1.1479492,0-2.3217258,0.3754883-3.4877415,1.1162109c-0.2382813,0.1513672-0.4799538,0.3164063-0.7260475,0.4951172
		L18.8904629,9.90625H9.9278765C9.9265337,9.9060669,9.9176836,9.9046631,9.9176836,9.9046631L9.9159136,9.90625h-0.000061v0.000061
		L5.6151328,13.71875L0,38.90625h14.68752l3.2395639-14.9250488c0.088501-0.3230591,0.6057739-0.7665405,0.859375-0.8093262
		c0.8540649-0.1442871,1.7557373,0.4556274,1.9803467,0.6176147C18.395834,28.15625,20.729166,47.2395821,39.4295235,37.5729179
		C42.6875,41.3645821,50.4690742,40.90625,53.6640816,38.5c2.6900864,2.2395821,8.3150864,2.8229179,12.158268,0
		c1.8234863,1.96875,8.7401505,2.9895821,13.0888062,0c2.5680084,2.3229179,8.2763443,2.3229179,12.0691528,0
		c1.7071915,1.59375,7.2905273,3.15625,12.1222534,0c2.334938,2.6145821,7.0432739,2.0729179,8.7307739,0.46875
		l-2.1593018,8.8355103l2.2654419,3.3935547l11.1092529-3.3079834l1.7699585-8.2335815
		C145.3333282,44.78125,150.1458282,0.84375,129.9319611,10.4506836z"/>
</g>
<g id="text-path">
	<g id="XMLID_12_">
		<g id="XMLID_55_">
			<path id="XMLID_24_" fill="#FFFFFF" d="M25.9178066,15.3891602c0.144043-0.4155273,0.2158203-0.831543,0.2158203-1.2480469
				c0-0.9277344-0.2802734-1.7592773-0.8398438-2.4960938c-0.5600586-0.7353516-1.3842773-1.1040039-2.472168-1.1040039
				c-0.9599609,0-1.9438477,0.3203125-2.9516602,0.9604492c-1.0083008,0.6401367-1.9765625,1.4707031-2.9042969,2.3662109
				l0.6723633-2.9614258h-6.9121103l-5.0878901,24h6.9116206l3.840333-18.3027344
				c0.6396484-0.5756836,1.2314453-1.0703125,1.7758789-1.4228516c0.5439453-0.3520508,1.1196289-0.5439453,1.7280273-0.5439453
				c0.3515625,0,0.5678711,0.152832,0.6479492,0.472168c0.0795898,0.3203125,0.1679688,0.6606445,0.2641602,1.0283203
				c0.0957031,0.3681641,0.2636719,0.7104492,0.5039063,1.0297852c0.2397461,0.3203125,0.6958008,0.4790039,1.3681641,0.4790039
				c0.5756836,0,1.0795898-0.1035156,1.5117188-0.3125c0.4321289-0.2075195,0.7919922-0.4802246,1.0800781-0.8161621
				S25.7737637,15.8056641,25.9178066,15.3891602z"/>
		</g>
		<g id="XMLID_13_">
			<path id="XMLID_27_" fill="#FFFFFF" d="M139.4827423,14.5253906c-0.3046875-0.9599609-0.7197266-1.7358398-1.2480469-2.328125
				c-0.5283203-0.5917969-1.1523438-1.015625-1.8720703-1.2719727c-0.7197266-0.2558594-1.4804688-0.3842773-2.2802734-0.3842773
				c-1.2158203,0-2.2792969,0.1923828-3.1914063,0.5761719c-0.9121094,0.3842773-1.7207031,0.8308105-2.4238281,1.4387207
				l0.7675781-3.6496582h-6.9121017l-3.6463013,17h-0.0011597c-0.3525391,2-0.8564453,2.3662109-1.5117188,3.1650391
				c-0.65625,0.8007813-1.4482422,1.2709961-2.3759766,1.2709961c-0.671875,0-1.1689453-0.0925293-1.4882813-0.3483887
				c-0.3203125-0.2558594-0.4794922-0.7030029-0.4794922-1.3748779c0-0.4794922,0.0634766-0.9198608,0.1914063-1.4638062
				l3.4560547-16.2489624h-6.9121094l-3.2636719,15.3457031c-0.3525391,1.2167969-0.8476563,2.1933594-1.4882813,2.9921875
				c-0.6396484,0.8007813-1.4238281,1.1845703-2.3515625,1.1845703c-0.5449219,0-0.9199219-0.2001953-1.1279297-0.5830078
				c-0.2089844-0.3847656-0.3125-0.8515625-0.3125-1.3964844c0-0.4160156,0.0488281-0.8037109,0.1445313-1.2832031
				l3.4560547-16.2597656h-6.9121094l-3.2636719,15.3457031c-0.0004883,0.0023804-0.0007935-0.0267944-0.0012817-0.0244751
				c-0.352478,1.213562-0.8564453,2.2037354-1.510437,3.0010376c-0.65625,0.8007813-1.4482422,1.1923828-2.3759766,1.1923828
				c-0.671875,0-1.1679688-0.1318359-1.4873047-0.3876953c-0.3203125-0.2558594-0.4804688-0.7226563-0.4804688-1.3945313
				c0-0.4794922,0.0634766-0.9921875,0.1923828-1.5361328l5.5195313-25.9208984l-7.1035156,0.9597168l-2.3525391,10.9442139
				c-0.0644531-0.5761719-0.2324219-1.0322876-0.5039063-1.3682251c-0.2724609-0.3359375-0.5996094-0.5918274-0.984375-0.7680969
				c-0.3837891-0.175293-0.7919922-0.2881012-1.2236328-0.3359528s-0.8398438-0.0722733-1.2236328-0.0722733
				c-1.4091797,0-2.6806641,0.2641563-3.8164063,0.7919884c-1.1357422,0.5283203-2.1679688,1.23242-3.0957031,2.1123028
				c-0.9287109,0.8803711-1.7285156,1.8959951-2.4003906,3.0478497s-1.2324219,2.3520508-1.6796875,3.6000977
				c-0.4482422,1.2480469-0.7841797,2.4960938-1.0078125,3.7441406c-0.2246094,1.2485352-0.3359375,2.4165039-0.3359375,3.5043945
				c0,0.1536865,0.0100708,0.2941284,0.0140381,0.4425049c-0.2602539,0.5322876-0.5596924,1.0106812-0.9022217,1.4285889
				c-0.65625,0.8007813-1.4482422,1.2001953-2.3759766,1.2001953c-0.671875,0-1.168457-0.1279297-1.4877968-0.3837891
				c-0.3203125-0.2558594-0.4799805-0.7207031-0.4799805-1.3925781c0-0.4794922,0.0639648-0.9912109,0.1918945-1.5351563
				l5.5195351-25.9204102l-7.1035194,0.9599609l-2.3520508,10.9443359
				c-0.0644531-0.5761719-0.2324219-1.0322266-0.5039063-1.3681641c-0.2719727-0.3359375-0.6000977-0.5917969-0.9838867-0.7680664
				c-0.3842773-0.175293-0.7919922-0.2880859-1.2241211-0.3359375s-0.8398438-0.0722656-1.2241211-0.0722656
				c-1.4082031,0-2.6801758,0.2641602-3.815918,0.7919922c-1.1362305,0.5283203-2.1679688,1.2324219-3.0957031,2.1123047
				c-0.9287109,0.8803711-1.7280273,1.8959961-2.4003906,3.0478516c-0.671875,1.1518555-1.2319336,2.3520508-1.6796875,3.6000977
				c-0.4487305,1.2480469-0.784668,2.4960938-1.0083008,3.7441406c-0.1939697,1.0806885-0.2872925,2.0892334-0.3133545,3.0495605
				c-0.3912964,0.4143066-0.7825928,0.8181763-1.1734619,1.1989746c-0.6083984,0.5917969-1.2480469,1.1035156-1.9204102,1.5351563
				c-0.671875,0.4316406-1.3916016,0.7763672-2.159668,1.0322266c-0.7680664,0.2568359-1.6323242,0.3837891-2.5922852,0.3837891
				c-1.1518555,0-2.015625-0.2636719-2.5917969-0.7919922s-0.8637695-1.6083984-0.8637695-3.2392578
				c0-0.2890625,0.0073242-0.5917969,0.0239258-0.9121094c0.015625-0.3203125,0.0395508-0.65625,0.0712891-1.0078125
				c1.4335938-0.0966797,2.8115234-0.4086914,4.1337891-0.9365234c1.3222656-0.5283203,2.4931641-1.2314453,3.5131836-2.1123047
				c1.019043-0.8793945,1.831543-1.9116211,2.4375-3.0957031c0.6049805-1.1835938,0.9082031-2.4482422,0.9082031-3.7919922
				c0-0.6074219-0.0722656-1.1835938-0.2163086-1.7280273c-0.144043-0.5439453-0.4160156-1.0322266-0.815918-1.4643555
				c-0.4003906-0.4316406-0.9443359-0.7753906-1.6318359-1.0317383c-0.6884766-0.2558594-1.5600586-0.3842773-2.6162109-0.3842773
				c-1.6318359,0-3.0883789,0.2880859-4.3676758,0.8642578c-1.2802734,0.5761719-2.4003887,1.34375-3.3603497,2.3041992
				c-0.9599609,0.9599609-1.7758789,2.0395508-2.4477539,3.2397461s-1.2084961,2.4238281-1.6079102,3.671875
				c-0.4008789,1.2480469-0.6962891,2.4648438-0.8881836,3.6479492c-0.1918945,1.184082-0.2880859,2.2407227-0.2880859,3.168457
				c0,2.7207031,0.684082,4.671875,2.0537109,5.8554688c1.3696289,1.1845703,3.1962891,1.7763672,5.48242,1.7763672
				c1.5996094,0,3.0556641-0.2568359,4.3681641-0.7685547c1.3115234-0.5117188,2.5117188-1.1835938,3.5996094-2.015625
				s2.0639648-1.7753906,2.9282227-2.8320313c0.0447388-0.0546875,0.0825806-0.1116943,0.12677-0.1665039
				c0.0880127,0.6193848,0.22052,1.1799927,0.4005737,1.6782227c0.3515625,0.9765625,0.831543,1.7695313,1.4399414,2.3769531
				c0.6074219,0.6074219,1.2875977,1.0478516,2.0400391,1.3193359c0.7514648,0.2714844,1.543457,0.4082031,2.3759766,0.4082031
				c0.8637695,0,1.6474609-0.1279297,2.3520508-0.3837891c0.703125-0.2558594,1.3510742-0.5917969,1.9438477-1.0078125
				c0.5917969-0.4160156,1.1279297-0.8964844,1.6079102-1.4404297s0.8955078-1.0869141,1.2480469-1.6318359
				c0.1918945,1.3759766,0.6958008,2.4160156,1.512207,3.1191406c0.815918,0.7050781,1.8793945,1.0566406,3.1918945,1.0566406
				c0.6396484,0,1.3754883-0.0800781,2.2080078-0.2402344c0.8315468-0.1601563,1.6875038-0.5351563,2.5678749-1.1279297
				c0.8798828-0.5917969,1.7436523-1.4560547,2.5922852-2.5917969c0.0293579-0.0393677,0.0566406-0.0883179,0.0858154-0.1286621
				c0.0281982,0.0892334,0.0502319,0.1865845,0.0811768,0.2722168c0.3515625,0.9765625,0.8320313,1.7695313,1.4404297,2.3769531
				c0.6074219,0.6074219,1.2871094,1.0478516,2.0400391,1.3193359c0.7509766,0.2714844,1.5429688,0.4082031,2.3759766,0.4082031
				c0.8642578,0,1.6474609-0.1279297,2.3515625-0.3837891s1.3515625-0.5917969,1.9443359-1.0078125
				c0.5917969-0.4160156,1.1279297-0.8964844,1.6083984-1.4404297c0.4794922-0.5439453,0.8955078-1.0869141,1.2470703-1.6318359
				c0.1923828,1.3759766,0.6962891,2.4160156,1.5126953,3.1191406c0.8154297,0.7050781,1.8789063,1.0566406,3.1914063,1.0566406
				c0.6396484,0,1.3759766-0.0800781,2.2080078-0.2402344s1.6875-0.5351563,2.5683594-1.1279297
				c0.8788452-0.5910645,1.7421265-1.4541626,2.5887451-2.5879517c0.1966553,1.24823,0.6483154,2.2124023,1.3702393,2.8760376
				c0.9912109,0.9121094,2.2080078,1.3681641,3.6484375,1.3681641c0.5107422,0,1.0556641-0.0556641,1.6318359-0.1679688
				s1.1679688-0.3271484,1.7753906-0.6474609c0.6083984-0.3203125,1.2246094-0.7763672,1.8486328-1.3691406
				c0.6240234-0.5917969,1.2392578-1.3828125,1.8476563-2.375c0.1601563,1.5039063,0.6484375,2.6396484,1.4638672,3.4082031
				c0.8164063,0.7675781,1.9121094,1.1513672,3.2880859,1.1513672c0.6396484,0,1.3759766-0.0966797,2.2080078-0.2880859
				c0.8320236-0.1914063,1.6875-0.5996094,2.5683594-1.2246094c0.5418091-0.383667,1.0765381-0.883667,1.6062012-1.4741821
				L114.3069687,46.78125l7.2480469-1.7275391l2.4960938-11.7119141c0.2548828,0.4472656,0.6953125,0.8476563,1.3193359,1.1992188
				s1.5439453,0.5283203,2.7607346,0.5283203c1.5351563,0,2.9033203-0.2724609,4.1035156-0.8154297
				c1.2001953-0.5449219,2.2324219-1.2558594,3.0957031-2.1367188c0.8642578-0.8798828,1.5917969-1.9033203,2.1845703-3.0722656
				c0.5917969-1.1679688,1.0712891-2.3828125,1.4394531-3.6474609c0.3681641-1.2641602,0.6240234-2.5200195,0.7685547-3.7680664
				c0.1435547-1.2480469,0.2158203-2.4160156,0.2158203-3.5039063
				C139.938797,16.6850586,139.7864532,15.4853516,139.4827423,14.5253906z M33.4534492,19.2954102
				c0.3999023-1.1459961,0.855957-2.1738281,1.3681641-3.0810547c0.5117188-0.9077148,1.0561523-1.6479492,1.6318359-2.2207031
				c0.5761719-0.5732422,1.1679688-0.8603516,1.7763672-0.8603516c0.4477539,0,0.7597656,0.175293,0.9360352,0.5258789
				c0.175293,0.3500977,0.2636719,0.8276367,0.2636719,1.4321289c0,0.9555664-0.1845703,1.887207-0.5517578,2.7949219
				c-0.3681641,0.9072266-0.8725586,1.7114258-1.512207,2.4116211c-0.6401367,0.7006836-1.3842773,1.2744141-2.2319336,1.7197266
				c-0.8481445,0.4458008-1.7363281,0.7006836-2.6640625,0.7636719
				C32.7254219,21.6035156,33.0530586,20.4414063,33.4534492,19.2954102z M56.8528633,26.1894531
				c-0.1606445,0.7041016-0.3837891,1.3203125-0.671875,1.8476563c-0.2880859,0.5283203-0.6240234,0.96875-1.0083008,1.3203125
				c-0.3837891,0.3525391-0.7758789,0.6162109-1.1757813,0.7919922c-0.4003906,0.1767578-0.7763672,0.2636719-1.1279297,0.2636719
				c-0.2246094,0-0.4726563-0.0244141-0.7441406-0.0712891c-0.2724609-0.0488281-0.527832-0.1923828-0.7680664-0.4326172
				c-0.2397461-0.2392578-0.4482422-0.6074219-0.6240234-1.1044922c-0.1762695-0.4951172-0.2636719-1.2070313-0.2636719-2.1347656
				c0-1.1210938,0.159668-2.4404297,0.4799805-3.9604492c0.3193359-1.5195313,0.7675781-2.9599609,1.34375-4.3203125
				c0.5761719-1.3598633,1.2792969-2.5117188,2.1118164-3.4560547c0.8320313-0.9433594,1.7597656-1.4160156,2.7841797-1.4160156
				c0.7680664,0,1.2875977,0.2402344,1.5600586,0.7202148c0.2714844,0.4799805,0.4082031,0.8637695,0.4082031,1.1518555
				L56.8528633,26.1894531z M82.0999374,26.1894531c-0.1601563,0.7041016-0.3837891,1.3203125-0.671875,1.8476563
				c-0.2880859,0.5283203-0.6240234,0.96875-1.0078125,1.3203125c-0.3837891,0.3525391-0.7763672,0.6162109-1.1757813,0.7919922
				c-0.4003906,0.1767578-0.7763672,0.2636719-1.1279297,0.2636719c-0.2246094,0-0.4726563-0.0244141-0.7441406-0.0712891
				c-0.2724609-0.0488281-0.5283203-0.1923828-0.7675781-0.4326172c-0.2402344-0.2392578-0.4492188-0.6074219-0.6240234-1.1044922
				c-0.1767578-0.4951172-0.2646484-1.2070313-0.2646484-2.1347656c0-1.1210938,0.1601563-2.4404297,0.4804688-3.9604492
				c0.3193359-1.5195313,0.7675781-2.9599609,1.34375-4.3203125c0.5761719-1.3598633,1.2792969-2.5117188,2.1123047-3.4560547
				c0.8310547-0.9433594,1.7587891-1.4160156,2.7841797-1.4160156c0.7675781,0,1.2871094,0.2402344,1.5595703,0.7202148
				c0.2714844,0.4799805,0.4082031,0.8637695,0.4082031,1.1518555L82.0999374,26.1894531z M133.0266876,21.8930664
				c-0.2246094,1.4882813-0.5996094,2.8964844-1.1279297,4.2241211c-0.5283203,1.328125-1.2236328,2.4570313-2.0878906,3.3847656
				s-1.9199142,1.390625-3.1679611,1.390625c-0.5449219,0-0.9599609-0.1191406-1.2480469-0.359375
				s-0.4804688-0.4873047-0.5761719-0.7441406l2.8320313-13.4399414c0.4482346-0.7680664,0.9755783-1.3515625,1.5839767-1.7519531
				c0.6074219-0.3999023,1.1835938-0.6000977,1.7275391-0.6000977c0.2236328,0,0.4726563,0.0322266,0.7441406,0.0961914
				c0.2714844,0.0644531,0.5283203,0.2324219,0.7685547,0.5039063c0.2402344,0.2724609,0.4472656,0.671875,0.6240234,1.2001953
				c0.1748047,0.527832,0.2636719,1.2563477,0.2636719,2.184082
				C133.3626251,19.1015625,133.2503204,20.4052734,133.0266876,21.8930664z"/>
		</g>
	</g>
</g>
</svg>
