<?xml version="1.0" encoding="utf-8"?>
<!-- Generator: Adobe Illustrator 19.0.0, SVG Export Plug-In . SVG Version: 6.00 Build 0)  -->
<svg version="1.1" xmlns="http://www.w3.org/2000/svg" xmlns:xlink="http://www.w3.org/1999/xlink" x="0px" y="0px"
	 viewBox="0 0 149.808136 51.8541679" enable-background="new 0 0 149.808136 51.8541679" xml:space="preserve">
<g id="outline-path">
	<g id="XMLID_1_">
		<path id="XMLID_33_" fill="#FF6E40" d="M0,16.744791h4.21875l0.0703125,2.9296875
			c1.421875-2.265625,3.4375-3.3984375,6.046875-3.3984375c0.84375,0,1.484375,0.109375,1.921875,0.328125v4.03125
			c-0.65625-0.109375-1.3671875-0.1640625-2.1328125-0.1640625c-2.84375,0-4.7734375,1.2109375-5.7890625,3.6328125v18.0000019H0"/>
		<path id="XMLID_30_" fill="#FF6E40" d="M26.3203125,42.5729179c-3.4375,0-6.234375-1.1289063-8.390625-3.3867188
			s-3.234375-5.2773438-3.234375-9.0585957v-0.796875c0-2.515625,0.4804688-4.7617188,1.4414063-6.7382813
			s2.3046875-3.5234375,4.03125-4.640625S23.765625,16.276041,25.78125,16.276041c3.296875,0,5.859375,1.0859375,7.6875,3.2578125
			s2.7421875,5.28125,2.7421875,9.328125v1.8046875H19.03125c0.0625,2.5000019,0.7929688,4.5195332,2.1914063,6.0585957
			s3.1757813,2.3085938,5.3320313,2.3085938c1.53125,0,2.828125-0.3125,3.890625-0.9375s1.9921875-1.453125,2.7890625-2.484375
			l2.6484375,2.0625C33.7578125,40.9401054,30.5703125,42.5729179,26.3203125,42.5729179z M25.78125,19.838541
			c-1.75,0-3.21875,0.6367188-4.40625,1.9101563s-1.921875,3.0585938-2.203125,5.3554688H31.875v-0.328125
			c-0.125-2.203125-0.71875-3.9101563-1.78125-5.1210938S27.59375,19.838541,25.78125,19.838541z"/>
		<path id="XMLID_27_" fill="#FF6E40" d="M40.171875,29.213541c0-3.890625,0.921875-7.0195313,2.765625-9.3867188
			s4.2578125-3.5507813,7.2421875-3.5507813c2.96875,0,5.3203125,1.015625,7.0546875,3.046875V6.104167h4.3364258v36h-3.9848633
			L57.375,39.3854179c-1.734375,2.125-4.1484375,3.1875-7.2421875,3.1875c-2.9375,0-5.3320313-1.203125-7.1835938-3.609375
			s-2.7773438-5.546875-2.7773438-9.4218769V29.213541z M44.5078125,29.7057285c0,2.8750019,0.59375,5.1250019,1.78125,6.7500019
			s2.828125,2.4375,4.921875,2.4375c2.75,0,4.7578125-1.234375,6.0234375-3.703125V23.541666
			c-1.296875-2.390625-3.2890625-3.5859375-5.9765625-3.5859375c-2.125,0-3.78125,0.8203125-4.96875,2.4609375
			S44.5078125,26.4869785,44.5078125,29.7057285z"/>
		<path id="XMLID_24_" fill="#FF6E40" d="M67.2426758,29.213541c0-3.890625,0.921875-7.0195313,2.765625-9.3867188
			S74.265625,16.276041,77.25,16.276041c2.96875,0,5.3203125,1.015625,7.0546875,3.046875V6.104167h4.3359375v36H84.65625
			l-0.2109375-2.71875c-1.734375,2.125-4.1484375,3.1875-7.2421875,3.1875c-2.9375,0-5.331543-1.203125-7.1831055-3.609375
			s-2.7773438-5.546875-2.7773438-9.4218769V29.213541z M71.5786133,29.7057285
			c0,2.8750019,0.5932617,5.1250019,1.7807617,6.7500019s2.828125,2.4375,4.921875,2.4375
			c2.75,0,4.7578125-1.234375,6.0234375-3.703125V23.541666c-1.296875-2.390625-3.2890625-3.5859375-5.9765625-3.5859375
			c-2.125,0-3.78125,0.8203125-4.96875,2.4609375S71.5786133,26.4869785,71.5786133,29.7057285z"/>
		<path id="XMLID_22_" fill="#FF6E40" d="M111.0234375,39.5963554c-1.6875,1.984375-4.1640625,2.9765625-7.4296875,2.9765625
			c-2.703125,0-4.7617188-0.7851563-6.1757813-2.3554688s-2.1289063-3.8945313-2.1445313-6.9726563V16.744791h4.3359375v16.3828144
			c0,3.84375,1.5625,5.765625,4.6875,5.765625c3.3125,0,5.515625-1.234375,6.609375-3.703125V16.744791h4.3359375v25.3593769h-4.125
			L111.0234375,39.5963554z"/>
		<path id="XMLID_19_" fill="#FF6E40" d="M143.25,29.7057285c0,3.8593769-0.8828125,6.9687519-2.6484375,9.3281269
			s-4.15625,3.5390625-7.171875,3.5390625c-3.078125,0-5.5-0.9765625-7.265625-2.9296875v12.2109375h-4.3359375V16.744791h3.9609375
			L126,19.557291c1.765625-2.1875,4.21875-3.28125,7.359375-3.28125c3.046875,0,5.4570313,1.1484375,7.2304688,3.4453125
			S143.25,25.213541,143.25,29.307291V29.7057285z M138.9140625,29.213541c0-2.859375-0.609375-5.1171875-1.828125-6.7734375
			s-2.890625-2.484375-5.015625-2.484375c-2.625,0-4.59375,1.1640625-5.90625,3.4921875v12.1171894
			c1.296875,2.3125,3.28125,3.46875,5.953125,3.46875c2.078125,0,3.7304688-0.8242188,4.9570313-2.4726563
			S138.9140625,32.4635429,138.9140625,29.213541z"/>
	</g>
	<g id="Layer_3">
		<polygon id="XMLID_35_" fill="#FF6E40" points="0,16.744791 3.5675635,10.6674023 18.7599659,17.791666 12.2578125,20.635416 
			8.7807989,18.8736973 10.8641319,39.0208321 4.3359375,42.1041679 		"/>
		<polygon id="XMLID_36_" fill="#FF6E40" points="28.155798,18.479166 25.155798,18.479166 25.5234375,22.5065098 
			30.5112667,22.1962757 35.5307999,21.479166 35.1518936,17.057291 30.343298,16.276041 		"/>
		<polygon id="XMLID_34_" fill="#FF6E40" points="18.530798,30.354166 19.7534542,38.8932304 27.780798,40.9791679 
			28.780798,37.9752617 		"/>
		<polygon id="XMLID_38_" fill="#FF6E40" points="32.5540276,40.9791679 38.2381516,37.7497559 31.875,39.1401825 		"/>
		<polygon id="XMLID_39_" fill="#FF6E40" points="43.7807999,29.6588535 45.6557999,38.8932304 53.5307999,39.8541679 		"/>
		<polygon id="XMLID_40_" fill="#FF6E40" points="61.5708008,42.1041679 68.1557999,38.8932304 61.0307999,37.9752617 		"/>
		<polygon id="XMLID_41_" fill="#FF6E40" points="70.6870499,30.354166 72.7339249,37.9752617 79.1557999,40.2916679 
			79.1557999,38.4791679 71.5786133,29.7057285 		"/>
		<polygon id="XMLID_37_" fill="#FF6E40" points="54.1557999,16.479166 58.1557999,16.479166 57.8432999,20.416666 
			54.1557999,18.8736973 		"/>
		<polygon id="XMLID_43_" fill="#FF6E40" points="47.1557999,13.791667 42.5119438,20.416666 45.5932999,18.041666 		"/>
		<polygon id="XMLID_83_" fill="#FF6E40" points="21.280798,15.2408857 16.5857563,21.7506313 19.468298,19.7408848 		"/>
		<polygon id="XMLID_84_" fill="#FF6E40" points="25.155798,26.760416 42.1994438,27.088541 41.5620499,31.5338535 
			37.5151749,30.7877598 35.0175133,32.6334648 32.1557999,33.4791679 29.155798,33.4791679 26.546423,31.729166 
			25.155798,27.104166 		"/>
		<polygon id="XMLID_85_" fill="#FF6E40" points="51.0932999,19.5787754 49.9995499,25.1549473 50.6401749,27.713541 
			51.2573624,30.1432285 53.1440811,32.4908867 54.8432999,33.4791679 58.1557999,33.4791679 58.8432999,22.5065098 
			54.1557999,18.8736973 		"/>
		<path id="XMLID_42_" fill="#FF6E40" d="M78.6557999,19.3912754l-1.3125,5.6699219l0.5983505,3.3554688l1.5266495,3.1875
			l0.875,1.1875019c0,0,4.0625,0.1875,4.375,0.375s1.875-3.0468769,1.875-3.0468769l-0.75-8.3691597L78.6557999,19.3912754z"/>
		<polygon id="XMLID_87_" fill="#FF6E40" points="82.999794,15.479167 80.2182999,16.885416 84.7296295,21.2756844 
			85.5307999,16.2057285 82.5307999,15.479167 		"/>
		<polygon id="XMLID_86_" fill="#FF6E40" points="84.3046875,6.104167 87.7807999,0.0416667 88.640625,5.7291665 
			86.5932999,7.8541665 		"/>
		<polygon id="XMLID_89_" fill="#FF6E40" points="60.7807999,0 57.234375,6.104167 61.384964,6.625 61.259964,0.3333333 		"/>
		<polygon id="XMLID_90_" fill="#FF6E40" points="88.3432999,37.9752617 95.2734375,39.0416679 88.640625,42.1041679 		"/>
		<polygon id="XMLID_88_" fill="#FF6E40" points="98.4057999,33.1745148 100.3315811,38.5416679 105.2578125,40.8229179 
			105.4370499,38.3229179 101.5620499,35.5104179 99.7807999,33.0104179 		"/>
		<polygon id="XMLID_92_" fill="#FF6E40" points="115.2421875,42.1041679 121.828125,39.0338554 114.8432999,38.8932304 		"/>
		<polygon id="XMLID_91_" fill="#FF6E40" points="122.1557999,38.4947929 119.1089249,39.3736992 118.8823624,38.5045586 
			121.2222061,37.394207 121.2182999,16.479166 121.845993,16.7379894 		"/>
		<polygon id="XMLID_93_" fill="#FF6E40" points="95.0459976,16.7066174 96.1557999,16.744791 95.8432999,34.0651054 
			94.7495499,33.8229179 		"/>
		<polygon id="XMLID_95_" fill="#FF6E40" points="132.7391357,48.8125 126.1640625,51.8541679 125.2391357,48.3125 		"/>
		<polygon id="XMLID_96_" fill="#FF6E40" points="131.5307922,48.3125 131.4436493,49.4117966 132.7391357,48.8125 		"/>
		<polygon id="XMLID_97_" fill="#FF6E40" points="132.1766357,37.7916679 132.259964,40.3541679 135.4057922,38.6458321 		"/>
		<polygon id="XMLID_94_" fill="#FF6E40" points="136.4057922,16.276041 140.947464,17.645834 142.8641357,22.4375 
			142.197464,24.645834 		"/>
		<polygon id="XMLID_98_" fill="#FF6E40" points="95.0459976,16.7066174 98.9057999,10.541667 99.3432999,17.541666 
			94.4057999,17.854166 		"/>
		<polygon id="XMLID_101_" fill="#FF6E40" points="125.4682999,10.541667 121.845993,16.7379894 125.8441391,17.4791031 		"/>
		<polygon id="XMLID_102_" fill="#FF6E40" points="132.0914001,18.8736973 132.1766357,31.0625 135.4057922,33.4791679 
			140.6557922,32.1458321 141.2391357,20.895834 		"/>
		<polygon id="XMLID_103_" fill="#FF6E40" points="114.572464,10.645833 110.90625,16.479166 105.6141357,16.479166 
			105.791214,31.1933594 107.072464,33.4791679 111.1557999,33.4791679 115.009964,19.7408848 		"/>
	</g>
</g>
<g id="text-path">
	<g id="XMLID_2_">
		<g id="XMLID_3_">
			<path id="XMLID_59_" fill="none" stroke="#FF6E40" stroke-width="3" stroke-miterlimit="10" d="M17.3159542,16.0377598
				c-0.65625-0.109374-1.3671865-0.1640615-2.1328115-0.1640615c-2.84375,0-4.7734375,1.2109365-5.7890625,3.6328115v18.0000019
				H5.0581427v-25.359375h4.21875l0.0703125,2.9296875c1.421875-2.265625,3.4375-3.3984375,6.046875-3.3984375
				c0.843749,0,1.484374,0.109375,1.921874,0.328125V16.0377598z"/>
			<path id="XMLID_57_" fill="#FFFFFF" d="M17.3159542,16.0377598c-0.65625-0.109374-1.3671865-0.1640615-2.1328115-0.1640615
				c-2.84375,0-4.7734375,1.2109365-5.7890625,3.6328115v18.0000019H5.0581427v-25.359375h4.21875l0.0703125,2.9296875
				c1.421875-2.265625,3.4375-3.3984375,6.046875-3.3984375c0.843749,0,1.484374,0.109375,1.921874,0.328125V16.0377598z"/>
		</g>
		<g id="XMLID_5_">
			<path id="XMLID_79_" fill="none" stroke="#FF6E40" stroke-width="3" stroke-miterlimit="10" d="M31.3784542,37.9752617
				c-3.4375,0-6.234375-1.1289063-8.390625-3.3867188s-3.234375-5.2773457-3.234375-9.0585957v-0.796875
				c0-2.515625,0.4804688-4.7617188,1.4414063-6.7382813s2.3046875-3.5234365,4.03125-4.640624
				s3.5976563-1.6757813,5.6132813-1.6757813c3.2968769,0,5.8593769,1.0859375,7.6875019,3.2578125
				s2.7421875,5.281249,2.7421875,9.328124v1.8046875H24.0893917c0.0625,2.5,0.7929688,4.5195313,2.1914063,6.0585957
				c1.3984375,1.5390625,3.1757813,2.3085938,5.3320313,2.3085938c1.5312519,0,2.8281269-0.3125,3.8906269-0.9375
				s1.9921875-1.453125,2.7890625-2.4843769l2.6484375,2.0625019
				C38.8159561,36.3424492,35.6284561,37.9752617,31.3784542,37.9752617z M30.8393917,15.2408857
				c-1.75,0-3.21875,0.6367188-4.40625,1.9101553s-1.921875,3.0585938-2.203125,5.3554688h12.7031269v-0.328125
				c-0.125-2.203125-0.71875-3.9101563-1.78125-5.1210938S32.6518936,15.2408857,30.8393917,15.2408857z"/>
			<path id="XMLID_76_" fill="#FFFFFF" d="M31.3784542,37.9752617c-3.4375,0-6.234375-1.1289063-8.390625-3.3867188
				s-3.234375-5.2773457-3.234375-9.0585957v-0.796875c0-2.515625,0.4804688-4.7617188,1.4414063-6.7382813
				s2.3046875-3.5234365,4.03125-4.640624s3.5976563-1.6757813,5.6132813-1.6757813
				c3.2968769,0,5.8593769,1.0859375,7.6875019,3.2578125s2.7421875,5.281249,2.7421875,9.328124v1.8046875H24.0893917
				c0.0625,2.5,0.7929688,4.5195313,2.1914063,6.0585957c1.3984375,1.5390625,3.1757813,2.3085938,5.3320313,2.3085938
				c1.5312519,0,2.8281269-0.3125,3.8906269-0.9375s1.9921875-1.453125,2.7890625-2.4843769l2.6484375,2.0625019
				C38.8159561,36.3424492,35.6284561,37.9752617,31.3784542,37.9752617z M30.8393917,15.2408857
				c-1.75,0-3.21875,0.6367188-4.40625,1.9101553s-1.921875,3.0585938-2.203125,5.3554688h12.7031269v-0.328125
				c-0.125-2.203125-0.71875-3.9101563-1.78125-5.1210938S32.6518936,15.2408857,30.8393917,15.2408857z"/>
		</g>
		<g id="XMLID_8_">
			<path id="XMLID_72_" fill="none" stroke="#FF6E40" stroke-width="3" stroke-miterlimit="10" d="M45.2300186,24.6158848
				c0-3.890625,0.921875-7.0195313,2.765625-9.3867178s4.2578125-3.5507813,7.2421875-3.5507813
				c2.96875,0,5.3203125,1.015625,7.0546875,3.046875v-13.21875h4.3364258v36h-3.9848633l-0.2109375-2.71875
				c-1.734375,2.125-4.1484375,3.1875-7.2421875,3.1875c-2.9375,0-5.3320313-1.203125-7.1835938-3.609375
				s-2.7773438-5.5468769-2.7773438-9.4218769V24.6158848z M49.5659561,25.1080723c0,2.875,0.59375,5.125,1.78125,6.75
				c1.1875,1.6250019,2.828125,2.4375019,4.921875,2.4375019c2.75,0,4.7578125-1.234375,6.0234375-3.7031269V18.9440098
				c-1.296875-2.390625-3.2890625-3.5859365-5.9765625-3.5859365c-2.125,0-3.78125,0.8203115-4.96875,2.4609365
				S49.5659561,21.8893223,49.5659561,25.1080723z"/>
			<path id="XMLID_69_" fill="#FFFFFF" d="M45.2300186,24.6158848c0-3.890625,0.921875-7.0195313,2.765625-9.3867178
				s4.2578125-3.5507813,7.2421875-3.5507813c2.96875,0,5.3203125,1.015625,7.0546875,3.046875v-13.21875h4.3364258v36h-3.9848633
				l-0.2109375-2.71875c-1.734375,2.125-4.1484375,3.1875-7.2421875,3.1875c-2.9375,0-5.3320313-1.203125-7.1835938-3.609375
				s-2.7773438-5.5468769-2.7773438-9.4218769V24.6158848z M49.5659561,25.1080723c0,2.875,0.59375,5.125,1.78125,6.75
				c1.1875,1.6250019,2.828125,2.4375019,4.921875,2.4375019c2.75,0,4.7578125-1.234375,6.0234375-3.7031269V18.9440098
				c-1.296875-2.390625-3.2890625-3.5859365-5.9765625-3.5859365c-2.125,0-3.78125,0.8203115-4.96875,2.4609365
				S49.5659561,21.8893223,49.5659561,25.1080723z"/>
		</g>
		<g id="XMLID_11_">
			<path id="XMLID_64_" fill="none" stroke="#FF6E40" stroke-width="3" stroke-miterlimit="10" d="M72.3008194,24.6158848
				c0-3.890625,0.921875-7.0195313,2.765625-9.3867178s4.2573242-3.5507813,7.2416992-3.5507813
				c2.96875,0,5.3203125,1.015625,7.0546875,3.046875v-13.21875h4.3359375v36h-3.984375l-0.2109375-2.71875
				c-1.734375,2.125-4.1484375,3.1875-7.2421875,3.1875c-2.9375,0-5.331543-1.203125-7.1831055-3.609375
				s-2.7773438-5.5468769-2.7773438-9.4218769V24.6158848z M76.6367569,25.1080723c0,2.875,0.5932617,5.125,1.7807617,6.75
				c1.1875,1.6250019,2.828125,2.4375019,4.921875,2.4375019c2.75,0,4.7578125-1.234375,6.0234375-3.7031269V18.9440098
				c-1.296875-2.390625-3.2890625-3.5859365-5.9765625-3.5859365c-2.125,0-3.78125,0.8203115-4.96875,2.4609365
				S76.6367569,21.8893223,76.6367569,25.1080723z"/>
			<path id="XMLID_61_" fill="#FFFFFF" d="M72.3008194,24.6158848c0-3.890625,0.921875-7.0195313,2.765625-9.3867178
				s4.2573242-3.5507813,7.2416992-3.5507813c2.96875,0,5.3203125,1.015625,7.0546875,3.046875v-13.21875h4.3359375v36h-3.984375
				l-0.2109375-2.71875c-1.734375,2.125-4.1484375,3.1875-7.2421875,3.1875c-2.9375,0-5.331543-1.203125-7.1831055-3.609375
				s-2.7773438-5.5468769-2.7773438-9.4218769V24.6158848z M76.6367569,25.1080723c0,2.875,0.5932617,5.125,1.7807617,6.75
				c1.1875,1.6250019,2.828125,2.4375019,4.921875,2.4375019c2.75,0,4.7578125-1.234375,6.0234375-3.7031269V18.9440098
				c-1.296875-2.390625-3.2890625-3.5859365-5.9765625-3.5859365c-2.125,0-3.78125,0.8203115-4.96875,2.4609365
				S76.6367569,21.8893223,76.6367569,25.1080723z"/>
		</g>
		<g id="XMLID_14_">
			<path id="XMLID_47_" fill="none" stroke="#FF6E40" stroke-width="3" stroke-miterlimit="10" d="M116.0815811,34.9986992
				c-1.6875,1.984375-4.1640625,2.9765625-7.4296875,2.9765625c-2.703125,0-4.7617188-0.7851563-6.1757813-2.3554688
				s-2.1289063-3.8945332-2.1445313-6.9726582v-16.5h4.3359375v16.3828125c0,3.8437519,1.5625,5.7656269,4.6875,5.7656269
				c3.3125,0,5.515625-1.234375,6.609375-3.7031269V12.1471357h4.3359375v25.359375h-4.125L116.0815811,34.9986992z"/>
			<path id="XMLID_45_" fill="#FFFFFF" d="M116.0815811,34.9986992c-1.6875,1.984375-4.1640625,2.9765625-7.4296875,2.9765625
				c-2.703125,0-4.7617188-0.7851563-6.1757813-2.3554688s-2.1289063-3.8945332-2.1445313-6.9726582v-16.5h4.3359375v16.3828125
				c0,3.8437519,1.5625,5.7656269,4.6875,5.7656269c3.3125,0,5.515625-1.234375,6.609375-3.7031269V12.1471357h4.3359375v25.359375
				h-4.125L116.0815811,34.9986992z"/>
		</g>
		<g id="XMLID_16_">
			<path id="XMLID_52_" fill="none" stroke="#FF6E40" stroke-width="3" stroke-miterlimit="10" d="M148.308136,25.1080723
				c0,3.859375-0.8828125,6.9687519-2.6484375,9.3281269s-4.15625,3.5390625-7.171875,3.5390625
				c-3.078125,0-5.5-0.9765625-7.265625-2.9296875v12.2109375h-4.3359299v-35.109375h3.9609299l0.2109375,2.8125
				c1.765625-2.1875,4.21875-3.28125,7.359375-3.28125c3.046875,0,5.4570313,1.1484375,7.2304688,3.4453125
				s2.6601563,5.4921865,2.6601563,9.5859365V25.1080723z M143.9721985,24.6158848
				c0-2.859375-0.609375-5.1171875-1.828125-6.7734375s-2.890625-2.484374-5.015625-2.484374
				c-2.625,0-4.59375,1.1640615-5.90625,3.4921865v12.1171875c1.296875,2.3125019,3.28125,3.4687519,5.953125,3.4687519
				c2.078125,0,3.7304688-0.8242188,4.9570313-2.4726582C143.3589172,30.3151035,143.9721985,27.8658848,143.9721985,24.6158848z"/>
			<path id="XMLID_49_" fill="#FFFFFF" d="M148.308136,25.1080723c0,3.859375-0.8828125,6.9687519-2.6484375,9.3281269
				s-4.15625,3.5390625-7.171875,3.5390625c-3.078125,0-5.5-0.9765625-7.265625-2.9296875v12.2109375h-4.3359299v-35.109375
				h3.9609299l0.2109375,2.8125c1.765625-2.1875,4.21875-3.28125,7.359375-3.28125
				c3.046875,0,5.4570313,1.1484375,7.2304688,3.4453125s2.6601563,5.4921865,2.6601563,9.5859365V25.1080723z
				 M143.9721985,24.6158848c0-2.859375-0.609375-5.1171875-1.828125-6.7734375s-2.890625-2.484374-5.015625-2.484374
				c-2.625,0-4.59375,1.1640615-5.90625,3.4921865v12.1171875c1.296875,2.3125019,3.28125,3.4687519,5.953125,3.4687519
				c2.078125,0,3.7304688-0.8242188,4.9570313-2.4726582C143.3589172,30.3151035,143.9721985,27.8658848,143.9721985,24.6158848z"/>
		</g>
	</g>
</g>
</svg>
