<?xml version="1.0" encoding="utf-8"?>
<!-- Generator: Adobe Illustrator 19.0.0, SVG Export Plug-In . SVG Version: 6.00 Build 0)  -->
<svg version="1.1" xmlns="http://www.w3.org/2000/svg" xmlns:xlink="http://www.w3.org/1999/xlink" x="0px" y="0px"
	 viewBox="0 0 139 56" enable-background="new 0 0 139 56" xml:space="preserve">
<g id="Layer_3" display="none">
	<rect id="XMLID_35_" x="-34.2" y="-4.5" display="inline" fill="#2196F3" width="200" height="64"/>
</g>
<g id="outline-path-holes" display="none">
	<g id="XMLID_2_" display="inline">
		<path id="XMLID_7_" fill="#FF6E40" d="M19,15.9c-0.5-0.5-1.2-0.7-2.2-0.7c-0.7,0-1.4,0.1-2,0.4c-0.6,0.3-1.2,0.6-1.8,1
			c-0.6,0.4-1.1,0.9-1.6,1.5c-0.5,0.5-1,1.1-1.5,1.7l0.9-4.2l-1.1-4l-4.1,4L0,41.5h5.2l5.6-2L9.3,22.3c0.7-0.6,1.5-1.2,2.4-1.8
			c0.8-0.5,1.7-0.8,2.4-0.8"/>
		<path id="XMLID_27_" fill="#FF6E40" d="M31.6,16.7c-1.6,0,4.8-6.4,4.8-6.4c-8.5,0.6-14,12-14.7,13.3c-0.7,1.3-1.3,2.7-1.7,4
			c-0.4,1.4-0.8,2.7-1,4c-0.2,1.3-0.3,2.4-0.3,3.4c0,1.5,0.2,2.8,0.7,3.8c0.4,1.1,1,1.9,1.7,2.6c0.7,0.7,1.5,1.1,2.5,1.5
			c0.9,0.3,1.9,0.5,2.9,0.5c1.4,0,2.7-0.3,4.1-0.8c1.3-0.5,2.6-1.2,3.8-2.1c1.2-0.9,2.3-1.9,3.2-3.1c0.1-0.1,0.2-0.3,0.3-0.4
			c0.1,0.7,0.2,1.3,0.4,1.8c0.4,1.1,0.9,1.9,1.5,2.6c0.6,0.7,1.3,1.2,2.1,1.5c0.8,0.3,1.6,0.4,2.4,0.4c1.7,0,3.2-0.5,4.6-1.5
			c1.4-1,2.5-2.2,3.3-3.6c0.1,1.8,0.6,3.1,1.3,3.9c0.7,0.8,1.7,1.2,2.8,1.2c0.6,0,1.2-0.1,1.9-0.3c0.7-0.2,1.5-0.6,2.2-1.3
			c0.8-0.7,1.6-1.6,2.4-2.9c0.1-0.2,0.2-0.4,0.4-0.6c0.1,0.2,0.1,0.4,0.2,0.5c0.4,1.1,0.9,1.9,1.5,2.6c0.6,0.7,1.3,1.2,2.1,1.5
			c0.8,0.3,1.6,0.4,2.4,0.4c1.7,0,3.2-0.5,4.6-1.5c1.4-1,2.5-2.2,3.3-3.6c0.1,1.8,0.6,3.1,1.3,3.9c0.7,0.8,1.7,1.2,2.8,1.2
			c0.6,0,1.2-0.1,1.9-0.3c0.7-0.2,1.5-0.6,2.2-1.3c0.8-0.7,1.6-1.6,2.4-2.9c0.1-0.2,0.3-0.4,0.4-0.7c0.1,0.4,0.1,0.7,0.3,1
			c0.3,0.9,0.7,1.6,1.2,2.2c0.5,0.6,1.1,1,1.8,1.4c0.7,0.3,1.4,0.5,2.2,0.5c1.2,0,2.4-0.4,3.6-1.2c1.2-0.8,2.3-2.1,3.4-3.8
			c0.1,1.8,0.6,3,1.4,3.8c0.8,0.8,1.7,1.2,2.8,1.2c0.6,0,1.2-0.1,1.9-0.3c0.7-0.2,1.5-0.6,2.2-1.3c0.5-0.4,1.1-1,1.6-1.7l-3.4,16
			l11-2.6l0.4-2.1l0.3-1.1l-3.4-9.2l0.3-2.8l4-17l0-0.6L120.8,9l-4.6,6.5l-4,18.6c-0.7,1.7-1.5,2.9-2.3,3.8c-0.8,1-0.3,0.3-1.1,0.3
			c-0.7,0-0.4,0.1-0.6-0.4c-0.2-0.5-1.3-0.3-1.3-0.9c0-0.9-1-1.3-0.9-2l3.1-23.9l-4.5,6.5L101,34c-0.4,1.8-1.1,3.1-2.2,4
			s-1.2,0-2.2,0c-0.7,0-0.6-0.4-1.1-0.9c-0.5-0.5-1.2,0-1.2-1c0-0.6-0.9-0.6-0.8-1.1L96.7,11l-4.5,6.5L88.6,34c0,0.1,0,0,0,0
			c-0.7,1.7-1.5,2.9-2.3,3.9c-0.8,1-0.8,0.1-1.6,0.1c-0.7,0-0.4,0-0.6-0.5c-0.2-0.5-1-0.2-1-0.8c0-0.9-0.8-1.4-0.6-2.1L87.5,1
			L83,7.3l-2.7,13l-2.5,11.8c-0.2,0.8-0.5,1.5-0.9,2.2c-0.4,0.7-0.9,1.3-1.4,1.8c-0.5,0.5-1.1,0.9-1.7,1.2c-0.6,0.3-1.2,0.4-1.7,0.4
			c-1,0-1.8-0.4-2.4-1.1c-0.6-0.7-0.9-2.1-0.9-4.1c0-1.3,0.2-2.8,0.6-4.5c0.4-1.7,1-3.3,1.7-4.8c0.8-1.5,1.7-2.8,2.8-3.8
			s2.4-1.6,3.8-1.6c0.8,0-0.1-1.8,0.2-1.4c-0.3-1.1,2.1-0.5,1.3-0.9c-0.9-0.4-1.7-0.6-2.6-0.6c-1.5,0,3.9-4.8,2.6-4.7
			c-8,0.5-13.9,13.7-14.4,15c-0.5,1.4-0.9,2.7-1.1,4.1c-0.3,1.4-0.4,2.6-0.4,3.8c0,0,0,0.1,0,0.1c-0.6,1.1-1.2,2.1-1.8,2.8
			c-0.9,1-1.7,1.5-2.5,1.5c-0.7,0-0.6-0.5-0.8-1c-0.2-0.5-0.8-0.7-0.8-1.3c0-0.9,0.1-1.6,0.3-2.3L62.3,1l-4.1,4.8L55.6,18l-3,14.1
			c-0.2,0.8-0.5,1.5-0.9,2.2s-0.9,1.3-1.4,1.8c-0.5,0.5-1.1,0.9-1.7,1.2c-0.6,0.3-1.2,0.4-1.7,0.4c-1,0-1.8-0.4-2.4-1.1
			c-0.6-0.7-0.9-2.1-0.9-4.1c0-1.3,0.2-2.8,0.6-4.5c0.4-1.7,1-3.3,1.7-4.8c0.8-1.5,1.7-2.8,2.8-3.8c1.1-1,1.1-1.5,2.6-1.5
			c-0.9-0.4,0.6-1.4-0.3-1.4c-1.5,0-2.8,0.3-4,0.9c-1.2,0.6,8.1-7.3,6.7-7C47,12.3,41.8,21.9,41,23.2c-0.8,1.2-1.4,2.5-1.9,3.9
			c-0.5,1.4-0.9,2.7-1.1,4.1c-0.2,1.2-0.3,2.4-0.4,3.4c-1.2,1.6-2.4,2.7-3.8,3.5c-1.6,0.9-2.9,0-4.6,0s-1.5,0-2.2-0.8
			c-0.7-0.8-2.3-1.3-2.3-3c0-0.3,0-0.5,0-0.8c0-0.3-1.9-3.8-1.9-4.1c0.2-1.4,2.8-3,3.2-4.3c0.5-1.3,1-2.5,1.7-3.6
			c0.6-1.1,1.4-2,2.2-2.6"/>
	</g>
	<path id="XMLID_1_" display="inline" fill="#FF6E40" d="M5.2,41.5"/>
	<g id="Layer_6" display="inline">
		<path id="XMLID_20_" fill="#FF6E40" d="M122.2,19.1c0.6-0.8,1.2-1.4,1.9-1.9c0.7-0.5,1.4-0.7,2.2-0.7c0.5,0,0.9,0.1,1.3,0.3
			c0.4,0.2,0.8,0.5,1.1,0.9s0.6,1,0.8,1.7c0.2,0.7,0.3,1.6,0.3,2.6c0,1.2-0.1,2.6-0.4,4.3c-0.3,1.6-0.7,3.2-1.4,4.7
			c-0.6,1.5-1.5,2.8-2.5,3.8c-0.5,0.5-1,0.8-1.6,1.1c-0.7,0.3-1.5,0.5-2.3,0.5c-0.4,0-0.9-0.1-1.4-0.4c-0.5-0.3-1-0.7-1.4-1.4
			l-0.9,4.1c0.5,0.8,1.1,1.4,1.7,1.8c0.7,0.5,0.1,0.7,1,0.7c0,0,12.8,6,17.2-13.6c0,0-6.5,8.4-5.9,7.2c0.6-1.2,1.2-2.5,1.5-3.8
			c0.4-1.3,0.7-2.7,0.8-4c0.2-1.3,0.3-2.5,0.3-3.6c0-1.6-0.2-2.9-0.5-4c-0.3-1.1-0.7-2-1.3-2.7c-0.6-0.7-1.2-1.2-2-1.5
			c-0.8-0.3-1.6-0.5-2.5-0.5c-1.1,0-2.2,0.2-3.2,0.6c-1,0.4-1.9,1.2-2.7,1.9L122.2,19.1z"/>
	</g>
	<g id="Layer_5" display="inline">
		<path id="XMLID_10_" fill="#FF6E40" d="M32,14.7c0.8-0.7,1.7-0.9,2.7-0.9c0.8,0,1.4,0.2,1.6,0.7c0.2,0.5,0.3,1,0.3,1.6
			c0,2.4-0.9,4.3-2.6,5.9c-1.7,1.6-4,2.6-6.9,3.1l-0.3,3.5c4-0.4,7-1.5,9.3-3.3c2.3-1.8,3.4-4.2,3.4-7.1c0-1.1-0.2-2-0.5-2.7
			c-0.3-0.7-0.7-1.2-1.3-1.6c-0.5-0.4-1.1-0.7-1.8-0.8c-0.7-0.2-1.4-0.2-2.1-0.2L32,14.7z"/>
	</g>
</g>
<g id="outline-path_copy" display="none">
	<g id="XMLID_54_" display="inline">
		<path id="XMLID_56_" fill="#FF6E40" d="M31.7,16.7c-1.6,0,4.8-6.4,4.8-6.4c-8.5,0.6-12.6,9.3-13.3,10.6c-0.7,1.3-2.8,5.3-3.2,6.7
			c-0.4,1.4-0.8,2.7-1,4c-0.2,1.3-0.3,2.4-0.3,3.4c0,1.5,0.2,2.8,0.7,3.8c0.4,1.1,1,1.9,1.7,2.6c0.7,0.7,1.5,1.1,2.5,1.5
			c0.9,0.3,1.9,0.5,2.9,0.5c1.4,0,2.7-0.3,4.1-0.8c1.3-0.5,2.6-1.2,3.8-2.1c1.2-0.9,2.3-1.9,3.2-3.1c0.1-0.1,0.2-0.3,0.3-0.4
			c0.1,0.7,0.2,1.3,0.4,1.8c0.4,1.1,0.9,1.9,1.5,2.6c0.6,0.7,1.3,1.2,2.1,1.5c0.8,0.3,1.6,0.4,2.4,0.4c1.7,0,3.2-0.5,4.6-1.5
			c1.4-1,2.5-2.2,3.3-3.6c0.1,1.8,0.6,3.1,1.3,3.9c0.7,0.8,1.7,1.2,2.8,1.2c0.6,0,1.2-0.1,1.9-0.3c0.7-0.2,1.5-0.6,2.2-1.3
			c0.8-0.7,1.6-1.6,2.4-2.9c0.1-0.2,0.2-0.4,0.4-0.6c0.1,0.2,0.1,0.4,0.2,0.5c0.4,1.1,0.9,1.9,1.5,2.6c0.6,0.7,1.3,1.2,2.1,1.5
			c0.8,0.3,1.6,0.4,2.4,0.4c1.7,0,3.2-0.5,4.6-1.5c1.4-1,2.5-2.2,3.3-3.6c0.1,1.8,0.6,3.1,1.3,3.9c0.7,0.8,1.7,1.2,2.8,1.2
			c0.6,0,1.2-0.1,1.9-0.3c0.7-0.2,1.5-0.6,2.2-1.3c0.8-0.7,1.6-1.6,2.4-2.9c0.1-0.2,0.3-0.4,0.4-0.7c0.1,0.4,0.1,0.7,0.3,1
			c0.3,0.9,0.7,1.6,1.2,2.2c0.5,0.6,1.1,1,1.8,1.4c0.7,0.3,1.4,0.5,2.2,0.5c1.2,0,2.4-0.4,3.6-1.2c1.2-0.8,2.3-2.1,3.4-3.8
			c0.1,1.8,0.6,3,1.4,3.8c0.8,0.8,1.7,1.2,2.8,1.2c0.6,0,1.2-0.1,1.9-0.3c0.7-0.2,1.5-0.6,2.2-1.3c0.5-0.4,1.1-1,1.6-1.7l-3.4,16
			l11-2.6l0.4-2.1l0.3-1.1l-3.4-9.2l0.3-2.8l4-17l0-0.6L120.7,9l-4.4,2l-4.7,19.7c-0.7,1.7-0.9,6.2-1.7,7.2c-0.8,1-0.3,0.3-1.1,0.3
			c-0.7,0-0.4,0.1-0.6-0.4c-0.2-0.5-1.3-0.3-1.3-0.9c0-0.9-1-1.3-0.9-2l3.1-23.9l-5.3,0l-4.4,20.4c-0.4,1.8,0.5,5.5-0.5,6.5
			s-1.2,0-2.2,0c-0.7,0-0.6-0.4-1.1-0.9c-0.5-0.5-1.2,0-1.2-1c0-0.6-0.9-0.6-0.8-1.1L96.8,11l-4.5,1L88,31.7c0,0.1,0.7,2.2,0.7,2.3
			c-0.7,1.7-1.5,2.9-2.3,3.9c-0.8,1-0.8,0.1-1.6,0.1c-0.7,0-0.4,0-0.6-0.5c-0.2-0.5-1-0.2-1-0.8c0-0.9-0.8-1.4-0.6-2.1L87.6,1
			l-4.5,6.3l-1.3,6l-6.8,2.4l-3.3,17.3c-0.2,0.8,5.6,0.6,5.2,1.3c-0.4,0.7-0.9,1.3-1.4,1.8c-0.5,0.5-1.1,0.9-1.7,1.2
			c-0.6,0.3-1.2,0.4-1.7,0.4c-1,0-1.8-0.4-2.4-1.1c-0.6-0.7-0.9-2.1-0.9-4.1c0-1.3,0.2-2.8,0.6-4.5c0.4-1.7,1-3.3,1.7-4.8
			c0.8-1.5,1.7-2.8,2.8-3.8s2.4-1.6,3.8-1.6c0.8,0-0.1-1.8,0.2-1.4c-0.3-1.1,2.1-0.5,1.3-0.9c-0.9-0.4-1.7-0.6-2.6-0.6
			c-1.5,0,5.8-4.9,4.5-4.9c0,0-11-0.5-14.8,6.7c-1.5,2.8-2,8.2-2.2,8.7c-0.5,1.4-0.6,2.6-0.9,4c-0.3,1.4,0.2,2.5,0.2,3.7
			c0,0,0,0.1,0,0.1c-0.6,1.1-1.2,2.1-1.8,2.8c-0.9,1-1.7,1.5-2.5,1.5c-0.7,0-0.6-0.5-0.8-1c-0.2-0.5-0.8-0.7-0.8-1.3
			c0-0.9,0.1-1.6,0.3-2.3L62.4,1l-4.1,4.8l-1.7,7.9c0,0-12,6.3-12.5,7s6.8,14.9,6.2,15.4c-0.5,0.5-1.1,0.9-1.7,1.2
			c-0.6,0.3-1.2,0.4-1.7,0.4c-1,0-1.8-0.4-2.4-1.1c-0.6-0.7-0.9-2.1-0.9-4.1c0-1.3,0.2-2.8,0.6-4.5c0.4-1.7,1-3.3,1.7-4.8
			c0.8-1.5,1.7-2.8,2.8-3.8c1.1-1,1.1-1.5,2.6-1.5c-0.9-0.4,0.6-1.4-0.3-1.4c-1.5,0-2.8,0.3-4,0.9c-1.2,0.6,8.1-7.3,6.7-7
			c-6.7,1.7-11.9,11.3-12.6,12.6c-0.8,1.2-2.6,1-3,2.3c-0.5,1.4-7.7,1.2-8,2.5c-0.2,1.2,0.6,5.7,0.6,6.8c-1.2,1.6,4.6,2.5,3.3,3.2
			c-1.6,0.9-2.9,0-4.6,0s-1.5,0-2.2-0.8c-0.7-0.8-2.3-1.3-2.3-3c0-0.3,0-0.5,0-0.8c0-0.3-1.7-3.8-1.6-4.1c0.2-1.4,2.6-3,3-4.3
			c0.5-1.3,1-2.5,1.7-3.6c0.6-1.1,1.4-2,2.2-2.6"/>
		<path id="XMLID_55_" fill="#FF6E40" d="M26.6,13.9c-4.2-8.2-8.8,1.3-9.8,1.3c-0.7,0-1.4,0.1-2,0.4c-0.6,0.3-1.2,0.6-1.8,1
			c-0.6,0.4-1.1,0.9-1.6,1.5c-0.5,0.5-1,1.1-1.5,1.7l0.9-4.2l-1.1-4l-4.1,4L0,41.5h5.2l5.6-2L9.3,22.3c0.7-0.6,1.5-1.2,2.4-1.8
			c0.5-0.3,1.9-0.3,2.3-0.6c2.5-2.1,2.7,3.1,5.4,3.3c3.8,0,3.6-3.4,5.2-3.2c5.7,0.5,11.9-9.6,11.8-9.7c0,0,0,0,0,0
			C29.9,10.2,26.6,13.9,26.6,13.9z"/>
	</g>
	<path id="XMLID_53_" display="inline" fill="#FF6E40" d="M5.2,41.5"/>
	<g id="Layer_6_copy_2" display="inline">
		<path id="XMLID_52_" fill="#FF6E40" d="M122.2,19.1c0.6-0.8,1.2-1.4,1.9-1.9c0.7-0.5,1.4-0.7,2.2-0.7c0.5,0-1.3,1.6-0.9,1.8
			c0.4,0.2-0.5,0.7-0.2,1.1s-0.5,0.9-0.3,1.6c0.2,0.7-0.4,0.9-0.4,1.9c0,1.2-0.4,1.7-0.6,3.4c-0.3,1.6-0.5,3-1.1,4.5
			c-0.6,1.5,0.7,0.6-0.3,1.6c-0.5,0.5,2.2,3.2,1.6,3.4c-0.7,0.3-1.5,0.5-2.3,0.5c-0.4,0-0.9-0.1-1.4-0.4c-0.5-0.3-1-0.7-1.4-1.4
			l-0.9,4.1c0.5,0.8,1.1,1.4,1.7,1.8c0.7,0.5,0.2,1.9,1.1,1.7c0,0,13.4,4,17.1-14.6c0,0-6.5,8.4-5.9,7.2c0.6-1.2,1.2-2.5,1.5-3.8
			c0.4-1.3,0.7-2.7,0.8-4c0.2-1.3,0.3-2.5,0.3-3.6c0-1.6-0.2-2.9-0.5-4c-0.3-1.1-0.7-2-1.3-2.7c-0.6-0.7-1.2-1.2-2-1.5
			c-0.8-0.3-1.6-0.5-2.5-0.5c-1.1,0-2.2,0.2-3.2,0.6c-1,0.4-1.9,1.2-2.7,1.9L122.2,19.1z"/>
	</g>
	<g id="Layer_5_copy_2" display="inline">
		<path id="XMLID_51_" fill="#FF6E40" d="M32,14.7c0.8-0.7-2.1,9.9-4.9,10.4l-0.3,3.5c4-0.4,7-1.5,9.3-3.3c2.3-1.8,3.4-4.2,3.4-7.1
			c0-1.1-0.2-2-0.5-2.7c-0.3-0.7-0.7-1.2-1.3-1.6c-0.5-0.4-1.1-0.7-1.8-0.8c-0.7-0.2-1.4-0.2-2.1-0.2L32,14.7z"/>
	</g>
</g>
<g id="outline-path">
	<g id="XMLID_12_">
		<path id="XMLID_13_" fill="#FF6E40" d="M31.7,16.7c-1.6,0,4.7-6.4,4.8-6.4c0,0,0,0,0,0c-8.5,0.6-12.6,9.3-13.3,10.6c0,0,0,0,0,0
			c-7.7,8.2-4.5,29,14.6,18.8c2.9,3,9,4.7,14.5,0.3c0,0,0,0,0,0c0,0,4.8,5.6,12.6,0.3c0,0,0,0,0,0c-0.1,0.2,5.4,5.4,12.6-0.3
			c0,0,0,0,0,0c0,0,5,5.3,11.1,0c0,0,0,0,0,0c1,1.1,7.1,5.4,12.5,0c0,0,0,0,0,0c0.5,1.6,5.5,4,9.8,0.5c0,0,0,0,0,0L107.6,56
			c0,0,0,0,0,0l11-2.6c0,0,0,0,0,0l0.4-2.1l0.3-1.1c0,0,0,0,0,0l-3.4-9.2c0,0,0,0,0,0l0.3-2.8c0,0,0,0,0,0l4-17l0-0.6L120.7,9
			c0,0,0,0,0,0l-4.4,2c0,0,0,0,0,0l-4.7,19.7c0,0,0,0,0,0c-0.7,1.7-0.9,6.2-1.7,7.2c-0.8,1-0.3,0.3-1.1,0.3c-0.7,0-0.4,0.1-0.6-0.4
			c-0.2-0.5-1.3-0.3-1.3-0.9c0-0.9-1-1.3-0.9-2l3.1-23.9c0,0,0,0,0,0l-5.3,0c0,0,0,0,0,0l-4.4,20.4c-0.4,1.8,0.5,5.5-0.5,6.5
			c-1,1-1.2,0-2.1,0c-0.4,0-0.8-0.3-1-0.7c-0.4-0.8-1.3-0.1-1.3-1.2c0-0.6-0.9-0.6-0.8-1.1L96.8,11c0,0,0,0,0,0l-4.5,1c0,0,0,0,0,0
			L88,31.7c0,0.1,0.7,2.2,0.7,2.3c0,0,0,0,0,0c-0.7,1.7-1.5,2.9-2.3,3.9c-0.8,1-0.8,0.1-1.6,0.1c-0.7,0-0.4,0-0.6-0.5
			c-0.2-0.5-1-0.2-1-0.8c0-0.9-0.8-1.4-0.6-2.1L87.6,1c0,0,0,0,0,0l-4.5,6.3c0,0,0,0,0,0l-1.3,6c0,0,0,0,0,0l-6.8,2.4c0,0,0,0,0,0
			l-3.2,17.3c-0.2,0.8,5.6,0.6,5.2,1.3c-0.4,0.7-0.9,1.3-1.4,1.8c-0.5,0.5-1.1,0.9-1.7,1.2c-0.6,0.3-1.2,0.4-1.7,0.4
			c-1,0-1.8-0.4-2.4-1.1c-0.6-0.7-0.9-2.1-0.9-4.1c0-1.3,0.2-2.8,0.6-4.5c0.4-1.7,1-3.3,1.7-4.8c0.8-1.5,1.7-2.8,2.8-3.8
			s2.4-1.6,3.8-1.6c0.8,0-0.1-1.8,0.2-1.4c-0.3-1.1,2.1-0.5,1.3-0.9c-0.9-0.4-1.7-0.6-2.6-0.6c-1.5,0,5.9-4.7,5.8-4.8
			C82.3,10,72.7,9.1,66.2,17c-2,2.4-2,8.2-2.2,8.7c-0.5,1.4-0.6,2.6-0.9,4c-0.3,1.4,0.2,2.5,0.2,3.7c0,0,0,0.1,0,0.1
			c-0.6,1.1-1.2,2.1-1.8,2.8c-0.9,1-1.7,1.5-2.5,1.5c-0.7,0-0.6-0.5-0.8-1c-0.2-0.5-0.8-0.7-0.8-1.3c0-0.9,0.1-1.6,0.3-2.3L62.4,1
			c0,0,0,0,0,0l-4.1,4.8c0,0,0,0,0,0l-1.7,7.9c0,0,0,0,0,0c0,0-12,6.3-12.5,7c-0.4,0.7,6.8,14.9,6.2,15.4c-0.5,0.5-1.1,0.9-1.7,1.2
			c-0.6,0.3-1.2,0.4-1.7,0.4c-1,0-1.8-0.4-2.4-1.1c-0.6-0.7-0.9-2.1-0.9-4.1c0-1.3,0.2-2.8,0.6-4.5c0.4-1.7,1-3.3,1.7-4.8
			c0.8-1.5,1.7-2.8,2.8-3.8c1.1-1,1.1-1.5,2.6-1.5c-0.9-0.4,0.6-1.4-0.3-1.4c-1.5,0-2.8,0.3-4,0.9c-1.2,0.6,8.1-7.3,6.7-7
			c-6.7,1.7-11.9,11.3-12.6,12.6c-0.8,1.2-2.6,1-3,2.3c-0.5,1.4-7.7,1.2-8,2.5c-0.2,1.2,0.6,5.7,0.6,6.8c-1.2,1.6,4.6,2.5,3.3,3.2
			c-1.6,0.9-2.9,0-4.6,0s-1.5,0-2.2-0.8c-0.7-0.8-2.3-1.3-2.3-3c0-0.3,0-0.5,0-0.8c0-0.3-1.7-3.8-1.6-4.1c0.2-1.4,2.6-3,3-4.3
			c0.5-1.3,1-2.5,1.7-3.6c0.6-1.1,1.4-2,2.2-2.6"/>
		<path id="XMLID_24_" fill="#FF6E40" d="M26.6,13.9c-4.2-8.2-8.8,1.3-9.8,1.3c-0.7,0-1.4,0.1-2,0.4c-0.6,0.3-1.2,0.6-1.8,1
			c-0.6,0.4-1.1,0.9-1.6,1.5c-0.5,0.5-1,1.1-1.5,1.7l0.9-4.2l-1.1-4l-4.1,4L0,41.5l10.6-0.1l0.4-1.9L9.3,22.3
			c0.7-0.6,1.5-1.2,2.4-1.8c0.5-0.3,1.9-0.3,2.3-0.6c2.5-2.1,2.7,3.1,5.4,3.3c3.8,0,3.6-3.4,5.2-3.2c5.7,0.5,11.9-9.6,11.8-9.7
			c0,0,0,0,0,0C29.9,10.2,26.6,13.9,26.6,13.9z"/>
	</g>
	<g id="Layer_6_copy">
		<path id="XMLID_9_" fill="#FF6E40" d="M122.2,19.1c0.6-0.8,1.2-1.4,1.9-1.9c0.7-0.5,1.4-0.7,2.2-0.7c0.5,0-1.3,1.6-0.9,1.8
			c0.4,0.2-0.5,0.7-0.2,1.1s-0.5,0.9-0.3,1.6c0.2,0.7-0.4,0.9-0.4,1.9c0,1.2-0.4,1.7-0.6,3.4c-0.3,1.6-0.5,3-1.1,4.5
			c-0.6,1.5,0.7,0.6-0.3,1.6c-0.5,0.5,2.2,3.2,1.6,3.4c-0.7,0.3-1.5,0.5-2.3,0.5c-0.4,0-0.9-0.1-1.4-0.4c-0.5-0.3-1-0.7-1.4-1.4
			l-0.9,4.1c0.5,0.8,1.1,1.4,1.7,1.8c0.7,0.5,0.2,1.9,1.1,1.7c0,0,13.4,4,17.1-14.6c0,0-6.5,8.4-5.9,7.2c0.6-1.2,1.2-2.5,1.5-3.8
			c0.4-1.3,0.7-2.7,0.8-4c0.2-1.3,0.3-2.5,0.3-3.6c0-1.6-0.2-2.9-0.5-4c-0.3-1.1-0.7-2-1.3-2.7c-0.6-0.7-1.2-1.2-2-1.5
			c-0.8-0.3-1.6-0.5-2.5-0.5c-1.1,0-2.2,0.2-3.2,0.6c-1,0.4-1.9,1.2-2.7,1.9L122.2,19.1z"/>
	</g>
	<g id="Layer_5_copy">
		<path id="XMLID_8_" fill="#FF6E40" d="M32,14.7c0.8-0.7-2.1,9.9-4.9,10.4l-0.3,3.5c4-0.4,7-1.5,9.3-3.3c2.3-1.8,3.4-4.2,3.4-7.1
			c0-1.1-0.2-2-0.5-2.7c-0.3-0.7-0.7-1.2-1.3-1.6c-0.5-0.4-1.1-0.7-1.8-0.8c-0.7-0.2-1.4-0.2-2.1-0.2L32,14.7z"/>
	</g>
</g>
<g id="text-path">
	<g id="XMLID_4_">
		<g id="XMLID_34_">
			<path id="XMLID_22_" fill="none" stroke="#FF6E40" stroke-width="2" stroke-miterlimit="10" d="M24.6,13.8c0-0.7-0.2-1.3-0.7-1.7
				c-0.5-0.5-1.2-0.7-2.2-0.7c-0.7,0-1.4,0.1-2,0.4c-0.6,0.3-1.2,0.6-1.8,1c-0.6,0.4-1.1,0.9-1.6,1.5c-0.5,0.5-1,1.6-1.5,2.1
				l0.9-3.8h-5.3l-5.5,26h5.2l4.1-19.7c0.7-0.6,1.5-1.4,2.4-2c0.8-0.5,1.7-0.9,2.4-0.9c0.4,0,0.7,0,0.9,0.1c0.2,0.1,0.4,0.3,0.5,0.4
				c0.2,0.2,0.3,0.3,0.5,0.4c0.2,0.1,0.4,0.2,0.7,0.2c0.2,0,0.5-0.1,0.9-0.2c0.3-0.1,0.7-0.3,1-0.5c0.3-0.3,0.6-0.6,0.8-1
				C24.5,15,24.6,14.4,24.6,13.8z"/>
			<path id="XMLID_21_" fill="#FFFFFF" d="M24.6,13.8c0-0.7-0.2-1.3-0.7-1.7c-0.5-0.5-1.2-0.7-2.2-0.7c-0.7,0-1.4,0.1-2,0.4
				c-0.6,0.3-1.2,0.6-1.8,1c-0.6,0.4-1.1,0.9-1.6,1.5c-0.5,0.5-1,1.6-1.5,2.1l0.9-3.8h-5.3l-5.5,26h5.2l4.1-19.7
				c0.7-0.6,1.5-1.4,2.4-2c0.8-0.5,1.7-0.9,2.4-0.9c0.4,0,0.7,0,0.9,0.1c0.2,0.1,0.4,0.3,0.5,0.4c0.2,0.2,0.3,0.3,0.5,0.4
				c0.2,0.1,0.4,0.2,0.7,0.2c0.2,0,0.5-0.1,0.9-0.2c0.3-0.1,0.7-0.3,1-0.5c0.3-0.3,0.6-0.6,0.8-1C24.5,15,24.6,14.4,24.6,13.8z"/>
		</g>
		<g id="XMLID_5_">
			<path id="XMLID_64_" fill="none" stroke="#FF6E40" stroke-width="2" stroke-miterlimit="10" d="M137.5,16c-0.3-1.1-0.7-2-1.3-2.7
				c-0.6-0.7-1.2-1.2-2-1.5c-0.8-0.3-1.6-0.5-2.5-0.5c-1.1,0-2.2,0.2-3.2,0.6c-1,0.4-1.9,1.2-2.7,1.9l0.9-3.8h-5.3l-4,18.6
				c-0.7,1.7-1.5,2.9-2.3,3.9c-0.8,1-1.7,1.5-2.5,1.5c-0.7,0-1.1-0.3-1.3-0.8c-0.2-0.5-0.3-1-0.3-1.6c0-0.9,0.1-1.4,0.3-2.1
				l3.8-17.5h-5.3l-3.5,16.5c-0.4,1.8-1.1,3.1-2.2,4.1c-1.1,1-2.1,1.4-3.1,1.4c-0.7,0-1.2-0.3-1.7-0.8C99,32.8,98.7,32,98.7,31
				c0-0.6,0.1-0.9,0.2-1.5l3.8-17.5h-5.3L94,28.5c0,0.1,0,0,0,0.1c-0.7,1.7-1.5,3-2.3,3.9c-0.8,1-1.7,1.5-2.5,1.5
				c-0.7,0-1.1-0.3-1.3-0.7c-0.2-0.5-0.3-1-0.3-1.6c0-0.9,0.1-1.7,0.3-2.3l6-28.1l-5.4,0.7l-2.6,12.2c-0.3-1.1-0.8-1.9-1.7-2.2
				c-0.9-0.4-1.7-0.6-2.6-0.6c-1.5,0-2.8,0.3-4,0.9c-1.2,0.6-2.3,1.3-3.3,2.3c-1,1-1.8,2.1-2.6,3.3s-1.4,2.5-1.9,3.9
				c-0.5,1.4-0.9,2.7-1.1,4.1c-0.3,1.4-0.4,2.6-0.4,3.8c0,0,0,0.1,0,0.1c-0.6,1.1-1.2,2.1-1.8,2.8c-0.9,1-1.7,1.5-2.5,1.5
				c-0.7,0-1.1-0.2-1.3-0.7c-0.2-0.5-0.3-1-0.3-1.6c0-0.9,0.1-1.6,0.3-2.3l6-28.1l-5.4,0.7l-2.6,12.2c-0.3-1.1-0.8-1.9-1.7-2.2
				c-0.9-0.4-1.7-0.6-2.6-0.6c-1.5,0-2.8,0.3-4,0.9c-1.2,0.6-2.3,1.3-3.3,2.3c-1,1-1.8,2.1-2.6,3.3c-0.8,1.2-1.4,2.5-1.9,3.9
				c-0.5,1.4-0.9,2.7-1.1,4.1c-0.2,1.2-0.3,2.4-0.4,3.4c-1.2,1.6-2.4,2.7-3.8,3.5c-1.6,0.9-3.3,1.3-4.9,1.3s-3-0.4-3.7-1.2
				c-0.7-0.8-1.2-2.1-1.2-3.9c0-0.3,0-0.5,0-0.8c0-0.3,0.2-0.5,0.3-0.8c4-0.4,7.3-1.5,9.6-3.4c2.3-1.8,3.5-4.2,3.5-7.1
				c0-1.1-0.1-2-0.4-2.7c-0.3-0.7-0.7-1.2-1.2-1.6c-0.5-0.4-1.1-0.7-1.8-0.8c-0.7-0.2-1.3-0.2-2.1-0.2c-1.6,0-3,0.3-4.3,0.9
				c-1.3,0.6-2.4,1.4-3.4,2.5c-1,1-1.8,2.2-2.5,3.5c-0.7,1.3-1.3,2.7-1.7,4c-0.4,1.4-0.8,2.7-1,4c-0.2,1.3-0.3,2.4-0.3,3.4
				c0,1.5,0.2,2.8,0.7,3.8c0.4,1.1,1,1.9,1.7,2.6c0.7,0.7,1.5,1.1,2.5,1.5c0.9,0.3,1.9,0.5,2.9,0.5c1.4,0,2.7-0.3,4.1-0.8
				c1.3-0.5,2.6-1.2,3.8-2.1c1.2-0.9,2.3-1.9,3.2-3.1c0.1-0.1,0.2-0.3,0.3-0.4c0.1,0.7,0.2,1.3,0.4,1.8c0.4,1.1,0.9,1.9,1.5,2.6
				c0.6,0.7,1.3,1.2,2.1,1.5c0.8,0.3,1.6,0.4,2.4,0.4c1.7,0,3.2-0.5,4.6-1.5c1.4-1,2.5-2.2,3.3-3.6c0.1,1.8,0.6,3.1,1.3,3.9
				c0.7,0.8,1.7,1.2,2.8,1.2c0.6,0,1.2-0.1,1.9-0.3c0.7-0.2,1.5-0.6,2.2-1.3c0.8-0.7,1.6-1.6,2.4-2.9c0.1-0.2,0.2-0.4,0.4-0.6
				c0.1,0.2,0.1,0.4,0.2,0.5c0.4,1.1,0.9,1.9,1.5,2.6c0.6,0.7,1.3,1.2,2.1,1.5c0.8,0.3,1.6,0.4,2.4,0.4c1.7,0,3.2-0.5,4.6-1.5
				c1.4-1,2.5-2.2,3.3-3.6c0.1,1.8,0.6,3.1,1.3,3.9c0.7,0.8,1.7,1.2,2.8,1.2c0.6,0,1.2-0.1,1.9-0.3c0.7-0.2,1.5-0.6,2.2-1.3
				c0.8-0.7,1.6-1.6,2.4-2.9c0.1-0.2,0.3-0.4,0.4-0.7c0.1,0.4,0.1,0.7,0.3,1c0.3,0.9,0.7,1.6,1.2,2.2s1.1,1,1.8,1.4
				c0.7,0.3,1.4,0.5,2.2,0.5c1.2,0,2.4-0.4,3.6-1.2c1.2-0.8,2.3-2.1,3.4-3.8c0.1,1.8,0.6,3,1.4,3.8c0.8,0.8,1.7,1.2,2.8,1.2
				c0.6,0,1.2-0.1,1.9-0.3c0.7-0.2,1.5-0.6,2.2-1.3c0.5-0.4,1.1-1,1.6-1.7l-3.4,16l5.5-1.3l3-13.9c0.5,0.8,1.1,1.4,1.7,1.8
				c0.7,0.5,1.5,0.7,2.4,0.7c1.6,0,3-0.3,4.3-0.9s2.3-1.3,3.3-2.3c0.9-1,1.7-2,2.4-3.3c0.6-1.2,1.2-2.5,1.5-3.8
				c0.4-1.3,0.7-2.7,0.8-4c0.2-1.3,0.3-2.5,0.3-3.6C138,18.4,137.8,17.1,137.5,16z M31.1,21.1c0.5-1.3,1-2.5,1.7-3.6
				c0.6-1.1,1.4-2,2.2-2.6c0.8-0.7,1.7-1,2.7-1c0.8,0,1.4,0.2,1.6,0.7c0.2,0.5,0.3,1,0.3,1.6c0,2.4-0.9,4.3-2.6,5.9
				c-1.7,1.6-4,2.6-6.9,3.1C30.2,23.8,30.6,22.5,31.1,21.1z M57.5,28.3c-0.2,0.8-0.5,1.5-0.9,2.2s-0.9,1.3-1.4,1.8
				c-0.5,0.5-1.1,0.9-1.7,1.2c-0.6,0.3-1.2,0.4-1.7,0.4c-1,0-1.8-0.4-2.4-1.1c-0.6-0.7-0.9-2.1-0.9-4.1c0-1.3,0.2-2.8,0.6-4.5
				c0.4-1.7,1-3.3,1.7-4.8c0.8-1.5,1.7-2.8,2.8-3.8c1.1-1,2.4-1.6,3.8-1.6c0.8,0,1.4,0.2,1.8,0.7c0.4,0.5,0.7,1,0.8,1.6L57.5,28.3z
				 M82.7,28.3c-0.2,0.8-0.5,1.5-0.9,2.2s-0.9,1.3-1.4,1.8c-0.5,0.5-1.1,0.9-1.7,1.2c-0.6,0.3-1.2,0.4-1.7,0.4c-1,0-1.8-0.4-2.4-1.1
				c-0.6-0.7-0.9-2.1-0.9-4.1c0-1.3,0.2-2.8,0.6-4.5c0.4-1.7,1-3.3,1.7-4.8c0.8-1.5,1.7-2.8,2.8-3.8c1.1-1,2.4-1.6,3.8-1.6
				c0.8,0,1.4,0.2,1.8,0.7c0.4,0.5,0.7,1,0.8,1.6L82.7,28.3z M132.4,24.4c-0.3,1.6-0.7,3.2-1.4,4.7s-1.5,2.8-2.5,3.8
				c-1,1.1-2.3,1.6-3.9,1.6c-0.4,0-0.9-0.1-1.4-0.4c-0.5-0.3-1-0.7-1.4-1.4l3.3-15.5c0.6-0.8,1.2-1.4,1.9-1.9
				c0.7-0.5,1.4-0.7,2.2-0.7c0.4,0,0.9,0.1,1.3,0.3c0.4,0.2,0.8,0.5,1.1,0.9c0.3,0.4,0.6,1,0.8,1.7c0.2,0.7,0.3,1.6,0.3,2.6
				C132.9,21.3,132.7,22.8,132.4,24.4z"/>
			<path id="XMLID_58_" fill="#FFFFFF" d="M137.5,16c-0.3-1.1-0.7-2-1.3-2.7c-0.6-0.7-1.2-1.2-2-1.5c-0.8-0.3-1.6-0.5-2.5-0.5
				c-1.1,0-2.2,0.2-3.2,0.6c-1,0.4-1.9,1.2-2.7,1.9l0.9-3.8h-5.3l-4,18.6c-0.7,1.7-1.5,2.9-2.3,3.9c-0.8,1-1.7,1.5-2.5,1.5
				c-0.7,0-1.1-0.3-1.3-0.8c-0.2-0.5-0.3-1-0.3-1.6c0-0.9,0.1-1.4,0.3-2.1l3.8-17.5h-5.3l-3.5,16.5c-0.4,1.8-1.1,3.1-2.2,4.1
				c-1.1,1-2.1,1.4-3.1,1.4c-0.7,0-1.2-0.3-1.7-0.8C99,32.8,98.7,32,98.7,31c0-0.6,0.1-0.9,0.2-1.5l3.8-17.5h-5.3L94,28.5
				c0,0.1,0,0,0,0.1c-0.7,1.7-1.5,3-2.3,3.9c-0.8,1-1.7,1.5-2.5,1.5c-0.7,0-1.1-0.3-1.3-0.7c-0.2-0.5-0.3-1-0.3-1.6
				c0-0.9,0.1-1.7,0.3-2.3l6-28.1l-5.4,0.7l-2.6,12.2c-0.3-1.1-0.8-1.9-1.7-2.2c-0.9-0.4-1.7-0.6-2.6-0.6c-1.5,0-2.8,0.3-4,0.9
				c-1.2,0.6-2.3,1.3-3.3,2.3c-1,1-1.8,2.1-2.6,3.3s-1.4,2.5-1.9,3.9c-0.5,1.4-0.9,2.7-1.1,4.1c-0.3,1.4-0.4,2.6-0.4,3.8
				c0,0,0,0.1,0,0.1c-0.6,1.1-1.2,2.1-1.8,2.8c-0.9,1-1.7,1.5-2.5,1.5c-0.7,0-1.1-0.2-1.3-0.7c-0.2-0.5-0.3-1-0.3-1.6
				c0-0.9,0.1-1.6,0.3-2.3l6-28.1l-5.4,0.7l-2.6,12.2c-0.3-1.1-0.8-1.9-1.7-2.2c-0.9-0.4-1.7-0.6-2.6-0.6c-1.5,0-2.8,0.3-4,0.9
				c-1.2,0.6-2.3,1.3-3.3,2.3c-1,1-1.8,2.1-2.6,3.3c-0.8,1.2-1.4,2.5-1.9,3.9c-0.5,1.4-0.9,2.7-1.1,4.1c-0.2,1.2-0.3,2.4-0.4,3.4
				c-1.2,1.6-2.4,2.7-3.8,3.5c-1.6,0.9-3.3,1.3-4.9,1.3s-3-0.4-3.7-1.2c-0.7-0.8-1.2-2.1-1.2-3.9c0-0.3,0-0.5,0-0.8
				c0-0.3,0.2-0.5,0.3-0.8c4-0.4,7.3-1.5,9.6-3.4c2.3-1.8,3.5-4.2,3.5-7.1c0-1.1-0.1-2-0.4-2.7c-0.3-0.7-0.7-1.2-1.2-1.6
				c-0.5-0.4-1.1-0.7-1.8-0.8c-0.7-0.2-1.3-0.2-2.1-0.2c-1.6,0-3,0.3-4.3,0.9c-1.3,0.6-2.4,1.4-3.4,2.5c-1,1-1.8,2.2-2.5,3.5
				c-0.7,1.3-1.3,2.7-1.7,4c-0.4,1.4-0.8,2.7-1,4c-0.2,1.3-0.3,2.4-0.3,3.4c0,1.5,0.2,2.8,0.7,3.8c0.4,1.1,1,1.9,1.7,2.6
				c0.7,0.7,1.5,1.1,2.5,1.5c0.9,0.3,1.9,0.5,2.9,0.5c1.4,0,2.7-0.3,4.1-0.8c1.3-0.5,2.6-1.2,3.8-2.1c1.2-0.9,2.3-1.9,3.2-3.1
				c0.1-0.1,0.2-0.3,0.3-0.4c0.1,0.7,0.2,1.3,0.4,1.8c0.4,1.1,0.9,1.9,1.5,2.6c0.6,0.7,1.3,1.2,2.1,1.5c0.8,0.3,1.6,0.4,2.4,0.4
				c1.7,0,3.2-0.5,4.6-1.5c1.4-1,2.5-2.2,3.3-3.6c0.1,1.8,0.6,3.1,1.3,3.9c0.7,0.8,1.7,1.2,2.8,1.2c0.6,0,1.2-0.1,1.9-0.3
				c0.7-0.2,1.5-0.6,2.2-1.3c0.8-0.7,1.6-1.6,2.4-2.9c0.1-0.2,0.2-0.4,0.4-0.6c0.1,0.2,0.1,0.4,0.2,0.5c0.4,1.1,0.9,1.9,1.5,2.6
				c0.6,0.7,1.3,1.2,2.1,1.5c0.8,0.3,1.6,0.4,2.4,0.4c1.7,0,3.2-0.5,4.6-1.5c1.4-1,2.5-2.2,3.3-3.6c0.1,1.8,0.6,3.1,1.3,3.9
				c0.7,0.8,1.7,1.2,2.8,1.2c0.6,0,1.2-0.1,1.9-0.3c0.7-0.2,1.5-0.6,2.2-1.3c0.8-0.7,1.6-1.6,2.4-2.9c0.1-0.2,0.3-0.4,0.4-0.7
				c0.1,0.4,0.1,0.7,0.3,1c0.3,0.9,0.7,1.6,1.2,2.2s1.1,1,1.8,1.4c0.7,0.3,1.4,0.5,2.2,0.5c1.2,0,2.4-0.4,3.6-1.2
				c1.2-0.8,2.3-2.1,3.4-3.8c0.1,1.8,0.6,3,1.4,3.8c0.8,0.8,1.7,1.2,2.8,1.2c0.6,0,1.2-0.1,1.9-0.3c0.7-0.2,1.5-0.6,2.2-1.3
				c0.5-0.4,1.1-1,1.6-1.7l-3.4,16l5.5-1.3l3-13.9c0.5,0.8,1.1,1.4,1.7,1.8c0.7,0.5,1.5,0.7,2.4,0.7c1.6,0,3-0.3,4.3-0.9
				s2.3-1.3,3.3-2.3c0.9-1,1.7-2,2.4-3.3c0.6-1.2,1.2-2.5,1.5-3.8c0.4-1.3,0.7-2.7,0.8-4c0.2-1.3,0.3-2.5,0.3-3.6
				C138,18.4,137.8,17.1,137.5,16z M31.1,21.1c0.5-1.3,1-2.5,1.7-3.6c0.6-1.1,1.4-2,2.2-2.6c0.8-0.7,1.7-1,2.7-1
				c0.8,0,1.4,0.2,1.6,0.7c0.2,0.5,0.3,1,0.3,1.6c0,2.4-0.9,4.3-2.6,5.9c-1.7,1.6-4,2.6-6.9,3.1C30.2,23.8,30.6,22.5,31.1,21.1z
				 M57.5,28.3c-0.2,0.8-0.5,1.5-0.9,2.2s-0.9,1.3-1.4,1.8c-0.5,0.5-1.1,0.9-1.7,1.2c-0.6,0.3-1.2,0.4-1.7,0.4c-1,0-1.8-0.4-2.4-1.1
				c-0.6-0.7-0.9-2.1-0.9-4.1c0-1.3,0.2-2.8,0.6-4.5c0.4-1.7,1-3.3,1.7-4.8c0.8-1.5,1.7-2.8,2.8-3.8c1.1-1,2.4-1.6,3.8-1.6
				c0.8,0,1.4,0.2,1.8,0.7c0.4,0.5,0.7,1,0.8,1.6L57.5,28.3z M82.7,28.3c-0.2,0.8-0.5,1.5-0.9,2.2s-0.9,1.3-1.4,1.8
				c-0.5,0.5-1.1,0.9-1.7,1.2c-0.6,0.3-1.2,0.4-1.7,0.4c-1,0-1.8-0.4-2.4-1.1c-0.6-0.7-0.9-2.1-0.9-4.1c0-1.3,0.2-2.8,0.6-4.5
				c0.4-1.7,1-3.3,1.7-4.8c0.8-1.5,1.7-2.8,2.8-3.8c1.1-1,2.4-1.6,3.8-1.6c0.8,0,1.4,0.2,1.8,0.7c0.4,0.5,0.7,1,0.8,1.6L82.7,28.3z
				 M132.4,24.4c-0.3,1.6-0.7,3.2-1.4,4.7s-1.5,2.8-2.5,3.8c-1,1.1-2.3,1.6-3.9,1.6c-0.4,0-0.9-0.1-1.4-0.4c-0.5-0.3-1-0.7-1.4-1.4
				l3.3-15.5c0.6-0.8,1.2-1.4,1.9-1.9c0.7-0.5,1.4-0.7,2.2-0.7c0.4,0,0.9,0.1,1.3,0.3c0.4,0.2,0.8,0.5,1.1,0.9
				c0.3,0.4,0.6,1,0.8,1.7c0.2,0.7,0.3,1.6,0.3,2.6C132.9,21.3,132.7,22.8,132.4,24.4z"/>
		</g>
	</g>
</g>
<g id="Layer_4_copy" display="none">
	<g id="XMLID_3_" display="inline">
		<g id="XMLID_41_">
			<path id="XMLID_18_" fill="none" stroke="#FF6E40" stroke-width="9" stroke-miterlimit="10" d="M24.6,13.8c0-0.7-0.2-1.3-0.7-1.7
				c-0.5-0.5-1.2-0.7-2.2-0.7c-0.7,0-1.4,0.1-2,0.4c-0.6,0.3-1.2,0.6-1.8,1c-0.6,0.4-1.1,0.9-1.6,1.5c-0.5,0.5-1,1.3-1.5,1.9l0.9-4
				h-5.3L4.9,38h5.2l4.1-19.4c0.7-0.6,1.5-1.3,2.4-1.9c0.8-0.5,1.7-0.9,2.4-0.9c0.4,0,0.7,0,0.9,0.2c0.2,0.1,0.4,0.3,0.5,0.4
				c0.2,0.2,0.3,0.3,0.5,0.4c0.2,0.1,0.4,0.2,0.7,0.2c0.2,0,0.5-0.1,0.9-0.2c0.3-0.1,0.7-0.3,1-0.5c0.3-0.3,0.6-0.6,0.8-1
				C24.5,15,24.6,14.4,24.6,13.8z"/>
			<path id="XMLID_17_" fill="#FFFFFF" d="M24.6,13.8c0-0.7-0.2-1.3-0.7-1.7c-0.5-0.5-1.2-0.7-2.2-0.7c-0.7,0-1.4,0.1-2,0.4
				c-0.6,0.3-1.2,0.6-1.8,1c-0.6,0.4-1.1,0.9-1.6,1.5c-0.5,0.5-1,1.6-1.5,2.1l0.9-3.8h-5.3l-5.5,26h5.2l4.1-19.7
				c0.7-0.6,1.5-1.4,2.4-2c0.8-0.5,1.7-0.9,2.4-0.9c0.4,0,0.7,0,0.9,0.1c0.2,0.1,0.4,0.3,0.5,0.4c0.2,0.2,0.3,0.3,0.5,0.4
				c0.2,0.1,0.4,0.2,0.7,0.2c0.2,0,0.5-0.1,0.9-0.2c0.3-0.1,0.7-0.3,1-0.5c0.3-0.3,0.6-0.6,0.8-1C24.5,15,24.6,14.4,24.6,13.8z"/>
		</g>
		<g id="XMLID_6_">
			<path id="XMLID_76_" fill="none" stroke="#FF6E40" stroke-width="9" stroke-miterlimit="10" d="M137.5,16c-0.3-1.1-0.7-2-1.3-2.7
				c-0.6-0.7-1.2-1.2-2-1.5c-0.8-0.3-1.6-0.5-2.5-0.5c-1.1,0-2.2,0.2-3.2,0.6c-1,0.4-1.9,1.2-2.7,1.9l0.9-3.8h-5.3l-4,18.6
				c-0.7,1.7-1.5,2.9-2.3,3.9c-0.8,1-1.7,1.5-2.5,1.5c-0.7,0-1.1-0.3-1.3-0.8c-0.2-0.5-0.3-1-0.3-1.6c0-0.9,0.1-1.4,0.3-2.1
				l3.8-17.5h-5.3l-3.5,16.5c-0.4,1.8-1.1,3.1-2.2,4.1c-1.1,1-2.1,1.4-3.1,1.4c-0.7,0-1.2-0.3-1.7-0.8C99,32.8,98.7,32,98.7,31
				c0-0.6,0.1-0.9,0.2-1.5l3.8-17.5h-5.3L94,28.5c0,0.1,0,0,0,0.1c-0.7,1.7-1.5,3-2.3,3.9c-0.8,1-1.7,1.5-2.5,1.5
				c-0.7,0-1.1-0.3-1.3-0.7c-0.2-0.5-0.3-1-0.3-1.6c0-0.9,0.1-1.7,0.3-2.3l6-28.1l-5.4,0.7l-2.6,12.2c-0.3-1.1-0.8-1.9-1.7-2.2
				c-0.9-0.4-1.7-0.6-2.6-0.6c-1.5,0-2.8,0.3-4,0.9c-1.2,0.6-2.3,1.3-3.3,2.3c-1,1-1.8,2.1-2.6,3.3s-1.4,2.5-1.9,3.9
				c-0.5,1.4-0.9,2.7-1.1,4.1c-0.3,1.4-0.4,2.6-0.4,3.8c0,0,0,0.1,0,0.1c-0.6,1.1-1.2,2.1-1.8,2.8c-0.9,1-1.7,1.5-2.5,1.5
				c-0.7,0-1.1-0.2-1.3-0.7c-0.2-0.5-0.3-1-0.3-1.6c0-0.9,0.1-1.6,0.3-2.3l6-28.1l-5.4,0.7l-2.6,12.2c-0.3-1.1-0.8-1.9-1.7-2.2
				c-0.9-0.4-1.7-0.6-2.6-0.6c-1.5,0-2.8,0.3-4,0.9c-1.2,0.6-2.3,1.3-3.3,2.3c-1,1-1.8,2.1-2.6,3.3c-0.8,1.2-1.4,2.5-1.9,3.9
				c-0.5,1.4-0.9,2.7-1.1,4.1c-0.2,1.2-0.3,2.4-0.4,3.4c-1.2,1.6-2.4,2.7-3.8,3.5c-1.6,0.9-3.3,1.3-4.9,1.3s-3-0.4-3.7-1.2
				c-0.7-0.8-1.2-2.1-1.2-3.9c0-0.3,0-0.5,0-0.8c0-0.3,0.2-0.5,0.3-0.8c4-0.4,7.3-1.5,9.6-3.4c2.3-1.8,3.5-4.2,3.5-7.1
				c0-1.1-0.1-2-0.4-2.7c-0.3-0.7-0.7-1.2-1.2-1.6c-0.5-0.4-1.1-0.7-1.8-0.8c-0.7-0.2-1.3-0.2-2.1-0.2c-1.6,0-3,0.3-4.3,0.9
				c-1.3,0.6-2.4,1.4-3.4,2.5c-1,1-1.8,2.2-2.5,3.5c-0.7,1.3-1.3,2.7-1.7,4c-0.4,1.4-0.8,2.7-1,4c-0.2,1.3-0.3,2.4-0.3,3.4
				c0,1.5,0.2,2.8,0.7,3.8c0.4,1.1,1,1.9,1.7,2.6c0.7,0.7,1.5,1.1,2.5,1.5c0.9,0.3,1.9,0.5,2.9,0.5c1.4,0,2.7-0.3,4.1-0.8
				c1.3-0.5,2.6-1.2,3.8-2.1c1.2-0.9,2.3-1.9,3.2-3.1c0.1-0.1,0.2-0.3,0.3-0.4c0.1,0.7,0.2,1.3,0.4,1.8c0.4,1.1,0.9,1.9,1.5,2.6
				c0.6,0.7,1.3,1.2,2.1,1.5c0.8,0.3,1.6,0.4,2.4,0.4c1.7,0,3.2-0.5,4.6-1.5c1.4-1,2.5-2.2,3.3-3.6c0.1,1.8,0.6,3.1,1.3,3.9
				c0.7,0.8,1.7,1.2,2.8,1.2c0.6,0,1.2-0.1,1.9-0.3c0.7-0.2,1.5-0.6,2.2-1.3c0.8-0.7,1.6-1.6,2.4-2.9c0.1-0.2,0.2-0.4,0.4-0.6
				c0.1,0.2,0.1,0.4,0.2,0.5c0.4,1.1,0.9,1.9,1.5,2.6c0.6,0.7,1.3,1.2,2.1,1.5c0.8,0.3,1.6,0.4,2.4,0.4c1.7,0,3.2-0.5,4.6-1.5
				c1.4-1,2.5-2.2,3.3-3.6c0.1,1.8,0.6,3.1,1.3,3.9c0.7,0.8,1.7,1.2,2.8,1.2c0.6,0,1.2-0.1,1.9-0.3c0.7-0.2,1.5-0.6,2.2-1.3
				c0.8-0.7,1.6-1.6,2.4-2.9c0.1-0.2,0.3-0.4,0.4-0.7c0.1,0.4,0.1,0.7,0.3,1c0.3,0.9,0.7,1.6,1.2,2.2s1.1,1,1.8,1.4
				c0.7,0.3,1.4,0.5,2.2,0.5c1.2,0,2.4-0.4,3.6-1.2c1.2-0.8,2.3-2.1,3.4-3.8c0.1,1.8,0.6,3,1.4,3.8c0.8,0.8,1.7,1.2,2.8,1.2
				c0.6,0,1.2-0.1,1.9-0.3c0.7-0.2,1.5-0.6,2.2-1.3c0.5-0.4,1.1-1,1.6-1.7l-3.4,16l5.5-1.3l3-13.9c0.5,0.8,1.1,1.4,1.7,1.8
				c0.7,0.5,1.5,0.7,2.4,0.7c1.6,0,3-0.3,4.3-0.9s2.3-1.3,3.3-2.3c0.9-1,1.7-2,2.4-3.3c0.6-1.2,1.2-2.5,1.5-3.8
				c0.4-1.3,0.7-2.7,0.8-4c0.2-1.3,0.3-2.5,0.3-3.6C138,18.4,137.8,17.1,137.5,16z M31.1,21.1c0.5-1.3,1-2.5,1.7-3.6
				c0.6-1.1,1.4-2,2.2-2.6c0.8-0.7,1.7-1,2.7-1c0.8,0,1.4,0.2,1.6,0.7c0.2,0.5,0.3,1,0.3,1.6c0,2.4-0.9,4.3-2.6,5.9
				c-1.7,1.6-4,2.6-6.9,3.1C30.2,23.8,30.6,22.5,31.1,21.1z M57.5,28.3c-0.2,0.8-0.5,1.5-0.9,2.2s-0.9,1.3-1.4,1.8
				c-0.5,0.5-1.1,0.9-1.7,1.2c-0.6,0.3-1.2,0.4-1.7,0.4c-1,0-1.8-0.4-2.4-1.1c-0.6-0.7-0.9-2.1-0.9-4.1c0-1.3,0.2-2.8,0.6-4.5
				c0.4-1.7,1-3.3,1.7-4.8c0.8-1.5,1.7-2.8,2.8-3.8c1.1-1,2.4-1.6,3.8-1.6c0.8,0,1.4,0.2,1.8,0.7c0.4,0.5,0.7,1,0.8,1.6L57.5,28.3z
				 M82.7,28.3c-0.2,0.8-0.5,1.5-0.9,2.2s-0.9,1.3-1.4,1.8c-0.5,0.5-1.1,0.9-1.7,1.2c-0.6,0.3-1.2,0.4-1.7,0.4c-1,0-1.8-0.4-2.4-1.1
				c-0.6-0.7-0.9-2.1-0.9-4.1c0-1.3,0.2-2.8,0.6-4.5c0.4-1.7,1-3.3,1.7-4.8c0.8-1.5,1.7-2.8,2.8-3.8c1.1-1,2.4-1.6,3.8-1.6
				c0.8,0,1.4,0.2,1.8,0.7c0.4,0.5,0.7,1,0.8,1.6L82.7,28.3z M132.4,24.4c-0.3,1.6-0.7,3.2-1.4,4.7s-1.5,2.8-2.5,3.8
				c-1,1.1-2.3,1.6-3.9,1.6c-0.4,0-0.9-0.1-1.4-0.4c-0.5-0.3-1-0.7-1.4-1.4l3.3-15.5c0.6-0.8,1.2-1.4,1.9-1.9
				c0.7-0.5,1.4-0.7,2.2-0.7c0.4,0,0.9,0.1,1.3,0.3c0.4,0.2,0.8,0.5,1.1,0.9c0.3,0.4,0.6,1,0.8,1.7c0.2,0.7,0.3,1.6,0.3,2.6
				C132.9,21.3,132.7,22.8,132.4,24.4z"/>
			<path id="XMLID_70_" fill="#FFFFFF" d="M137.5,16c-0.3-1.1-0.7-2-1.3-2.7c-0.6-0.7-1.2-1.2-2-1.5c-0.8-0.3-1.6-0.5-2.5-0.5
				c-1.1,0-2.2,0.2-3.2,0.6c-1,0.4-1.9,1.2-2.7,1.9l0.9-3.8h-5.3l-4,18.6c-0.7,1.7-1.5,2.9-2.3,3.9c-0.8,1-1.7,1.5-2.5,1.5
				c-0.7,0-1.1-0.3-1.3-0.8c-0.2-0.5-0.3-1-0.3-1.6c0-0.9,0.1-1.4,0.3-2.1l3.8-17.5h-5.3l-3.5,16.5c-0.4,1.8-1.1,3.1-2.2,4.1
				c-1.1,1-2.1,1.4-3.1,1.4c-0.7,0-1.2-0.3-1.7-0.8C99,32.8,98.7,32,98.7,31c0-0.6,0.1-0.9,0.2-1.5l3.8-17.5h-5.3L94,28.5
				c0,0.1,0,0,0,0.1c-0.7,1.7-1.5,3-2.3,3.9c-0.8,1-1.7,1.5-2.5,1.5c-0.7,0-1.1-0.3-1.3-0.7c-0.2-0.5-0.3-1-0.3-1.6
				c0-0.9,0.1-1.7,0.3-2.3l6-28.1l-5.4,0.7l-2.6,12.2c-0.3-1.1-0.8-1.9-1.7-2.2c-0.9-0.4-1.7-0.6-2.6-0.6c-1.5,0-2.8,0.3-4,0.9
				c-1.2,0.6-2.3,1.3-3.3,2.3c-1,1-1.8,2.1-2.6,3.3s-1.4,2.5-1.9,3.9c-0.5,1.4-0.9,2.7-1.1,4.1c-0.3,1.4-0.4,2.6-0.4,3.8
				c0,0,0,0.1,0,0.1c-0.6,1.1-1.2,2.1-1.8,2.8c-0.9,1-1.7,1.5-2.5,1.5c-0.7,0-1.1-0.2-1.3-0.7c-0.2-0.5-0.3-1-0.3-1.6
				c0-0.9,0.1-1.6,0.3-2.3l6-28.1l-5.4,0.7l-2.6,12.2c-0.3-1.1-0.8-1.9-1.7-2.2c-0.9-0.4-1.7-0.6-2.6-0.6c-1.5,0-2.8,0.3-4,0.9
				c-1.2,0.6-2.3,1.3-3.3,2.3c-1,1-1.8,2.1-2.6,3.3c-0.8,1.2-1.4,2.5-1.9,3.9c-0.5,1.4-0.9,2.7-1.1,4.1c-0.2,1.2-0.3,2.4-0.4,3.4
				c-1.2,1.6-2.4,2.7-3.8,3.5c-1.6,0.9-3.3,1.3-4.9,1.3s-3-0.4-3.7-1.2c-0.7-0.8-1.2-2.1-1.2-3.9c0-0.3,0-0.5,0-0.8
				c0-0.3,0.2-0.5,0.3-0.8c4-0.4,7.3-1.5,9.6-3.4c2.3-1.8,3.5-4.2,3.5-7.1c0-1.1-0.1-2-0.4-2.7c-0.3-0.7-0.7-1.2-1.2-1.6
				c-0.5-0.4-1.1-0.7-1.8-0.8c-0.7-0.2-1.3-0.2-2.1-0.2c-1.6,0-3,0.3-4.3,0.9c-1.3,0.6-2.4,1.4-3.4,2.5c-1,1-1.8,2.2-2.5,3.5
				c-0.7,1.3-1.3,2.7-1.7,4c-0.4,1.4-0.8,2.7-1,4c-0.2,1.3-0.3,2.4-0.3,3.4c0,1.5,0.2,2.8,0.7,3.8c0.4,1.1,1,1.9,1.7,2.6
				c0.7,0.7,1.5,1.1,2.5,1.5c0.9,0.3,1.9,0.5,2.9,0.5c1.4,0,2.7-0.3,4.1-0.8c1.3-0.5,2.6-1.2,3.8-2.1c1.2-0.9,2.3-1.9,3.2-3.1
				c0.1-0.1,0.2-0.3,0.3-0.4c0.1,0.7,0.2,1.3,0.4,1.8c0.4,1.1,0.9,1.9,1.5,2.6c0.6,0.7,1.3,1.2,2.1,1.5c0.8,0.3,1.6,0.4,2.4,0.4
				c1.7,0,3.2-0.5,4.6-1.5c1.4-1,2.5-2.2,3.3-3.6c0.1,1.8,0.6,3.1,1.3,3.9c0.7,0.8,1.7,1.2,2.8,1.2c0.6,0,1.2-0.1,1.9-0.3
				c0.7-0.2,1.5-0.6,2.2-1.3c0.8-0.7,1.6-1.6,2.4-2.9c0.1-0.2,0.2-0.4,0.4-0.6c0.1,0.2,0.1,0.4,0.2,0.5c0.4,1.1,0.9,1.9,1.5,2.6
				c0.6,0.7,1.3,1.2,2.1,1.5c0.8,0.3,1.6,0.4,2.4,0.4c1.7,0,3.2-0.5,4.6-1.5c1.4-1,2.5-2.2,3.3-3.6c0.1,1.8,0.6,3.1,1.3,3.9
				c0.7,0.8,1.7,1.2,2.8,1.2c0.6,0,1.2-0.1,1.9-0.3c0.7-0.2,1.5-0.6,2.2-1.3c0.8-0.7,1.6-1.6,2.4-2.9c0.1-0.2,0.3-0.4,0.4-0.7
				c0.1,0.4,0.1,0.7,0.3,1c0.3,0.9,0.7,1.6,1.2,2.2s1.1,1,1.8,1.4c0.7,0.3,1.4,0.5,2.2,0.5c1.2,0,2.4-0.4,3.6-1.2
				c1.2-0.8,2.3-2.1,3.4-3.8c0.1,1.8,0.6,3,1.4,3.8c0.8,0.8,1.7,1.2,2.8,1.2c0.6,0,1.2-0.1,1.9-0.3c0.7-0.2,1.5-0.6,2.2-1.3
				c0.5-0.4,1.1-1,1.6-1.7l-3.4,16l5.5-1.3l3-13.9c0.5,0.8,1.1,1.4,1.7,1.8c0.7,0.5,1.5,0.7,2.4,0.7c1.6,0,3-0.3,4.3-0.9
				s2.3-1.3,3.3-2.3c0.9-1,1.7-2,2.4-3.3c0.6-1.2,1.2-2.5,1.5-3.8c0.4-1.3,0.7-2.7,0.8-4c0.2-1.3,0.3-2.5,0.3-3.6
				C138,18.4,137.8,17.1,137.5,16z M31.1,21.1c0.5-1.3,1-2.5,1.7-3.6c0.6-1.1,1.4-2,2.2-2.6c0.8-0.7,1.7-1,2.7-1
				c0.8,0,1.4,0.2,1.6,0.7c0.2,0.5,0.3,1,0.3,1.6c0,2.4-0.9,4.3-2.6,5.9c-1.7,1.6-4,2.6-6.9,3.1C30.2,23.8,30.6,22.5,31.1,21.1z
				 M57.5,28.3c-0.2,0.8-0.5,1.5-0.9,2.2s-0.9,1.3-1.4,1.8c-0.5,0.5-1.1,0.9-1.7,1.2c-0.6,0.3-1.2,0.4-1.7,0.4c-1,0-1.8-0.4-2.4-1.1
				c-0.6-0.7-0.9-2.1-0.9-4.1c0-1.3,0.2-2.8,0.6-4.5c0.4-1.7,1-3.3,1.7-4.8c0.8-1.5,1.7-2.8,2.8-3.8c1.1-1,2.4-1.6,3.8-1.6
				c0.8,0,1.4,0.2,1.8,0.7c0.4,0.5,0.7,1,0.8,1.6L57.5,28.3z M82.7,28.3c-0.2,0.8-0.5,1.5-0.9,2.2s-0.9,1.3-1.4,1.8
				c-0.5,0.5-1.1,0.9-1.7,1.2c-0.6,0.3-1.2,0.4-1.7,0.4c-1,0-1.8-0.4-2.4-1.1c-0.6-0.7-0.9-2.1-0.9-4.1c0-1.3,0.2-2.8,0.6-4.5
				c0.4-1.7,1-3.3,1.7-4.8c0.8-1.5,1.7-2.8,2.8-3.8c1.1-1,2.4-1.6,3.8-1.6c0.8,0,1.4,0.2,1.8,0.7c0.4,0.5,0.7,1,0.8,1.6L82.7,28.3z
				 M132.4,24.4c-0.3,1.6-0.7,3.2-1.4,4.7s-1.5,2.8-2.5,3.8c-1,1.1-2.3,1.6-3.9,1.6c-0.4,0-0.9-0.1-1.4-0.4c-0.5-0.3-1-0.7-1.4-1.4
				l3.3-15.5c0.6-0.8,1.2-1.4,1.9-1.9c0.7-0.5,1.4-0.7,2.2-0.7c0.4,0,0.9,0.1,1.3,0.3c0.4,0.2,0.8,0.5,1.1,0.9
				c0.3,0.4,0.6,1,0.8,1.7c0.2,0.7,0.3,1.6,0.3,2.6C132.9,21.3,132.7,22.8,132.4,24.4z"/>
		</g>
	</g>
</g>
</svg>
