<svg><defs><svg id="bitcoin" viewBox="-223 225 64 64"><style>.st0{fill:#f7931a}.st1{fill:#fff}</style><path class="st0" d="M-160 264.7c-4.3 17.1-21.6 27.6-38.8 23.3-17.1-4.3-27.6-21.6-23.3-38.8 4.3-17.1 21.6-27.6 38.8-23.3 17.2 4.3 27.6 21.7 23.3 38.8z" transform="translate(.006 -.003)"/><path class="st1" d="M-176.9 252.4c.6-4.3-2.6-6.5-7-8.1l1.4-5.8-3.5-.9-1.4 5.6c-.9-.2-1.9-.4-2.8-.7l1.4-5.7-3.5-.9-1.4 5.8c-.8-.2-1.5-.3-2.2-.5l-4.8-1.2-.9 3.8s2.6.6 2.5.6c1.4.4 1.7 1.3 1.6 2l-1.6 6.6c.1 0 .2.1.4.1-.1 0-.2-.1-.4-.1l-2.3 9.2c-.2.4-.6 1.1-1.6.8 0 .1-2.6-.6-2.6-.6l-1.7 4 4.6 1.1c.8.2 1.7.4 2.5.6l-1.5 5.8 3.5.9 1.4-5.8c1 .3 1.9.5 2.8.7l-1.4 5.7 3.5.9 1.5-5.8c6 1.1 10.5.7 12.4-4.7 1.5-4.4-.1-6.9-3.2-8.5 2.1-.2 3.8-1.7 4.3-4.9zm-8 11.3c-1.1 4.4-8.4 2-10.8 1.4l1.9-7.7c2.4.6 10 1.7 8.9 6.3zm1.1-11.3c-1 4-7.1 2-9.1 1.5l1.7-7c2 .4 8.4 1.3 7.4 5.5z" transform="translate(.006 -.003)"/></svg><svg id="facebook-box" viewBox="0 0 24 24" width="24" height="24"><path d="M19 4v3h-2a1 1 0 0 0-1 1v2h3v3h-3v7h-3v-7h-2v-3h2V7.5C13 5.56 14.57 4 16.5 4M20 2H4a2 2 0 0 0-2 2v16a2 2 0 0 0 2 2h16a2 2 0 0 0 2-2V4a2 2 0 0 0-2-2z"/></svg><svg id="facebook" viewBox="0 0 266.893 266.895" width="266.893" height="266.895"><path fill="#3C5A99" d="M248.082 262.307c7.854 0 14.223-6.369 14.223-14.225V18.812c0-7.857-6.368-14.224-14.223-14.224H18.812c-7.857 0-14.224 6.367-14.224 14.224v229.27c0 7.855 6.366 14.225 14.224 14.225h229.27z"/><path fill="#FFF" d="M182.409 262.307v-99.803h33.499l5.016-38.895h-38.515V98.777c0-11.261 3.127-18.935 19.275-18.935l20.596-.009V45.045c-3.562-.474-15.788-1.533-30.012-1.533-29.695 0-50.025 18.126-50.025 51.413v28.684h-33.585v38.895h33.585v99.803h40.166z"/></svg><svg id="ic_access_time_black_48px" viewBox="0 0 24 24" width="48" height="48"><path d="M11.99 2C6.47 2 2 6.48 2 12s4.47 10 9.99 10C17.52 22 22 17.52 22 12S17.52 2 11.99 2zM12 20c-4.42 0-8-3.58-8-8s3.58-8 8-8 8 3.58 8 8-3.58 8-8 8z" fill-opacity=".9"/><path d="M0 0h24v24H0z" fill="none"/><path d="M12.5 7H11v6l5.25 3.15.75-1.23-4.5-2.67z" fill-opacity=".9"/></svg><svg id="ic_add_black_24px" viewBox="0 0 24 24" width="24" height="24"><path d="M19 13h-6v6h-2v-6H5v-2h6V5h2v6h6v2z"/><path d="M0 0h24v24H0z" fill="none"/></svg><svg id="ic_announcement_black_24px" viewBox="0 0 24 24" width="24" height="24"><path d="M20 2H4c-1.1 0-1.99.9-1.99 2L2 22l4-4h14c1.1 0 2-.9 2-2V4c0-1.1-.9-2-2-2zm-7 9h-2V5h2v6zm0 4h-2v-2h2v2z"/><path d="M0 0h24v24H0z" fill="none"/></svg><svg id="ic_arrow_back_black_48px" viewBox="0 0 24 24" width="48" height="48"><path d="M0 0h24v24H0z" fill="none"/><path d="M20 11H7.83l5.59-5.59L12 4l-8 8 8 8 1.41-1.41L7.83 13H20v-2z"/></svg><svg id="ic_arrow_drop_down_black_24px" viewBox="0 0 24 24" width="24" height="24"><path d="M7 10l5 5 5-5z"/><path d="M0 0h24v24H0z" fill="none"/></svg><svg id="ic_arrow_drop_up_black_24px" viewBox="0 0 24 24" width="24" height="24"><path d="M7 14l5-5 5 5z"/><path d="M0 0h24v24H0z" fill="none"/></svg><svg id="ic_arrow_forward_black_24px" viewBox="0 0 24 24" width="24" height="24"><path d="M0 0h24v24H0z" fill="none"/><path d="M12 4l-1.41 1.41L16.17 11H4v2h12.17l-5.58 5.59L12 20l8-8z"/></svg><svg id="ic_cake_black_24px" viewBox="0 0 24 24" width="24" height="24"><path d="M0 0h24v24H0z" fill="none"/><path d="M12 6a2 2 0 0 0 2-2c0-.38-.1-.73-.29-1.03L12 0l-1.71 2.97c-.19.3-.29.65-.29 1.03 0 1.1.9 2 2 2zm4.6 9.99l-1.07-1.07-1.08 1.07c-1.3 1.3-3.58 1.31-4.89 0l-1.07-1.07-1.09 1.07C6.75 16.64 5.88 17 4.96 17c-.73 0-1.4-.23-1.96-.61V21c0 .55.45 1 1 1h16c.55 0 1-.45 1-1v-4.61c-.56.38-1.23.61-1.96.61-.92 0-1.79-.36-2.44-1.01zM18 9h-5V7h-2v2H6c-1.66 0-3 1.34-3 3v1.54c0 1.08.88 1.96 1.96 1.96.52 0 1.02-.2 1.38-.57l2.14-2.13 2.13 2.13c.74.74 2.03.74 2.77 0l2.14-2.13 2.13 2.13c.37.37.86.57 1.38.57 1.08 0 1.96-.88 1.96-1.96V12C21 10.34 19.66 9 18 9z"/></svg><svg id="ic_check_box_24px" viewBox="0 0 24 24" width="24" height="24"><path d="M19 3H5a2 2 0 0 0-2 2v14a2 2 0 0 0 2 2h14a2 2 0 0 0 2-2V5a2 2 0 0 0-2-2zm-9 14l-5-5 1.41-1.41L10 14.17l7.59-7.59L19 8l-9 9z"/></svg><svg id="ic_check_box_black_24px" viewBox="0 0 24 24" width="24" height="24"><path d="M0 0h24v24H0z" fill="none"/><path d="M19 3H5a2 2 0 0 0-2 2v14a2 2 0 0 0 2 2h14a2 2 0 0 0 2-2V5a2 2 0 0 0-2-2zm-9 14l-5-5 1.41-1.41L10 14.17l7.59-7.59L19 8l-9 9z"/></svg><svg id="ic_check_box_outline_blank_24px" viewBox="0 0 24 24" width="24" height="24"><path d="M19 5v14H5V5h14m0-2H5c-1.1 0-2 .9-2 2v14c0 1.1.9 2 2 2h14c1.1 0 2-.9 2-2V5c0-1.1-.9-2-2-2z"/></svg><svg id="ic_check_box_outline_blank_black_24px" viewBox="0 0 24 24" width="24" height="24"><path d="M19 5v14H5V5h14m0-2H5c-1.1 0-2 .9-2 2v14c0 1.1.9 2 2 2h14c1.1 0 2-.9 2-2V5c0-1.1-.9-2-2-2z"/><path d="M0 0h24v24H0z" fill="none"/></svg><svg id="ic_chevron_left_24px" viewBox="0 0 24 24" width="24" height="24"><path d="M15.41 7.41L14 6l-6 6 6 6 1.41-1.41L10.83 12z"/></svg><svg id="ic_chevron_right_24px" viewBox="0 0 24 24" width="24" height="24"><path d="M10 6L8.59 7.41 13.17 12l-4.58 4.59L10 18l6-6z"/></svg><svg id="ic_chrome_reader_mode_black_48px" viewBox="0 0 24 24" width="48" height="48"><path d="M-74 29h48v48h-48V29zM0 0h24v24H0V0zm0 0h24v24H0V0z" fill="none"/><path d="M13 12h7v1.5h-7zm0-2.5h7V11h-7zm0 5h7V16h-7zM21 4H3c-1.1 0-2 .9-2 2v13c0 1.1.9 2 2 2h18c1.1 0 2-.9 2-2V6c0-1.1-.9-2-2-2zm0 15h-9V6h9v13z"/></svg><svg id="ic_clear_all_black_24px" viewBox="0 0 24 24" width="24" height="24"><path d="M5 13h14v-2H5v2zm-2 4h14v-2H3v2zM7 7v2h14V7H7z"/><path d="M0 0h24v24H0z" fill="none"/></svg><svg id="ic_close_black_48px" viewBox="0 0 24 24" width="48" height="48"><path d="M19 6.41L17.59 5 12 10.59 6.41 5 5 6.41 10.59 12 5 17.59 6.41 19 12 13.41 17.59 19 19 17.59 13.41 12z"/><path d="M0 0h24v24H0z" fill="none"/></svg><svg id="ic_comment_black_24px" viewBox="0 0 24 24" width="24" height="24"><path d="M21.99 4c0-1.1-.89-2-1.99-2H4c-1.1 0-2 .9-2 2v12c0 1.1.9 2 2 2h14l4 4-.01-18zM18 14H6v-2h12v2zm0-3H6V9h12v2zm0-3H6V6h12v2z"/><path d="M0 0h24v24H0z" fill="none"/></svg><svg id="ic_dashboard_black_24px" viewBox="0 0 24 24" width="24" height="24"><path d="M0 0h24v24H0z" fill="none"/><path d="M3 13h8V3H3v10zm0 8h8v-6H3v6zm10 0h8V11h-8v10zm0-18v6h8V3h-8z"/></svg><svg id="ic_delete_24px" viewBox="0 0 24 24" width="24" height="24"><path d="M6 19c0 1.1.9 2 2 2h8c1.1 0 2-.9 2-2V7H6v12zM19 4h-3.5l-1-1h-5l-1 1H5v2h14V4z"/></svg><svg id="ic_downvote_24px" viewBox="0 0 32 32" width="32" height="32"><path fill="none" d="M0 0h32v32H0z"/><path d="M29.998 16H22V2H9.999v14h-8l14 14z"/></svg><svg id="ic_email_black_48px" viewBox="0 0 24 24" width="48" height="48"><path d="M20 4H4c-1.1 0-1.99.9-1.99 2L2 18c0 1.1.9 2 2 2h16c1.1 0 2-.9 2-2V6c0-1.1-.9-2-2-2zm0 4l-8 5-8-5V6l8 5 8-5v2z"/><path d="M0 0h24v24H0z" fill="none"/></svg><svg id="ic_exit_to_app_black_24px" viewBox="0 0 24 24" width="24" height="24"><path d="M0 0h24v24H0z" fill="none"/><path d="M10.09 15.59L11.5 17l5-5-5-5-1.41 1.41L12.67 11H3v2h9.67l-2.58 2.59zM19 3H5a2 2 0 0 0-2 2v4h2V5h14v14H5v-4H3v4a2 2 0 0 0 2 2h14c1.1 0 2-.9 2-2V5c0-1.1-.9-2-2-2z"/></svg><svg id="ic_favorite_24px" viewBox="0 0 24 24" width="24" height="24"><path d="M12 21.35l-1.45-1.32C5.4 15.36 2 12.28 2 8.5 2 5.42 4.42 3 7.5 3c1.74 0 3.41.81 4.5 2.09C13.09 3.81 14.76 3 16.5 3 19.58 3 22 5.42 22 8.5c0 3.78-3.4 6.86-8.55 11.54L12 21.35z"/></svg><svg id="ic_fiber_manual_record_black_24px" viewBox="0 0 24 24" width="24" height="24"><path d="M24 24H0V0h24v24z" fill="none"/><circle cx="12" cy="12" fill="#010101" r="8"/></svg><svg id="ic_format_align_justify_black_24px" viewBox="0 0 24 24" width="24" height="24"><path d="M3 21h18v-2H3v2zm0-4h18v-2H3v2zm0-4h18v-2H3v2zm0-4h18V7H3v2zm0-6v2h18V3H3z"/><path d="M0 0h24v24H0z" fill="none"/></svg><svg id="ic_forward_black_24px" viewBox="0 0 24 24" width="24" height="24"><path d="M12 8V4l8 8-8 8v-4H4V8z"/><path d="M0 0h24v24H0z" fill="none"/></svg><svg id="ic_grade_black_24px" viewBox="0 0 24 24" width="24" height="24"><path d="M12 17.27L18.18 21l-1.64-7.03L22 9.24l-7.19-.61L12 2 9.19 8.63 2 9.24l5.46 4.73L5.82 21z"/><path d="M0 0h24v24H0z" fill="none"/></svg><svg id="ic_group_work_black_24px" viewBox="0 0 24 24" width="24" height="24"><path d="M0 0h24v24H0z" fill="none"/><path d="M12 2C6.48 2 2 6.48 2 12s4.48 10 10 10 10-4.48 10-10S17.52 2 12 2zM8 17.5a2.5 2.5 0 0 1 0-5 2.5 2.5 0 0 1 0 5zM9.5 8a2.5 2.5 0 0 1 5 0 2.5 2.5 0 0 1-5 0zm6.5 9.5a2.5 2.5 0 0 1 0-5 2.5 2.5 0 0 1 0 5z"/></svg><svg id="ic_info_outline_24px" viewBox="0 0 24 24" width="24" height="24"><path d="M11 17h2v-6h-2v6zm1-15C6.48 2 2 6.48 2 12s4.48 10 10 10 10-4.48 10-10S17.52 2 12 2zm0 18c-4.41 0-8-3.59-8-8s3.59-8 8-8 8 3.59 8 8-3.59 8-8 8zM11 9h2V7h-2v2z"/></svg><svg id="ic_keyboard_arrow_down_black_24px" viewBox="0 0 24 24" width="24" height="24"><path d="M7.41 7.84L12 12.42l4.59-4.58L18 9.25l-6 6-6-6z"/><path d="M0-.75h24v24H0z" fill="none"/></svg><svg id="ic_keyboard_arrow_up_black_24px" viewBox="0 0 24 24" width="24" height="24"><path d="M7.41 15.41L12 10.83l4.59 4.58L18 14l-6-6-6 6z"/><path d="M0 0h24v24H0z" fill="none"/></svg><svg id="ic_link_black_24px" viewBox="0 0 24 24" width="24" height="24"><path d="M0 0h24v24H0z" fill="none"/><path d="M3.9 12c0-1.71 1.39-3.1 3.1-3.1h4V7H7c-2.76 0-5 2.24-5 5s2.24 5 5 5h4v-1.9H7c-1.71 0-3.1-1.39-3.1-3.1zM8 13h8v-2H8v2zm9-6h-4v1.9h4c1.71 0 3.1 1.39 3.1 3.1s-1.39 3.1-3.1 3.1h-4V17h4c2.76 0 5-2.24 5-5s-2.24-5-5-5z"/></svg><svg id="ic_mail_black_24px" viewBox="0 0 24 24" width="24" height="24"><path d="M20 4H4c-1.1 0-1.99.9-1.99 2L2 18c0 1.1.9 2 2 2h16c1.1 0 2-.9 2-2V6c0-1.1-.9-2-2-2zm0 4l-8 5-8-5V6l8 5 8-5v2z"/><path d="M0 0h24v24H0z" fill="none"/></svg><svg id="ic_menu_black_48px" viewBox="0 0 24 24" width="48" height="48"><path d="M0 0h24v24H0z" fill="none"/><path d="M3 18h18v-2H3v2zm0-5h18v-2H3v2zm0-7v2h18V6H3z"/></svg><svg id="ic_mode_comment_black_24px" viewBox="0 0 24 24" width="24" height="24"><path d="M21.99 4c0-1.1-.89-2-1.99-2H4c-1.1 0-2 .9-2 2v12c0 1.1.9 2 2 2h14l4 4-.01-18z"/><path d="M0 0h24v24H0z" fill="none"/></svg><svg id="ic_mode_edit_24px" viewBox="0 0 24 24" width="24" height="24"><path d="M3 17.25V21h3.75L17.81 9.94l-3.75-3.75L3 17.25zM20.71 7.04a.996.996 0 0 0 0-1.41l-2.34-2.34a.996.996 0 0 0-1.41 0l-1.83 1.83 3.75 3.75 1.83-1.83z"/></svg><svg id="ic_more_vert_black_24px" viewBox="0 0 24 24" width="24" height="24"><path d="M0 0h24v24H0z" fill="none"/><path d="M12 8c1.1 0 2-.9 2-2s-.9-2-2-2-2 .9-2 2 .9 2 2 2zm0 2c-1.1 0-2 .9-2 2s.9 2 2 2 2-.9 2-2-.9-2-2-2zm0 6c-1.1 0-2 .9-2 2s.9 2 2 2 2-.9 2-2-.9-2-2-2z"/></svg><svg id="ic_open_in_new_black_24px" viewBox="0 0 24 24" width="24" height="24"><path d="M0 0h24v24H0z" fill="none"/><path d="M19 19H5V5h7V3H5a2 2 0 0 0-2 2v14a2 2 0 0 0 2 2h14c1.1 0 2-.9 2-2v-7h-2v7zM14 3v2h3.59l-9.83 9.83 1.41 1.41L19 6.41V10h2V3h-7z"/></svg><svg id="ic_pause_circle_outline_48px" viewBox="0 0 48 48" width="48" height="48"><path d="M18 32h4V16h-4v16zm6-28C12.95 4 4 12.95 4 24s8.95 20 20 20 20-8.95 20-20S35.05 4 24 4zm0 36c-8.82 0-16-7.18-16-16S15.18 8 24 8s16 7.18 16 16-7.18 16-16 16zm2-8h4V16h-4v16z"/></svg><svg id="ic_person_black_24px" viewBox="0 0 24 24" width="24" height="24"><path d="M12 12c2.21 0 4-1.79 4-4s-1.79-4-4-4-4 1.79-4 4 1.79 4 4 4zm0 2c-2.67 0-8 1.34-8 4v2h16v-2c0-2.66-5.33-4-8-4z"/><path d="M0 0h24v24H0z" fill="none"/></svg><svg id="ic_pin_24px" viewBox="0 0 24 24" width="24" height="24"><path d="M16 12V4h1V2H7v2h1v8l-2 2v2h5.2v6h1.6v-6H18v-2l-2-2z"/></svg><svg id="ic_play_circle_outline_48px" viewBox="0 0 48 48" width="48" height="48"><path d="M20 33l12-9-12-9v18zm4-29C12.95 4 4 12.95 4 24s8.95 20 20 20 20-8.95 20-20S35.05 4 24 4zm0 36c-8.82 0-16-7.18-16-16S15.18 8 24 8s16 7.18 16 16-7.18 16-16 16z"/></svg><svg id="ic_radio_button_checked_black_24px" viewBox="0 0 24 24" width="24" height="24"><path d="M12 7c-2.76 0-5 2.24-5 5s2.24 5 5 5 5-2.24 5-5-2.24-5-5-5zm0-5C6.48 2 2 6.48 2 12s4.48 10 10 10 10-4.48 10-10S17.52 2 12 2zm0 18c-4.42 0-8-3.58-8-8s3.58-8 8-8 8 3.58 8 8-3.58 8-8 8z"/><path d="M0 0h24v24H0z" fill="none"/></svg><svg id="ic_receipt_24px" viewBox="0 0 24 24" width="24" height="24"><path d="M18 17H6v-2h12v2zm0-4H6v-2h12v2zm0-4H6V7h12v2zM3 22l1.5-1.5L6 22l1.5-1.5L9 22l1.5-1.5L12 22l1.5-1.5L15 22l1.5-1.5L18 22l1.5-1.5L21 22V2l-1.5 1.5L18 2l-1.5 1.5L15 2l-1.5 1.5L12 2l-1.5 1.5L9 2 7.5 3.5 6 2 4.5 3.5 3 2v20z"/><path d="M0 0h24v24H0z" fill="none"/></svg><svg id="ic_refresh_24px" viewBox="0 0 24 24" width="24" height="24"><path d="M17.65 6.35A7.958 7.958 0 0 0 12 4c-4.42 0-7.99 3.58-7.99 8s3.57 8 7.99 8c3.73 0 6.84-2.55 7.73-6h-2.08A5.99 5.99 0 0 1 12 18c-3.31 0-6-2.69-6-6s2.69-6 6-6c1.66 0 3.14.69 4.22 1.78L13 11h7V4l-2.35 2.35z"/></svg><svg id="ic_refresh_black_48px" viewBox="0 0 24 24" width="48" height="48"><path d="M17.65 6.35A7.958 7.958 0 0 0 12 4c-4.42 0-7.99 3.58-7.99 8s3.57 8 7.99 8c3.73 0 6.84-2.55 7.73-6h-2.08A5.99 5.99 0 0 1 12 18c-3.31 0-6-2.69-6-6s2.69-6 6-6c1.66 0 3.14.69 4.22 1.78L13 11h7V4l-2.35 2.35z"/><path d="M0 0h24v24H0z" fill="none"/></svg><svg id="ic_remove_circle_black_24px" viewBox="0 0 24 24" width="24" height="24"><path d="M0 0h24v24H0z" fill="none"/><path d="M12 2C6.48 2 2 6.48 2 12s4.48 10 10 10 10-4.48 10-10S17.52 2 12 2zm5 11H7v-2h10v2z"/></svg><svg id="ic_remove_circle_outline_black_24px" viewBox="0 0 24 24" width="24" height="24"><path d="M0 0h24v24H0z" fill="none"/><path d="M7 11v2h10v-2H7zm5-9C6.48 2 2 6.48 2 12s4.48 10 10 10 10-4.48 10-10S17.52 2 12 2zm0 18c-4.41 0-8-3.59-8-8s3.59-8 8-8 8 3.59 8 8-3.59 8-8 8z"/></svg><svg id="ic_reply_24px" viewBox="0 0 24 24" width="24" height="24"><path d="M10 9V5l-7 7 7 7v-4.1c5 0 8.5 1.6 11 5.1-1-5-4-10-11-11z"/></svg><svg id="ic_report_black_24px" viewBox="0 0 24 24" width="24" height="24"><path d="M15.73 3H8.27L3 8.27v7.46L8.27 21h7.46L21 15.73V8.27L15.73 3zM12 17.3c-.72 0-1.3-.58-1.3-1.3 0-.72.58-1.3 1.3-1.3.72 0 1.3.58 1.3 1.3 0 .72-.58 1.3-1.3 1.3zm1-4.3h-2V7h2v6z"/><path d="M0 0h24v24H0z" fill="none"/></svg><svg id="ic_search_24px" viewBox="0 0 24 24" width="24" height="24"><path d="M15.5 14h-.79l-.28-.27A6.471 6.471 0 0 0 16 9.5 6.5 6.5 0 1 0 9.5 16c1.61 0 3.09-.59 4.23-1.57l.27.28v.79l5 4.99L20.49 19l-4.99-5zm-6 0C7.01 14 5 11.99 5 9.5S7.01 5 9.5 5 14 7.01 14 9.5 11.99 14 9.5 14z"/></svg><svg id="ic_search_black_24px" viewBox="0 0 24 24" width="24" height="24"><path d="M15.5 14h-.79l-.28-.27A6.471 6.471 0 0 0 16 9.5 6.5 6.5 0 1 0 9.5 16c1.61 0 3.09-.59 4.23-1.57l.27.28v.79l5 4.99L20.49 19l-4.99-5zm-6 0C7.01 14 5 11.99 5 9.5S7.01 5 9.5 5 14 7.01 14 9.5 11.99 14 9.5 14z"/><path d="M0 0h24v24H0z" fill="none"/></svg><svg id="ic_search_black_48px" viewBox="0 0 24 24" width="48" height="48"><path d="M15.5 14h-.79l-.28-.27A6.471 6.471 0 0 0 16 9.5 6.5 6.5 0 1 0 9.5 16c1.61 0 3.09-.59 4.23-1.57l.27.28v.79l5 4.99L20.49 19l-4.99-5zm-6 0C7.01 14 5 11.99 5 9.5S7.01 5 9.5 5 14 7.01 14 9.5 11.99 14 9.5 14z"/><path d="M0 0h24v24H0z" fill="none"/></svg><svg id="ic_send_24px" viewBox="0 0 24 24" width="24" height="24"><path d="M2.01 21L23 12 2.01 3 2 10l15 2-15 2z"/></svg><svg id="ic_settings_black_24px" viewBox="0 0 24 24" width="24" height="24"><path d="M0 0h24v24H0z" fill="none"/><path d="M19.43 12.98c.04-.32.07-.64.07-.98s-.03-.66-.07-.98l2.11-1.65c.19-.15.24-.42.12-.64l-2-3.46c-.12-.22-.39-.3-.61-.22l-2.49 1c-.52-.4-1.08-.73-1.69-.98l-.38-2.65A.488.488 0 0 0 14 2h-4c-.25 0-.46.18-.49.42l-.38 2.65c-.61.25-1.17.59-1.69.98l-2.49-1c-.23-.09-.49 0-.61.22l-2 3.46c-.13.22-.07.49.12.64l2.11 1.65c-.04.32-.07.65-.07.98s.03.66.07.98l-2.11 1.65c-.19.15-.24.42-.12.64l2 3.46c.12.22.39.3.61.22l2.49-1c.52.4 1.08.73 1.69.98l.38 2.65c.03.24.24.42.49.42h4c.25 0 .46-.18.49-.42l.38-2.65c.61-.25 1.17-.59 1.69-.98l2.49 1c.23.09.49 0 .61-.22l2-3.46c.12-.22.07-.49-.12-.64l-2.11-1.65zM12 15.5c-1.93 0-3.5-1.57-3.5-3.5s1.57-3.5 3.5-3.5 3.5 1.57 3.5 3.5-1.57 3.5-3.5 3.5z"/></svg><svg id="ic_share_24px" viewBox="0 0 24 24" width="24" height="24"><path d="M18 16.08c-.76 0-1.44.3-1.96.77L8.91 12.7c.05-.23.09-.46.09-.7s-.04-.47-.09-.7l7.05-4.11c.54.5 1.25.81 2.04.81 1.66 0 3-1.34 3-3s-1.34-3-3-3-3 1.34-3 3c0 .24.04.47.09.7L8.04 9.81C7.5 9.31 6.79 9 6 9c-1.66 0-3 1.34-3 3s1.34 3 3 3c.79 0 1.5-.31 2.04-.81l7.12 4.16c-.05.21-.08.43-.08.65 0 1.61 1.31 2.92 2.92 2.92 1.61 0 2.92-1.31 2.92-2.92s-1.31-2.92-2.92-2.92z"/></svg><svg id="ic_sort_48px" viewBox="0 0 48 48" width="48" height="48"><path d="M6 36h12v-4H6v4zm0-24v4h36v-4H6zm0 14h24v-4H6v4z"/></svg><svg id="ic_stars_24px" viewBox="0 0 24 24" width="24" height="24"><path d="M11.99 2C6.47 2 2 6.48 2 12s4.47 10 9.99 10C17.52 22 22 17.52 22 12S17.52 2 11.99 2zm4.24 16L12 15.45 7.77 18l1.12-4.81-3.73-3.23 4.92-.42L12 5l1.92 4.53 4.92.42-3.73 3.23L16.23 18z"/></svg><svg id="ic_stars_black_18px" viewBox="0 0 24 24" width="18" height="18"><path d="M0 0h24v24H0z" fill="none"/><path d="M11.99 2C6.47 2 2 6.48 2 12s4.47 10 9.99 10C17.52 22 22 17.52 22 12S17.52 2 11.99 2zm4.24 16L12 15.45 7.77 18l1.12-4.81-3.73-3.23 4.92-.42L12 5l1.92 4.53 4.92.42-3.73 3.23L16.23 18z"/></svg><svg id="ic_upvote_24px" viewBox="0 0 32 32" width="32" height="32"><path fill="none" d="M0 0h32v32H0z"/><path d="M2 16h7.999v14h12V16h8l-14-14z"/></svg><svg id="ic_view_agenda_black_24px" viewBox="0 0 24 24" width="24" height="24"><path d="M0 0h24v24H0z" fill="none"/><path d="M20 13H3c-.55 0-1 .45-1 1v6c0 .55.45 1 1 1h17c.55 0 1-.45 1-1v-6c0-.55-.45-1-1-1zm0-10H3c-.55 0-1 .45-1 1v6c0 .55.45 1 1 1h17c.55 0 1-.45 1-1V4c0-.55-.45-1-1-1z"/></svg><svg id="ic_warning_black_48px" viewBox="0 0 24 24" width="48" height="48"><path d="M0 0h24v24H0z" fill="none"/><path d="M1 21h22L12 2 1 21zm12-3h-2v-2h2v2zm0-4h-2v-4h2v4z"/></svg><svg id="logo" viewBox="0 0 300 300" width="300" height="300"><path fill="#FFAB91" d="M0 200l100 100V100l-6.25-6.25-93.75 96z"/><path fill="#FF8A65" d="M100 100l7.5-7.5L11.75 0H0v200z"/><path fill="#E64A19" d="M200 0h-14L91.875 91.875 100 100h200z"/><path fill="#FF5722" d="M100 100L200 0H0z"/></svg><svg id="paypal" viewBox="0 0 256 302" width="256" height="302"><path d="M217.168 23.507C203.234 7.625 178.046.816 145.823.816h-93.52A13.393 13.393 0 0 0 39.076 12.11L.136 259.077c-.774 4.87 2.997 9.28 7.933 9.28h57.736l14.5-91.971-.45 2.88c1.033-6.501 6.593-11.296 13.177-11.296h27.436c53.898 0 96.101-21.892 108.429-85.221.366-1.873.683-3.696.957-5.477-1.556-.824-1.556-.824 0 0 3.671-23.407-.025-39.34-12.686-53.765" fill="#27346A"/><path d="M102.397 68.84a11.737 11.737 0 0 1 5.053-1.14h73.318c8.682 0 16.78.565 24.18 1.756a101.6 101.6 0 0 1 6.177 1.182 89.928 89.928 0 0 1 8.59 2.347c3.638 1.215 7.026 2.63 10.14 4.287 3.67-23.416-.026-39.34-12.687-53.765C203.226 7.625 178.046.816 145.823.816H52.295C45.71.816 40.108 5.61 39.076 12.11L.136 259.068c-.774 4.878 2.997 9.282 7.925 9.282h57.744L95.888 77.58a11.717 11.717 0 0 1 6.509-8.74z" fill="#27346A"/><path d="M228.897 82.749c-12.328 63.32-54.53 85.221-108.429 85.221H93.024c-6.584 0-12.145 4.795-13.168 11.296L61.817 293.621c-.674 4.262 2.622 8.124 6.934 8.124h48.67a11.71 11.71 0 0 0 11.563-9.88l.474-2.48 9.173-58.136.591-3.213a11.71 11.71 0 0 1 11.562-9.88h7.284c47.147 0 84.064-19.154 94.852-74.55 4.503-23.15 2.173-42.478-9.739-56.054-3.613-4.112-8.1-7.508-13.327-10.28-.283 1.79-.59 3.604-.957 5.477z" fill="#2790C3"/><path d="M216.952 72.128a89.928 89.928 0 0 0-5.818-1.49 109.904 109.904 0 0 0-6.177-1.174c-7.408-1.199-15.5-1.765-24.19-1.765h-73.309a11.57 11.57 0 0 0-5.053 1.149 11.683 11.683 0 0 0-6.51 8.74l-15.582 98.798-.45 2.88c1.025-6.501 6.585-11.296 13.17-11.296h27.444c53.898 0 96.1-21.892 108.428-85.221.367-1.873.675-3.688.958-5.477-3.122-1.648-6.501-3.072-10.14-4.279a83.26 83.26 0 0 0-2.77-.865" fill="#1F264F"/></svg><svg id="reddit-square" viewBox="0 0 1792 1792" width="1792" height="1792"><path d="M1078 1143q7-7 17.5-7t17.5 7 7 18-7 18q-65 64-208 64h-2q-143 0-207-64-8-7-8-18t8-18q7-7 17.5-7t17.5 7q49 51 172 51h2q122 0 173-51zM799 923q0 37-26 64t-63 27-63-27-26-64 26-63 63-26 63 26 26 63zm543-436q-29 0-50-21t-21-50q0-30 21-51t50-21q30 0 51 21t21 51q0 29-21 50t-51 21zm2-359q132 0 226 94t94 227v894q0 133-94 227t-226 94H448q-132 0-226-94t-94-227V449q0-133 94-227t226-94h896zm105 812q35-14 57-45.5t22-70.5q0-51-36-87.5t-87-36.5q-60 0-98 48-151-107-375-115l83-265 206 49q1 50 36.5 85t84.5 35q50 0 86-35.5t36-85.5-36-86-86-36q-36 0-66 20.5t-45 53.5l-227-54q-9-2-17.5 2.5T975 331l-95 302q-224 4-381 113-36-43-93-43-51 0-87 36.5T283 827q0 37 19.5 67.5T355 940q-7 25-7 54 0 98 74 181.5t201.5 132T902 1356q150 0 277.5-48.5t201.5-132 74-181.5q0-27-6-54zm-350-106q37 0 63 26t26 63-26 64-63 27-63-27-26-64 26-63 63-26z"/></svg><svg id="reddup" viewBox="-4.0953803 7.0755725 143.7008514 55.0020409"><path fill="#FF6E40" d="M136.586 25.266v-.003c-.455-1.43-1.118-2.641-1.973-3.6a7.999 7.999 0 0 0-3.312-2.24c-1.683-.599-3.61-.698-5.321-.46A3.499 3.499 0 0 0 123 17.301h-6.912a3.5 3.5 0 0 0-3.42 2.761 3.5 3.5 0 0 0-2.435-.985h-6.912c-.954 0-1.833.385-2.472 1.022a3.5 3.5 0 0 0-2.472-1.022h-6.912c-.408 0-.803.07-1.17.201l1.186-5.572a3.5 3.5 0 0 0-3.892-4.197l-7.103.96a3.5 3.5 0 0 0-2.953 2.733L76.3 18.933l-.024-.002a14.603 14.603 0 0 0-1.61-.094c-1.915 0-3.695.376-5.293 1.119a15.119 15.119 0 0 0-4.027 2.745c-.468.444-.913.918-1.33 1.419l2.217-10.414a3.5 3.5 0 0 0-3.892-4.197l-7.103.96a3.5 3.5 0 0 0-2.953 2.733l-1.232 5.731a14.61 14.61 0 0 0-1.634-.096c-1.915 0-3.695.376-5.292 1.118a15.092 15.092 0 0 0-4.028 2.746c-.157.15-.312.301-.463.457a7.013 7.013 0 0 0-1.21-1.785c-.774-.834-1.775-1.483-2.98-1.933-1.092-.406-2.347-.603-3.835-.603-2.123 0-4.076.394-5.804 1.172a14.9 14.9 0 0 0-3.433 2.14 7.723 7.723 0 0 0-.53-.829c-1.22-1.601-3.087-2.483-5.257-2.483-1.137 0-2.272.246-3.389.735a3.497 3.497 0 0 0-1.794-.495H4.493a3.5 3.5 0 0 0-3.424 2.774L-4.02 45.852a3.498 3.498 0 0 0 3.424 4.226h6.911a3.5 3.5 0 0 0 3.425-2.78L13 31.821c.667.552 1.66 1.01 3.055 1.089-.23.875-.432 1.744-.57 2.595-.22 1.365-.333 2.619-.333 3.728 0 3.77 1.099 6.632 3.264 8.504 2.017 1.744 4.632 2.629 7.772 2.629 2.028 0 3.925-.34 5.639-1.007a18.245 18.245 0 0 0 4.223-2.322c.168.2.342.391.525.573a9.013 9.013 0 0 0 3.327 2.14c2.297.83 4.97.8 7.115.021a11.855 11.855 0 0 0 2.903-1.536c1.453 1.222 3.27 1.843 5.404 1.843.864 0 1.83-.103 2.866-.303 1.293-.247 2.594-.807 3.865-1.662l.173-.12a8.901 8.901 0 0 0 2.922 1.756c2.295.83 4.971.8 7.112.022a11.823 11.823 0 0 0 2.905-1.536c1.453 1.222 3.27 1.843 5.404 1.843.865 0 1.832-.103 2.865-.303 1.232-.235 2.47-.754 3.68-1.54 2.129 1.852 4.897 2.524 8.14 1.898a9.968 9.968 0 0 0 2.733-.985c.419-.22.837-.48 1.25-.778 1.04.935 2.824 1.996 5.571 1.996.464 0 .944-.032 1.45-.096l-1.61 7.581a3.504 3.504 0 0 0 .98 3.232 3.505 3.505 0 0 0 3.255.899l7.248-1.728a3.498 3.498 0 0 0 2.612-2.674l1.556-7.306c.498.061 1.03.092 1.597.092 2.03 0 3.896-.38 5.546-1.128 1.592-.72 2.989-1.687 4.15-2.872a15.79 15.79 0 0 0 2.81-3.943 24.793 24.793 0 0 0 1.677-4.25c.421-1.445.72-2.907.886-4.348.158-1.377.238-2.69.238-3.904 0-1.816-.202-3.339-.619-4.655z"/><path fill="#FF6E40" d="M136.686 25.166v-.003c-.455-1.43-1.118-2.641-1.973-3.6a7.999 7.999 0 0 0-3.312-2.24c-1.683-.599-3.61-.698-5.321-.46a3.499 3.499 0 0 0-2.979-1.662h-6.912a3.5 3.5 0 0 0-3.42 2.761 3.5 3.5 0 0 0-2.435-.985h-6.912c-.954 0-1.833.385-2.472 1.022a3.5 3.5 0 0 0-2.472-1.022h-6.912c-.408 0-.803.07-1.17.201l1.186-5.572a3.5 3.5 0 0 0-3.892-4.197l-7.103.96a3.5 3.5 0 0 0-2.953 2.733L76.4 18.833l-.024-.002a14.603 14.603 0 0 0-1.61-.094c-1.915 0-3.695.376-5.293 1.119a15.119 15.119 0 0 0-4.027 2.745c-.468.444-.913.918-1.33 1.419l2.217-10.414a3.5 3.5 0 0 0-3.892-4.197l-7.103.96a3.5 3.5 0 0 0-2.953 2.733l-1.232 5.731a14.61 14.61 0 0 0-1.634-.096c-1.915 0-3.695.376-5.292 1.118a15.092 15.092 0 0 0-4.028 2.746c-.157.15-.312.301-.463.457a7.013 7.013 0 0 0-1.21-1.785c-.774-.834-1.775-1.483-2.98-1.933-1.092-.406-2.347-.603-3.835-.603-2.123 0-4.076.394-5.804 1.172a14.9 14.9 0 0 0-3.433 2.14 7.723 7.723 0 0 0-.53-.829c-1.22-1.601-3.087-2.483-5.257-2.483-1.137 0-2.272.246-3.389.735a3.497 3.497 0 0 0-1.794-.495H4.593a3.5 3.5 0 0 0-3.424 2.774L-3.92 45.752a3.498 3.498 0 0 0 3.424 4.226h6.911a3.5 3.5 0 0 0 3.425-2.78L13.1 31.721c.667.552 1.66 1.01 3.055 1.089-.23.875-.432 1.744-.57 2.595-.22 1.365-.333 2.619-.333 3.728 0 3.77 1.099 6.632 3.264 8.504 2.017 1.744 4.632 2.629 7.772 2.629 2.028 0 3.925-.34 5.639-1.007a18.245 18.245 0 0 0 4.223-2.322c.168.2.342.391.525.573a9.013 9.013 0 0 0 3.327 2.14c2.297.83 4.97.8 7.115.021a11.855 11.855 0 0 0 2.903-1.536c1.453 1.222 3.27 1.843 5.404 1.843.864 0 1.83-.103 2.866-.303 1.293-.247 2.594-.807 3.865-1.662l.173-.12a8.901 8.901 0 0 0 2.922 1.756c2.295.83 4.971.8 7.112.022a11.823 11.823 0 0 0 2.905-1.536c1.453 1.222 3.27 1.843 5.404 1.843.865 0 1.832-.103 2.865-.303 1.232-.235 2.47-.754 3.68-1.54 2.129 1.852 4.897 2.524 8.14 1.898a9.968 9.968 0 0 0 2.733-.985c.419-.22.837-.48 1.25-.778 1.04.935 2.824 1.996 5.571 1.996.464 0 .944-.032 1.45-.096l-1.61 7.581a3.504 3.504 0 0 0 .98 3.232 3.505 3.505 0 0 0 3.255.899l7.248-1.728a3.498 3.498 0 0 0 2.612-2.674l1.556-7.306c.498.061 1.03.092 1.597.092 2.03 0 3.896-.38 5.546-1.128 1.592-.72 2.989-1.687 4.15-2.872a15.79 15.79 0 0 0 2.81-3.943 24.793 24.793 0 0 0 1.677-4.25c.421-1.445.72-2.907.886-4.348.158-1.377.238-2.69.238-3.904 0-1.816-.202-3.339-.619-4.655z"/><path fill="#FF6E40" d="M136.786 25.066v-.003c-.455-1.43-1.118-2.641-1.973-3.6a7.999 7.999 0 0 0-3.312-2.24c-1.683-.599-3.61-.698-5.321-.46a3.499 3.499 0 0 0-2.979-1.662h-6.912a3.5 3.5 0 0 0-3.42 2.761 3.5 3.5 0 0 0-2.435-.985h-6.912c-.954 0-1.833.385-2.472 1.022a3.5 3.5 0 0 0-2.472-1.022h-6.912c-.408 0-.803.07-1.17.201l1.186-5.572a3.5 3.5 0 0 0-3.892-4.197l-7.103.96a3.5 3.5 0 0 0-2.953 2.733L76.5 18.733l-.024-.002a14.603 14.603 0 0 0-1.61-.094c-1.915 0-3.695.376-5.293 1.119a15.119 15.119 0 0 0-4.027 2.745c-.468.444-.913.918-1.33 1.419l2.217-10.414a3.5 3.5 0 0 0-3.892-4.197l-7.103.96a3.5 3.5 0 0 0-2.953 2.733l-1.232 5.731a14.61 14.61 0 0 0-1.634-.096c-1.915 0-3.695.376-5.292 1.118a15.092 15.092 0 0 0-4.028 2.746c-.157.15-.312.301-.463.457a7.013 7.013 0 0 0-1.21-1.785c-.774-.834-1.775-1.483-2.98-1.933-1.092-.406-2.347-.603-3.835-.603-2.123 0-4.076.394-5.804 1.172a14.9 14.9 0 0 0-3.433 2.14 7.723 7.723 0 0 0-.53-.829c-1.22-1.601-3.087-2.483-5.257-2.483-1.137 0-2.272.246-3.389.735a3.497 3.497 0 0 0-1.794-.495H4.693a3.5 3.5 0 0 0-3.424 2.774L-3.82 45.652a3.498 3.498 0 0 0 3.424 4.226h6.911a3.5 3.5 0 0 0 3.425-2.78L13.2 31.621c.667.552 1.66 1.01 3.055 1.089-.23.875-.432 1.744-.57 2.595-.22 1.365-.333 2.619-.333 3.728 0 3.77 1.099 6.632 3.264 8.504 2.017 1.744 4.632 2.629 7.772 2.629 2.028 0 3.925-.34 5.639-1.007a18.245 18.245 0 0 0 4.223-2.322c.168.2.342.391.525.573a9.013 9.013 0 0 0 3.327 2.14c2.297.83 4.97.8 7.115.021a11.855 11.855 0 0 0 2.903-1.536c1.453 1.222 3.27 1.843 5.404 1.843.864 0 1.83-.103 2.866-.303 1.293-.247 2.594-.807 3.865-1.662l.173-.12a8.901 8.901 0 0 0 2.922 1.756c2.295.83 4.971.8 7.112.022a11.823 11.823 0 0 0 2.905-1.536c1.453 1.222 3.27 1.843 5.404 1.843.865 0 1.832-.103 2.865-.303 1.232-.235 2.47-.754 3.68-1.54 2.129 1.852 4.897 2.524 8.14 1.898a9.968 9.968 0 0 0 2.733-.985c.419-.22.837-.48 1.25-.778 1.04.935 2.824 1.996 5.571 1.996.464 0 .944-.032 1.45-.096l-1.61 7.581a3.504 3.504 0 0 0 .98 3.232 3.505 3.505 0 0 0 3.255.899l7.248-1.728a3.498 3.498 0 0 0 2.612-2.674l1.556-7.306c.498.061 1.03.092 1.597.092 2.03 0 3.896-.38 5.546-1.128 1.592-.72 2.989-1.687 4.15-2.872a15.79 15.79 0 0 0 2.81-3.943 24.793 24.793 0 0 0 1.677-4.25c.421-1.445.72-2.907.886-4.348.158-1.377.238-2.69.238-3.904 0-1.816-.202-3.339-.619-4.655z"/><path fill="#FF6E40" d="M136.886 24.966v-.003c-.455-1.43-1.118-2.641-1.973-3.6a7.999 7.999 0 0 0-3.312-2.24c-1.683-.599-3.61-.698-5.321-.46a3.499 3.499 0 0 0-2.979-1.662h-6.912a3.5 3.5 0 0 0-3.42 2.761 3.5 3.5 0 0 0-2.435-.985h-6.912c-.954 0-1.833.385-2.472 1.022a3.5 3.5 0 0 0-2.472-1.022h-6.912c-.408 0-.803.07-1.17.201l1.186-5.572a3.5 3.5 0 0 0-3.892-4.197l-7.103.96a3.5 3.5 0 0 0-2.953 2.733L76.6 18.633l-.024-.002a14.603 14.603 0 0 0-1.61-.094c-1.915 0-3.695.376-5.293 1.119a15.119 15.119 0 0 0-4.027 2.745c-.468.444-.913.918-1.33 1.419l2.217-10.414a3.5 3.5 0 0 0-3.892-4.197l-7.103.96a3.5 3.5 0 0 0-2.953 2.733l-1.232 5.731a14.61 14.61 0 0 0-1.634-.096c-1.915 0-3.695.376-5.292 1.118a15.092 15.092 0 0 0-4.028 2.746c-.157.15-.312.301-.463.457a7.013 7.013 0 0 0-1.21-1.785c-.774-.834-1.775-1.483-2.98-1.933-1.092-.406-2.347-.603-3.835-.603-2.123 0-4.076.394-5.804 1.172a14.9 14.9 0 0 0-3.433 2.14 7.723 7.723 0 0 0-.53-.829c-1.22-1.601-3.087-2.483-5.257-2.483-1.137 0-2.272.246-3.389.735a3.497 3.497 0 0 0-1.794-.495H4.793a3.5 3.5 0 0 0-3.424 2.774L-3.72 45.552a3.498 3.498 0 0 0 3.424 4.226h6.911a3.5 3.5 0 0 0 3.425-2.78L13.3 31.521c.667.552 1.66 1.01 3.055 1.089-.23.875-.432 1.744-.57 2.595-.22 1.365-.333 2.619-.333 3.728 0 3.77 1.099 6.632 3.264 8.504 2.017 1.744 4.632 2.629 7.772 2.629 2.028 0 3.925-.34 5.639-1.007a18.245 18.245 0 0 0 4.223-2.322c.168.2.342.391.525.573a9.013 9.013 0 0 0 3.327 2.14c2.297.83 4.97.8 7.115.021a11.855 11.855 0 0 0 2.903-1.536c1.453 1.222 3.27 1.843 5.404 1.843.864 0 1.83-.103 2.866-.303 1.293-.247 2.594-.807 3.865-1.662l.173-.12a8.901 8.901 0 0 0 2.922 1.756c2.295.83 4.971.8 7.112.022a11.823 11.823 0 0 0 2.905-1.536c1.453 1.222 3.27 1.843 5.404 1.843.865 0 1.832-.103 2.865-.303 1.232-.235 2.47-.754 3.68-1.54 2.129 1.852 4.897 2.524 8.14 1.898a9.968 9.968 0 0 0 2.733-.985c.419-.22.837-.48 1.25-.778 1.04.935 2.824 1.996 5.571 1.996.464 0 .944-.032 1.45-.096l-1.61 7.581a3.504 3.504 0 0 0 .98 3.232 3.505 3.505 0 0 0 3.255.899l7.248-1.728a3.498 3.498 0 0 0 2.612-2.674l1.556-7.306c.498.061 1.03.092 1.597.092 2.03 0 3.896-.38 5.546-1.128 1.592-.72 2.989-1.687 4.15-2.872a15.79 15.79 0 0 0 2.81-3.943 24.793 24.793 0 0 0 1.677-4.25c.421-1.445.72-2.907.886-4.348.158-1.377.238-2.69.238-3.904 0-1.816-.202-3.339-.619-4.655z"/><path fill="#FF6E40" d="M136.986 24.866v-.003c-.455-1.43-1.118-2.641-1.973-3.6a7.999 7.999 0 0 0-3.312-2.24c-1.683-.599-3.61-.698-5.321-.46a3.499 3.499 0 0 0-2.979-1.662h-6.912a3.5 3.5 0 0 0-3.42 2.761 3.5 3.5 0 0 0-2.435-.985h-6.912c-.954 0-1.833.385-2.472 1.022a3.5 3.5 0 0 0-2.472-1.022h-6.912c-.408 0-.803.07-1.17.201l1.186-5.572a3.5 3.5 0 0 0-3.892-4.197l-7.103.96a3.5 3.5 0 0 0-2.953 2.733L76.7 18.533l-.024-.002a14.603 14.603 0 0 0-1.61-.094c-1.915 0-3.695.376-5.293 1.119a15.119 15.119 0 0 0-4.027 2.745c-.468.444-.913.918-1.33 1.419l2.217-10.414a3.5 3.5 0 0 0-3.892-4.197l-7.103.96a3.5 3.5 0 0 0-2.953 2.733l-1.232 5.731a14.61 14.61 0 0 0-1.634-.096c-1.915 0-3.695.376-5.292 1.118a15.092 15.092 0 0 0-4.028 2.746c-.157.15-.312.301-.463.457a7.013 7.013 0 0 0-1.21-1.785c-.774-.834-1.775-1.483-2.98-1.933-1.092-.406-2.347-.603-3.835-.603-2.123 0-4.076.394-5.804 1.172a14.9 14.9 0 0 0-3.433 2.14 7.723 7.723 0 0 0-.53-.829c-1.22-1.601-3.087-2.483-5.257-2.483-1.137 0-2.272.246-3.389.735a3.497 3.497 0 0 0-1.794-.495H4.893a3.5 3.5 0 0 0-3.424 2.774L-3.62 45.452a3.498 3.498 0 0 0 3.424 4.226h6.911a3.5 3.5 0 0 0 3.425-2.78L13.4 31.421c.667.552 1.66 1.01 3.055 1.089-.23.875-.432 1.744-.57 2.595-.22 1.365-.333 2.619-.333 3.728 0 3.77 1.099 6.632 3.264 8.504 2.017 1.744 4.632 2.629 7.772 2.629 2.028 0 3.925-.34 5.639-1.007a18.245 18.245 0 0 0 4.223-2.322c.168.2.342.391.525.573a9.013 9.013 0 0 0 3.327 2.14c2.297.83 4.97.8 7.115.021a11.855 11.855 0 0 0 2.903-1.536c1.453 1.222 3.27 1.843 5.404 1.843.864 0 1.83-.103 2.866-.303 1.293-.247 2.594-.807 3.865-1.662l.173-.12a8.901 8.901 0 0 0 2.922 1.756c2.295.83 4.971.8 7.112.022a11.823 11.823 0 0 0 2.905-1.536c1.453 1.222 3.27 1.843 5.404 1.843.865 0 1.832-.103 2.865-.303 1.232-.235 2.47-.754 3.68-1.54 2.129 1.852 4.897 2.524 8.14 1.898a9.968 9.968 0 0 0 2.733-.985c.419-.22.837-.48 1.25-.778 1.04.935 2.824 1.996 5.571 1.996.464 0 .944-.032 1.45-.096l-1.61 7.581a3.504 3.504 0 0 0 .98 3.232 3.505 3.505 0 0 0 3.255.899l7.248-1.728a3.498 3.498 0 0 0 2.612-2.674l1.556-7.306c.498.061 1.03.092 1.597.092 2.03 0 3.896-.38 5.546-1.128 1.592-.72 2.989-1.687 4.15-2.872a15.79 15.79 0 0 0 2.81-3.943 24.793 24.793 0 0 0 1.677-4.25c.421-1.445.72-2.907.886-4.348.158-1.377.238-2.69.238-3.904 0-1.816-.202-3.339-.619-4.655z"/><path fill="#FF6E40" d="M137.086 24.766v-.003c-.455-1.43-1.118-2.641-1.973-3.6a7.999 7.999 0 0 0-3.312-2.24c-1.683-.599-3.61-.698-5.321-.46a3.499 3.499 0 0 0-2.979-1.662h-6.912a3.5 3.5 0 0 0-3.42 2.761 3.5 3.5 0 0 0-2.435-.985h-6.912c-.954 0-1.833.385-2.472 1.022a3.5 3.5 0 0 0-2.472-1.022h-6.912c-.408 0-.803.07-1.17.201l1.186-5.572a3.5 3.5 0 0 0-3.892-4.197l-7.103.96a3.5 3.5 0 0 0-2.953 2.733L76.8 18.433l-.024-.002a14.603 14.603 0 0 0-1.61-.094c-1.915 0-3.695.376-5.293 1.119a15.119 15.119 0 0 0-4.027 2.745c-.468.444-.913.918-1.33 1.419l2.217-10.414a3.5 3.5 0 0 0-3.892-4.197l-7.103.96a3.5 3.5 0 0 0-2.953 2.733l-1.232 5.731a14.61 14.61 0 0 0-1.634-.096c-1.915 0-3.695.376-5.292 1.118a15.092 15.092 0 0 0-4.028 2.746c-.157.15-.312.301-.463.457a7.013 7.013 0 0 0-1.21-1.785c-.774-.834-1.775-1.483-2.98-1.933-1.092-.406-2.347-.603-3.835-.603-2.123 0-4.076.394-5.804 1.172a14.9 14.9 0 0 0-3.433 2.14 7.723 7.723 0 0 0-.53-.829c-1.22-1.601-3.087-2.483-5.257-2.483-1.137 0-2.272.246-3.389.735a3.497 3.497 0 0 0-1.794-.495H4.993a3.5 3.5 0 0 0-3.424 2.774L-3.52 45.352a3.498 3.498 0 0 0 3.424 4.226h6.911a3.5 3.5 0 0 0 3.425-2.78L13.5 31.321c.667.552 1.66 1.01 3.055 1.089-.23.875-.432 1.744-.57 2.595-.22 1.365-.333 2.619-.333 3.728 0 3.77 1.099 6.632 3.264 8.504 2.017 1.744 4.632 2.629 7.772 2.629 2.028 0 3.925-.34 5.639-1.007a18.245 18.245 0 0 0 4.223-2.322c.168.2.342.391.525.573a9.013 9.013 0 0 0 3.327 2.14c2.297.83 4.97.8 7.115.021a11.855 11.855 0 0 0 2.903-1.536c1.453 1.222 3.27 1.843 5.404 1.843.864 0 1.83-.103 2.866-.303 1.293-.247 2.594-.807 3.865-1.662l.173-.12a8.901 8.901 0 0 0 2.922 1.756c2.295.83 4.971.8 7.112.022a11.823 11.823 0 0 0 2.905-1.536c1.453 1.222 3.27 1.843 5.404 1.843.865 0 1.832-.103 2.865-.303 1.232-.235 2.47-.754 3.68-1.54 2.129 1.852 4.897 2.524 8.14 1.898a9.968 9.968 0 0 0 2.733-.985c.419-.22.837-.48 1.25-.778 1.04.935 2.824 1.996 5.571 1.996.464 0 .944-.032 1.45-.096l-1.61 7.581a3.504 3.504 0 0 0 .98 3.232 3.505 3.505 0 0 0 3.255.899l7.248-1.728a3.498 3.498 0 0 0 2.612-2.674l1.556-7.306c.498.061 1.03.092 1.597.092 2.03 0 3.896-.38 5.546-1.128 1.592-.72 2.989-1.687 4.15-2.872a15.79 15.79 0 0 0 2.81-3.943 24.793 24.793 0 0 0 1.677-4.25c.421-1.445.72-2.907.886-4.348.158-1.377.238-2.69.238-3.904 0-1.816-.202-3.339-.619-4.655z"/><path fill="#FF6E40" d="M137.186 24.666v-.003c-.455-1.43-1.118-2.641-1.973-3.6a7.999 7.999 0 0 0-3.312-2.24c-1.683-.599-3.61-.698-5.321-.46a3.499 3.499 0 0 0-2.979-1.662h-6.912a3.5 3.5 0 0 0-3.42 2.761 3.5 3.5 0 0 0-2.435-.985h-6.912c-.954 0-1.833.385-2.472 1.022a3.5 3.5 0 0 0-2.472-1.022h-6.912c-.408 0-.803.07-1.17.201l1.186-5.572a3.5 3.5 0 0 0-3.892-4.197l-7.103.96a3.5 3.5 0 0 0-2.953 2.733L76.9 18.333l-.024-.002a14.603 14.603 0 0 0-1.61-.094c-1.915 0-3.695.376-5.293 1.119a15.119 15.119 0 0 0-4.027 2.745c-.468.444-.913.918-1.33 1.419l2.217-10.414a3.5 3.5 0 0 0-3.892-4.197l-7.103.96a3.5 3.5 0 0 0-2.953 2.733l-1.232 5.731a14.61 14.61 0 0 0-1.634-.096c-1.915 0-3.695.376-5.292 1.118a15.092 15.092 0 0 0-4.028 2.746c-.157.15-.312.301-.463.457a7.013 7.013 0 0 0-1.21-1.785c-.774-.834-1.775-1.483-2.98-1.933-1.092-.406-2.347-.603-3.835-.603-2.123 0-4.076.394-5.804 1.172a14.9 14.9 0 0 0-3.433 2.14 7.723 7.723 0 0 0-.53-.829c-1.22-1.601-3.087-2.483-5.257-2.483-1.137 0-2.272.246-3.389.735a3.497 3.497 0 0 0-1.794-.495H5.093a3.5 3.5 0 0 0-3.424 2.774L-3.42 45.252a3.498 3.498 0 0 0 3.424 4.226h6.911a3.5 3.5 0 0 0 3.425-2.78L13.6 31.221c.667.552 1.66 1.01 3.055 1.089-.23.875-.432 1.744-.57 2.595-.22 1.365-.333 2.619-.333 3.728 0 3.77 1.099 6.632 3.264 8.504 2.017 1.744 4.632 2.629 7.772 2.629 2.028 0 3.925-.34 5.639-1.007a18.245 18.245 0 0 0 4.223-2.322c.168.2.342.391.525.573a9.013 9.013 0 0 0 3.327 2.14c2.297.83 4.97.8 7.115.021a11.855 11.855 0 0 0 2.903-1.536c1.453 1.222 3.27 1.843 5.404 1.843.864 0 1.83-.103 2.866-.303 1.293-.247 2.594-.807 3.865-1.662l.173-.12a8.901 8.901 0 0 0 2.922 1.756c2.295.83 4.971.8 7.112.022a11.823 11.823 0 0 0 2.905-1.536c1.453 1.222 3.27 1.843 5.404 1.843.865 0 1.832-.103 2.865-.303 1.232-.235 2.47-.754 3.68-1.54 2.129 1.852 4.897 2.524 8.14 1.898a9.968 9.968 0 0 0 2.733-.985c.419-.22.837-.48 1.25-.778 1.04.935 2.824 1.996 5.571 1.996.464 0 .944-.032 1.45-.096l-1.61 7.581a3.504 3.504 0 0 0 .98 3.232 3.505 3.505 0 0 0 3.255.899l7.248-1.728a3.498 3.498 0 0 0 2.612-2.674l1.556-7.306c.498.061 1.03.092 1.597.092 2.03 0 3.896-.38 5.546-1.128 1.592-.72 2.989-1.687 4.15-2.872a15.79 15.79 0 0 0 2.81-3.943 24.793 24.793 0 0 0 1.677-4.25c.421-1.445.72-2.907.886-4.348.158-1.377.238-2.69.238-3.904 0-1.816-.202-3.339-.619-4.655z"/><path fill="#FF6E40" d="M137.286 24.566v-.003c-.455-1.43-1.118-2.641-1.973-3.6a7.999 7.999 0 0 0-3.312-2.24c-1.683-.599-3.61-.698-5.321-.46a3.499 3.499 0 0 0-2.979-1.662h-6.912a3.5 3.5 0 0 0-3.42 2.761 3.5 3.5 0 0 0-2.435-.985h-6.912c-.954 0-1.833.385-2.472 1.022a3.5 3.5 0 0 0-2.472-1.022h-6.912c-.408 0-.803.07-1.17.201l1.186-5.572a3.5 3.5 0 0 0-3.892-4.197l-7.103.96a3.5 3.5 0 0 0-2.953 2.733L77 18.233l-.024-.002a14.603 14.603 0 0 0-1.61-.094c-1.915 0-3.695.376-5.293 1.119A15.119 15.119 0 0 0 66.047 22c-.468.444-.913.918-1.33 1.419l2.217-10.414a3.5 3.5 0 0 0-3.892-4.197l-7.103.96a3.5 3.5 0 0 0-2.953 2.733l-1.232 5.731a14.61 14.61 0 0 0-1.634-.096c-1.915 0-3.695.376-5.292 1.118a15.092 15.092 0 0 0-4.028 2.746c-.157.15-.312.301-.463.457a7.013 7.013 0 0 0-1.21-1.785c-.774-.834-1.775-1.483-2.98-1.933-1.092-.406-2.347-.603-3.835-.603-2.123 0-4.076.394-5.804 1.172a14.9 14.9 0 0 0-3.433 2.14 7.723 7.723 0 0 0-.53-.829c-1.22-1.601-3.087-2.483-5.257-2.483-1.137 0-2.272.246-3.389.735a3.497 3.497 0 0 0-1.794-.495H5.193a3.5 3.5 0 0 0-3.424 2.774L-3.32 45.152a3.498 3.498 0 0 0 3.424 4.226h6.911a3.5 3.5 0 0 0 3.425-2.78L13.7 31.121c.667.552 1.66 1.01 3.055 1.089-.23.875-.432 1.744-.57 2.595-.22 1.365-.333 2.619-.333 3.728 0 3.77 1.099 6.632 3.264 8.504 2.017 1.744 4.632 2.629 7.772 2.629 2.028 0 3.925-.34 5.639-1.007a18.245 18.245 0 0 0 4.223-2.322c.168.2.342.391.525.573a9.013 9.013 0 0 0 3.327 2.14c2.297.83 4.97.8 7.115.021a11.855 11.855 0 0 0 2.903-1.536c1.453 1.222 3.27 1.843 5.404 1.843.864 0 1.83-.103 2.866-.303 1.293-.247 2.594-.807 3.865-1.662l.173-.12a8.901 8.901 0 0 0 2.922 1.756c2.295.83 4.971.8 7.112.022a11.823 11.823 0 0 0 2.905-1.536c1.453 1.222 3.27 1.843 5.404 1.843.865 0 1.832-.103 2.865-.303 1.232-.235 2.47-.754 3.68-1.54 2.129 1.852 4.897 2.524 8.14 1.898a9.968 9.968 0 0 0 2.733-.985c.419-.22.837-.48 1.25-.778 1.04.935 2.824 1.996 5.571 1.996.464 0 .944-.032 1.45-.096l-1.61 7.581a3.504 3.504 0 0 0 .98 3.232 3.505 3.505 0 0 0 3.255.899l7.248-1.728a3.498 3.498 0 0 0 2.612-2.674L121 49.574c.498.061 1.03.092 1.597.092 2.03 0 3.896-.38 5.546-1.128 1.592-.72 2.989-1.687 4.15-2.872a15.79 15.79 0 0 0 2.81-3.943 24.793 24.793 0 0 0 1.677-4.25c.421-1.445.72-2.907.886-4.348.158-1.377.238-2.69.238-3.904 0-1.816-.202-3.339-.619-4.655z"/><path fill="#FF6E40" d="M137.386 24.466v-.003c-.455-1.43-1.118-2.641-1.973-3.6a7.999 7.999 0 0 0-3.312-2.24c-1.683-.599-3.61-.698-5.321-.46a3.499 3.499 0 0 0-2.979-1.662h-6.912a3.5 3.5 0 0 0-3.42 2.761 3.5 3.5 0 0 0-2.435-.985h-6.912c-.954 0-1.833.385-2.472 1.022a3.5 3.5 0 0 0-2.472-1.022h-6.912c-.408 0-.803.07-1.17.201l1.186-5.572a3.5 3.5 0 0 0-3.892-4.197l-7.103.96a3.5 3.5 0 0 0-2.953 2.733L77.1 18.133l-.024-.002a14.603 14.603 0 0 0-1.61-.094c-1.915 0-3.695.376-5.293 1.119a15.119 15.119 0 0 0-4.027 2.745c-.468.444-.913.918-1.33 1.419l2.217-10.414a3.5 3.5 0 0 0-3.892-4.197l-7.103.96a3.5 3.5 0 0 0-2.953 2.733l-1.232 5.731a14.61 14.61 0 0 0-1.634-.096c-1.915 0-3.695.376-5.292 1.118a15.092 15.092 0 0 0-4.028 2.746c-.157.15-.312.301-.463.457a7.013 7.013 0 0 0-1.21-1.785c-.774-.834-1.775-1.483-2.98-1.933-1.092-.406-2.347-.603-3.835-.603-2.123 0-4.076.394-5.804 1.172a14.9 14.9 0 0 0-3.433 2.14 7.723 7.723 0 0 0-.53-.829c-1.22-1.601-3.087-2.483-5.257-2.483-1.137 0-2.272.246-3.389.735a3.497 3.497 0 0 0-1.794-.495H5.293a3.5 3.5 0 0 0-3.424 2.774L-3.22 45.052a3.498 3.498 0 0 0 3.424 4.226h6.911a3.5 3.5 0 0 0 3.425-2.78L13.8 31.021c.667.552 1.66 1.01 3.055 1.089-.23.875-.432 1.744-.57 2.595-.22 1.365-.333 2.619-.333 3.728 0 3.77 1.099 6.632 3.264 8.504 2.017 1.744 4.632 2.629 7.772 2.629 2.028 0 3.925-.34 5.639-1.007a18.245 18.245 0 0 0 4.223-2.322c.168.2.342.391.525.573a9.013 9.013 0 0 0 3.327 2.14c2.297.83 4.97.8 7.115.021a11.855 11.855 0 0 0 2.903-1.536c1.453 1.222 3.27 1.843 5.404 1.843.864 0 1.83-.103 2.866-.303 1.293-.247 2.594-.807 3.865-1.662l.173-.12a8.901 8.901 0 0 0 2.922 1.756c2.295.83 4.971.8 7.112.022a11.823 11.823 0 0 0 2.905-1.536c1.453 1.222 3.27 1.843 5.404 1.843.865 0 1.832-.103 2.865-.303 1.232-.235 2.47-.754 3.68-1.54 2.129 1.852 4.897 2.524 8.14 1.898a9.968 9.968 0 0 0 2.733-.985c.419-.22.837-.48 1.25-.778 1.04.935 2.824 1.996 5.571 1.996.464 0 .944-.032 1.45-.096l-1.61 7.581a3.504 3.504 0 0 0 .98 3.232 3.505 3.505 0 0 0 3.255.899l7.248-1.728a3.498 3.498 0 0 0 2.612-2.674l1.556-7.306c.498.061 1.03.092 1.597.092 2.03 0 3.896-.38 5.546-1.128 1.592-.72 2.989-1.687 4.15-2.872a15.79 15.79 0 0 0 2.81-3.943 24.793 24.793 0 0 0 1.677-4.25c.421-1.445.72-2.907.886-4.348.158-1.377.238-2.69.238-3.904 0-1.816-.202-3.339-.619-4.655z"/><path fill="#FF6E40" d="M137.486 24.366v-.003c-.455-1.43-1.118-2.641-1.973-3.6a7.999 7.999 0 0 0-3.312-2.24c-1.683-.599-3.61-.698-5.321-.46a3.499 3.499 0 0 0-2.979-1.662h-6.912a3.5 3.5 0 0 0-3.42 2.761 3.5 3.5 0 0 0-2.435-.985h-6.912c-.954 0-1.833.385-2.472 1.022a3.5 3.5 0 0 0-2.472-1.022h-6.912c-.408 0-.803.07-1.17.201l1.186-5.572a3.5 3.5 0 0 0-3.892-4.197l-7.103.96a3.5 3.5 0 0 0-2.953 2.733L77.2 18.033l-.024-.002a14.603 14.603 0 0 0-1.61-.094c-1.915 0-3.695.376-5.293 1.119a15.119 15.119 0 0 0-4.027 2.745c-.468.444-.913.918-1.33 1.419l2.217-10.414a3.5 3.5 0 0 0-3.892-4.197l-7.103.96a3.5 3.5 0 0 0-2.953 2.733l-1.232 5.731a14.61 14.61 0 0 0-1.634-.096c-1.915 0-3.695.376-5.292 1.118A15.092 15.092 0 0 0 41 21.801c-.157.15-.312.301-.463.457a7.013 7.013 0 0 0-1.21-1.785c-.774-.834-1.775-1.483-2.98-1.933-1.092-.406-2.347-.603-3.835-.603-2.123 0-4.076.394-5.804 1.172a14.9 14.9 0 0 0-3.433 2.14 7.723 7.723 0 0 0-.53-.829c-1.22-1.601-3.087-2.483-5.257-2.483-1.137 0-2.272.246-3.389.735a3.497 3.497 0 0 0-1.794-.495H5.393a3.5 3.5 0 0 0-3.424 2.774L-3.12 44.952a3.498 3.498 0 0 0 3.424 4.226h6.911a3.5 3.5 0 0 0 3.425-2.78L13.9 30.921c.667.552 1.66 1.01 3.055 1.089-.23.875-.432 1.744-.57 2.595-.22 1.365-.333 2.619-.333 3.728 0 3.77 1.099 6.632 3.264 8.504 2.017 1.744 4.632 2.629 7.772 2.629 2.028 0 3.925-.34 5.639-1.007a18.245 18.245 0 0 0 4.223-2.322c.168.2.342.391.525.573a9.013 9.013 0 0 0 3.327 2.14c2.297.83 4.97.8 7.115.021a11.855 11.855 0 0 0 2.903-1.536c1.453 1.222 3.27 1.843 5.404 1.843.864 0 1.83-.103 2.866-.303 1.293-.247 2.594-.807 3.865-1.662l.173-.12a8.901 8.901 0 0 0 2.922 1.756c2.295.83 4.971.8 7.112.022a11.823 11.823 0 0 0 2.905-1.536c1.453 1.222 3.27 1.843 5.404 1.843.865 0 1.832-.103 2.865-.303 1.232-.235 2.47-.754 3.68-1.54 2.129 1.852 4.897 2.524 8.14 1.898a9.968 9.968 0 0 0 2.733-.985c.419-.22.837-.48 1.25-.778 1.04.935 2.824 1.996 5.571 1.996.464 0 .944-.032 1.45-.096l-1.61 7.581a3.504 3.504 0 0 0 .98 3.232 3.505 3.505 0 0 0 3.255.899l7.248-1.728a3.498 3.498 0 0 0 2.612-2.674l1.556-7.306c.498.061 1.03.092 1.597.092 2.03 0 3.896-.38 5.546-1.128 1.592-.72 2.989-1.687 4.15-2.872a15.79 15.79 0 0 0 2.81-3.943 24.793 24.793 0 0 0 1.677-4.25c.421-1.445.72-2.907.886-4.348.158-1.377.238-2.69.238-3.904 0-1.816-.202-3.339-.619-4.655z"/><path fill="#FF6E40" d="M137.586 24.266v-.003c-.455-1.43-1.118-2.641-1.973-3.6a7.999 7.999 0 0 0-3.312-2.24c-1.683-.599-3.61-.698-5.321-.46A3.499 3.499 0 0 0 124 16.301h-6.912a3.5 3.5 0 0 0-3.42 2.761 3.5 3.5 0 0 0-2.435-.985h-6.912c-.954 0-1.833.385-2.472 1.022a3.5 3.5 0 0 0-2.472-1.022h-6.912c-.408 0-.803.07-1.17.201l1.186-5.572a3.5 3.5 0 0 0-3.892-4.197l-7.103.96a3.5 3.5 0 0 0-2.953 2.733L77.3 17.933l-.024-.002a14.603 14.603 0 0 0-1.61-.094c-1.915 0-3.695.376-5.293 1.119a15.119 15.119 0 0 0-4.027 2.745c-.468.444-.913.918-1.33 1.419l2.217-10.414a3.5 3.5 0 0 0-3.892-4.197l-7.103.96a3.5 3.5 0 0 0-2.953 2.733l-1.232 5.731a14.61 14.61 0 0 0-1.634-.096c-1.915 0-3.695.376-5.292 1.118a15.092 15.092 0 0 0-4.028 2.746c-.157.15-.312.301-.463.457a7.013 7.013 0 0 0-1.21-1.785c-.774-.834-1.775-1.483-2.98-1.933-1.092-.406-2.347-.603-3.835-.603-2.123 0-4.076.394-5.804 1.172a14.9 14.9 0 0 0-3.433 2.14 7.723 7.723 0 0 0-.53-.829c-1.22-1.601-3.087-2.483-5.257-2.483-1.137 0-2.272.246-3.389.735a3.497 3.497 0 0 0-1.794-.495H5.493a3.5 3.5 0 0 0-3.424 2.774L-3.02 44.852a3.498 3.498 0 0 0 3.424 4.226h6.911a3.5 3.5 0 0 0 3.425-2.78L14 30.821c.667.552 1.66 1.01 3.055 1.089-.23.875-.432 1.744-.57 2.595-.22 1.365-.333 2.619-.333 3.728 0 3.77 1.099 6.632 3.264 8.504 2.017 1.744 4.632 2.629 7.772 2.629 2.028 0 3.925-.34 5.639-1.007a18.245 18.245 0 0 0 4.223-2.322c.168.2.342.391.525.573a9.013 9.013 0 0 0 3.327 2.14c2.297.83 4.97.8 7.115.021a11.855 11.855 0 0 0 2.903-1.536c1.453 1.222 3.27 1.843 5.404 1.843.864 0 1.83-.103 2.866-.303 1.293-.247 2.594-.807 3.865-1.662l.173-.12a8.901 8.901 0 0 0 2.922 1.756c2.295.83 4.971.8 7.112.022a11.823 11.823 0 0 0 2.905-1.536c1.453 1.222 3.27 1.843 5.404 1.843.865 0 1.832-.103 2.865-.303 1.232-.235 2.47-.754 3.68-1.54 2.129 1.852 4.897 2.524 8.14 1.898a9.968 9.968 0 0 0 2.733-.985c.419-.22.837-.48 1.25-.778 1.04.935 2.824 1.996 5.571 1.996.464 0 .944-.032 1.45-.096l-1.61 7.581a3.504 3.504 0 0 0 .98 3.232 3.505 3.505 0 0 0 3.255.899l7.248-1.728a3.498 3.498 0 0 0 2.612-2.674l1.556-7.306c.498.061 1.03.092 1.597.092 2.03 0 3.896-.38 5.546-1.128 1.592-.72 2.989-1.687 4.15-2.872a15.79 15.79 0 0 0 2.81-3.943 24.793 24.793 0 0 0 1.677-4.25c.421-1.445.72-2.907.886-4.348.158-1.377.238-2.69.238-3.904 0-1.816-.202-3.339-.619-4.655z"/><path fill="#FF6E40" d="M137.686 24.166v-.003c-.455-1.43-1.118-2.641-1.973-3.6a7.999 7.999 0 0 0-3.312-2.24c-1.683-.599-3.61-.698-5.321-.46a3.499 3.499 0 0 0-2.979-1.662h-6.912a3.5 3.5 0 0 0-3.42 2.761 3.5 3.5 0 0 0-2.435-.985h-6.912c-.954 0-1.833.385-2.472 1.022a3.5 3.5 0 0 0-2.472-1.022h-6.912c-.408 0-.803.07-1.17.201l1.186-5.572a3.5 3.5 0 0 0-3.892-4.197l-7.103.96a3.5 3.5 0 0 0-2.953 2.733L77.4 17.833l-.024-.002a14.603 14.603 0 0 0-1.61-.094c-1.915 0-3.695.376-5.293 1.119a15.119 15.119 0 0 0-4.027 2.745c-.468.444-.913.918-1.33 1.419l2.217-10.414a3.5 3.5 0 0 0-3.892-4.197l-7.103.96a3.5 3.5 0 0 0-2.953 2.733l-1.232 5.731a14.61 14.61 0 0 0-1.634-.096c-1.915 0-3.695.376-5.292 1.118a15.092 15.092 0 0 0-4.028 2.746c-.157.15-.312.301-.463.457a7.013 7.013 0 0 0-1.21-1.785c-.774-.834-1.775-1.483-2.98-1.933-1.092-.406-2.347-.603-3.835-.603-2.123 0-4.076.394-5.804 1.172a14.9 14.9 0 0 0-3.433 2.14 7.723 7.723 0 0 0-.53-.829c-1.22-1.601-3.087-2.483-5.257-2.483-1.137 0-2.272.246-3.389.735a3.497 3.497 0 0 0-1.794-.495H5.593a3.5 3.5 0 0 0-3.424 2.774L-2.92 44.752a3.498 3.498 0 0 0 3.424 4.226h6.911a3.5 3.5 0 0 0 3.425-2.78L14.1 30.721c.667.552 1.66 1.01 3.055 1.089-.23.875-.432 1.744-.57 2.595-.22 1.365-.333 2.619-.333 3.728 0 3.77 1.099 6.632 3.264 8.504 2.017 1.744 4.632 2.629 7.772 2.629 2.028 0 3.925-.34 5.639-1.007a18.245 18.245 0 0 0 4.223-2.322c.168.2.342.391.525.573a9.013 9.013 0 0 0 3.327 2.14c2.297.83 4.97.8 7.115.021a11.855 11.855 0 0 0 2.903-1.536c1.453 1.222 3.27 1.843 5.404 1.843.864 0 1.83-.103 2.866-.303 1.293-.247 2.594-.807 3.865-1.662l.173-.12a8.901 8.901 0 0 0 2.922 1.756c2.295.83 4.971.8 7.112.022a11.823 11.823 0 0 0 2.905-1.536c1.453 1.222 3.27 1.843 5.404 1.843.865 0 1.832-.103 2.865-.303 1.232-.235 2.47-.754 3.68-1.54 2.129 1.852 4.897 2.524 8.14 1.898a9.968 9.968 0 0 0 2.733-.985c.419-.22.837-.48 1.25-.778 1.04.935 2.824 1.996 5.571 1.996.464 0 .944-.032 1.45-.096l-1.61 7.581a3.504 3.504 0 0 0 .98 3.232 3.505 3.505 0 0 0 3.255.899l7.248-1.728a3.498 3.498 0 0 0 2.612-2.674l1.556-7.306c.498.061 1.03.092 1.597.092 2.03 0 3.896-.38 5.546-1.128 1.592-.72 2.989-1.687 4.15-2.872a15.79 15.79 0 0 0 2.81-3.943 24.793 24.793 0 0 0 1.677-4.25c.421-1.445.72-2.907.886-4.348.158-1.377.238-2.69.238-3.904 0-1.816-.202-3.339-.619-4.655z"/><path fill="#FF6E40" d="M137.786 24.066v-.003c-.455-1.43-1.118-2.641-1.973-3.6a7.999 7.999 0 0 0-3.312-2.24c-1.683-.599-3.61-.698-5.321-.46a3.499 3.499 0 0 0-2.979-1.662h-6.912a3.5 3.5 0 0 0-3.42 2.761 3.5 3.5 0 0 0-2.435-.985h-6.912c-.954 0-1.833.385-2.472 1.022a3.5 3.5 0 0 0-2.472-1.022h-6.912c-.408 0-.803.07-1.17.201l1.186-5.572a3.5 3.5 0 0 0-3.892-4.197l-7.103.96a3.5 3.5 0 0 0-2.953 2.733L77.5 17.733l-.024-.002a14.603 14.603 0 0 0-1.61-.094c-1.915 0-3.695.376-5.293 1.119a15.119 15.119 0 0 0-4.027 2.745c-.468.444-.913.918-1.33 1.419l2.217-10.414a3.5 3.5 0 0 0-3.892-4.197l-7.103.96a3.5 3.5 0 0 0-2.953 2.733l-1.232 5.731a14.61 14.61 0 0 0-1.634-.096c-1.915 0-3.695.376-5.292 1.118a15.092 15.092 0 0 0-4.028 2.746c-.157.15-.312.301-.463.457a7.013 7.013 0 0 0-1.21-1.785c-.774-.834-1.775-1.483-2.98-1.933-1.092-.406-2.347-.603-3.835-.603-2.123 0-4.076.394-5.804 1.172a14.9 14.9 0 0 0-3.433 2.14 7.723 7.723 0 0 0-.53-.829c-1.22-1.601-3.087-2.483-5.257-2.483-1.137 0-2.272.246-3.389.735a3.497 3.497 0 0 0-1.794-.495H5.693a3.5 3.5 0 0 0-3.424 2.774L-2.82 44.652a3.498 3.498 0 0 0 3.424 4.226h6.911a3.5 3.5 0 0 0 3.425-2.78L14.2 30.621c.667.552 1.66 1.01 3.055 1.089-.23.875-.432 1.744-.57 2.595-.22 1.365-.333 2.619-.333 3.728 0 3.77 1.099 6.632 3.264 8.504 2.017 1.744 4.632 2.629 7.772 2.629 2.028 0 3.925-.34 5.639-1.007a18.245 18.245 0 0 0 4.223-2.322c.168.2.342.391.525.573a9.013 9.013 0 0 0 3.327 2.14c2.297.83 4.97.8 7.115.021a11.855 11.855 0 0 0 2.903-1.536c1.453 1.222 3.27 1.843 5.404 1.843.864 0 1.83-.103 2.866-.303 1.293-.247 2.594-.807 3.865-1.662l.173-.12a8.901 8.901 0 0 0 2.922 1.756c2.295.83 4.971.8 7.112.022a11.823 11.823 0 0 0 2.905-1.536c1.453 1.222 3.27 1.843 5.404 1.843.865 0 1.832-.103 2.865-.303 1.232-.235 2.47-.754 3.68-1.54 2.129 1.852 4.897 2.524 8.14 1.898a9.968 9.968 0 0 0 2.733-.985c.419-.22.837-.48 1.25-.778 1.04.935 2.824 1.996 5.571 1.996.464 0 .944-.032 1.45-.096l-1.61 7.581a3.504 3.504 0 0 0 .98 3.232 3.505 3.505 0 0 0 3.255.899l7.248-1.728a3.498 3.498 0 0 0 2.612-2.674l1.556-7.306c.498.061 1.03.092 1.597.092 2.03 0 3.896-.38 5.546-1.128 1.592-.72 2.989-1.687 4.15-2.872a15.79 15.79 0 0 0 2.81-3.943 24.793 24.793 0 0 0 1.677-4.25c.421-1.445.72-2.907.886-4.348.158-1.377.238-2.69.238-3.904 0-1.816-.202-3.339-.619-4.655z"/><path fill="#FF6E40" d="M137.886 23.966v-.003c-.455-1.43-1.118-2.641-1.973-3.6a7.999 7.999 0 0 0-3.312-2.24c-1.683-.599-3.61-.698-5.321-.46a3.499 3.499 0 0 0-2.979-1.662h-6.912a3.5 3.5 0 0 0-3.42 2.761 3.5 3.5 0 0 0-2.435-.985h-6.912c-.954 0-1.833.385-2.472 1.022a3.5 3.5 0 0 0-2.472-1.022h-6.912c-.408 0-.803.07-1.17.201l1.186-5.572a3.5 3.5 0 0 0-3.892-4.197l-7.103.96a3.5 3.5 0 0 0-2.953 2.733L77.6 17.633l-.024-.002a14.603 14.603 0 0 0-1.61-.094c-1.915 0-3.695.376-5.293 1.119a15.119 15.119 0 0 0-4.027 2.745c-.468.444-.913.918-1.33 1.419l2.217-10.414a3.5 3.5 0 0 0-3.892-4.197l-7.103.96a3.5 3.5 0 0 0-2.953 2.733l-1.232 5.731a14.61 14.61 0 0 0-1.634-.096c-1.915 0-3.695.376-5.292 1.118a15.092 15.092 0 0 0-4.028 2.746c-.157.15-.312.301-.463.457a7.013 7.013 0 0 0-1.21-1.785c-.774-.834-1.775-1.483-2.98-1.933-1.092-.406-2.347-.603-3.835-.603-2.123 0-4.076.394-5.804 1.172a14.9 14.9 0 0 0-3.433 2.14 7.723 7.723 0 0 0-.53-.829c-1.22-1.601-3.087-2.483-5.257-2.483-1.137 0-2.272.246-3.389.735a3.497 3.497 0 0 0-1.794-.495H5.793a3.5 3.5 0 0 0-3.424 2.774L-2.72 44.552a3.498 3.498 0 0 0 3.424 4.226h6.911a3.5 3.5 0 0 0 3.425-2.78L14.3 30.521c.667.552 1.66 1.01 3.055 1.089-.23.875-.432 1.744-.57 2.595-.22 1.365-.333 2.619-.333 3.728 0 3.77 1.099 6.632 3.264 8.504 2.017 1.744 4.632 2.629 7.772 2.629 2.028 0 3.925-.34 5.639-1.007a18.245 18.245 0 0 0 4.223-2.322c.168.2.342.391.525.573a9.013 9.013 0 0 0 3.327 2.14c2.297.83 4.97.8 7.115.021a11.855 11.855 0 0 0 2.903-1.536c1.453 1.222 3.27 1.843 5.404 1.843.864 0 1.83-.103 2.866-.303 1.293-.247 2.594-.807 3.865-1.662l.173-.12a8.901 8.901 0 0 0 2.922 1.756c2.295.83 4.971.8 7.112.022a11.823 11.823 0 0 0 2.905-1.536c1.453 1.222 3.27 1.843 5.404 1.843.865 0 1.832-.103 2.865-.303 1.232-.235 2.47-.754 3.68-1.54 2.129 1.852 4.897 2.524 8.14 1.898a9.968 9.968 0 0 0 2.733-.985c.419-.22.837-.48 1.25-.778 1.04.935 2.824 1.996 5.571 1.996.464 0 .944-.032 1.45-.096l-1.61 7.581a3.504 3.504 0 0 0 .98 3.232 3.505 3.505 0 0 0 3.255.899l7.248-1.728a3.498 3.498 0 0 0 2.612-2.674l1.556-7.306c.498.061 1.03.092 1.597.092 2.03 0 3.896-.38 5.546-1.128 1.592-.72 2.989-1.687 4.15-2.872a15.79 15.79 0 0 0 2.81-3.943 24.793 24.793 0 0 0 1.677-4.25c.421-1.445.72-2.907.886-4.348.158-1.377.238-2.69.238-3.904 0-1.816-.202-3.339-.619-4.655z"/><path fill="#FF6E40" d="M137.986 23.866v-.003c-.455-1.43-1.118-2.641-1.973-3.6a7.999 7.999 0 0 0-3.312-2.24c-1.683-.599-3.61-.698-5.321-.46a3.499 3.499 0 0 0-2.979-1.662h-6.912a3.5 3.5 0 0 0-3.42 2.761 3.5 3.5 0 0 0-2.435-.985h-6.912c-.954 0-1.833.385-2.472 1.022a3.5 3.5 0 0 0-2.472-1.022h-6.912c-.408 0-.803.07-1.17.201l1.186-5.572a3.5 3.5 0 0 0-3.892-4.197l-7.103.96a3.5 3.5 0 0 0-2.953 2.733L77.7 17.533l-.024-.002a14.603 14.603 0 0 0-1.61-.094c-1.915 0-3.695.376-5.293 1.119a15.119 15.119 0 0 0-4.027 2.745c-.468.444-.913.918-1.33 1.419l2.217-10.414a3.5 3.5 0 0 0-3.892-4.197l-7.103.96a3.5 3.5 0 0 0-2.953 2.733l-1.232 5.731a14.61 14.61 0 0 0-1.634-.096c-1.915 0-3.695.376-5.292 1.118a15.092 15.092 0 0 0-4.028 2.746c-.157.15-.312.301-.463.457a7.013 7.013 0 0 0-1.21-1.785c-.774-.834-1.775-1.483-2.98-1.933-1.092-.406-2.347-.603-3.835-.603-2.123 0-4.076.394-5.804 1.172a14.9 14.9 0 0 0-3.433 2.14 7.723 7.723 0 0 0-.53-.829c-1.22-1.601-3.087-2.483-5.257-2.483-1.137 0-2.272.246-3.389.735a3.497 3.497 0 0 0-1.794-.495H5.893a3.5 3.5 0 0 0-3.424 2.774L-2.62 44.452a3.498 3.498 0 0 0 3.424 4.226h6.911a3.5 3.5 0 0 0 3.425-2.78L14.4 30.421c.667.552 1.66 1.01 3.055 1.089-.23.875-.432 1.744-.57 2.595-.22 1.365-.333 2.619-.333 3.728 0 3.77 1.099 6.632 3.264 8.504 2.017 1.744 4.632 2.629 7.772 2.629 2.028 0 3.925-.34 5.639-1.007a18.245 18.245 0 0 0 4.223-2.322c.168.2.342.391.525.573a9.013 9.013 0 0 0 3.327 2.14c2.297.83 4.97.8 7.115.021a11.855 11.855 0 0 0 2.903-1.536c1.453 1.222 3.27 1.843 5.404 1.843.864 0 1.83-.103 2.866-.303 1.293-.247 2.594-.807 3.865-1.662l.173-.12a8.901 8.901 0 0 0 2.922 1.756c2.295.83 4.971.8 7.112.022a11.823 11.823 0 0 0 2.905-1.536c1.453 1.222 3.27 1.843 5.404 1.843.865 0 1.832-.103 2.865-.303 1.232-.235 2.47-.754 3.68-1.54 2.129 1.852 4.897 2.524 8.14 1.898a9.968 9.968 0 0 0 2.733-.985c.419-.22.837-.48 1.25-.778 1.04.935 2.824 1.996 5.571 1.996.464 0 .944-.032 1.45-.096l-1.61 7.581a3.504 3.504 0 0 0 .98 3.232 3.505 3.505 0 0 0 3.255.899l7.248-1.728a3.498 3.498 0 0 0 2.612-2.674l1.556-7.306c.498.061 1.03.092 1.597.092 2.03 0 3.896-.38 5.546-1.128 1.592-.72 2.989-1.687 4.15-2.872a15.79 15.79 0 0 0 2.81-3.943 24.793 24.793 0 0 0 1.677-4.25c.421-1.445.72-2.907.886-4.348.158-1.377.238-2.69.238-3.904 0-1.816-.202-3.339-.619-4.655z"/><path fill="#FF6E40" d="M138.086 23.766v-.003c-.455-1.43-1.118-2.641-1.973-3.6a7.999 7.999 0 0 0-3.312-2.24c-1.683-.599-3.61-.698-5.321-.46a3.499 3.499 0 0 0-2.979-1.662h-6.912a3.5 3.5 0 0 0-3.42 2.761 3.5 3.5 0 0 0-2.435-.985h-6.912c-.954 0-1.833.385-2.472 1.022a3.5 3.5 0 0 0-2.472-1.022h-6.912c-.408 0-.803.07-1.17.201l1.186-5.572a3.5 3.5 0 0 0-3.892-4.197l-7.103.96a3.5 3.5 0 0 0-2.953 2.733L77.8 17.433l-.024-.002a14.603 14.603 0 0 0-1.61-.094c-1.915 0-3.695.376-5.293 1.119a15.119 15.119 0 0 0-4.027 2.745c-.468.444-.913.918-1.33 1.419l2.217-10.414a3.5 3.5 0 0 0-3.892-4.197l-7.103.96a3.5 3.5 0 0 0-2.953 2.733l-1.232 5.731a14.61 14.61 0 0 0-1.634-.096c-1.915 0-3.695.376-5.292 1.118a15.092 15.092 0 0 0-4.028 2.746c-.157.15-.312.301-.463.457a7.013 7.013 0 0 0-1.21-1.785c-.774-.834-1.775-1.483-2.98-1.933-1.092-.406-2.347-.603-3.835-.603-2.123 0-4.076.394-5.804 1.172a14.9 14.9 0 0 0-3.433 2.14 7.723 7.723 0 0 0-.53-.829c-1.22-1.601-3.087-2.483-5.257-2.483-1.137 0-2.272.246-3.389.735a3.497 3.497 0 0 0-1.794-.495H5.993a3.5 3.5 0 0 0-3.424 2.774L-2.52 44.352a3.498 3.498 0 0 0 3.424 4.226h6.911a3.5 3.5 0 0 0 3.425-2.78L14.5 30.321c.667.552 1.66 1.01 3.055 1.089-.23.875-.432 1.744-.57 2.595-.22 1.365-.333 2.619-.333 3.728 0 3.77 1.099 6.632 3.264 8.504 2.017 1.744 4.632 2.629 7.772 2.629 2.028 0 3.925-.34 5.639-1.007a18.245 18.245 0 0 0 4.223-2.322c.168.2.342.391.525.573a9.013 9.013 0 0 0 3.327 2.14c2.297.83 4.97.8 7.115.021a11.855 11.855 0 0 0 2.903-1.536c1.453 1.222 3.27 1.843 5.404 1.843.864 0 1.83-.103 2.866-.303 1.293-.247 2.594-.807 3.865-1.662l.173-.12a8.901 8.901 0 0 0 2.922 1.756c2.295.83 4.971.8 7.112.022a11.823 11.823 0 0 0 2.905-1.536c1.453 1.222 3.27 1.843 5.404 1.843.865 0 1.832-.103 2.865-.303 1.232-.235 2.47-.754 3.68-1.54 2.129 1.852 4.897 2.524 8.14 1.898a9.968 9.968 0 0 0 2.733-.985c.419-.22.837-.48 1.25-.778 1.04.935 2.824 1.996 5.571 1.996.464 0 .944-.032 1.45-.096l-1.61 7.581a3.504 3.504 0 0 0 .98 3.232 3.505 3.505 0 0 0 3.255.899l7.248-1.728a3.498 3.498 0 0 0 2.612-2.674l1.556-7.306c.498.061 1.03.092 1.597.092 2.03 0 3.896-.38 5.546-1.128 1.592-.72 2.989-1.687 4.15-2.872a15.79 15.79 0 0 0 2.81-3.943 24.793 24.793 0 0 0 1.677-4.25c.421-1.445.72-2.907.886-4.348.158-1.377.238-2.69.238-3.904 0-1.816-.202-3.339-.619-4.655z"/><path fill="#FF6E40" d="M138.186 23.666v-.003c-.455-1.43-1.118-2.641-1.973-3.6a7.999 7.999 0 0 0-3.312-2.24c-1.683-.599-3.61-.698-5.321-.46a3.499 3.499 0 0 0-2.979-1.662h-6.912a3.5 3.5 0 0 0-3.42 2.761 3.5 3.5 0 0 0-2.435-.985h-6.912c-.954 0-1.833.385-2.472 1.022a3.5 3.5 0 0 0-2.472-1.022h-6.912c-.408 0-.803.07-1.17.201l1.186-5.572a3.5 3.5 0 0 0-3.892-4.197l-7.103.96a3.5 3.5 0 0 0-2.953 2.733L77.9 17.333l-.024-.002a14.603 14.603 0 0 0-1.61-.094c-1.915 0-3.695.376-5.293 1.119a15.119 15.119 0 0 0-4.027 2.745c-.468.444-.913.918-1.33 1.419l2.217-10.414a3.5 3.5 0 0 0-3.892-4.197l-7.103.96a3.5 3.5 0 0 0-2.953 2.733l-1.232 5.731a14.61 14.61 0 0 0-1.634-.096c-1.915 0-3.695.376-5.292 1.118a15.092 15.092 0 0 0-4.028 2.746c-.157.15-.312.301-.463.457a7.013 7.013 0 0 0-1.21-1.785c-.774-.834-1.775-1.483-2.98-1.933-1.092-.406-2.347-.603-3.835-.603-2.123 0-4.076.394-5.804 1.172a14.9 14.9 0 0 0-3.433 2.14 7.723 7.723 0 0 0-.53-.829c-1.22-1.601-3.087-2.483-5.257-2.483-1.137 0-2.272.246-3.389.735a3.497 3.497 0 0 0-1.794-.495H6.093a3.5 3.5 0 0 0-3.424 2.774L-2.42 44.252a3.498 3.498 0 0 0 3.424 4.226h6.911a3.5 3.5 0 0 0 3.425-2.78L14.6 30.221c.667.552 1.66 1.01 3.055 1.089-.23.875-.432 1.744-.57 2.595-.22 1.365-.333 2.619-.333 3.728 0 3.77 1.099 6.632 3.264 8.504 2.017 1.744 4.632 2.629 7.772 2.629 2.028 0 3.925-.34 5.639-1.007a18.245 18.245 0 0 0 4.223-2.322c.168.2.342.391.525.573a9.013 9.013 0 0 0 3.327 2.14c2.297.83 4.97.8 7.115.021a11.855 11.855 0 0 0 2.903-1.536c1.453 1.222 3.27 1.843 5.404 1.843.864 0 1.83-.103 2.866-.303 1.293-.247 2.594-.807 3.865-1.662l.173-.12a8.901 8.901 0 0 0 2.922 1.756c2.295.83 4.971.8 7.112.022a11.823 11.823 0 0 0 2.905-1.536c1.453 1.222 3.27 1.843 5.404 1.843.865 0 1.832-.103 2.865-.303 1.232-.235 2.47-.754 3.68-1.54 2.129 1.852 4.897 2.524 8.14 1.898a9.968 9.968 0 0 0 2.733-.985c.419-.22.837-.48 1.25-.778 1.04.935 2.824 1.996 5.571 1.996.464 0 .944-.032 1.45-.096l-1.61 7.581a3.504 3.504 0 0 0 .98 3.232 3.505 3.505 0 0 0 3.255.899l7.248-1.728a3.498 3.498 0 0 0 2.612-2.674l1.556-7.306c.498.061 1.03.092 1.597.092 2.03 0 3.896-.38 5.546-1.128 1.592-.72 2.989-1.687 4.15-2.872a15.79 15.79 0 0 0 2.81-3.943 24.793 24.793 0 0 0 1.677-4.25c.421-1.445.72-2.907.886-4.348.158-1.377.238-2.69.238-3.904 0-1.816-.202-3.339-.619-4.655z"/><path fill="#FF6E40" d="M138.286 23.566v-.003c-.455-1.43-1.118-2.641-1.973-3.6a7.999 7.999 0 0 0-3.312-2.24c-1.683-.599-3.61-.698-5.321-.46a3.499 3.499 0 0 0-2.979-1.662h-6.912a3.5 3.5 0 0 0-3.42 2.761 3.5 3.5 0 0 0-2.435-.985h-6.912c-.954 0-1.833.385-2.472 1.022a3.5 3.5 0 0 0-2.472-1.022h-6.912c-.408 0-.803.07-1.17.201l1.186-5.572a3.5 3.5 0 0 0-3.892-4.197l-7.103.96a3.5 3.5 0 0 0-2.953 2.733L78 17.233l-.024-.002a14.603 14.603 0 0 0-1.61-.094c-1.915 0-3.695.376-5.293 1.119A15.119 15.119 0 0 0 67.047 21c-.468.444-.913.918-1.33 1.419l2.217-10.414a3.5 3.5 0 0 0-3.892-4.197l-7.103.96a3.5 3.5 0 0 0-2.953 2.733l-1.232 5.731a14.61 14.61 0 0 0-1.634-.096c-1.915 0-3.695.376-5.292 1.118a15.092 15.092 0 0 0-4.028 2.746c-.157.15-.312.301-.463.457a7.013 7.013 0 0 0-1.21-1.785c-.774-.834-1.775-1.483-2.98-1.933-1.092-.406-2.347-.603-3.835-.603-2.123 0-4.076.394-5.804 1.172a14.9 14.9 0 0 0-3.433 2.14 7.723 7.723 0 0 0-.53-.829c-1.22-1.601-3.087-2.483-5.257-2.483-1.137 0-2.272.246-3.389.735a3.497 3.497 0 0 0-1.794-.495H6.193a3.5 3.5 0 0 0-3.424 2.774L-2.32 44.152a3.498 3.498 0 0 0 3.424 4.226h6.911a3.5 3.5 0 0 0 3.425-2.78L14.7 30.121c.667.552 1.66 1.01 3.055 1.089-.23.875-.432 1.744-.57 2.595-.22 1.365-.333 2.619-.333 3.728 0 3.77 1.099 6.632 3.264 8.504 2.017 1.744 4.632 2.629 7.772 2.629 2.028 0 3.925-.34 5.639-1.007a18.245 18.245 0 0 0 4.223-2.322c.168.2.342.391.525.573a9.013 9.013 0 0 0 3.327 2.14c2.297.83 4.97.8 7.115.021a11.855 11.855 0 0 0 2.903-1.536c1.453 1.222 3.27 1.843 5.404 1.843.864 0 1.83-.103 2.866-.303 1.293-.247 2.594-.807 3.865-1.662l.173-.12a8.901 8.901 0 0 0 2.922 1.756c2.295.83 4.971.8 7.112.022a11.823 11.823 0 0 0 2.905-1.536c1.453 1.222 3.27 1.843 5.404 1.843.865 0 1.832-.103 2.865-.303 1.232-.235 2.47-.754 3.68-1.54 2.129 1.852 4.897 2.524 8.14 1.898a9.968 9.968 0 0 0 2.733-.985c.419-.22.837-.48 1.25-.778 1.04.935 2.824 1.996 5.571 1.996.464 0 .944-.032 1.45-.096l-1.61 7.581a3.504 3.504 0 0 0 .98 3.232 3.505 3.505 0 0 0 3.255.899l7.248-1.728a3.498 3.498 0 0 0 2.612-2.674L122 48.574c.498.061 1.03.092 1.597.092 2.03 0 3.896-.38 5.546-1.128 1.592-.72 2.989-1.687 4.15-2.872a15.79 15.79 0 0 0 2.81-3.943 24.793 24.793 0 0 0 1.677-4.25c.421-1.445.72-2.907.886-4.348.158-1.377.238-2.69.238-3.904 0-1.816-.202-3.339-.619-4.655z"/><path fill="#FF6E40" d="M138.386 23.466v-.003c-.455-1.43-1.118-2.641-1.973-3.6a7.999 7.999 0 0 0-3.312-2.24c-1.683-.599-3.61-.698-5.321-.46a3.499 3.499 0 0 0-2.979-1.662h-6.912a3.5 3.5 0 0 0-3.42 2.761 3.5 3.5 0 0 0-2.435-.985h-6.912c-.954 0-1.833.385-2.472 1.022a3.5 3.5 0 0 0-2.472-1.022h-6.912c-.408 0-.803.07-1.17.201l1.186-5.572a3.5 3.5 0 0 0-3.892-4.197l-7.103.96a3.5 3.5 0 0 0-2.953 2.733L78.1 17.133l-.024-.002a14.603 14.603 0 0 0-1.61-.094c-1.915 0-3.695.376-5.293 1.119a15.119 15.119 0 0 0-4.027 2.745c-.468.444-.913.918-1.33 1.419l2.217-10.414a3.5 3.5 0 0 0-3.892-4.197l-7.103.96a3.5 3.5 0 0 0-2.953 2.733l-1.232 5.731a14.61 14.61 0 0 0-1.634-.096c-1.915 0-3.695.376-5.292 1.118a15.092 15.092 0 0 0-4.028 2.746c-.157.15-.312.301-.463.457a7.013 7.013 0 0 0-1.21-1.785c-.774-.834-1.775-1.483-2.98-1.933-1.092-.406-2.347-.603-3.835-.603-2.123 0-4.076.394-5.804 1.172a14.9 14.9 0 0 0-3.433 2.14 7.723 7.723 0 0 0-.53-.829c-1.22-1.601-3.087-2.483-5.257-2.483-1.137 0-2.272.246-3.389.735a3.497 3.497 0 0 0-1.794-.495H6.293a3.5 3.5 0 0 0-3.424 2.774L-2.22 44.052a3.498 3.498 0 0 0 3.424 4.226h6.911a3.5 3.5 0 0 0 3.425-2.78L14.8 30.021c.667.552 1.66 1.01 3.055 1.089-.23.875-.432 1.744-.57 2.595-.22 1.365-.333 2.619-.333 3.728 0 3.77 1.099 6.632 3.264 8.504 2.017 1.744 4.632 2.629 7.772 2.629 2.028 0 3.925-.34 5.639-1.007a18.245 18.245 0 0 0 4.223-2.322c.168.2.342.391.525.573a9.013 9.013 0 0 0 3.327 2.14c2.297.83 4.97.8 7.115.021a11.855 11.855 0 0 0 2.903-1.536c1.453 1.222 3.27 1.843 5.404 1.843.864 0 1.83-.103 2.866-.303 1.293-.247 2.594-.807 3.865-1.662l.173-.12a8.901 8.901 0 0 0 2.922 1.756c2.295.83 4.971.8 7.112.022a11.823 11.823 0 0 0 2.905-1.536c1.453 1.222 3.27 1.843 5.404 1.843.865 0 1.832-.103 2.865-.303 1.232-.235 2.47-.754 3.68-1.54 2.129 1.852 4.897 2.524 8.14 1.898a9.968 9.968 0 0 0 2.733-.985c.419-.22.837-.48 1.25-.778 1.04.935 2.824 1.996 5.571 1.996.464 0 .944-.032 1.45-.096l-1.61 7.581a3.504 3.504 0 0 0 .98 3.232 3.505 3.505 0 0 0 3.255.899l7.248-1.728a3.498 3.498 0 0 0 2.612-2.674l1.556-7.306c.498.061 1.03.092 1.597.092 2.03 0 3.896-.38 5.546-1.128 1.592-.72 2.989-1.687 4.15-2.872a15.79 15.79 0 0 0 2.81-3.943 24.793 24.793 0 0 0 1.677-4.25c.421-1.445.72-2.907.886-4.348.158-1.377.238-2.69.238-3.904 0-1.816-.202-3.339-.619-4.655z"/><path fill="#FF6E40" d="M138.486 23.366v-.003c-.455-1.43-1.118-2.641-1.973-3.6a7.999 7.999 0 0 0-3.312-2.24c-1.683-.599-3.61-.698-5.321-.46a3.499 3.499 0 0 0-2.979-1.662h-6.912a3.5 3.5 0 0 0-3.42 2.761 3.5 3.5 0 0 0-2.435-.985h-6.912c-.954 0-1.833.385-2.472 1.022a3.5 3.5 0 0 0-2.472-1.022h-6.912c-.408 0-.803.07-1.17.201l1.186-5.572a3.5 3.5 0 0 0-3.892-4.197l-7.103.96a3.5 3.5 0 0 0-2.953 2.733L78.2 17.033l-.024-.002a14.603 14.603 0 0 0-1.61-.094c-1.915 0-3.695.376-5.293 1.119a15.119 15.119 0 0 0-4.027 2.745c-.468.444-.913.918-1.33 1.419l2.217-10.414a3.5 3.5 0 0 0-3.892-4.197l-7.103.96a3.5 3.5 0 0 0-2.953 2.733l-1.232 5.731a14.61 14.61 0 0 0-1.634-.096c-1.915 0-3.695.376-5.292 1.118A15.092 15.092 0 0 0 42 20.801c-.157.15-.312.301-.463.457a7.013 7.013 0 0 0-1.21-1.785c-.774-.834-1.775-1.483-2.98-1.933-1.092-.406-2.347-.603-3.835-.603-2.123 0-4.076.394-5.804 1.172a14.9 14.9 0 0 0-3.433 2.14 7.723 7.723 0 0 0-.53-.829c-1.22-1.601-3.087-2.483-5.257-2.483-1.137 0-2.272.246-3.389.735a3.497 3.497 0 0 0-1.794-.495H6.393a3.5 3.5 0 0 0-3.424 2.774L-2.12 43.952a3.498 3.498 0 0 0 3.424 4.226h6.911a3.5 3.5 0 0 0 3.425-2.78L14.9 29.921c.667.552 1.66 1.01 3.055 1.089-.23.875-.432 1.744-.57 2.595-.22 1.365-.333 2.619-.333 3.728 0 3.77 1.099 6.632 3.264 8.504 2.017 1.744 4.632 2.629 7.772 2.629 2.028 0 3.925-.34 5.639-1.007a18.245 18.245 0 0 0 4.223-2.322c.168.2.342.391.525.573a9.013 9.013 0 0 0 3.327 2.14c2.297.83 4.97.8 7.115.021a11.855 11.855 0 0 0 2.903-1.536c1.453 1.222 3.27 1.843 5.404 1.843.864 0 1.83-.103 2.866-.303 1.293-.247 2.594-.807 3.865-1.662l.173-.12a8.901 8.901 0 0 0 2.922 1.756c2.295.83 4.971.8 7.112.022a11.823 11.823 0 0 0 2.905-1.536c1.453 1.222 3.27 1.843 5.404 1.843.865 0 1.832-.103 2.865-.303 1.232-.235 2.47-.754 3.68-1.54 2.129 1.852 4.897 2.524 8.14 1.898a9.968 9.968 0 0 0 2.733-.985c.419-.22.837-.48 1.25-.778 1.04.935 2.824 1.996 5.571 1.996.464 0 .944-.032 1.45-.096l-1.61 7.581a3.504 3.504 0 0 0 .98 3.232 3.505 3.505 0 0 0 3.255.899l7.248-1.728a3.498 3.498 0 0 0 2.612-2.674l1.556-7.306c.498.061 1.03.092 1.597.092 2.03 0 3.896-.38 5.546-1.128 1.592-.72 2.989-1.687 4.15-2.872a15.79 15.79 0 0 0 2.81-3.943 24.793 24.793 0 0 0 1.677-4.25c.421-1.445.72-2.907.886-4.348.158-1.377.238-2.69.238-3.904 0-1.816-.202-3.339-.619-4.655z"/><path fill="#FF6E40" d="M138.586 23.266v-.003c-.455-1.43-1.118-2.641-1.973-3.6a7.999 7.999 0 0 0-3.312-2.24c-1.683-.599-3.61-.698-5.321-.46A3.499 3.499 0 0 0 125 15.301h-6.912a3.5 3.5 0 0 0-3.42 2.761 3.5 3.5 0 0 0-2.435-.985h-6.912c-.954 0-1.833.385-2.472 1.022a3.5 3.5 0 0 0-2.472-1.022h-6.912c-.408 0-.803.07-1.17.201l1.186-5.572a3.5 3.5 0 0 0-3.892-4.197l-7.103.96a3.5 3.5 0 0 0-2.953 2.733L78.3 16.933l-.024-.002a14.603 14.603 0 0 0-1.61-.094c-1.915 0-3.695.376-5.293 1.119a15.119 15.119 0 0 0-4.027 2.745c-.468.444-.913.918-1.33 1.419l2.217-10.414a3.5 3.5 0 0 0-3.892-4.197l-7.103.96a3.5 3.5 0 0 0-2.953 2.733l-1.232 5.731a14.61 14.61 0 0 0-1.634-.096c-1.915 0-3.695.376-5.292 1.118a15.092 15.092 0 0 0-4.028 2.746c-.157.15-.312.301-.463.457a7.013 7.013 0 0 0-1.21-1.785c-.774-.834-1.775-1.483-2.98-1.933-1.092-.406-2.347-.603-3.835-.603-2.123 0-4.076.394-5.804 1.172a14.9 14.9 0 0 0-3.433 2.14 7.723 7.723 0 0 0-.53-.829c-1.22-1.601-3.087-2.483-5.257-2.483-1.137 0-2.272.246-3.389.735a3.497 3.497 0 0 0-1.794-.495H6.493a3.5 3.5 0 0 0-3.424 2.774L-2.02 43.852a3.498 3.498 0 0 0 3.424 4.226h6.911a3.5 3.5 0 0 0 3.425-2.78L15 29.821c.667.552 1.66 1.01 3.055 1.089-.23.875-.432 1.744-.57 2.595-.22 1.365-.333 2.619-.333 3.728 0 3.77 1.099 6.632 3.264 8.504 2.017 1.744 4.632 2.629 7.772 2.629 2.028 0 3.925-.34 5.639-1.007a18.245 18.245 0 0 0 4.223-2.322c.168.2.342.391.525.573a9.013 9.013 0 0 0 3.327 2.14c2.297.83 4.97.8 7.115.021a11.855 11.855 0 0 0 2.903-1.536c1.453 1.222 3.27 1.843 5.404 1.843.864 0 1.83-.103 2.866-.303 1.293-.247 2.594-.807 3.865-1.662l.173-.12a8.901 8.901 0 0 0 2.922 1.756c2.295.83 4.971.8 7.112.022a11.823 11.823 0 0 0 2.905-1.536c1.453 1.222 3.27 1.843 5.404 1.843.865 0 1.832-.103 2.865-.303 1.232-.235 2.47-.754 3.68-1.54 2.129 1.852 4.897 2.524 8.14 1.898a9.968 9.968 0 0 0 2.733-.985c.419-.22.837-.48 1.25-.778 1.04.935 2.824 1.996 5.571 1.996.464 0 .944-.032 1.45-.096l-1.61 7.581a3.504 3.504 0 0 0 .98 3.232 3.505 3.505 0 0 0 3.255.899l7.248-1.728a3.498 3.498 0 0 0 2.612-2.674l1.556-7.306c.498.061 1.03.092 1.597.092 2.03 0 3.896-.38 5.546-1.128 1.592-.72 2.989-1.687 4.15-2.872a15.79 15.79 0 0 0 2.81-3.943 24.793 24.793 0 0 0 1.677-4.25c.421-1.445.72-2.907.886-4.348.158-1.377.238-2.69.238-3.904 0-1.816-.202-3.339-.619-4.655z"/><path fill="#FF6E40" d="M138.686 23.166v-.003c-.455-1.43-1.118-2.641-1.973-3.6a7.999 7.999 0 0 0-3.312-2.24c-1.683-.599-3.61-.698-5.321-.46a3.499 3.499 0 0 0-2.979-1.662h-6.912a3.5 3.5 0 0 0-3.42 2.761 3.5 3.5 0 0 0-2.435-.985h-6.912c-.954 0-1.833.385-2.472 1.022a3.5 3.5 0 0 0-2.472-1.022h-6.912c-.408 0-.803.07-1.17.201l1.186-5.572a3.5 3.5 0 0 0-3.892-4.197l-7.103.96a3.5 3.5 0 0 0-2.953 2.733L78.4 16.833l-.024-.002a14.603 14.603 0 0 0-1.61-.094c-1.915 0-3.695.376-5.293 1.119a15.119 15.119 0 0 0-4.027 2.745c-.468.444-.913.918-1.33 1.419l2.217-10.414a3.5 3.5 0 0 0-3.892-4.197l-7.103.96a3.5 3.5 0 0 0-2.953 2.733l-1.232 5.731a14.61 14.61 0 0 0-1.634-.096c-1.915 0-3.695.376-5.292 1.118a15.092 15.092 0 0 0-4.028 2.746c-.157.15-.312.301-.463.457a7.013 7.013 0 0 0-1.21-1.785c-.774-.834-1.775-1.483-2.98-1.933-1.092-.406-2.347-.603-3.835-.603-2.123 0-4.076.394-5.804 1.172a14.9 14.9 0 0 0-3.433 2.14 7.723 7.723 0 0 0-.53-.829c-1.22-1.601-3.087-2.483-5.257-2.483-1.137 0-2.272.246-3.389.735a3.497 3.497 0 0 0-1.794-.495H6.593a3.5 3.5 0 0 0-3.424 2.774L-1.92 43.752a3.498 3.498 0 0 0 3.424 4.226h6.911a3.5 3.5 0 0 0 3.425-2.78L15.1 29.721c.667.552 1.66 1.01 3.055 1.089-.23.875-.432 1.744-.57 2.595-.22 1.365-.333 2.619-.333 3.728 0 3.77 1.099 6.632 3.264 8.504 2.017 1.744 4.632 2.629 7.772 2.629 2.028 0 3.925-.34 5.639-1.007a18.245 18.245 0 0 0 4.223-2.322c.168.2.342.391.525.573a9.013 9.013 0 0 0 3.327 2.14c2.297.83 4.97.8 7.115.021a11.855 11.855 0 0 0 2.903-1.536c1.453 1.222 3.27 1.843 5.404 1.843.864 0 1.83-.103 2.866-.303 1.293-.247 2.594-.807 3.865-1.662l.173-.12a8.901 8.901 0 0 0 2.922 1.756c2.295.83 4.971.8 7.112.022a11.823 11.823 0 0 0 2.905-1.536c1.453 1.222 3.27 1.843 5.404 1.843.865 0 1.832-.103 2.865-.303 1.232-.235 2.47-.754 3.68-1.54 2.129 1.852 4.897 2.524 8.14 1.898a9.968 9.968 0 0 0 2.733-.985c.419-.22.837-.48 1.25-.778 1.04.935 2.824 1.996 5.571 1.996.464 0 .944-.032 1.45-.096l-1.61 7.581a3.504 3.504 0 0 0 .98 3.232 3.505 3.505 0 0 0 3.255.899l7.248-1.728a3.498 3.498 0 0 0 2.612-2.674l1.556-7.306c.498.061 1.03.092 1.597.092 2.03 0 3.896-.38 5.546-1.128 1.592-.72 2.989-1.687 4.15-2.872a15.79 15.79 0 0 0 2.81-3.943 24.793 24.793 0 0 0 1.677-4.25c.421-1.445.72-2.907.886-4.348.158-1.377.238-2.69.238-3.904 0-1.816-.202-3.339-.619-4.655z"/><path fill="#FF6E40" d="M138.786 23.066v-.003c-.455-1.43-1.118-2.641-1.973-3.6a7.999 7.999 0 0 0-3.312-2.24c-1.683-.599-3.61-.698-5.321-.46a3.499 3.499 0 0 0-2.979-1.662h-6.912a3.5 3.5 0 0 0-3.42 2.761 3.5 3.5 0 0 0-2.435-.985h-6.912c-.954 0-1.833.385-2.472 1.022a3.5 3.5 0 0 0-2.472-1.022h-6.912c-.408 0-.803.07-1.17.201l1.186-5.572a3.5 3.5 0 0 0-3.892-4.197l-7.103.96a3.5 3.5 0 0 0-2.953 2.733L78.5 16.733l-.024-.002a14.603 14.603 0 0 0-1.61-.094c-1.915 0-3.695.376-5.293 1.119a15.119 15.119 0 0 0-4.027 2.745c-.468.444-.913.918-1.33 1.419l2.217-10.414a3.5 3.5 0 0 0-3.892-4.197l-7.103.96a3.5 3.5 0 0 0-2.953 2.733l-1.232 5.731a14.61 14.61 0 0 0-1.634-.096c-1.915 0-3.695.376-5.292 1.118a15.092 15.092 0 0 0-4.028 2.746c-.157.15-.312.301-.463.457a7.013 7.013 0 0 0-1.21-1.785c-.774-.834-1.775-1.483-2.98-1.933-1.092-.406-2.347-.603-3.835-.603-2.123 0-4.076.394-5.804 1.172a14.9 14.9 0 0 0-3.433 2.14 7.723 7.723 0 0 0-.53-.829c-1.22-1.601-3.087-2.483-5.257-2.483-1.137 0-2.272.246-3.389.735a3.497 3.497 0 0 0-1.794-.495H6.693a3.5 3.5 0 0 0-3.424 2.774L-1.82 43.652a3.498 3.498 0 0 0 3.424 4.226h6.911a3.5 3.5 0 0 0 3.425-2.78L15.2 29.621c.667.552 1.66 1.01 3.055 1.089-.23.875-.432 1.744-.57 2.595-.22 1.365-.333 2.619-.333 3.728 0 3.77 1.099 6.632 3.264 8.504 2.017 1.744 4.632 2.629 7.772 2.629 2.028 0 3.925-.34 5.639-1.007a18.245 18.245 0 0 0 4.223-2.322c.168.2.342.391.525.573a9.013 9.013 0 0 0 3.327 2.14c2.297.83 4.97.8 7.115.021a11.855 11.855 0 0 0 2.903-1.536c1.453 1.222 3.27 1.843 5.404 1.843.864 0 1.83-.103 2.866-.303 1.293-.247 2.594-.807 3.865-1.662l.173-.12a8.901 8.901 0 0 0 2.922 1.756c2.295.83 4.971.8 7.112.022a11.823 11.823 0 0 0 2.905-1.536c1.453 1.222 3.27 1.843 5.404 1.843.865 0 1.832-.103 2.865-.303 1.232-.235 2.47-.754 3.68-1.54 2.129 1.852 4.897 2.524 8.14 1.898a9.968 9.968 0 0 0 2.733-.985c.419-.22.837-.48 1.25-.778 1.04.935 2.824 1.996 5.571 1.996.464 0 .944-.032 1.45-.096l-1.61 7.581a3.504 3.504 0 0 0 .98 3.232 3.505 3.505 0 0 0 3.255.899l7.248-1.728a3.498 3.498 0 0 0 2.612-2.674l1.556-7.306c.498.061 1.03.092 1.597.092 2.03 0 3.896-.38 5.546-1.128 1.592-.72 2.989-1.687 4.15-2.872a15.79 15.79 0 0 0 2.81-3.943 24.793 24.793 0 0 0 1.677-4.25c.421-1.445.72-2.907.886-4.348.158-1.377.238-2.69.238-3.904 0-1.816-.202-3.339-.619-4.655z"/><path fill="#FF6E40" d="M138.886 22.966v-.003c-.455-1.43-1.118-2.641-1.973-3.6a7.999 7.999 0 0 0-3.312-2.24c-1.683-.599-3.61-.698-5.321-.46a3.498 3.498 0 0 0-2.979-1.662h-6.912a3.5 3.5 0 0 0-3.42 2.761 3.5 3.5 0 0 0-2.435-.985h-6.912c-.954 0-1.833.385-2.472 1.022a3.5 3.5 0 0 0-2.472-1.022h-6.912c-.408 0-.803.07-1.17.201l1.186-5.572a3.5 3.5 0 0 0-3.892-4.197l-7.103.96a3.5 3.5 0 0 0-2.953 2.733L78.6 16.633l-.024-.002a14.603 14.603 0 0 0-1.61-.094c-1.915 0-3.695.376-5.293 1.119a15.119 15.119 0 0 0-4.027 2.745c-.468.444-.913.918-1.33 1.419l2.217-10.414a3.5 3.5 0 0 0-3.892-4.197l-7.103.96a3.5 3.5 0 0 0-2.953 2.733l-1.232 5.731a14.61 14.61 0 0 0-1.634-.096c-1.915 0-3.695.376-5.292 1.118a15.092 15.092 0 0 0-4.028 2.746c-.157.15-.312.301-.463.457a7.013 7.013 0 0 0-1.21-1.785c-.774-.834-1.775-1.483-2.98-1.933-1.092-.406-2.347-.603-3.835-.603-2.123 0-4.076.394-5.804 1.172a14.9 14.9 0 0 0-3.433 2.14 7.723 7.723 0 0 0-.53-.829c-1.22-1.601-3.087-2.483-5.257-2.483-1.137 0-2.272.246-3.389.735a3.497 3.497 0 0 0-1.794-.495H6.793a3.5 3.5 0 0 0-3.424 2.774L-1.72 43.552a3.498 3.498 0 0 0 3.424 4.226h6.911a3.5 3.5 0 0 0 3.425-2.78L15.3 29.521c.667.552 1.66 1.01 3.055 1.089-.23.875-.432 1.744-.57 2.595-.22 1.365-.333 2.619-.333 3.728 0 3.77 1.099 6.632 3.264 8.504 2.017 1.744 4.632 2.629 7.772 2.629 2.028 0 3.925-.34 5.639-1.007a18.245 18.245 0 0 0 4.223-2.322c.168.2.342.391.525.573a9.013 9.013 0 0 0 3.327 2.14c2.297.83 4.97.8 7.115.021a11.855 11.855 0 0 0 2.903-1.536c1.453 1.222 3.27 1.843 5.404 1.843.864 0 1.83-.103 2.866-.303 1.293-.247 2.594-.807 3.865-1.662l.173-.12a8.901 8.901 0 0 0 2.922 1.756c2.295.83 4.971.8 7.112.022a11.823 11.823 0 0 0 2.905-1.536c1.453 1.222 3.27 1.843 5.404 1.843.865 0 1.832-.103 2.865-.303 1.232-.235 2.47-.754 3.68-1.54 2.129 1.852 4.897 2.524 8.14 1.898a9.968 9.968 0 0 0 2.733-.985c.419-.22.837-.48 1.25-.778 1.04.935 2.824 1.996 5.571 1.996.464 0 .944-.032 1.45-.096l-1.61 7.581a3.504 3.504 0 0 0 .98 3.232 3.505 3.505 0 0 0 3.255.899l7.248-1.728a3.498 3.498 0 0 0 2.612-2.674l1.556-7.306c.498.061 1.03.092 1.597.092 2.03 0 3.896-.38 5.546-1.128 1.592-.72 2.989-1.687 4.15-2.872a15.79 15.79 0 0 0 2.81-3.943 24.793 24.793 0 0 0 1.677-4.25c.421-1.445.72-2.907.886-4.348.158-1.377.238-2.69.238-3.904 0-1.816-.202-3.339-.619-4.655z"/><path fill="#FF6E40" d="M138.986 22.866v-.003c-.455-1.43-1.118-2.641-1.973-3.6a7.999 7.999 0 0 0-3.312-2.24c-1.683-.599-3.61-.698-5.321-.46a3.499 3.499 0 0 0-2.979-1.662h-6.912a3.5 3.5 0 0 0-3.42 2.761 3.5 3.5 0 0 0-2.435-.985h-6.912c-.954 0-1.833.385-2.472 1.022a3.5 3.5 0 0 0-2.472-1.022h-6.912c-.408 0-.803.07-1.17.201l1.186-5.572a3.5 3.5 0 0 0-3.892-4.197l-7.103.96a3.5 3.5 0 0 0-2.953 2.733L78.7 16.533l-.024-.002a14.603 14.603 0 0 0-1.61-.094c-1.915 0-3.695.376-5.293 1.119a15.119 15.119 0 0 0-4.027 2.745c-.468.444-.913.918-1.33 1.419l2.217-10.414a3.5 3.5 0 0 0-3.892-4.197l-7.103.96a3.5 3.5 0 0 0-2.953 2.733l-1.232 5.731a14.61 14.61 0 0 0-1.634-.096c-1.915 0-3.695.376-5.292 1.118a15.092 15.092 0 0 0-4.028 2.746c-.157.15-.312.301-.463.457a7.013 7.013 0 0 0-1.21-1.785c-.774-.834-1.775-1.483-2.98-1.933-1.092-.406-2.347-.603-3.835-.603-2.123 0-4.076.394-5.804 1.172a14.9 14.9 0 0 0-3.433 2.14 7.723 7.723 0 0 0-.53-.829c-1.22-1.601-3.087-2.483-5.257-2.483-1.137 0-2.272.246-3.389.735a3.497 3.497 0 0 0-1.794-.495H6.893a3.5 3.5 0 0 0-3.424 2.774L-1.62 43.452a3.498 3.498 0 0 0 3.424 4.226h6.911a3.5 3.5 0 0 0 3.425-2.78L15.4 29.421c.667.552 1.66 1.01 3.055 1.089-.23.875-.432 1.744-.57 2.595-.22 1.365-.333 2.619-.333 3.728 0 3.77 1.099 6.632 3.264 8.504 2.017 1.744 4.632 2.629 7.772 2.629 2.028 0 3.925-.34 5.639-1.007a18.245 18.245 0 0 0 4.223-2.322c.168.2.342.391.525.573a9.013 9.013 0 0 0 3.327 2.14c2.297.83 4.97.8 7.115.021a11.855 11.855 0 0 0 2.903-1.536c1.453 1.222 3.27 1.843 5.404 1.843.864 0 1.83-.103 2.866-.303 1.293-.247 2.594-.807 3.865-1.662l.173-.12a8.901 8.901 0 0 0 2.922 1.756c2.295.83 4.971.8 7.112.022a11.823 11.823 0 0 0 2.905-1.536c1.453 1.222 3.27 1.843 5.404 1.843.865 0 1.832-.103 2.865-.303 1.232-.235 2.47-.754 3.68-1.54 2.129 1.852 4.897 2.524 8.14 1.898a9.968 9.968 0 0 0 2.733-.985c.419-.22.837-.48 1.25-.778 1.04.935 2.824 1.996 5.571 1.996.464 0 .944-.032 1.45-.096l-1.61 7.581a3.504 3.504 0 0 0 .98 3.232 3.505 3.505 0 0 0 3.255.899l7.248-1.728a3.498 3.498 0 0 0 2.612-2.674l1.556-7.306c.498.061 1.03.092 1.597.092 2.03 0 3.896-.38 5.546-1.128 1.592-.72 2.989-1.687 4.15-2.872a15.79 15.79 0 0 0 2.81-3.943 24.793 24.793 0 0 0 1.677-4.25c.421-1.445.72-2.907.886-4.348.158-1.377.238-2.69.238-3.904 0-1.816-.202-3.339-.619-4.655z"/><g><path fill="#FFF" d="M22.084 24.785c.145-.415.216-.832.216-1.248 0-.928-.28-1.76-.84-2.496-.56-.735-1.384-1.104-2.472-1.104-.96 0-1.944.32-2.951.96a18.353 18.353 0 0 0-2.905 2.304l.673-3.024H6.893l-5.088 24h6.911l3.84-18.24c.64-.576 1.232-1.04 1.777-1.392a3.127 3.127 0 0 1 1.728-.528c.351 0 .567.16.647.48.08.32.168.664.265 1.032.095.368.263.713.504 1.032.24.32.695.48 1.368.48.575 0 1.08-.103 1.511-.312.433-.208.792-.48 1.08-.816s.504-.711.648-1.128zM135.65 23.921c-.305-.96-.72-1.736-1.249-2.328a4.507 4.507 0 0 0-1.872-1.272 6.76 6.76 0 0 0-2.28-.384c-1.216 0-2.28.192-3.191.576-.912.384-1.721.88-2.424 1.488l.767-3.6h-6.912l-3.646 17.185h-.001c-.353 1.216-.857 2.223-1.512 3.023-.656.801-1.448 1.2-2.376 1.2-.672 0-1.169-.127-1.488-.383-.32-.256-.48-.721-.48-1.393 0-.48.064-.991.192-1.536l3.456-16.32h-6.912l-3.264 15.409c-.353 1.216-.848 2.223-1.488 3.023-.64.801-1.424 1.2-2.352 1.2-.545 0-.92-.191-1.128-.576-.209-.384-.312-.847-.312-1.391 0-.416.049-.865.144-1.345l3.456-16.32h-6.912l-3.263 15.409-.002.007c-.352 1.212-.856 2.218-1.51 3.016-.656.801-1.448 1.2-2.376 1.2-.672 0-1.168-.127-1.487-.383-.32-.256-.48-.721-.48-1.393 0-.48.063-.991.191-1.536l5.52-25.92-7.104.96-2.352 10.944c-.065-.576-.232-1.032-.504-1.368a2.702 2.702 0 0 0-.984-.768c-.384-.175-.792-.288-1.224-.336s-.84-.072-1.224-.072c-1.409 0-2.68.264-3.816.792a11.561 11.561 0 0 0-3.096 2.112c-.928.88-1.728 1.896-2.4 3.048s-1.233 2.352-1.68 3.6a23.144 23.144 0 0 0-1.008 3.744 19.846 19.846 0 0 0-.336 3.504c0 .154.01.294.014.443-.26.532-.559 1.01-.901 1.43-.657.8-1.45 1.2-2.377 1.2-.672 0-1.168-.128-1.488-.384-.32-.256-.48-.721-.48-1.393 0-.48.064-.991.192-1.536l5.52-25.92-7.104.96-2.352 10.944c-.064-.576-.232-1.032-.504-1.368a2.704 2.704 0 0 0-.983-.768c-.385-.175-.792-.288-1.225-.336s-.84-.072-1.224-.072c-1.408 0-2.68.264-3.816.792a11.553 11.553 0 0 0-3.095 2.112 13.65 13.65 0 0 0-2.4 3.048 21.626 21.626 0 0 0-1.68 3.6 23.096 23.096 0 0 0-1.009 3.744 20.241 20.241 0 0 0-.313 3.05c-.391.414-.783.818-1.173 1.198a12.188 12.188 0 0 1-1.92 1.536 9.541 9.541 0 0 1-2.16 1.033c-.769.257-1.633.383-2.593.383-1.152 0-2.015-.263-2.592-.792s-.863-1.608-.863-3.24c0-.288.007-.592.024-.912.015-.32.04-.655.07-1.008a13.523 13.523 0 0 0 4.135-.936 12.317 12.317 0 0 0 3.513-2.112 10.183 10.183 0 0 0 2.437-3.096 8.218 8.218 0 0 0 .908-3.792c0-.607-.072-1.183-.216-1.728a3.422 3.422 0 0 0-.816-1.464c-.4-.432-.944-.775-1.632-1.032-.688-.256-1.56-.384-2.616-.384-1.632 0-3.088.288-4.367.864-1.28.576-2.4 1.344-3.36 2.304-.96.96-1.777 2.04-2.449 3.24s-1.208 2.424-1.607 3.672a25.058 25.058 0 0 0-.889 3.648c-.192 1.184-.288 2.24-.288 3.168 0 2.72.684 4.673 2.054 5.856 1.37 1.185 3.196 1.777 5.482 1.777 1.6 0 3.056-.257 4.369-.769a14.603 14.603 0 0 0 3.6-2.015 17.552 17.552 0 0 0 2.927-2.833c.045-.054.083-.111.127-.166.088.62.22 1.18.4 1.678.352.977.832 1.769 1.44 2.376a5.509 5.509 0 0 0 2.04 1.32 6.94 6.94 0 0 0 2.377.409c.863 0 1.647-.128 2.352-.384a8.317 8.317 0 0 0 1.944-1.008 9.136 9.136 0 0 0 1.607-1.44c.48-.544.896-1.088 1.249-1.632.191 1.376.695 2.416 1.512 3.12.816.704 1.88 1.056 3.192 1.056.64 0 1.375-.08 2.208-.24.831-.16 1.687-.536 2.568-1.129.879-.591 1.744-1.456 2.592-2.591.03-.04.056-.089.086-.129.028.09.05.187.08.272.352.977.833 1.769 1.441 2.376a5.505 5.505 0 0 0 2.04 1.32 6.935 6.935 0 0 0 2.376.409c.864 0 1.648-.128 2.352-.384s1.351-.592 1.944-1.008a9.157 9.157 0 0 0 1.609-1.44 13.84 13.84 0 0 0 1.247-1.632c.192 1.376.696 2.416 1.512 3.12.816.704 1.88 1.056 3.192 1.056.64 0 1.376-.08 2.208-.24.832-.16 1.687-.536 2.568-1.129.879-.59 1.742-1.454 2.589-2.588.196 1.249.648 2.213 1.37 2.877.991.912 2.208 1.368 3.648 1.368a8.63 8.63 0 0 0 1.632-.168 6.473 6.473 0 0 0 1.776-.649c.608-.319 1.224-.775 1.848-1.368.624-.59 1.24-1.383 1.848-2.376.16 1.505.648 2.64 1.464 3.408.816.769 1.912 1.153 3.288 1.153.64 0 1.376-.096 2.208-.288s1.687-.6 2.568-1.224c.542-.384 1.077-.884 1.606-1.475l-3.118 14.699 7.248-1.728 2.496-11.713c.255.45.695.849 1.32 1.2s1.543.529 2.76.529c1.535 0 2.903-.273 4.103-.817 1.2-.543 2.233-1.255 3.096-2.135a12.255 12.255 0 0 0 2.185-3.073 21.124 21.124 0 0 0 1.44-3.647c.367-1.265.623-2.52.768-3.769.143-1.248.215-2.416.215-3.504 0-1.44-.152-2.64-.456-3.6zm-106.03 4.77c.4-1.146.856-2.174 1.368-3.08.512-.908 1.056-1.649 1.632-2.221.576-.574 1.168-.86 1.776-.86.448 0 .76.174.937.525.175.35.263.828.263 1.432a7.39 7.39 0 0 1-.552 2.795 8.007 8.007 0 0 1-1.512 2.412 8.106 8.106 0 0 1-2.232 1.72c-.848.445-1.736.7-2.664.763.256-1.178.584-2.34.984-3.486zm23.4 6.895c-.161.704-.384 1.32-.672 1.847s-.624.968-1.009 1.32a4.326 4.326 0 0 1-1.175.793c-.4.176-.777.263-1.128.263-.225 0-.473-.023-.744-.072-.273-.048-.528-.191-.769-.431-.24-.24-.448-.608-.624-1.105-.176-.495-.263-1.207-.263-2.136 0-1.12.16-2.44.48-3.96.32-1.52.767-2.96 1.343-4.32.577-1.36 1.28-2.512 2.112-3.456.832-.943 1.76-1.416 2.784-1.416.769 0 1.288.24 1.56.72s.409.864.409 1.152l-2.304 10.8zm25.247 0c-.16.704-.384 1.32-.672 1.847s-.624.968-1.008 1.32-.776.617-1.176.793c-.4.176-.776.263-1.128.263-.224 0-.472-.023-.744-.072-.272-.048-.528-.191-.768-.431s-.449-.608-.624-1.105c-.176-.495-.264-1.207-.264-2.136 0-1.12.16-2.44.48-3.96.32-1.52.768-2.96 1.344-4.32.576-1.36 1.28-2.512 2.112-3.456.831-.943 1.76-1.416 2.785-1.416.767 0 1.287.24 1.56.72.27.48.407.864.407 1.152l-2.304 10.8zm50.926-4.297c-.224 1.488-.6 2.896-1.128 4.225s-1.223 2.456-2.087 3.384c-.865.928-1.92 1.392-3.168 1.392-.545 0-.96-.12-1.248-.36s-.48-.488-.577-.745l2.832-13.44c.449-.768.976-1.352 1.584-1.752.608-.4 1.184-.6 1.728-.6.224 0 .473.032.744.096.272.065.528.233.769.504.24.273.447.672.624 1.2.174.528.263 1.257.263 2.184 0 1.12-.112 2.424-.336 3.912z"/></g></svg><svg id="twitter-box" viewBox="0 0 24 24" width="24" height="24"><path d="M17.71 9.33c-.07 4.62-3.02 7.78-7.43 7.98-1.82.08-3.13-.5-4.28-1.23 1.34.21 3-.32 3.9-1.08-1.32-.14-2.09-.81-2.46-1.88.38.06.78.04 1.14-.03-1.19-.4-2.04-1.14-2.08-2.68.33.16.68.3 1.14.33-.89-.51-1.54-2.36-.79-3.58 1.32 1.45 2.91 2.63 5.52 2.79-.66-2.8 3.05-4.32 4.6-2.45.66-.12 1.19-.36 1.71-.64-.21.64-.62 1.11-1.12 1.47.54-.07 1.03-.2 1.44-.41-.25.53-.81 1.01-1.29 1.41M20 2H4a2 2 0 0 0-2 2v16a2 2 0 0 0 2 2h16a2 2 0 0 0 2-2V4a2 2 0 0 0-2-2z"/></svg><svg id="twitter" viewBox="0 0 182.66667 150.66667" width="182.26" height="148.12"><defs><clipPath id="a"><path d="M0 10.012h1366.9v1110.9H0z"/></clipPath></defs><g clip-path="url(#a)" transform="matrix(.1333 0 0 -.1333 0 150.67)"><path d="M1366.9 989.39c-50.27-22.309-104.33-37.387-161.05-44.18 57.89 34.723 102.34 89.679 123.28 155.15-54.18-32.15-114.18-55.47-178.09-68.04-51.13 54.49-124.02 88.55-204.68 88.55-154.89 0-280.43-125.55-280.43-280.43 0-21.988 2.457-43.398 7.258-63.91-233.08 11.68-439.72 123.36-578.04 293.01-24.141-41.4-37.969-89.567-37.969-140.97 0-97.308 49.489-183.13 124.76-233.44-45.969 1.437-89.218 14.058-127.03 35.078-.043-1.18-.043-2.348-.043-3.52 0-135.9 96.68-249.22 224.96-275-23.512-6.41-48.281-9.8-73.86-9.8a279.245 279.245 0 0 0-52.781 5c35.711-111.41 139.26-192.5 262-194.77-96.058-75.23-216.96-120.04-348.36-120.04a573.814 573.814 0 0 0-66.918 3.91c124.16-79.568 271.55-125.98 429.94-125.98 515.82 0 797.86 427.31 797.86 797.93 0 12.153-.28 24.223-.79 36.25 54.77 39.571 102.31 88.95 139.93 145.2" fill="#55ACEE"/></g></svg></defs></svg>